<svg width="70" height="70" viewBox="0 0 70 70" fill="none" xmlns="http://www.w3.org/2000/svg">
<g clip-path="url(#clip0_81_11676)">
<path d="M62 17H9V54H62V17Z" fill="#74ACDF"/>
<path d="M62 29H9V40.0419H62V29Z" fill="white"/>
<path d="M35.2905 34.6072L37.1756 38.7142C37.1756 38.7142 37.208 38.7927 37.2604 38.7711C37.3128 38.7494 37.2802 38.6709 37.2802 38.6709L35.7091 34.4338M35.664 36.0318C35.6411 36.6564 36.0253 36.9999 35.975 37.5577C35.9249 38.1155 36.2312 38.4308 36.3023 38.6477C36.3734 38.8647 36.2254 38.9944 36.2892 39.0252C36.353 39.0561 36.4925 38.8847 36.4471 38.5764C36.4016 38.268 36.1675 38.1764 36.2225 37.4952C36.2775 36.8139 35.9438 36.6552 36.0251 36.0338" fill="#F6B40E"/>
<path fill-rule="evenodd" clip-rule="evenodd" d="M37.3146 38.6578L35.7436 34.4211L35.6746 34.4467L37.2459 38.6845L37.2461 38.685L37.2462 38.6851L37.2462 38.6851L37.2463 38.6853C37.2464 38.6856 37.2466 38.6861 37.2469 38.6869C37.2474 38.6885 37.2483 38.6909 37.2491 38.6939C37.2509 38.7001 37.2527 38.7079 37.2532 38.7156C37.2545 38.7329 37.2499 38.7357 37.2464 38.7371M37.3146 38.6578L37.3149 38.6586C37.3151 38.6592 37.3154 38.6599 37.3157 38.6608C37.3159 38.6612 37.316 38.6616 37.3162 38.662C37.3172 38.6648 37.3185 38.6687 37.3198 38.6734C37.3225 38.6826 37.3256 38.6958 37.3267 38.7104C37.3286 38.7378 37.3233 38.785 37.2745 38.8052C37.2257 38.8253 37.1885 38.7957 37.1706 38.7749C37.161 38.7639 37.1539 38.7524 37.1492 38.744C37.1469 38.7397 37.1451 38.736 37.1438 38.7333C37.1434 38.7325 37.1431 38.7317 37.1428 38.7311C37.1426 38.7307 37.1424 38.7303 37.1423 38.73L37.1418 38.7289L36.0576 36.3669C36.0738 36.5005 36.1105 36.6134 36.1489 36.7307L36.1502 36.7345C36.2166 36.937 36.2871 37.1522 36.2592 37.4982C36.2321 37.8338 36.2763 38.0214 36.3314 38.1623C36.3495 38.2085 36.3682 38.2487 36.3869 38.2887C36.3976 38.3116 36.4083 38.3345 36.4188 38.3584C36.4469 38.4226 36.4715 38.4895 36.4835 38.5711C36.5072 38.7315 36.4831 38.859 36.4423 38.9441C36.4221 38.9863 36.3969 39.0197 36.3697 39.0407C36.3438 39.0608 36.3077 39.0752 36.2731 39.0585C36.2571 39.0507 36.2448 39.0379 36.2393 39.0203C36.2343 39.0047 36.2358 38.9891 36.2382 38.9769C36.2406 38.9644 36.2448 38.9509 36.2491 38.9379C36.2507 38.9331 36.2523 38.9284 36.254 38.9236C36.257 38.9146 36.2602 38.9054 36.2634 38.8952C36.2824 38.8353 36.2994 38.7573 36.2673 38.6593C36.2508 38.609 36.2202 38.5517 36.1819 38.4822C36.1789 38.4768 36.1759 38.4714 36.1729 38.4659C36.1372 38.4014 36.0968 38.3282 36.0597 38.2458C35.9786 38.066 35.9126 37.8413 35.9384 37.5545C35.9626 37.285 35.8824 37.067 35.7953 36.8327L35.794 36.8293C35.7076 36.5969 35.6155 36.3494 35.6273 36.0305L35.7008 36.0332C35.6897 36.3374 35.7773 36.5731 35.8643 36.8071L35.8647 36.808C35.9512 37.0408 36.0376 37.2732 36.0117 37.5611C35.9874 37.832 36.0494 38.0439 36.1268 38.2155C36.1627 38.2951 36.2017 38.3658 36.2375 38.4305C36.2405 38.436 36.2434 38.4413 36.2464 38.4467C36.2839 38.5148 36.3183 38.5783 36.3373 38.6364C36.3763 38.7553 36.3548 38.8506 36.3336 38.9175C36.3302 38.9284 36.3265 38.939 36.3233 38.9484C36.3218 38.953 36.3203 38.9573 36.319 38.9612C36.3147 38.9741 36.3119 38.9834 36.3105 38.9908C36.3105 38.9908 36.3105 38.9909 36.3105 38.9909C36.3137 38.9898 36.3184 38.9873 36.3246 38.9825C36.3402 38.9705 36.359 38.9475 36.3759 38.9122C36.4095 38.8422 36.4325 38.7299 36.4106 38.5818C36.3999 38.5093 36.3781 38.4491 36.3513 38.388C36.3422 38.3672 36.3321 38.3456 36.3217 38.3232C36.3023 38.2816 36.2816 38.2371 36.2628 38.1891C36.2032 38.0368 36.1579 37.838 36.1858 37.4923C36.2125 37.1611 36.1457 36.9573 36.08 36.7569L36.079 36.7536C36.024 36.5861 35.9701 36.42 35.9759 36.1887L35.2571 34.6227L35.324 34.592L35.9875 36.0375C35.9878 36.0347 35.9882 36.0319 35.9886 36.0291L36.0616 36.0387C36.0554 36.0864 36.0516 36.1312 36.05 36.1737L37.2094 38.6996L37.2096 38.7001L37.2096 38.7002L37.2097 38.7002L37.2097 38.7004C37.2098 38.7007 37.2101 38.7012 37.2104 38.702C37.2112 38.7035 37.2123 38.7058 37.2138 38.7085C37.2169 38.7141 37.2211 38.7209 37.2262 38.7267C37.2375 38.7398 37.2428 38.7386 37.2464 38.7371" fill="#85340A"/>
<path d="M35.2733 34.5205L35.4432 39.0363C35.4432 39.0363 35.4431 39.1212 35.4997 39.1213C35.5564 39.1213 35.5564 39.0363 35.5564 39.0363L35.7263 34.5205M35.0732 35.9796C34.8129 36.5479 35.0364 37.0123 34.7766 37.5083C34.5168 38.0045 34.6791 38.4131 34.6617 38.6407C34.6444 38.8683 34.4581 38.9315 34.5052 38.9844C34.5523 39.0374 34.7468 38.9324 34.8228 38.6301C34.8988 38.3278 34.7175 38.1536 35.0291 37.5453C35.3406 36.9369 35.0931 36.6627 35.4059 36.1196" fill="#F6B40E"/>
<path fill-rule="evenodd" clip-rule="evenodd" d="M35.5933 39.0372L35.7632 34.5219L35.6896 34.5191L35.5197 39.0356L35.5197 39.0362L35.5197 39.0362L35.5197 39.0363L35.5197 39.0365C35.5197 39.0368 35.5196 39.0374 35.5196 39.0382C35.5195 39.0399 35.5194 39.0424 35.519 39.0455C35.5183 39.0519 35.5169 39.0598 35.5145 39.0672C35.509 39.0836 35.5038 39.0844 35.4999 39.0844M35.5933 39.0372L35.5933 39.0381C35.5933 39.0387 35.5933 39.0395 35.5932 39.0405C35.5932 39.0409 35.5932 39.0413 35.5932 39.0417C35.593 39.0447 35.5928 39.0488 35.5922 39.0536C35.5912 39.0632 35.589 39.0765 35.5844 39.0904C35.5757 39.1165 35.5527 39.1581 35.4999 39.1581C35.4471 39.158 35.4241 39.1164 35.4154 39.0903C35.4108 39.0764 35.4086 39.0631 35.4076 39.0535C35.407 39.0487 35.4068 39.0446 35.4066 39.0416C35.4066 39.0407 35.4066 39.0399 35.4065 39.0392C35.4065 39.0387 35.4065 39.0383 35.4065 39.038L35.4065 39.0368L35.3088 36.4397C35.2725 36.5693 35.2632 36.6876 35.2539 36.8107L35.2536 36.8148C35.2374 37.0272 35.2202 37.2531 35.062 37.562C34.9085 37.8617 34.8776 38.0519 34.8746 38.2032C34.8736 38.2528 34.8755 38.2971 34.8775 38.3412C34.8786 38.3665 34.8797 38.3917 34.8802 38.4178C34.8817 38.4879 34.8788 38.5591 34.8587 38.6391C34.8192 38.7963 34.7481 38.9049 34.6779 38.9679C34.643 38.9992 34.607 39.0204 34.5738 39.0294C34.5422 39.0381 34.5033 39.0375 34.4778 39.0089C34.4659 38.9956 34.4595 38.979 34.4611 38.9606C34.4625 38.9444 34.4699 38.9305 34.4767 38.9202C34.4837 38.9094 34.4928 38.8986 34.5018 38.8883C34.5051 38.8844 34.5084 38.8807 34.5117 38.8769C34.518 38.8698 34.5244 38.8625 34.5313 38.8543C34.5718 38.8062 34.6173 38.7407 34.6252 38.6378C34.6292 38.585 34.6228 38.5204 34.614 38.4416C34.6133 38.4354 34.6126 38.4293 34.6119 38.423C34.6037 38.3498 34.5944 38.2667 34.5916 38.1763C34.5855 37.9793 34.6105 37.7464 34.7441 37.4912C34.8696 37.2515 34.8789 37.0194 34.8881 36.7697L34.8882 36.766C34.8973 36.5182 34.907 36.2544 35.0398 35.9642L35.1068 35.9949C34.9801 36.2716 34.9708 36.523 34.9617 36.7724L34.9616 36.7734C34.9525 37.0216 34.9434 37.2694 34.8093 37.5254C34.6831 37.7664 34.6594 37.9859 34.6652 38.1741C34.6679 38.2613 34.6769 38.3415 34.6852 38.4151C34.6859 38.4212 34.6865 38.4273 34.6872 38.4334C34.6958 38.5107 34.7033 38.5825 34.6986 38.6434C34.6891 38.7682 34.6328 38.8481 34.5876 38.9018C34.5803 38.9105 34.5729 38.9189 34.5663 38.9264C34.5631 38.93 34.5601 38.9334 34.5574 38.9365C34.5485 38.9468 34.5423 38.9544 34.5382 38.9606C34.5382 38.9606 34.5382 38.9607 34.5381 38.9607C34.5416 38.9609 34.5468 38.9605 34.5544 38.9584C34.5734 38.9532 34.5996 38.9392 34.6287 38.9131C34.6865 38.8612 34.7508 38.7662 34.7872 38.6211C34.8051 38.55 34.808 38.486 34.8066 38.4194C34.8061 38.3966 34.8051 38.3729 34.804 38.3482C34.802 38.3023 34.7999 38.2532 34.8009 38.2017C34.8042 38.0382 34.8384 37.8372 34.9965 37.5285C35.1479 37.2327 35.1642 37.0188 35.1802 36.8086L35.1804 36.8051C35.1938 36.6294 35.2075 36.4553 35.3014 36.2438L35.2366 34.5219L35.3102 34.5191L35.37 36.1085C35.3714 36.1061 35.3728 36.1037 35.3742 36.1012L35.438 36.138C35.414 36.1796 35.3934 36.2196 35.3756 36.2583L35.4801 39.0356L35.4801 39.0361L35.4801 39.0362L35.4801 39.0363L35.4801 39.0364C35.4801 39.0367 35.4802 39.0373 35.4802 39.0382C35.4803 39.0398 35.4804 39.0424 35.4808 39.0455C35.4815 39.0519 35.4828 39.0597 35.4853 39.0671C35.4907 39.0835 35.496 39.0844 35.4999 39.0844" fill="#85340A"/>
<path d="M35.2905 34.4339L33.7194 38.6709C33.7194 38.6709 33.6868 38.7493 33.7391 38.7711C33.7914 38.7928 33.8239 38.7143 33.8239 38.7143L35.709 34.6072M34.5473 35.7053C34.0894 36.1307 34.1181 36.6453 33.6882 37.0042C33.2583 37.3632 33.252 37.8028 33.1488 38.0064C33.0457 38.21 32.8494 38.1971 32.8726 38.264C32.8959 38.331 33.1158 38.3085 33.3017 38.0583C33.4876 37.808 33.3868 37.5778 33.9074 37.1349C34.428 36.6921 34.3043 36.344 34.8011 35.962" fill="#F6B40E"/>
<path fill-rule="evenodd" clip-rule="evenodd" d="M33.8578 38.7292L35.7427 34.6226L35.6758 34.5919L33.7904 38.6995L33.7902 38.7L33.7901 38.7001L33.7901 38.7002L33.7901 38.7003C33.7899 38.7006 33.7897 38.7012 33.7893 38.7019C33.7886 38.7034 33.7875 38.7057 33.786 38.7084C33.7829 38.7141 33.7786 38.7208 33.7735 38.7267C33.7622 38.7398 33.757 38.7385 33.7534 38.7371M33.8578 38.7292L33.8575 38.73C33.8572 38.7306 33.8569 38.7313 33.8565 38.7322C33.8563 38.7325 33.8561 38.7329 33.856 38.7333C33.8547 38.736 33.8529 38.7397 33.8505 38.7439C33.8459 38.7524 33.8388 38.7639 33.8292 38.7749C33.8112 38.7957 33.774 38.8253 33.7252 38.8051C33.6765 38.7848 33.6711 38.7376 33.6731 38.7102C33.6742 38.6956 33.6773 38.6824 33.68 38.6732C33.6813 38.6685 33.6826 38.6646 33.6836 38.6618C33.684 38.661 33.6842 38.6602 33.6845 38.6595C33.6846 38.6591 33.6848 38.6587 33.6849 38.6584L33.6853 38.6574L34.5889 36.2205C34.5059 36.3264 34.452 36.4322 34.3962 36.5423L34.3944 36.5459C34.2982 36.736 34.1959 36.9381 33.9315 37.163C33.675 37.3811 33.5736 37.545 33.5129 37.6836C33.493 37.7291 33.4779 37.7707 33.4628 37.8122C33.4542 37.836 33.4455 37.8597 33.436 37.8841C33.4106 37.9494 33.3806 38.014 33.3314 38.0802C33.2348 38.2104 33.1276 38.2835 33.0386 38.3148C32.9944 38.3304 32.953 38.3362 32.9189 38.3319C32.8864 38.3277 32.8506 38.3123 32.838 38.2761C32.8322 38.2593 32.8326 38.2415 32.8411 38.2251C32.8486 38.2107 32.8607 38.2007 32.871 38.1937C32.8816 38.1865 32.8941 38.18 32.9063 38.1739C32.9109 38.1716 32.9154 38.1694 32.9199 38.1672C32.9284 38.163 32.9371 38.1587 32.9466 38.1538C33.0024 38.1249 33.0696 38.0818 33.1162 37.9897C33.1401 37.9425 33.159 37.8803 33.181 37.8041C33.1827 37.7982 33.1844 37.7922 33.1862 37.7862C33.2066 37.7154 33.2298 37.635 33.2618 37.5505C33.3316 37.3661 33.4438 37.1605 33.6648 36.9759C33.8726 36.8025 33.9699 36.5916 34.074 36.3644L34.0755 36.3611C34.1787 36.1356 34.2886 35.8955 34.5224 35.6783L34.5725 35.7323C34.3496 35.9394 34.2448 36.1681 34.1409 36.395L34.1405 36.396C34.0371 36.6217 33.9339 36.8472 33.712 37.0324C33.5032 37.2068 33.3973 37.4005 33.3306 37.5766C33.2997 37.6582 33.2774 37.7358 33.2569 37.8069C33.2551 37.8128 33.2534 37.8187 33.2517 37.8246C33.2301 37.8993 33.2095 37.9685 33.1819 38.023C33.1254 38.1346 33.0428 38.1869 32.9805 38.2192C32.9704 38.2244 32.9603 38.2294 32.9514 38.2338C32.947 38.2359 32.943 38.2379 32.9393 38.2397C32.9271 38.2458 32.9185 38.2505 32.9124 38.2547C32.9123 38.2547 32.9123 38.2547 32.9122 38.2548C32.9153 38.2562 32.9203 38.2578 32.9282 38.2588C32.9477 38.2613 32.9772 38.2584 33.0142 38.2454C33.0874 38.2196 33.1831 38.1564 33.2723 38.0363C33.3161 37.9774 33.3432 37.9194 33.3674 37.8573C33.3757 37.8361 33.3838 37.8138 33.3923 37.7906C33.408 37.7474 33.4248 37.7013 33.4455 37.6541C33.511 37.5043 33.6196 37.3316 33.8837 37.1069C34.1369 36.8916 34.2337 36.7002 34.329 36.5121L34.3305 36.509C34.4101 36.3518 34.4894 36.1961 34.6571 36.0367L35.2562 34.4211L35.3252 34.4467L34.7722 35.938C34.7744 35.9363 34.7767 35.9345 34.7789 35.9328L34.8238 35.9912C34.7857 36.0205 34.7513 36.0496 34.7201 36.0785L33.7539 38.6844L33.7536 38.6849L33.7536 38.6849L33.7536 38.685L33.7535 38.6851C33.7534 38.6855 33.7532 38.686 33.7529 38.6868C33.7524 38.6884 33.7515 38.6908 33.7507 38.6938C33.7489 38.6999 33.7471 38.7077 33.7466 38.7155C33.7453 38.7327 33.7499 38.7356 33.7534 38.7371" fill="#85340A"/>
<path d="M35.3396 34.3603L32.2666 37.6735C32.2666 37.6735 32.2065 37.7336 32.2465 37.7737C32.2865 37.8137 32.3466 37.7536 32.3466 37.7536L35.6599 34.6806M34.1664 35.2505C33.5805 35.4683 33.4102 35.9547 32.8757 36.1218C32.3411 36.2889 32.167 36.6926 31.9938 36.8413C31.8206 36.99 31.6441 36.9029 31.64 36.9736C31.6359 37.0444 31.8476 37.1078 32.1152 36.9477C32.3827 36.7877 32.3776 36.5363 33.0281 36.3265C33.6785 36.1166 33.6975 35.7476 34.3027 35.5848" fill="#F6B40E"/>
<path fill-rule="evenodd" clip-rule="evenodd" d="M32.372 37.7802L35.685 34.7076L35.6349 34.6536L32.3211 37.727L32.3207 37.7274L32.3206 37.7275L32.3206 37.7275L32.3205 37.7276C32.3202 37.7279 32.3198 37.7283 32.3192 37.7288C32.3179 37.7299 32.316 37.7316 32.3136 37.7336C32.3086 37.7376 32.302 37.7422 32.2951 37.7457C32.2796 37.7534 32.2753 37.7503 32.2726 37.7476M32.372 37.7802L32.3714 37.7808C32.3709 37.7813 32.3703 37.7818 32.3696 37.7825C32.3693 37.7827 32.3691 37.783 32.3687 37.7833C32.3665 37.7853 32.3634 37.788 32.3596 37.7911C32.3521 37.7971 32.3411 37.805 32.3281 37.8115C32.3035 37.8238 32.2578 37.837 32.2205 37.7996C32.1832 37.7623 32.1963 37.7166 32.2086 37.692C32.2152 37.6789 32.2231 37.6679 32.2291 37.6605C32.2322 37.6566 32.2349 37.6535 32.2369 37.6513C32.2375 37.6507 32.2381 37.6501 32.2385 37.6496C32.2388 37.6492 32.2391 37.6489 32.2394 37.6487L32.2402 37.6479L34.0075 35.7423C33.8903 35.8083 33.8 35.8854 33.7063 35.9658L33.7033 35.9685C33.5416 36.1073 33.3698 36.2548 33.0394 36.3614C32.719 36.4648 32.5626 36.5774 32.4535 36.6823C32.4177 36.7167 32.3878 36.7493 32.358 36.7819C32.3409 36.8006 32.3239 36.8192 32.3058 36.838C32.2573 36.8886 32.2049 36.9369 32.1341 36.9792C31.995 37.0625 31.8679 37.0891 31.7737 37.0839C31.7269 37.0814 31.6865 37.0709 31.6566 37.0538C31.6281 37.0376 31.601 37.0097 31.6033 36.9714C31.6043 36.9536 31.6115 36.9374 31.6256 36.9255C31.6381 36.915 31.653 36.9104 31.6652 36.9079C31.6778 36.9053 31.6919 36.9041 31.7055 36.9031C31.7105 36.9027 31.7155 36.9024 31.7206 36.9021C31.73 36.9015 31.7397 36.9008 31.7504 36.8999C31.813 36.8946 31.8916 36.8805 31.9698 36.8133C32.01 36.7788 32.0512 36.7285 32.1007 36.6666C32.1046 36.6618 32.1085 36.6569 32.1124 36.652C32.1584 36.5944 32.2105 36.529 32.2724 36.4632C32.4075 36.3195 32.5898 36.1725 32.8647 36.0866C33.123 36.0059 33.2936 35.8483 33.4767 35.6781L33.4794 35.6757C33.661 35.5069 33.8544 35.3271 34.1535 35.2159L34.1792 35.285C33.8939 35.391 33.7097 35.5622 33.5269 35.7321L33.5261 35.7328C33.3442 35.9018 33.1625 36.0706 32.8867 36.1568C32.627 36.238 32.455 36.3765 32.3261 36.5136C32.2663 36.5772 32.2159 36.6403 32.1698 36.6982C32.1659 36.703 32.1621 36.7078 32.1583 36.7126C32.1097 36.7733 32.0642 36.8293 32.0178 36.8691C31.9228 36.9506 31.8266 36.9673 31.7566 36.9733C31.7453 36.9743 31.7341 36.975 31.7242 36.9756C31.7194 36.976 31.7148 36.9762 31.7107 36.9765C31.6972 36.9775 31.6874 36.9785 31.6801 36.98C31.6801 36.98 31.68 36.98 31.68 36.98C31.6823 36.9826 31.6863 36.986 31.6932 36.9899C31.7102 36.9996 31.7387 37.0083 31.7777 37.0104C31.8552 37.0146 31.9679 36.9929 32.0962 36.916C32.1592 36.8784 32.2065 36.8352 32.2526 36.7871C32.2683 36.7707 32.2844 36.7531 32.3011 36.7349C32.3322 36.7011 32.3653 36.6649 32.4025 36.6292C32.5204 36.5159 32.6868 36.3978 33.0168 36.2914C33.333 36.1893 33.4958 36.0496 33.6557 35.9122L33.6584 35.91C33.7921 35.7951 33.9249 35.6817 34.1408 35.5985L35.3126 34.3352L35.3666 34.3853L34.285 35.5514C34.2877 35.5507 34.2904 35.5499 34.2931 35.5492L34.3122 35.6203C34.2658 35.6328 34.223 35.6465 34.1831 35.6613L32.2931 37.699L32.2927 37.6994L32.2927 37.6995L32.2926 37.6995L32.2925 37.6996C32.2923 37.6999 32.2919 37.7003 32.2913 37.7009C32.2902 37.7022 32.2885 37.7041 32.2866 37.7065C32.2826 37.7115 32.278 37.7181 32.2745 37.725C32.2667 37.7404 32.2698 37.7448 32.2726 37.7476" fill="#85340A"/>
<path d="M35.7855 36.1376C35.8155 36.7374 36.1556 37.003 36.0888 37.5497C36.2354 37.1174 35.8819 36.7823 35.902 36.1438M35.3953 34.5699L36.6863 37.3907L35.6045 34.4832" fill="#85340A"/>
<path d="M35.1449 36.1237C34.9431 36.6893 35.1556 37.0648 34.8847 37.5443C35.1856 37.201 34.9872 36.7562 35.2501 36.174M35.3843 34.526L35.4976 37.626L35.6108 34.5259" fill="#85340A"/>
<path d="M34.5584 35.8657C34.1555 36.3111 34.2082 36.7394 33.7745 37.0787C34.1838 36.8767 34.1708 36.3898 34.6364 35.9525M35.391 34.4813L34.3094 37.3887L35.6003 34.5679" fill="#85340A"/>
<path d="M34.1152 35.4031C33.5725 35.6604 33.4573 36.0762 32.9267 36.2237C33.3822 36.1937 33.5565 35.7389 34.154 35.5131M35.4142 34.4426L33.3022 36.7148L35.5744 34.6027" fill="#85340A"/>
<path d="M35.4133 34.311L31.3063 36.1961C31.3063 36.1961 31.2278 36.2285 31.2494 36.2809C31.2711 36.3333 31.3496 36.3007 31.3496 36.3007L35.5867 34.7296M33.9887 34.6845C33.3641 34.6616 33.0206 35.0458 32.4628 34.9955C31.905 34.9454 31.5897 35.2517 31.3728 35.3228C31.1558 35.3939 31.0261 35.2459 30.9953 35.3097C30.9644 35.3735 31.1358 35.5131 31.4442 35.4676C31.7525 35.4221 31.8441 35.188 32.5253 35.243C33.2066 35.298 33.3653 34.9643 33.9867 35.0456" fill="#F6B40E"/>
<path fill-rule="evenodd" clip-rule="evenodd" d="M31.3627 36.3351L35.5994 34.7641L35.5738 34.6951L31.336 36.2664L31.3355 36.2667L31.3354 36.2667L31.3354 36.2667L31.3352 36.2668C31.3349 36.2669 31.3344 36.2671 31.3336 36.2674C31.332 36.2679 31.3296 36.2688 31.3266 36.2696C31.3204 36.2714 31.3126 36.2732 31.3049 36.2737C31.2877 36.275 31.2848 36.2704 31.2834 36.2669M31.3627 36.3351L31.3619 36.3354C31.3613 36.3356 31.3606 36.3359 31.3597 36.3363C31.3593 36.3364 31.3589 36.3365 31.3585 36.3367C31.3557 36.3377 31.3518 36.339 31.3471 36.3404C31.3379 36.343 31.3247 36.3461 31.3101 36.3472C31.2828 36.3491 31.2355 36.3438 31.2153 36.295C31.1952 36.2462 31.2248 36.209 31.2456 36.1911C31.2566 36.1815 31.2681 36.1744 31.2766 36.1697C31.2808 36.1674 31.2845 36.1656 31.2872 36.1643C31.288 36.1639 31.2888 36.1636 31.2894 36.1633C31.2898 36.1631 31.2902 36.1629 31.2905 36.1628L31.2916 36.1623L33.6536 35.0782C33.5201 35.0943 33.4071 35.131 33.2898 35.1694L33.286 35.1707C33.0835 35.2371 32.8683 35.3076 32.5223 35.2797C32.1867 35.2526 31.9991 35.2968 31.8582 35.3519C31.812 35.37 31.7718 35.3887 31.7318 35.4074C31.7089 35.4181 31.686 35.4288 31.6621 35.4393C31.5979 35.4674 31.531 35.492 31.4494 35.504C31.2891 35.5277 31.1615 35.5036 31.0765 35.4628C31.0342 35.4426 31.0008 35.4174 30.9798 35.3902C30.9597 35.3643 30.9453 35.3282 30.962 35.2936C30.9698 35.2776 30.9826 35.2653 31.0002 35.2598C31.0158 35.2548 31.0314 35.2563 31.0436 35.2587C31.0562 35.2611 31.0696 35.2653 31.0826 35.2696C31.0874 35.2712 31.0921 35.2729 31.0969 35.2745C31.1059 35.2776 31.1151 35.2807 31.1253 35.2839C31.1852 35.3029 31.2632 35.3199 31.3612 35.2878C31.4115 35.2713 31.4688 35.2407 31.5383 35.2024C31.5437 35.1994 31.5491 35.1964 31.5546 35.1934C31.6191 35.1577 31.6923 35.1173 31.7747 35.0802C31.9545 34.9991 32.1792 34.9331 32.466 34.9589C32.7355 34.9832 32.9535 34.9029 33.1878 34.8158L33.1912 34.8145C33.4236 34.7281 33.6711 34.636 33.99 34.6478L33.9873 34.7214C33.6831 34.7102 33.4474 34.7978 33.2135 34.8848L33.2125 34.8852C32.9797 34.9717 32.7473 35.0582 32.4594 35.0322C32.1885 35.0079 31.9766 35.0699 31.805 35.1473C31.7254 35.1832 31.6547 35.2222 31.59 35.258C31.5845 35.261 31.5792 35.264 31.5738 35.2669C31.5057 35.3045 31.4422 35.3388 31.3841 35.3578C31.2652 35.3968 31.1699 35.3753 31.103 35.3541C31.0921 35.3507 31.0815 35.347 31.0721 35.3438C31.0675 35.3423 31.0632 35.3408 31.0593 35.3395C31.0465 35.3352 31.0371 35.3324 31.0298 35.331C31.0297 35.331 31.0296 35.331 31.0296 35.331C31.0308 35.3342 31.0332 35.3389 31.038 35.3451C31.0501 35.3607 31.073 35.3795 31.1083 35.3964C31.1783 35.43 31.2906 35.453 31.4387 35.4312C31.5113 35.4204 31.5714 35.3986 31.6325 35.3718C31.6533 35.3627 31.6749 35.3526 31.6973 35.3422C31.7389 35.3228 31.7834 35.3021 31.8314 35.2833C31.9837 35.2237 32.1825 35.1784 32.5282 35.2063C32.8594 35.233 33.0632 35.1662 33.2636 35.1005L33.2669 35.0995C33.4344 35.0446 33.6005 34.9906 33.8318 34.9964L35.3978 34.2776L35.4285 34.3445L33.983 35.008C33.9858 35.0083 33.9886 35.0087 33.9914 35.0091L33.9818 35.0821C33.9342 35.0759 33.8893 35.0721 33.8468 35.0705L31.3209 36.2299L31.3204 36.2301L31.3204 36.2301L31.3203 36.2302L31.3202 36.2302C31.3198 36.2304 31.3193 36.2306 31.3185 36.231C31.317 36.2317 31.3148 36.2328 31.312 36.2343C31.3064 36.2374 31.2996 36.2417 31.2938 36.2467C31.2807 36.258 31.2819 36.2633 31.2834 36.2669" fill="#85340A"/>
<path d="M35.5 34.2938L30.9842 34.4637C30.9842 34.4637 30.8993 34.4636 30.8992 34.5203C30.8992 34.5769 30.9842 34.5769 30.9842 34.5769L35.5 34.7468M34.0409 34.0937C33.4726 33.8334 33.0083 34.0569 32.5122 33.7971C32.016 33.5373 31.6074 33.6996 31.3798 33.6823C31.1522 33.6649 31.089 33.4786 31.0361 33.5257C30.9831 33.5728 31.0881 33.7673 31.3904 33.8433C31.6927 33.9193 31.8669 33.7381 32.4752 34.0496C33.0836 34.3611 33.3578 34.1136 33.9009 34.4264" fill="#F6B40E"/>
<path fill-rule="evenodd" clip-rule="evenodd" d="M30.9833 34.6138L35.4986 34.7837L35.5014 34.7101L30.9849 34.5402L30.9843 34.5402L30.9843 34.5402L30.9842 34.5402L30.9841 34.5402C30.9837 34.5402 30.9831 34.5402 30.9823 34.5401C30.9806 34.54 30.9781 34.5399 30.975 34.5395C30.9686 34.5388 30.9607 34.5375 30.9534 34.535C30.9369 34.5295 30.9361 34.5243 30.9361 34.5204M30.9833 34.6138L30.9825 34.6138C30.9818 34.6138 30.981 34.6138 30.98 34.6137C30.9796 34.6137 30.9792 34.6137 30.9788 34.6137C30.9758 34.6135 30.9717 34.6133 30.9669 34.6127C30.9573 34.6117 30.944 34.6095 30.9301 34.6049C30.904 34.5962 30.8624 34.5732 30.8624 34.5204C30.8625 34.4676 30.9041 34.4446 30.9302 34.4359C30.9441 34.4313 30.9574 34.4291 30.967 34.4281C30.9718 34.4276 30.9759 34.4273 30.9789 34.4271C30.9798 34.4271 30.9806 34.4271 30.9813 34.427C30.9818 34.427 30.9822 34.427 30.9825 34.427L30.9837 34.427L33.5808 34.3293C33.4512 34.293 33.3329 34.2837 33.2098 34.2744L33.2057 34.2741C32.9933 34.2579 32.7675 34.2407 32.4585 34.0825C32.1588 33.929 31.9686 33.8981 31.8173 33.8951C31.7677 33.8941 31.7234 33.896 31.6793 33.898C31.654 33.8991 31.6288 33.9002 31.6027 33.9008C31.5326 33.9022 31.4614 33.8993 31.3814 33.8792C31.2242 33.8397 31.1156 33.7687 31.0526 33.6984C31.0213 33.6635 31.0001 33.6275 30.9911 33.5943C30.9825 33.5627 30.983 33.5238 31.0116 33.4983C31.025 33.4865 31.0415 33.48 31.0599 33.4816C31.0761 33.483 31.09 33.4904 31.1004 33.4972C31.1111 33.5042 31.1219 33.5133 31.1322 33.5223C31.1361 33.5256 31.1398 33.5289 31.1436 33.5322C31.1507 33.5385 31.158 33.5449 31.1662 33.5518C31.2143 33.5923 31.2798 33.6379 31.3827 33.6457C31.4355 33.6497 31.5001 33.6433 31.5789 33.6345C31.5851 33.6339 31.5913 33.6332 31.5975 33.6324C31.6708 33.6242 31.7538 33.6149 31.8442 33.6121C32.0412 33.606 32.2741 33.631 32.5293 33.7646C32.769 33.8901 33.0011 33.8994 33.2508 33.9086L33.2545 33.9087C33.5023 33.9178 33.7661 33.9275 34.0563 34.0603L34.0256 34.1273C33.7489 34.0006 33.4975 33.9913 33.2481 33.9822L33.2471 33.9821C32.999 33.973 32.7511 33.9639 32.4951 33.8298C32.2541 33.7036 32.0346 33.6799 31.8464 33.6857C31.7592 33.6884 31.679 33.6974 31.6054 33.7057C31.5993 33.7064 31.5932 33.707 31.5871 33.7077C31.5098 33.7164 31.438 33.7238 31.3771 33.7191C31.2523 33.7096 31.1724 33.6533 31.1187 33.6081C31.11 33.6008 31.1016 33.5934 31.0941 33.5868C31.0905 33.5836 31.0871 33.5806 31.084 33.5779C31.0737 33.569 31.0661 33.5628 31.0599 33.5588C31.0599 33.5587 31.0598 33.5587 31.0598 33.5587C31.0596 33.5621 31.0601 33.5673 31.0621 33.5749C31.0673 33.5939 31.0813 33.6201 31.1074 33.6492C31.1593 33.707 31.2543 33.7713 31.3994 33.8078C31.4705 33.8256 31.5345 33.8285 31.6011 33.8271C31.6239 33.8266 31.6476 33.8256 31.6723 33.8245C31.7182 33.8226 31.7673 33.8204 31.8188 33.8215C31.9823 33.8247 32.1834 33.8589 32.492 34.017C32.7878 34.1684 33.0017 34.1847 33.2119 34.2007L33.2154 34.2009C33.3911 34.2143 33.5652 34.228 33.7767 34.3219L35.4986 34.2571L35.5014 34.3307L33.912 34.3905C33.9144 34.3919 33.9169 34.3933 33.9193 34.3947L33.8825 34.4585C33.8409 34.4345 33.8009 34.4139 33.7622 34.3961L30.9849 34.5006L30.9844 34.5006L30.9843 34.5006L30.9842 34.5006L30.9841 34.5006C30.9838 34.5006 30.9832 34.5007 30.9823 34.5007C30.9807 34.5008 30.9781 34.5009 30.975 34.5013C30.9686 34.502 30.9608 34.5034 30.9534 34.5058C30.937 34.5113 30.9361 34.5166 30.9361 34.5204" fill="#85340A"/>
<path d="M35.5866 34.311L31.3496 32.7399C31.3496 32.7399 31.2712 32.7073 31.2494 32.7596C31.2277 32.8119 31.3062 32.8444 31.3062 32.8444L35.4133 34.7296M34.3152 33.5678C33.8898 33.1099 33.3752 33.1387 33.0163 32.7087C32.6574 32.2788 32.2177 32.2725 32.0141 32.1693C31.8105 32.0662 31.8234 31.8699 31.7565 31.8931C31.6895 31.9164 31.712 32.1363 31.9622 32.3222C32.2125 32.5081 32.4427 32.4073 32.8856 32.9279C33.3284 33.4485 33.6765 33.3248 34.0585 33.8216" fill="#F6B40E"/>
<path fill-rule="evenodd" clip-rule="evenodd" d="M31.2913 32.8783L35.3979 34.7632L35.4286 34.6963L31.321 32.8109L31.3205 32.8107L31.3204 32.8106L31.3203 32.8106L31.3202 32.8106C31.3199 32.8104 31.3193 32.8102 31.3186 32.8098C31.3171 32.8091 31.3148 32.808 31.3121 32.8065C31.3064 32.8034 31.2997 32.7991 31.2938 32.794C31.2807 32.7827 31.282 32.7775 31.2834 32.774M31.2913 32.8783L31.2905 32.878C31.2899 32.8777 31.2892 32.8774 31.2883 32.877C31.288 32.8768 31.2876 32.8766 31.2872 32.8765C31.2845 32.8752 31.2809 32.8734 31.2766 32.871C31.2682 32.8664 31.2566 32.8593 31.2456 32.8497C31.2248 32.8317 31.1952 32.7945 31.2154 32.7457C31.2357 32.697 31.2829 32.6916 31.3103 32.6936C31.3249 32.6947 31.3381 32.6978 31.3473 32.7005C31.352 32.7018 31.3559 32.7031 31.3587 32.7042C31.3595 32.7045 31.3603 32.7047 31.361 32.705C31.3614 32.7052 31.3618 32.7053 31.3621 32.7054L31.3631 32.7058L33.8 33.6094C33.6942 33.5264 33.5883 33.4725 33.4782 33.4167L33.4746 33.4149C33.2845 33.3187 33.0824 33.2164 32.8575 32.952C32.6394 32.6955 32.4755 32.5941 32.3369 32.5334C32.2914 32.5135 32.2498 32.4984 32.2083 32.4833C32.1845 32.4747 32.1608 32.466 32.1364 32.4565C32.0712 32.4311 32.0065 32.4011 31.9403 32.3519C31.8102 32.2553 31.737 32.1481 31.7057 32.0591C31.6901 32.0149 31.6843 31.9735 31.6887 31.9394C31.6928 31.9069 31.7082 31.8711 31.7444 31.8585C31.7612 31.8527 31.779 31.8531 31.7954 31.8616C31.8098 31.8691 31.8198 31.8812 31.8268 31.8915C31.834 31.9021 31.8405 31.9146 31.8466 31.9269C31.8489 31.9314 31.8511 31.9359 31.8533 31.9404C31.8575 31.9489 31.8618 31.9576 31.8667 31.9671C31.8956 32.0229 31.9387 32.0901 32.0308 32.1367C32.078 32.1606 32.1402 32.1795 32.2164 32.2015C32.2223 32.2032 32.2283 32.2049 32.2343 32.2067C32.3051 32.2271 32.3855 32.2503 32.47 32.2823C32.6544 32.3521 32.86 32.4643 33.0446 32.6853C33.218 32.8931 33.4289 32.9904 33.6561 33.0945L33.6594 33.096C33.8849 33.1992 34.125 33.3091 34.3422 33.5429L34.2882 33.5931C34.0811 33.3701 33.8524 33.2653 33.6255 33.1615L33.6245 33.161C33.3988 33.0576 33.1733 32.9544 32.9881 32.7325C32.8137 32.5237 32.62 32.4178 32.4439 32.3511C32.3623 32.3202 32.2847 32.2979 32.2136 32.2774C32.2077 32.2756 32.2018 32.2739 32.1959 32.2723C32.1212 32.2506 32.0521 32.23 31.9975 32.2024C31.8859 32.1459 31.8336 32.0633 31.8013 32.001C31.7961 31.9909 31.7911 31.9808 31.7867 31.9719C31.7846 31.9676 31.7826 31.9635 31.7808 31.9598C31.7747 31.9477 31.77 31.939 31.7659 31.9329C31.7658 31.9328 31.7658 31.9328 31.7658 31.9327C31.7643 31.9358 31.7627 31.9408 31.7617 31.9487C31.7592 31.9682 31.7622 31.9977 31.7751 32.0347C31.8009 32.1079 31.8641 32.2036 31.9842 32.2928C32.0431 32.3366 32.1011 32.3637 32.1632 32.3879C32.1844 32.3962 32.2067 32.4043 32.2299 32.4128C32.2731 32.4285 32.3192 32.4453 32.3664 32.466C32.5162 32.5315 32.6889 32.6401 32.9136 32.9043C33.1289 33.1574 33.3203 33.2542 33.5084 33.3495L33.5115 33.351C33.6688 33.4306 33.8244 33.5099 33.9838 33.6776L35.5994 34.2767L35.5738 34.3457L34.0825 33.7928C34.0843 33.795 34.086 33.7972 34.0877 33.7994L34.0293 33.8443C34 33.8062 33.9709 33.7718 33.942 33.7406L31.3361 32.7744L31.3356 32.7742L31.3356 32.7741L31.3355 32.7741L31.3354 32.774C31.3351 32.7739 31.3345 32.7737 31.3337 32.7734C31.3321 32.7729 31.3297 32.772 31.3267 32.7712C31.3206 32.7694 31.3128 32.7676 31.305 32.7671C31.2878 32.7658 31.2849 32.7704 31.2834 32.774" fill="#85340A"/>
<path d="M35.6602 34.3601L32.347 31.2871C32.347 31.2871 32.2869 31.227 32.2468 31.267C32.2068 31.3071 32.2669 31.3671 32.2669 31.3671L35.3399 34.6804M34.77 33.1869C34.5522 32.6011 34.0658 32.4307 33.8987 31.8962C33.7316 31.3616 33.3279 31.1875 33.1792 31.0143C33.0305 30.8411 33.1176 30.6646 33.0469 30.6605C32.9761 30.6564 32.9128 30.8682 33.0728 31.1357C33.2328 31.4032 33.4842 31.3982 33.694 32.0486C33.9039 32.699 34.2729 32.718 34.4357 33.3232" fill="#F6B40E"/>
<path fill-rule="evenodd" clip-rule="evenodd" d="M32.2403 31.3925L35.3129 34.7055L35.3669 34.6554L32.2935 31.3416L32.2931 31.3412L32.293 31.3411L32.293 31.3411L32.2929 31.341C32.2927 31.3407 32.2922 31.3403 32.2917 31.3397C32.2906 31.3384 32.2889 31.3365 32.2869 31.3341C32.2829 31.3291 32.2783 31.3225 32.2748 31.3156C32.2671 31.3001 32.2702 31.2958 32.2729 31.2931M32.2403 31.3925L32.2397 31.3919C32.2392 31.3914 32.2387 31.3908 32.238 31.3901C32.2378 31.3899 32.2375 31.3896 32.2372 31.3892C32.2352 31.387 32.2325 31.3839 32.2294 31.3801C32.2234 31.3726 32.2155 31.3617 32.209 31.3486C32.1967 31.324 32.1835 31.2783 32.2209 31.241C32.2583 31.2037 32.304 31.2168 32.3285 31.2292C32.3416 31.2357 32.3526 31.2436 32.3601 31.2496C32.3639 31.2527 32.367 31.2554 32.3692 31.2574C32.3698 31.258 32.3704 31.2586 32.371 31.2591C32.3713 31.2594 32.3716 31.2596 32.3718 31.2599L32.3726 31.2607L34.2782 33.028C34.2122 32.9108 34.1351 32.8205 34.0547 32.7268L34.052 32.7238C33.9132 32.5621 33.7657 32.3903 33.6591 32.0599C33.5557 31.7395 33.4431 31.5831 33.3383 31.474C33.3039 31.4382 33.2712 31.4083 33.2386 31.3785C33.22 31.3614 33.2013 31.3444 33.1825 31.3263C33.1319 31.2778 33.0836 31.2254 33.0413 31.1546C32.958 31.0155 32.9315 30.8884 32.9366 30.7942C32.9391 30.7475 32.9496 30.707 32.9667 30.6772C32.9829 30.6487 33.0108 30.6215 33.0491 30.6238C33.0669 30.6248 33.0831 30.632 33.095 30.6461C33.1055 30.6586 33.1101 30.6736 33.1126 30.6857C33.1152 30.6983 33.1165 30.7124 33.1174 30.726C33.1178 30.731 33.1181 30.736 33.1184 30.7411C33.119 30.7506 33.1197 30.7602 33.1206 30.7709C33.1259 30.8335 33.1401 30.9121 33.2072 30.9903C33.2417 31.0305 33.292 31.0717 33.3539 31.1212C33.3587 31.1251 33.3636 31.129 33.3685 31.1329C33.4261 31.1789 33.4915 31.231 33.5573 31.2929C33.701 31.428 33.848 31.6103 33.9339 31.8852C34.0147 32.1435 34.1722 32.3141 34.3424 32.4972L34.3448 32.4999C34.5136 32.6816 34.6934 32.875 34.8046 33.1741L34.7355 33.1997C34.6295 32.9144 34.4583 32.7302 34.2884 32.5474L34.2877 32.5466C34.1187 32.3647 33.9499 32.183 33.8637 31.9072C33.7825 31.6475 33.6441 31.4755 33.5069 31.3466C33.4433 31.2868 33.3802 31.2364 33.3223 31.1903C33.3175 31.1864 33.3127 31.1826 33.3079 31.1788C33.2472 31.1302 33.1912 31.0847 33.1514 31.0383C33.0699 30.9434 33.0532 30.8471 33.0472 30.7771C33.0462 30.7658 33.0455 30.7546 33.0449 30.7447C33.0446 30.7399 33.0443 30.7353 33.044 30.7312C33.043 30.7177 33.042 30.7079 33.0405 30.7006C33.0405 30.7006 33.0405 30.7005 33.0405 30.7005C33.0379 30.7028 33.0345 30.7068 33.0306 30.7137C33.0209 30.7307 33.0123 30.7592 33.0101 30.7982C33.0059 30.8757 33.0276 30.9884 33.1045 31.1168C33.1421 31.1797 33.1853 31.227 33.2334 31.2731C33.2499 31.2889 33.2674 31.3049 33.2856 31.3216C33.3195 31.3527 33.3556 31.3859 33.3914 31.423C33.5046 31.5409 33.6227 31.7073 33.7291 32.0373C33.8312 32.3536 33.9709 32.5163 34.1083 32.6763L34.1105 32.6789C34.2254 32.8126 34.3388 32.9454 34.422 33.1614L35.6853 34.3331L35.6352 34.3871L34.4691 33.3055C34.4698 33.3082 34.4706 33.3109 34.4713 33.3136L34.4002 33.3327C34.3877 33.2863 34.374 33.2435 34.3592 33.2036L32.3215 31.3136L32.3211 31.3133L32.321 31.3132L32.321 31.3131L32.3209 31.3131C32.3206 31.3128 32.3202 31.3124 32.3196 31.3118C32.3183 31.3107 32.3164 31.309 32.314 31.3071C32.309 31.3031 32.3025 31.2985 32.2955 31.295C32.2801 31.2873 32.2757 31.2904 32.2729 31.2931" fill="#85340A"/>
<path d="M33.8829 34.806C33.2831 34.836 33.0175 35.1761 32.4708 35.1093C32.9031 35.256 33.2382 34.9024 33.8767 34.9225M35.4506 34.4158L32.6298 35.7068L35.5374 34.625" fill="#85340A"/>
<path d="M33.8969 34.1654C33.3312 33.9636 32.9557 34.1761 32.4762 33.9052C32.8195 34.2061 33.2644 34.0077 33.8465 34.2706M35.4945 34.4048L32.3945 34.5181L35.4946 34.6313" fill="#85340A"/>
<path d="M34.1548 33.5789C33.7094 33.176 33.2811 33.2287 32.9418 32.795C33.1438 33.2043 33.6307 33.1913 34.068 33.6569M35.5392 34.4115L32.6318 33.3299L35.4526 34.6208" fill="#85340A"/>
<path d="M34.6174 33.1357C34.3602 32.593 33.9443 32.4778 33.7968 31.9472C33.8268 32.4027 34.2817 32.577 34.5074 33.1745M35.5779 34.4347L33.3057 32.3227L35.4178 34.595" fill="#85340A"/>
<path d="M35.7095 34.4338L33.8244 30.3268C33.8244 30.3268 33.792 30.2483 33.7396 30.2699C33.6872 30.2916 33.7198 30.3701 33.7198 30.3701L35.2909 34.6072M35.336 33.0092C35.3589 32.3846 34.9747 32.0411 35.025 31.4834C35.0751 30.9255 34.7688 30.6102 34.6977 30.3933C34.6266 30.1763 34.7746 30.0466 34.7108 30.0158C34.647 29.9849 34.5075 30.1563 34.5529 30.4647C34.5984 30.773 34.8325 30.8646 34.7775 31.5459C34.7225 32.2271 35.0562 32.3858 34.9749 33.0072" fill="#F6B40E"/>
<path fill-rule="evenodd" clip-rule="evenodd" d="M33.6854 30.3832L35.2564 34.6199L35.3254 34.5943L33.7541 30.3565L33.7539 30.356L33.7538 30.356L33.7538 30.3559L33.7537 30.3558C33.7536 30.3554 33.7534 30.3549 33.7531 30.3541C33.7526 30.3525 33.7517 30.3501 33.7509 30.3471C33.7491 30.3409 33.7473 30.3331 33.7468 30.3254C33.7455 30.3082 33.7501 30.3053 33.7536 30.3039M33.6854 30.3832L33.6851 30.3824C33.6849 30.3818 33.6846 30.3811 33.6843 30.3802C33.6841 30.3798 33.684 30.3794 33.6838 30.379C33.6828 30.3762 33.6815 30.3723 33.6802 30.3676C33.6775 30.3584 33.6744 30.3453 33.6733 30.3307C33.6714 30.3033 33.6767 30.256 33.7255 30.2358C33.7743 30.2157 33.8115 30.2453 33.8294 30.2661C33.839 30.2771 33.8461 30.2887 33.8508 30.2971C33.8531 30.3013 33.8549 30.305 33.8562 30.3077C33.8566 30.3086 33.8569 30.3093 33.8572 30.3099C33.8574 30.3103 33.8576 30.3107 33.8577 30.311L33.8582 30.3121L34.9424 32.6742C34.9262 32.5406 34.8895 32.4276 34.8511 32.3103L34.8498 32.3065C34.7834 32.104 34.7129 31.8888 34.7408 31.5428C34.7679 31.2072 34.7237 31.0196 34.6686 30.8787C34.6505 30.8325 34.6318 30.7923 34.6131 30.7523C34.6024 30.7294 34.5917 30.7065 34.5812 30.6826C34.5531 30.6184 34.5285 30.5515 34.5165 30.4699C34.4928 30.3096 34.5169 30.182 34.5577 30.097C34.5779 30.0547 34.6031 30.0213 34.6303 30.0003C34.6562 29.9802 34.6923 29.9658 34.7269 29.9825C34.7429 29.9903 34.7552 30.0031 34.7607 30.0207C34.7657 30.0363 34.7642 30.0519 34.7618 30.0641C34.7594 30.0767 34.7552 30.0902 34.7509 30.1031C34.7493 30.1079 34.7477 30.1127 34.746 30.1174C34.743 30.1264 34.7398 30.1356 34.7366 30.1458C34.7176 30.2057 34.7006 30.2837 34.7327 30.3817C34.7492 30.432 34.7798 30.4893 34.8181 30.5588C34.8211 30.5642 34.8241 30.5696 34.8271 30.5751C34.8628 30.6397 34.9032 30.7128 34.9403 30.7952C35.0214 30.975 35.0874 31.1997 35.0616 31.4865C35.0374 31.7561 35.1176 31.974 35.2047 32.2083L35.206 32.2117C35.2924 32.4441 35.3845 32.6916 35.3727 33.0105L35.2992 33.0078C35.3103 32.7036 35.2227 32.4679 35.1357 32.234L35.1353 32.233C35.0488 32.0002 34.9624 31.7678 34.9883 31.4799C35.0126 31.209 34.9506 30.9971 34.8732 30.8255C34.8373 30.7459 34.7983 30.6752 34.7625 30.6105C34.7595 30.6051 34.7566 30.5997 34.7536 30.5943C34.7161 30.5262 34.6817 30.4627 34.6627 30.4046C34.6237 30.2857 34.6452 30.1904 34.6664 30.1235C34.6698 30.1127 34.6735 30.1021 34.6767 30.0926C34.6782 30.088 34.6797 30.0838 34.681 30.0798C34.6853 30.067 34.6881 30.0576 34.6895 30.0503C34.6895 30.0502 34.6895 30.0501 34.6895 30.0501C34.6863 30.0513 34.6816 30.0537 34.6754 30.0585C34.6598 30.0706 34.641 30.0935 34.6241 30.1288C34.5905 30.1988 34.5675 30.3112 34.5894 30.4592C34.6001 30.5318 34.6219 30.5919 34.6487 30.653C34.6578 30.6738 34.6679 30.6954 34.6783 30.7178C34.6977 30.7594 34.7184 30.8039 34.7372 30.8519C34.7968 31.0042 34.8421 31.203 34.8142 31.5487C34.7875 31.8799 34.8543 32.0837 34.92 32.2841L34.921 32.2874C34.976 32.4549 35.0299 32.621 35.0241 32.8523L35.7429 34.4183L35.676 34.4491L35.0125 33.0035C35.0122 33.0063 35.0118 33.0091 35.0114 33.0119L34.9384 33.0023C34.9446 32.9547 34.9484 32.9098 34.95 32.8673L33.7906 30.3414L33.7904 30.3409L33.7904 30.3409L33.7903 30.3408L33.7903 30.3407C33.7902 30.3404 33.7899 30.3398 33.7896 30.3391C33.7888 30.3375 33.7877 30.3353 33.7862 30.3325C33.7831 30.3269 33.7789 30.3201 33.7738 30.3143C33.7625 30.3012 33.7572 30.3024 33.7536 30.3039" fill="#85340A"/>
<path d="M35.7267 34.5205L35.5568 30.0048C35.5568 30.0048 35.5569 29.9198 35.5003 29.9197C35.4436 29.9197 35.4436 30.0047 35.4436 30.0047L35.2737 34.5205M35.9268 33.0614C36.1871 32.4932 35.9636 32.0288 36.2234 31.5327C36.4832 31.0365 36.3209 30.6279 36.3383 30.4003C36.3556 30.1727 36.5419 30.1095 36.4948 30.0566C36.4477 30.0036 36.2532 30.1086 36.1772 30.4109C36.1012 30.7132 36.2825 30.8874 35.9709 31.4957C35.6594 32.1041 35.9069 32.3783 35.5941 32.9214" fill="#F6B40E"/>
<path fill-rule="evenodd" clip-rule="evenodd" d="M35.4067 30.0038L35.2368 34.5191L35.3104 34.5219L35.4803 30.0054L35.4803 30.0049L35.4803 30.0048L35.4803 30.0047L35.4803 30.0046C35.4803 30.0042 35.4804 30.0036 35.4804 30.0028C35.4805 30.0011 35.4806 29.9986 35.481 29.9955C35.4817 29.9891 35.4831 29.9812 35.4855 29.9739C35.491 29.9575 35.4962 29.9566 35.5001 29.9566M35.4067 30.0038L35.4067 30.003C35.4067 30.0023 35.4067 30.0015 35.4068 30.0005C35.4068 30.0002 35.4068 29.9998 35.4068 29.9993C35.407 29.9964 35.4072 29.9923 35.4078 29.9874C35.4088 29.9778 35.411 29.9645 35.4156 29.9506C35.4243 29.9245 35.4473 29.8829 35.5001 29.8829C35.5529 29.883 35.5759 29.9246 35.5846 29.9507C35.5892 29.9646 35.5914 29.9779 35.5924 29.9875C35.593 29.9923 35.5932 29.9964 35.5934 29.9994C35.5934 30.0003 35.5934 30.0011 35.5935 30.0018C35.5935 30.0023 35.5935 30.0027 35.5935 30.003L35.5935 30.0042L35.6912 32.6013C35.7275 32.4717 35.7368 32.3534 35.7461 32.2303L35.7464 32.2262C35.7626 32.0138 35.7798 31.788 35.938 31.479C36.0915 31.1793 36.1224 30.9891 36.1254 30.8378C36.1264 30.7882 36.1245 30.7439 36.1225 30.6998C36.1214 30.6745 36.1203 30.6493 36.1198 30.6232C36.1183 30.5531 36.1212 30.4819 36.1413 30.4019C36.1808 30.2447 36.2519 30.1361 36.3221 30.0731C36.357 30.0418 36.393 30.0207 36.4262 30.0116C36.4578 30.003 36.4967 30.0035 36.5222 30.0321C36.5341 30.0455 36.5405 30.062 36.5389 30.0804C36.5375 30.0966 36.5301 30.1105 36.5233 30.1209C36.5163 30.1316 36.5072 30.1424 36.4982 30.1527C36.4949 30.1566 36.4916 30.1603 36.4883 30.1641C36.482 30.1713 36.4756 30.1785 36.4687 30.1867C36.4282 30.2348 36.3827 30.3003 36.3748 30.4032C36.3708 30.456 36.3772 30.5206 36.386 30.5994C36.3867 30.6056 36.3874 30.6118 36.3881 30.618C36.3963 30.6913 36.4056 30.7743 36.4084 30.8647C36.4145 31.0617 36.3895 31.2946 36.2559 31.5498C36.1304 31.7895 36.1211 32.0216 36.1119 32.2714L36.1118 32.275C36.1027 32.5228 36.093 32.7866 35.9602 33.0768L35.8932 33.0461C36.0199 32.7694 36.0292 32.518 36.0383 32.2687L36.0384 32.2676C36.0475 32.0195 36.0566 31.7716 36.1907 31.5156C36.3169 31.2746 36.3406 31.0551 36.3348 30.867C36.3321 30.7797 36.3231 30.6995 36.3148 30.6259C36.3141 30.6198 36.3135 30.6137 36.3128 30.6076C36.3042 30.5303 36.2967 30.4585 36.3014 30.3976C36.3109 30.2728 36.3672 30.1929 36.4124 30.1393C36.4197 30.1305 36.4271 30.1221 36.4337 30.1146C36.4369 30.111 36.4399 30.1076 36.4426 30.1045C36.4515 30.0942 36.4577 30.0866 36.4618 30.0804C36.4618 30.0804 36.4618 30.0803 36.4619 30.0803C36.4584 30.0801 36.4532 30.0806 36.4456 30.0826C36.4266 30.0878 36.4004 30.1018 36.3713 30.128C36.3135 30.1798 36.2492 30.2748 36.2128 30.4199C36.1949 30.491 36.192 30.555 36.1934 30.6216C36.1939 30.6444 36.1949 30.6682 36.196 30.6928C36.198 30.7387 36.2001 30.7878 36.1991 30.8393C36.1958 31.0028 36.1616 31.2039 36.0035 31.5125C35.8521 31.8083 35.8358 32.0222 35.8198 32.2324L35.8196 32.2359C35.8062 32.4116 35.7925 32.5858 35.6986 32.7972L35.7634 34.5191L35.6898 34.5219L35.63 32.9325C35.6286 32.9349 35.6272 32.9374 35.6258 32.9398L35.562 32.903C35.586 32.8614 35.6066 32.8214 35.6244 32.7828L35.5199 30.0055L35.5199 30.0049L35.5199 30.0048L35.5199 30.0047L35.5199 30.0046C35.5199 30.0043 35.5198 30.0037 35.5198 30.0028C35.5197 30.0012 35.5196 29.9986 35.5192 29.9955C35.5185 29.9891 35.5172 29.9813 35.5147 29.9739C35.5093 29.9575 35.504 29.9566 35.5001 29.9566" fill="#85340A"/>
<path d="M35.7095 34.6071L37.2806 30.3701C37.2806 30.3701 37.3132 30.2917 37.2609 30.2699C37.2086 30.2482 37.1761 30.3268 37.1761 30.3268L35.291 34.4338M36.4527 33.3357C36.9106 32.9103 36.8819 32.3957 37.3118 32.0368C37.7417 31.6779 37.748 31.2383 37.8512 31.0346C37.9543 30.831 38.1506 30.8439 38.1274 30.777C38.1041 30.71 37.8842 30.7325 37.6983 30.9827C37.5124 31.233 37.6132 31.4633 37.0926 31.9061C36.572 32.3489 36.6957 32.697 36.1989 33.079" fill="#F6B40E"/>
<path fill-rule="evenodd" clip-rule="evenodd" d="M37.1422 30.3118L35.2573 34.4184L35.3242 34.4491L37.2096 30.3415L37.2098 30.341L37.2099 30.3409L37.2099 30.3408L37.2099 30.3407C37.2101 30.3404 37.2103 30.3399 37.2107 30.3391C37.2114 30.3376 37.2125 30.3353 37.214 30.3326C37.2171 30.3269 37.2214 30.3202 37.2265 30.3143C37.2378 30.3013 37.243 30.3025 37.2466 30.3039M37.1422 30.3118L37.1425 30.311C37.1428 30.3104 37.1431 30.3097 37.1435 30.3088C37.1437 30.3085 37.1439 30.3081 37.144 30.3077C37.1453 30.305 37.1471 30.3014 37.1495 30.2971C37.1541 30.2887 37.1612 30.2771 37.1708 30.2661C37.1888 30.2453 37.226 30.2157 37.2748 30.2359C37.3235 30.2562 37.3289 30.3034 37.3269 30.3308C37.3258 30.3454 37.3227 30.3586 37.32 30.3678C37.3187 30.3725 37.3174 30.3764 37.3164 30.3792C37.316 30.3801 37.3158 30.3808 37.3155 30.3815C37.3154 30.3819 37.3152 30.3823 37.3151 30.3826L37.3147 30.3837L36.4111 32.8205C36.4941 32.7147 36.548 32.6089 36.6038 32.4987L36.6056 32.4951C36.7018 32.305 36.8041 32.1029 37.0685 31.878C37.325 31.6599 37.4264 31.496 37.4871 31.3574C37.507 31.3119 37.5221 31.2703 37.5372 31.2288C37.5458 31.205 37.5545 31.1813 37.564 31.1569C37.5894 31.0917 37.6194 31.027 37.6686 30.9608C37.7652 30.8307 37.8724 30.7575 37.9614 30.7262C38.0056 30.7106 38.047 30.7048 38.0811 30.7092C38.1136 30.7133 38.1494 30.7287 38.162 30.7649C38.1678 30.7817 38.1674 30.7995 38.1589 30.8159C38.1514 30.8303 38.1393 30.8403 38.129 30.8473C38.1184 30.8545 38.1059 30.861 38.0937 30.8671C38.0891 30.8694 38.0846 30.8716 38.0801 30.8738C38.0716 30.878 38.0629 30.8823 38.0534 30.8872C37.9976 30.9161 37.9304 30.9592 37.8838 31.0513C37.8599 31.0985 37.841 31.1607 37.819 31.2369C37.8173 31.2428 37.8156 31.2488 37.8138 31.2548C37.7934 31.3257 37.7702 31.406 37.7382 31.4905C37.6684 31.6749 37.5562 31.8805 37.3352 32.0651C37.1274 32.2385 37.0301 32.4494 36.926 32.6766L36.9245 32.6799C36.8213 32.9054 36.7114 33.1455 36.4776 33.3627L36.4275 33.3087C36.6504 33.1016 36.7552 32.8729 36.8591 32.646L36.8595 32.645C36.9629 32.4193 37.0661 32.1938 37.288 32.0086C37.4968 31.8342 37.6027 31.6405 37.6694 31.4644C37.7003 31.3828 37.7226 31.3052 37.7431 31.2341C37.7449 31.2282 37.7466 31.2223 37.7483 31.2164C37.7699 31.1417 37.7905 31.0726 37.8181 31.018C37.8746 30.9064 37.9572 30.8541 38.0195 30.8218C38.0296 30.8166 38.0397 30.8116 38.0486 30.8072C38.053 30.8051 38.057 30.8031 38.0607 30.8013C38.0729 30.7952 38.0815 30.7905 38.0876 30.7864C38.0877 30.7863 38.0877 30.7863 38.0878 30.7863C38.0847 30.7848 38.0797 30.7832 38.0718 30.7822C38.0523 30.7797 38.0228 30.7827 37.9858 30.7956C37.9126 30.8214 37.8169 30.8846 37.7277 31.0047C37.6839 31.0636 37.6568 31.1216 37.6326 31.1837C37.6243 31.2049 37.6162 31.2272 37.6077 31.2504C37.592 31.2936 37.5752 31.3397 37.5545 31.387C37.489 31.5367 37.3804 31.7094 37.1163 31.9341C36.8631 32.1494 36.7663 32.3408 36.671 32.5289L36.6695 32.532C36.5899 32.6893 36.5106 32.8449 36.3429 33.0043L35.7438 34.6199L35.6748 34.5943L36.2278 33.1031C36.2256 33.1048 36.2233 33.1065 36.2211 33.1082L36.1762 33.0498C36.2143 33.0205 36.2487 32.9914 36.2799 32.9625L37.2461 30.3567L37.2464 30.3561L37.2464 30.3561L37.2464 30.356L37.2465 30.3559C37.2466 30.3556 37.2468 30.355 37.2471 30.3542C37.2476 30.3526 37.2485 30.3502 37.2493 30.3472C37.2511 30.3411 37.2529 30.3333 37.2534 30.3255C37.2547 30.3083 37.2501 30.3054 37.2466 30.3039" fill="#85340A"/>
<path d="M35.6604 34.6807L38.7334 31.3675C38.7334 31.3675 38.7935 31.3075 38.7535 31.2674C38.7135 31.2273 38.6534 31.2874 38.6534 31.2874L35.3401 34.3604M36.8336 33.7905C37.4195 33.5727 37.5898 33.0863 38.1243 32.9192C38.6589 32.7521 38.833 32.3484 39.0062 32.1997C39.1794 32.051 39.3559 32.1381 39.36 32.0674C39.3641 31.9966 39.1524 31.9333 38.8848 32.0933C38.6173 32.2534 38.6224 32.5047 37.9719 32.7145C37.3215 32.9244 37.3025 33.2934 36.6973 33.4562" fill="#F6B40E"/>
<path fill-rule="evenodd" clip-rule="evenodd" d="M38.628 31.2608L35.315 34.3335L35.3651 34.3874L38.6789 31.314L38.6793 31.3136L38.6794 31.3135L38.6794 31.3135L38.6795 31.3134C38.6798 31.3132 38.6802 31.3128 38.6808 31.3122C38.6821 31.3111 38.684 31.3094 38.6864 31.3074C38.6914 31.3034 38.698 31.2988 38.7049 31.2953C38.7204 31.2876 38.7247 31.2907 38.7274 31.2934M38.628 31.2608L38.6286 31.2602C38.6291 31.2597 38.6297 31.2592 38.6304 31.2585C38.6307 31.2583 38.6309 31.258 38.6313 31.2577C38.6335 31.2557 38.6366 31.253 38.6404 31.25C38.6479 31.244 38.6589 31.236 38.6719 31.2295C38.6965 31.2172 38.7422 31.204 38.7795 31.2414C38.8168 31.2788 38.8037 31.3245 38.7914 31.349C38.7848 31.3621 38.7769 31.3731 38.7709 31.3806C38.7678 31.3844 38.7651 31.3875 38.7631 31.3897C38.7625 31.3904 38.7619 31.3909 38.7615 31.3915C38.7612 31.3918 38.7609 31.3921 38.7606 31.3923L38.7598 31.3931L36.9925 33.2987C37.1097 33.2327 37.2 33.1556 37.2937 33.0752L37.2967 33.0725C37.4584 32.9337 37.6302 32.7862 37.9606 32.6796C38.281 32.5762 38.4374 32.4636 38.5465 32.3588C38.5823 32.3244 38.6122 32.2917 38.642 32.2591C38.6591 32.2405 38.6761 32.2218 38.6942 32.203C38.7427 32.1524 38.7951 32.1041 38.8659 32.0618C39.005 31.9786 39.1321 31.952 39.2263 31.9571C39.2731 31.9596 39.3135 31.9701 39.3434 31.9872C39.3719 32.0034 39.399 32.0313 39.3967 32.0696C39.3957 32.0874 39.3885 32.1036 39.3744 32.1155C39.3619 32.126 39.347 32.1306 39.3348 32.1331C39.3222 32.1357 39.3081 32.137 39.2945 32.1379C39.2895 32.1383 39.2845 32.1386 39.2794 32.1389C39.27 32.1395 39.2603 32.1402 39.2496 32.1411C39.187 32.1464 39.1084 32.1606 39.0302 32.2278C38.99 32.2622 38.9488 32.3125 38.8993 32.3744C38.8954 32.3792 38.8915 32.3841 38.8876 32.389C38.8416 32.4466 38.7895 32.512 38.7276 32.5778C38.5925 32.7215 38.4102 32.8685 38.1353 32.9545C37.877 33.0352 37.7064 33.1927 37.5233 33.3629L37.5206 33.3653C37.339 33.5342 37.1456 33.7139 36.8465 33.8251L36.8208 33.756C37.1061 33.65 37.2903 33.4788 37.4731 33.3089L37.4739 33.3082C37.6558 33.1392 37.8375 32.9704 38.1133 32.8842C38.373 32.803 38.545 32.6646 38.6739 32.5274C38.7337 32.4638 38.7841 32.4007 38.8302 32.3429C38.8341 32.338 38.8379 32.3332 38.8417 32.3285C38.8903 32.2677 38.9358 32.2117 38.9822 32.1719C39.0772 32.0904 39.1734 32.0737 39.2434 32.0677C39.2547 32.0667 39.2659 32.066 39.2758 32.0654C39.2806 32.0651 39.2852 32.0648 39.2893 32.0645C39.3028 32.0635 39.3126 32.0625 39.3199 32.061C39.3199 32.061 39.32 32.061 39.32 32.061C39.3177 32.0584 39.3137 32.055 39.3068 32.0511C39.2898 32.0414 39.2613 32.0328 39.2223 32.0306C39.1448 32.0264 39.0321 32.0482 38.9038 32.125C38.8408 32.1626 38.7935 32.2058 38.7474 32.2539C38.7317 32.2704 38.7156 32.2879 38.6989 32.3061C38.6678 32.34 38.6347 32.3761 38.5975 32.4119C38.4796 32.5252 38.3132 32.6432 37.9832 32.7497C37.667 32.8517 37.5042 32.9914 37.3443 33.1288L37.3416 33.131C37.2079 33.2459 37.0751 33.3593 36.8592 33.4425L35.6874 34.7058L35.6334 34.6558L36.715 33.4896C36.7123 33.4903 36.7096 33.4911 36.7069 33.4918L36.6878 33.4207C36.7342 33.4082 36.777 33.3945 36.8169 33.3797L38.7069 31.342L38.7073 31.3416L38.7073 31.3415L38.7074 31.3415L38.7075 31.3414C38.7077 31.3411 38.7081 31.3407 38.7087 31.3401C38.7098 31.3389 38.7115 31.3369 38.7134 31.3345C38.7174 31.3295 38.722 31.323 38.7255 31.316C38.7333 31.3006 38.7302 31.2962 38.7274 31.2934" fill="#85340A"/>
<path d="M35.2145 32.9034C35.1845 32.3036 34.8444 32.038 34.9112 31.4913C34.7646 31.9236 35.1181 32.2587 35.098 32.8972M35.6047 34.4711L34.3137 31.6503L35.3955 34.5579" fill="#85340A"/>
<path d="M35.8551 32.9174C36.0569 32.3517 35.8444 31.9762 36.1153 31.4967C35.8144 31.84 36.0128 32.2849 35.7499 32.867M35.6157 34.515L35.5024 31.415L35.3892 34.5152" fill="#85340A"/>
<path d="M36.4416 33.1753C36.8445 32.7299 36.7918 32.3016 37.2255 31.9623C36.8162 32.1643 36.8292 32.6513 36.3636 33.0885M35.609 34.5597L36.6906 31.6523L35.3997 34.4732" fill="#85340A"/>
<path d="M36.8848 33.6379C37.4275 33.3807 37.5427 32.9648 38.0733 32.8173C37.6178 32.8473 37.4435 33.3022 36.846 33.5279M35.5858 34.5984L37.6978 32.3262L35.4256 34.4383" fill="#85340A"/>
<path d="M35.5867 34.73L39.6937 32.8449C39.6937 32.8449 39.7722 32.8125 39.7506 32.7601C39.7289 32.7078 39.6504 32.7403 39.6504 32.7403L35.4133 34.3114M37.0113 34.3565C37.6359 34.3794 37.9794 33.9952 38.5372 34.0455C39.095 34.0956 39.4103 33.7893 39.6272 33.7182C39.8442 33.6471 39.9739 33.7951 40.0047 33.7313C40.0356 33.6675 39.8642 33.528 39.5558 33.5735C39.2475 33.619 39.1559 33.8531 38.4747 33.798C37.7934 33.743 37.6347 34.0767 37.0133 33.9955" fill="#F6B40E"/>
<path fill-rule="evenodd" clip-rule="evenodd" d="M39.6373 32.7059L35.4006 34.2769L35.4262 34.3459L39.664 32.7746L39.6645 32.7744L39.6646 32.7743L39.6646 32.7743L39.6648 32.7743C39.6651 32.7741 39.6656 32.7739 39.6664 32.7736C39.668 32.7731 39.6704 32.7723 39.6734 32.7714C39.6796 32.7696 39.6874 32.7678 39.6951 32.7673C39.7123 32.7661 39.7152 32.7706 39.7166 32.7741M39.6373 32.7059L39.6381 32.7056C39.6387 32.7054 39.6394 32.7051 39.6403 32.7048C39.6407 32.7046 39.6411 32.7045 39.6415 32.7043C39.6443 32.7033 39.6482 32.702 39.6529 32.7007C39.6621 32.698 39.6753 32.6949 39.6899 32.6938C39.7172 32.6919 39.7645 32.6972 39.7847 32.746C39.8048 32.7948 39.7752 32.832 39.7544 32.85C39.7434 32.8595 39.7319 32.8666 39.7234 32.8713C39.7192 32.8736 39.7155 32.8754 39.7128 32.8767C39.712 32.8771 39.7112 32.8774 39.7106 32.8777C39.7102 32.8779 39.7098 32.8781 39.7095 32.8782L39.7084 32.8787L37.3464 33.9629C37.4799 33.9467 37.5929 33.91 37.7102 33.8716L37.714 33.8703C37.9165 33.8039 38.1317 33.7334 38.4777 33.7613C38.8133 33.7884 39.0009 33.7442 39.1418 33.6891C39.188 33.671 39.2282 33.6523 39.2682 33.6336C39.2911 33.6229 39.314 33.6123 39.3379 33.6017C39.4021 33.5736 39.469 33.549 39.5506 33.537C39.7109 33.5134 39.8385 33.5374 39.9235 33.5782C39.9658 33.5984 39.9992 33.6236 40.0202 33.6508C40.0403 33.6767 40.0547 33.7129 40.038 33.7474C40.0302 33.7634 40.0174 33.7757 39.9998 33.7813C39.9842 33.7862 39.9686 33.7847 39.9564 33.7823C39.9438 33.7799 39.9304 33.7757 39.9174 33.7714C39.9126 33.7698 39.9079 33.7682 39.9031 33.7665C39.8941 33.7635 39.8849 33.7603 39.8747 33.7571C39.8148 33.7381 39.7368 33.7211 39.6388 33.7532C39.5885 33.7697 39.5312 33.8003 39.4617 33.8386C39.4563 33.8416 39.4509 33.8446 39.4454 33.8476C39.3809 33.8833 39.3077 33.9237 39.2253 33.9608C39.0455 34.0419 38.8208 34.1079 38.534 34.0821C38.2645 34.0579 38.0465 34.1381 37.8122 34.2252L37.8088 34.2265C37.5764 34.3129 37.3289 34.405 37.01 34.3933L37.0127 34.3197C37.3169 34.3308 37.5526 34.2432 37.7865 34.1562L37.7875 34.1559C38.0203 34.0693 38.2527 33.9829 38.5406 34.0088C38.8115 34.0331 39.0234 33.9711 39.195 33.8937C39.2746 33.8578 39.3453 33.8188 39.41 33.783C39.4155 33.78 39.4208 33.7771 39.4262 33.7741C39.4943 33.7366 39.5578 33.7023 39.6159 33.6832C39.7348 33.6442 39.8301 33.6657 39.897 33.6869C39.9079 33.6904 39.9185 33.694 39.9279 33.6972C39.9325 33.6987 39.9368 33.7002 39.9407 33.7015C39.9535 33.7058 39.9629 33.7086 39.9702 33.71C39.9703 33.71 39.9704 33.71 39.9704 33.71C39.9692 33.7068 39.9668 33.7021 39.962 33.6959C39.9499 33.6803 39.927 33.6615 39.8917 33.6446C39.8217 33.611 39.7094 33.588 39.5613 33.6099C39.4887 33.6206 39.4286 33.6424 39.3675 33.6692C39.3467 33.6783 39.3251 33.6884 39.3027 33.6988C39.2611 33.7182 39.2166 33.7389 39.1686 33.7577C39.0163 33.8173 38.8175 33.8626 38.4718 33.8347C38.1406 33.808 37.9368 33.8748 37.7364 33.9405L37.7331 33.9416C37.5656 33.9965 37.3995 34.0504 37.1682 34.0446L35.6022 34.7634L35.5715 34.6965L37.017 34.033C37.0142 34.0327 37.0114 34.0323 37.0086 34.0319L37.0182 33.9589C37.0658 33.9652 37.1107 33.9689 37.1532 33.9705L39.6791 32.8111L39.6796 32.8109L39.6796 32.8109L39.6797 32.8109L39.6798 32.8108C39.6802 32.8107 39.6807 32.8104 39.6815 32.8101C39.683 32.8094 39.6852 32.8082 39.688 32.8067C39.6936 32.8036 39.7004 32.7994 39.7062 32.7943C39.7193 32.783 39.7181 32.7777 39.7166 32.7741" fill="#85340A"/>
<path d="M35.5 34.7473L40.0158 34.5773C40.0158 34.5773 40.1007 34.5774 40.1008 34.5208C40.1008 34.4641 40.0158 34.4642 40.0158 34.4642L35.5 34.2942M36.9591 34.9473C37.5274 35.2076 37.9917 34.9841 38.4878 35.2439C38.984 35.5037 39.3926 35.3414 39.6202 35.3588C39.8478 35.3761 39.911 35.5624 39.9639 35.5153C40.0169 35.4682 39.9119 35.2737 39.6096 35.1977C39.3073 35.1217 39.1331 35.303 38.5248 34.9914C37.9164 34.6799 37.6422 34.9274 37.0991 34.6146" fill="#F6B40E"/>
<path fill-rule="evenodd" clip-rule="evenodd" d="M40.0167 34.4272L35.5014 34.2573L35.4986 34.3309L40.0151 34.5008L40.0157 34.5008L40.0157 34.5008L40.0158 34.5008L40.0159 34.5008C40.0163 34.5008 40.0169 34.5009 40.0177 34.5009C40.0194 34.501 40.0219 34.5011 40.025 34.5015C40.0314 34.5022 40.0393 34.5036 40.0466 34.506C40.0631 34.5115 40.0639 34.5167 40.0639 34.5206M40.0167 34.4272L40.0175 34.4272C40.0182 34.4272 40.019 34.4273 40.02 34.4273C40.0204 34.4273 40.0208 34.4273 40.0212 34.4273C40.0242 34.4275 40.0283 34.4278 40.0331 34.4283C40.0427 34.4293 40.056 34.4315 40.0699 34.4361C40.096 34.4448 40.1376 34.4678 40.1376 34.5206C40.1375 34.5734 40.0959 34.5964 40.0698 34.6051C40.0559 34.6097 40.0426 34.6119 40.033 34.6129C40.0282 34.6135 40.0241 34.6137 40.0211 34.6139C40.0202 34.6139 40.0194 34.6139 40.0187 34.614C40.0182 34.614 40.0178 34.614 40.0175 34.614L40.0163 34.614L37.4192 34.7118C37.5488 34.748 37.6671 34.7573 37.7902 34.7666L37.7943 34.767C38.0067 34.7831 38.2325 34.8003 38.5415 34.9585C38.8412 35.112 39.0314 35.1429 39.1827 35.1459C39.2323 35.1469 39.2766 35.145 39.3207 35.143C39.346 35.1419 39.3712 35.1408 39.3973 35.1403C39.4674 35.1388 39.5386 35.1417 39.6186 35.1618C39.7758 35.2014 39.8844 35.2724 39.9474 35.3426C39.9787 35.3775 39.9999 35.4135 40.0089 35.4467C40.0175 35.4783 40.017 35.5172 39.9884 35.5427C39.975 35.5546 39.9585 35.561 39.9401 35.5594C39.9239 35.558 39.91 35.5506 39.8996 35.5438C39.8889 35.5368 39.8781 35.5277 39.8678 35.5187C39.8639 35.5154 39.8602 35.5121 39.8564 35.5088C39.8493 35.5025 39.842 35.4961 39.8338 35.4892C39.7857 35.4487 39.7202 35.4032 39.6173 35.3953C39.5645 35.3913 39.4999 35.3977 39.4211 35.4065C39.4149 35.4072 39.4087 35.4079 39.4025 35.4086C39.3292 35.4168 39.2462 35.4261 39.1558 35.4289C38.9588 35.435 38.7259 35.41 38.4707 35.2764C38.231 35.1509 37.9989 35.1416 37.7492 35.1324L37.7455 35.1323C37.4977 35.1232 37.2339 35.1135 36.9437 34.9807L36.9744 34.9137C37.2511 35.0404 37.5025 35.0497 37.7519 35.0588L37.7529 35.0589C38.001 35.068 38.2489 35.0771 38.5049 35.2112C38.7459 35.3374 38.9654 35.3611 39.1536 35.3553C39.2408 35.3526 39.321 35.3436 39.3946 35.3353C39.4007 35.3347 39.4068 35.334 39.4129 35.3333C39.4902 35.3247 39.562 35.3173 39.6229 35.3219C39.7477 35.3314 39.8276 35.3877 39.8813 35.4329C39.89 35.4402 39.8984 35.4476 39.9059 35.4542C39.9095 35.4574 39.9129 35.4604 39.916 35.4631C39.9263 35.472 39.9339 35.4782 39.9401 35.4823C39.9401 35.4823 39.9402 35.4823 39.9402 35.4824C39.9404 35.4789 39.9399 35.4737 39.9379 35.4661C39.9327 35.4471 39.9187 35.4209 39.8926 35.3918C39.8407 35.334 39.7457 35.2697 39.6006 35.2333C39.5295 35.2154 39.4655 35.2125 39.3989 35.2139C39.3761 35.2144 39.3524 35.2154 39.3277 35.2165C39.2818 35.2185 39.2327 35.2206 39.1812 35.2196C39.0177 35.2163 38.8166 35.1821 38.508 35.024C38.2122 34.8726 37.9983 34.8563 37.7881 34.8403L37.7846 34.8401C37.6089 34.8267 37.4348 34.813 37.2233 34.7191L35.5014 34.7839L35.4986 34.7103L37.088 34.6505C37.0856 34.6491 37.0831 34.6477 37.0807 34.6463L37.1175 34.5825C37.1591 34.6065 37.1991 34.6271 37.2378 34.6449L40.0151 34.5404L40.0156 34.5404L40.0157 34.5404L40.0158 34.5404L40.0159 34.5404C40.0162 34.5404 40.0168 34.5404 40.0177 34.5403C40.0193 34.5402 40.0219 34.5401 40.025 34.5397C40.0314 34.539 40.0392 34.5377 40.0466 34.5352C40.063 34.5298 40.0639 34.5245 40.0639 34.5206" fill="#85340A"/>
<path d="M35.4134 34.73L39.6504 36.3011C39.6504 36.3011 39.7288 36.3337 39.7506 36.2814C39.7723 36.2291 39.6938 36.1966 39.6938 36.1966L35.5867 34.3115M36.6848 35.4732C37.1102 35.9311 37.6248 35.9024 37.9837 36.3323C38.3426 36.7622 38.7823 36.7685 38.9859 36.8717C39.1895 36.9748 39.1766 37.1711 39.2435 37.1479C39.3105 37.1246 39.288 36.9047 39.0378 36.7188C38.7875 36.5329 38.5573 36.6337 38.1144 36.1131C37.6716 35.5925 37.3235 35.7162 36.9415 35.2194" fill="#F6B40E"/>
<path fill-rule="evenodd" clip-rule="evenodd" d="M39.7087 36.1627L35.6021 34.2778L35.5714 34.3447L39.679 36.2301L39.6795 36.2303L39.6796 36.2304L39.6797 36.2304L39.6798 36.2305C39.6801 36.2306 39.6807 36.2308 39.6814 36.2312C39.6829 36.2319 39.6852 36.233 39.6879 36.2345C39.6936 36.2376 39.7003 36.2419 39.7062 36.247C39.7193 36.2583 39.718 36.2635 39.7166 36.2671M39.7087 36.1627L39.7095 36.163C39.7101 36.1633 39.7108 36.1636 39.7117 36.164C39.712 36.1642 39.7124 36.1644 39.7128 36.1646C39.7155 36.1658 39.7191 36.1676 39.7234 36.17C39.7318 36.1746 39.7434 36.1817 39.7544 36.1913C39.7752 36.2093 39.8048 36.2465 39.7846 36.2953C39.7643 36.344 39.7171 36.3494 39.6897 36.3474C39.6751 36.3464 39.6619 36.3432 39.6527 36.3406C39.648 36.3392 39.6441 36.3379 39.6413 36.3369C39.6405 36.3366 39.6397 36.3363 39.639 36.336C39.6386 36.3359 39.6382 36.3357 39.6379 36.3356L39.6369 36.3352L37.2 35.4316C37.3058 35.5146 37.4117 35.5685 37.5218 35.6243L37.5254 35.6261C37.7155 35.7223 37.9176 35.8246 38.1425 36.089C38.3606 36.3455 38.5245 36.4469 38.6631 36.5076C38.7086 36.5275 38.7502 36.5426 38.7917 36.5577C38.8155 36.5664 38.8392 36.575 38.8636 36.5845C38.9288 36.6099 38.9935 36.6399 39.0597 36.6891C39.1898 36.7857 39.263 36.8929 39.2943 36.9819C39.3099 37.0261 39.3157 37.0675 39.3113 37.1016C39.3072 37.1341 39.2918 37.1699 39.2556 37.1825C39.2388 37.1883 39.221 37.1879 39.2046 37.1794C39.1902 37.1719 39.1802 37.1598 39.1732 37.1495C39.166 37.1389 39.1595 37.1264 39.1534 37.1142C39.1511 37.1096 39.1489 37.1051 39.1467 37.1006C39.1425 37.0921 39.1382 37.0834 39.1333 37.0739C39.1044 37.0181 39.0613 36.9509 38.9692 36.9043C38.922 36.8804 38.8598 36.8615 38.7836 36.8395C38.7777 36.8378 38.7717 36.8361 38.7657 36.8343C38.6949 36.8139 38.6145 36.7907 38.53 36.7587C38.3456 36.689 38.14 36.5768 37.9554 36.3557C37.782 36.1479 37.5711 36.0506 37.3439 35.9465L37.3406 35.945C37.1151 35.8418 36.875 35.7319 36.6578 35.4981L36.7118 35.448C36.9189 35.6709 37.1476 35.7757 37.3745 35.8796L37.3755 35.88C37.6012 35.9834 37.8267 36.0866 38.0119 36.3085C38.1863 36.5173 38.38 36.6232 38.5561 36.6899C38.6377 36.7208 38.7153 36.7431 38.7864 36.7637C38.7923 36.7654 38.7982 36.7671 38.8041 36.7688C38.8788 36.7904 38.9479 36.811 39.0025 36.8386C39.1141 36.8951 39.1664 36.9777 39.1987 37.04C39.2039 37.0501 39.2089 37.0602 39.2133 37.0691C39.2154 37.0735 39.2174 37.0775 39.2192 37.0812C39.2253 37.0934 39.23 37.102 39.2341 37.1081C39.2342 37.1082 39.2342 37.1082 39.2342 37.1083C39.2357 37.1052 39.2373 37.1002 39.2383 37.0923C39.2408 37.0728 39.2378 37.0433 39.2249 37.0064C39.1991 36.9331 39.1359 36.8374 39.0158 36.7482C38.9569 36.7044 38.8989 36.6773 38.8368 36.6531C38.8156 36.6448 38.7933 36.6367 38.7701 36.6282C38.7269 36.6125 38.6808 36.5957 38.6336 36.575C38.4838 36.5095 38.3111 36.4009 38.0864 36.1368C37.8711 35.8836 37.6797 35.7868 37.4916 35.6915L37.4885 35.69C37.3312 35.6104 37.1756 35.5311 37.0162 35.3634L35.4006 34.7643L35.4262 34.6953L36.9175 35.2483C36.9157 35.2461 36.914 35.2439 36.9123 35.2416L36.9707 35.1967C37 35.2348 37.0291 35.2692 37.058 35.3004L39.6639 36.2666L39.6644 36.2669L39.6644 36.2669L39.6645 36.2669L39.6646 36.267C39.6649 36.2671 39.6655 36.2673 39.6663 36.2676C39.6679 36.2682 39.6703 36.269 39.6733 36.2698C39.6794 36.2716 39.6872 36.2734 39.695 36.2739C39.7122 36.2752 39.7151 36.2706 39.7166 36.2671" fill="#85340A"/>
<path d="M35.3398 34.6809L38.653 37.7539C38.653 37.7539 38.7131 37.814 38.7532 37.774C38.7932 37.734 38.7331 37.6739 38.7331 37.6739L35.6601 34.3606M36.23 35.8541C36.4478 36.44 36.9342 36.6103 37.1013 37.1448C37.2684 37.6794 37.6721 37.8535 37.8208 38.0267C37.9695 38.1999 37.8824 38.3764 37.9531 38.3805C38.0239 38.3846 38.0872 38.1729 37.9272 37.9054C37.7672 37.6379 37.5158 37.6429 37.306 36.9924C37.0961 36.342 36.7271 36.3231 36.5643 35.7178" fill="#F6B40E"/>
<path fill-rule="evenodd" clip-rule="evenodd" d="M38.7597 37.6485L35.6871 34.3355L35.6331 34.3856L38.7065 37.6994L38.7069 37.6998L38.707 37.6999L38.707 37.6999L38.7071 37.7C38.7073 37.7003 38.7078 37.7007 38.7083 37.7013C38.7094 37.7026 38.7111 37.7045 38.7131 37.7069C38.7171 37.7119 38.7217 37.7185 38.7252 37.7254C38.7329 37.7409 38.7298 37.7452 38.7271 37.7479M38.7597 37.6485L38.7603 37.6491C38.7608 37.6496 38.7613 37.6502 38.762 37.6509C38.7622 37.6512 38.7625 37.6515 38.7628 37.6518C38.7648 37.654 38.7675 37.6571 38.7706 37.6609C38.7766 37.6684 38.7845 37.6794 38.791 37.6924C38.8033 37.717 38.8165 37.7627 38.7791 37.8C38.7417 37.8373 38.696 37.8242 38.6715 37.8119C38.6584 37.8053 38.6474 37.7974 38.6399 37.7914C38.6361 37.7883 38.633 37.7856 38.6308 37.7836C38.6302 37.783 38.6296 37.7824 38.629 37.782C38.6287 37.7817 38.6284 37.7814 38.6282 37.7811L38.6274 37.7804L36.7218 36.013C36.7878 36.1302 36.8649 36.2205 36.9453 36.3142L36.948 36.3173C37.0868 36.4789 37.2343 36.6507 37.3409 36.9811C37.4443 37.3015 37.5569 37.4579 37.6617 37.567C37.6961 37.6028 37.7288 37.6327 37.7614 37.6625C37.78 37.6796 37.7987 37.6967 37.8175 37.7147C37.8681 37.7632 37.9164 37.8157 37.9587 37.8864C38.042 38.0256 38.0685 38.1526 38.0634 38.2468C38.0609 38.2936 38.0504 38.334 38.0333 38.3639C38.0171 38.3924 37.9892 38.4195 37.9509 38.4173C37.9331 38.4162 37.9169 38.409 37.905 38.3949C37.8945 38.3824 37.8899 38.3675 37.8874 38.3553C37.8848 38.3427 37.8835 38.3287 37.8826 38.315C37.8822 38.31 37.8819 38.305 37.8816 38.2999C37.881 38.2905 37.8803 38.2808 37.8794 38.2701C37.8741 38.2075 37.8599 38.129 37.7928 38.0507C37.7583 38.0105 37.708 37.9693 37.6461 37.9198C37.6413 37.9159 37.6364 37.912 37.6315 37.9081C37.5739 37.8622 37.5085 37.81 37.4427 37.7481C37.299 37.6131 37.152 37.4307 37.0661 37.1558C36.9853 36.8975 36.8278 36.7269 36.6576 36.5438L36.6552 36.5411C36.4864 36.3595 36.3066 36.1661 36.1954 35.867L36.2645 35.8413C36.3705 36.1266 36.5417 36.3108 36.7116 36.4937L36.7123 36.4944C36.8813 36.6763 37.0501 36.858 37.1363 37.1339C37.2175 37.3935 37.3559 37.5655 37.4931 37.6944C37.5567 37.7542 37.6198 37.8046 37.6777 37.8508C37.6825 37.8546 37.6873 37.8584 37.6921 37.8622C37.7528 37.9108 37.8088 37.9563 37.8486 38.0027C37.9301 38.0977 37.9468 38.194 37.9528 38.2639C37.9538 38.2752 37.9545 38.2864 37.9551 38.2963C37.9554 38.3012 37.9557 38.3057 37.956 38.3098C37.957 38.3233 37.958 38.3331 37.9595 38.3404C37.9595 38.3404 37.9595 38.3405 37.9595 38.3405C37.9621 38.3382 37.9655 38.3342 37.9694 38.3273C37.9791 38.3103 37.9877 38.2819 37.9899 38.2428C37.9941 38.1653 37.9724 38.0527 37.8955 37.9243C37.8579 37.8613 37.8147 37.814 37.7666 37.7679C37.7501 37.7522 37.7326 37.7361 37.7144 37.7194C37.6805 37.6883 37.6444 37.6552 37.6086 37.618C37.4954 37.5001 37.3773 37.3337 37.2709 37.0037C37.1688 36.6875 37.0291 36.5247 36.8917 36.3648L36.8895 36.3621C36.7746 36.2284 36.6612 36.0956 36.578 35.8797L35.3147 34.7079L35.3648 34.6539L36.5309 35.7355C36.5302 35.7328 36.5294 35.7301 36.5287 35.7274L36.5998 35.7083C36.6123 35.7547 36.626 35.7975 36.6408 35.8374L38.6785 37.7274L38.6789 37.7278L38.679 37.7278L38.679 37.7279L38.6791 37.728C38.6794 37.7282 38.6798 37.7286 38.6804 37.7292C38.6817 37.7303 38.6836 37.732 38.686 37.7339C38.691 37.7379 38.6975 37.7425 38.7045 37.746C38.7199 37.7538 38.7243 37.7507 38.7271 37.7479" fill="#85340A"/>
<path d="M37.1171 34.235C37.7169 34.205 37.9825 33.8649 38.5292 33.9317C38.0969 33.7851 37.7618 34.1386 37.1233 34.1185M35.5494 34.6252L38.3702 33.3342L35.4626 34.416" fill="#85340A"/>
<path d="M37.1031 34.8757C37.6688 35.0774 38.0443 34.8649 38.5238 35.1358C38.1805 34.8349 37.7356 35.0333 37.1535 34.7704M35.5055 34.6362L38.6055 34.5229L35.5054 34.4097" fill="#85340A"/>
<path d="M36.8452 35.4621C37.2906 35.865 37.7189 35.8123 38.0582 36.2461C37.8562 35.8367 37.3693 35.8498 36.932 35.3841M35.4608 34.6295L38.3682 35.7112L35.5474 34.4202" fill="#85340A"/>
<path d="M36.3826 35.9053C36.6398 36.448 37.0557 36.5632 37.2032 37.0938C37.1732 36.6383 36.7183 36.464 36.4926 35.8665M35.4221 34.6063L37.6943 36.7183L35.5822 34.4461" fill="#85340A"/>
<path d="M35.5 36.3608C36.5163 36.3608 37.3403 35.5368 37.3403 34.5205C37.3403 33.5041 36.5163 32.6802 35.5 32.6802C34.4836 32.6802 33.6597 33.5041 33.6597 34.5205C33.6597 35.5368 34.4836 36.3608 35.5 36.3608Z" fill="#F6B40E"/>
<path fill-rule="evenodd" clip-rule="evenodd" d="M35.5001 32.73C34.5112 32.73 33.7095 33.5317 33.7095 34.5206C33.7095 35.5095 34.5112 36.3112 35.5001 36.3112C36.489 36.3112 37.2907 35.5095 37.2907 34.5206C37.2907 33.5317 36.489 32.73 35.5001 32.73ZM33.6101 34.5206C33.6101 33.4768 34.4563 32.6306 35.5001 32.6306C36.5439 32.6306 37.3901 33.4768 37.3901 34.5206C37.3901 35.5644 36.5439 36.4106 35.5001 36.4106C34.4563 36.4106 33.6101 35.5644 33.6101 34.5206Z" fill="#85340A"/>
<path d="M36.1273 34.127C36.0016 34.127 35.8813 34.1814 35.8105 34.2946C35.9521 34.422 36.2648 34.4359 36.4772 34.2802C36.3852 34.1811 36.253 34.127 36.1273 34.127ZM36.1252 34.1559C36.2475 34.1537 36.3619 34.2099 36.3778 34.2657C36.2363 34.4214 36.0101 34.4079 35.8685 34.2946C35.9304 34.1956 36.0301 34.1577 36.1252 34.1559Z" fill="#843511"/>
<path d="M36.1513 34.0396C35.9673 34.0396 35.9248 34.0821 35.8398 34.1529C35.7548 34.2236 35.7124 34.2095 35.6983 34.2236C35.6842 34.2378 35.6983 34.2802 35.7265 34.266C35.7548 34.2518 35.8116 34.2236 35.8964 34.1528C35.9814 34.082 36.0662 34.0821 36.1512 34.0821C36.406 34.0821 36.5476 34.2944 36.5758 34.2802C36.6041 34.266 36.4342 34.0396 36.1512 34.0396L36.1513 34.0396Z" fill="#85340A"/>
<path d="M36.6606 34.1243C36.3351 33.8412 35.9246 33.7987 35.698 34.0111C35.6426 34.0853 35.6071 34.1647 35.5925 34.2476C35.564 34.4087 35.6144 34.5829 35.7407 34.7614C35.7264 34.7613 35.698 34.7755 35.6839 34.7896C35.5715 34.5747 35.5317 34.354 35.5686 34.144C35.5783 34.0892 35.5934 34.0352 35.613 33.9826C35.9244 33.7279 36.349 33.6996 36.6605 34.1243L36.6606 34.1243Z" fill="#85340A"/>
<path d="M36.123 34.3927C36.1934 34.3927 36.2504 34.3357 36.2504 34.2653C36.2504 34.195 36.1934 34.1379 36.123 34.1379C36.0526 34.1379 35.9956 34.195 35.9956 34.2653C35.9956 34.3357 36.0526 34.3927 36.123 34.3927Z" fill="#85340A"/>
<path d="M36.4912 34.351C36.2505 34.5351 36.0099 34.5209 35.8683 34.4359C35.7268 34.351 35.7268 34.3228 35.7551 34.3228C35.7833 34.3228 35.8116 34.351 35.9249 34.4076C36.0382 34.4643 36.208 34.4643 36.4911 34.351L36.4912 34.351Z" fill="#85340A"/>
<path d="M35.2185 34.7749C35.158 34.7859 35.115 34.8396 35.115 34.9012C35.115 34.9715 35.1731 35.0275 35.2433 35.0275C35.2849 35.0275 35.323 35.0078 35.3469 34.9736C35.3959 35.0105 35.4638 35.0144 35.5001 35.0151C35.5057 35.0152 35.5129 35.0151 35.5166 35.0151C35.5529 35.0144 35.6208 35.0105 35.6698 34.9736C35.6937 35.0078 35.7318 35.0275 35.7733 35.0275C35.8436 35.0275 35.9017 34.9715 35.9017 34.9012C35.9017 34.8396 35.8587 34.7859 35.7982 34.7749C35.8322 34.7869 35.8541 34.8197 35.8541 34.8556C35.8541 34.9025 35.8162 34.9405 35.7692 34.9405C35.7241 34.9405 35.687 34.9047 35.6843 34.8598C35.6705 34.8874 35.6158 34.9694 35.5084 34.9737C35.4009 34.9694 35.3462 34.8874 35.3324 34.8598C35.3297 34.9047 35.2926 34.9405 35.2475 34.9405C35.2005 34.9405 35.1626 34.9025 35.1626 34.8556C35.1626 34.8197 35.1845 34.7869 35.2185 34.7749Z" fill="#85340A"/>
<path d="M35.357 35.1519C35.2154 35.1519 35.1594 35.2802 35.032 35.3651C35.1028 35.3369 35.1585 35.281 35.2576 35.2243C35.3568 35.1677 35.4413 35.2367 35.4978 35.2367H35.4999C35.5564 35.2367 35.6409 35.1677 35.74 35.2243C35.8392 35.281 35.897 35.3369 35.9678 35.3651C35.8403 35.2802 35.7823 35.1519 35.6406 35.1519C35.6124 35.1519 35.5564 35.1671 35.4999 35.1953H35.4978C35.4413 35.1671 35.3853 35.1519 35.357 35.1519Z" fill="#85340A"/>
<path d="M35.3093 35.3194C35.2533 35.3219 35.1794 35.3331 35.0732 35.3649C35.3281 35.3083 35.3844 35.3939 35.4977 35.3939H35.4997C35.613 35.3939 35.6692 35.3083 35.9241 35.3649C35.641 35.28 35.5847 35.336 35.4997 35.336H35.4977C35.4446 35.336 35.4024 35.3153 35.3093 35.3194Z" fill="#85340A"/>
<path d="M35.0861 35.3632C35.0696 35.3634 35.0517 35.3635 35.0322 35.3653C35.3296 35.3936 35.1866 35.564 35.498 35.564H35.5001C35.8115 35.564 35.6707 35.3936 35.968 35.3653C35.6566 35.337 35.755 35.5205 35.5001 35.5205H35.498C35.259 35.5205 35.3327 35.3601 35.0861 35.3632Z" fill="#85340A"/>
<path d="M35.755 35.8229C35.755 35.6823 35.6408 35.5681 35.5002 35.5681C35.3595 35.5681 35.2454 35.6823 35.2454 35.8229C35.2734 35.705 35.379 35.6216 35.5002 35.6216C35.6216 35.6216 35.727 35.705 35.755 35.8229Z" fill="#85340A"/>
<path d="M34.356 34.1243C34.6815 33.8412 35.092 33.7987 35.3186 34.0111C35.374 34.0853 35.4095 34.1647 35.4241 34.2476C35.4526 34.4087 35.4022 34.5829 35.276 34.7614C35.2902 34.7613 35.3186 34.7755 35.3327 34.7896C35.4451 34.5747 35.4849 34.354 35.448 34.144C35.4383 34.0892 35.4232 34.0352 35.4036 33.9826C35.0922 33.7279 34.6676 33.6996 34.3561 34.1243L34.356 34.1243Z" fill="#85340A"/>
<path d="M34.8653 34.0396C35.0493 34.0396 35.0918 34.0821 35.1768 34.1529C35.2618 34.2236 35.3042 34.2095 35.3183 34.2236C35.3324 34.2378 35.3183 34.2802 35.2901 34.266C35.2618 34.2518 35.205 34.2236 35.1202 34.1528C35.0352 34.082 34.9504 34.0821 34.8654 34.0821C34.6106 34.0821 34.469 34.2944 34.4408 34.2802C34.4125 34.266 34.5824 34.0396 34.8654 34.0396L34.8653 34.0396Z" fill="#85340A"/>
<path d="M34.8565 34.127C34.7309 34.127 34.6106 34.1814 34.5398 34.2946C34.6814 34.422 34.994 34.4359 35.2064 34.2802C35.1144 34.1811 34.9822 34.127 34.8565 34.127ZM34.8545 34.1559C34.9768 34.1537 35.0911 34.2099 35.1071 34.2657C34.9655 34.4214 34.7393 34.4079 34.5978 34.2946C34.6597 34.1956 34.7594 34.1577 34.8545 34.1559Z" fill="#843511"/>
<path d="M34.8732 34.3927C34.9436 34.3927 35.0006 34.3357 35.0006 34.2653C35.0006 34.195 34.9436 34.1379 34.8732 34.1379C34.8029 34.1379 34.7458 34.195 34.7458 34.2653C34.7458 34.3357 34.8029 34.3927 34.8732 34.3927Z" fill="#85340A"/>
<path d="M34.5254 34.351C34.7661 34.5351 35.0067 34.5209 35.1483 34.4359C35.2898 34.351 35.2898 34.3228 35.2615 34.3228C35.2333 34.3228 35.205 34.351 35.0917 34.4076C34.9784 34.4643 34.8086 34.4643 34.5255 34.351L34.5254 34.351Z" fill="#85340A"/>
</g>
<defs>
<clipPath id="clip0_81_11676">
<rect width="53" height="35" fill="white" transform="translate(9 17)"/>
</clipPath>
</defs>
</svg>
