<svg width="70" height="70" viewBox="0 0 70 70" fill="none" xmlns="http://www.w3.org/2000/svg">
<g clip-path="url(#clip0_82_45679)">
<path d="M35.0893 9.20312C41.9709 9.20312 48.5934 10.625 54.8493 13.4181C56.1439 18.6991 56.963 24.1838 56.9849 27.7891C56.9849 27.8907 56.9849 27.9414 56.9849 27.9921C56.9849 31.5468 56.4668 35.0507 55.4529 38.3518C54.4606 41.6014 52.9941 44.6482 51.0741 47.4922C49.1757 50.2345 46.8459 52.7734 44.1495 55.0079C41.2805 57.3943 37.8937 59.5781 35.0892 60.7972C32.3067 59.5781 28.9197 57.3943 26.0508 55.0079C23.3544 52.7734 21.0247 50.2345 19.1261 47.4922C17.2061 44.6482 15.7396 41.6014 14.7473 38.3518C13.7335 35.0507 13.2153 31.5468 13.2153 27.9921C13.2153 27.9414 13.2153 27.8907 13.2153 27.7891C13.2376 24.1838 14.0569 18.6993 15.3515 13.4181C21.6073 10.625 28.2295 9.20312 35.0893 9.20312Z" fill="white"/>
<path d="M35.0894 29.5159C36.6213 29.5159 38.045 29.9219 39.296 30.6329H52.0446C52.0665 29.7187 52.0446 28.7033 52.0233 27.7891C51.9584 23.8789 50.8153 17.2775 49.6935 12.707C45.1849 11.2343 40.3314 10.3711 35.1112 10.3711" fill="#DA140A"/>
<path d="M35.1111 10.4219C29.977 10.4219 25.2744 11.1834 20.507 12.707C19.3422 17.4295 18.3714 23.7265 18.2202 26.7229C18.0047 31.1408 18.328 34.34 19.2126 37.7934C19.7088 39.7735 20.356 41.6016 21.1974 43.4806C22.1035 43.0237 23.0524 42.4142 24.0012 41.7035C24.9937 40.9417 25.8567 40.0273 26.5685 39.1134C26.547 38.7581 26.5256 38.4528 26.5256 38.0975C26.5256 37.5901 26.5685 37.0815 26.6547 36.6253C24.8861 36.6757 23.8936 36.6757 23.0956 36.6757C22.1462 36.6757 21.2836 36.0158 20.8736 34.9999C20.6576 34.9999 20.4207 34.9999 20.4207 34.9999C20.0973 34.9999 19.5146 34.7459 19.5146 33.6287C19.5146 32.5625 20.0971 32.3086 20.4207 32.3086C20.4207 32.3086 20.6578 32.3086 20.8736 32.3086C21.2834 31.293 22.1462 30.6329 23.0956 30.6329H30.9258C32.1555 29.9219 33.5791 29.5159 35.1109 29.5159" fill="#EE120B"/>
<path d="M27.345 53.332C24.9294 50.9451 22.9447 48.305 21.3698 45.4609C19.7736 42.6173 18.6301 39.4181 17.9614 36.2189C17.2712 32.918 17.0553 29.5665 17.2927 26.0624C17.5087 22.7616 18.3714 17.7342 19.45 13.0625C18.4362 13.418 17.4005 13.8242 16.3866 14.2813C15.2437 18.8516 14.4453 24.6408 14.4238 27.7892C14.4238 31.3439 14.9199 34.746 15.8904 37.9456C16.9261 41.3479 18.3064 44.0902 20.1399 46.7816C21.9522 49.4731 24.2171 51.9101 26.8271 54.0938C29.2652 56.125 32.0691 57.9025 35.0891 59.4262C32.1989 57.6487 29.5884 55.6175 27.345 53.332Z" fill="#163A76"/>
<path d="M42.8551 53.332C45.2711 50.9451 47.256 48.305 48.8308 45.4609C50.4271 42.6173 51.5704 39.4181 52.2391 36.2189C52.9293 32.918 53.1452 29.5665 52.9078 26.0624C52.6918 22.7616 51.8078 17.6834 50.7292 13.0625C51.7645 13.418 52.8003 13.8242 53.8141 14.2813C54.957 18.8516 55.7554 24.6408 55.7554 27.7892C55.7769 31.3439 55.2806 34.746 54.2883 37.9456C53.3394 41.0941 51.9157 44.0397 50.0606 46.7816C48.227 49.4731 45.9834 51.9101 43.3727 54.0938C40.9354 56.125 38.1312 57.9025 35.0894 59.4262C37.9801 57.6487 40.6121 55.6175 42.8551 53.332Z" fill="#163A76"/>
<path d="M35.0893 29.9727C30.5809 29.9727 26.9355 33.6288 26.9355 38.0975C26.9355 42.6174 30.5809 46.2733 35.0893 46.2733C39.5977 46.2733 43.2436 42.6174 43.2436 38.0975C43.2436 33.6289 39.5977 29.9727 35.0893 29.9727Z" fill="#8D6E26"/>
<path d="M35.0894 46.6798C32.3283 46.6798 29.8692 45.3597 28.2946 43.3281C26.3747 44.4455 24.3685 45.3085 22.4272 45.9182C23.9589 48.559 25.8352 51.0475 28.1221 53.3323C30.1712 55.4147 32.5009 57.2932 35.0896 58.969" fill="#EE120B"/>
<path d="M23.0957 36.2698C22.2112 36.2698 21.456 35.5588 21.1539 34.5939C20.7875 34.5939 20.4208 34.5939 20.4208 34.5939C20.2263 34.5939 19.9463 34.3402 19.9463 33.6799C19.9463 32.969 20.2263 32.7149 20.4208 32.7149C20.4208 32.7149 20.7875 32.7149 21.1539 32.7149C21.456 31.7501 22.2112 31.0391 23.0957 31.0391H30.2143C28.4884 32.2578 27.2158 34.0353 26.7411 36.168C25.1448 36.2192 23.9371 36.2698 23.0957 36.2698Z" fill="#8D6E26"/>
<path d="M55.0216 13.215C48.96 10.5235 42.2945 9 35.0892 9C27.9057 9 21.24 10.5235 15.1786 13.215C13.7765 18.9024 13.0215 24.3868 13 27.7891C13 31.4452 13.4961 35.0001 14.5314 38.4024C15.5453 41.6526 17.0338 44.75 18.9538 47.5434C20.8522 50.3363 23.2035 52.9258 25.9216 55.16C28.467 57.2929 31.9402 59.6292 35.0892 60.9998C38.2601 59.6292 41.712 57.2928 44.2786 55.16C46.9969 52.9258 49.3482 50.3361 51.2466 47.5434C53.1665 44.75 54.6549 41.6526 55.6688 38.4024C56.6826 35.0001 57.2004 31.4454 57.1789 27.7891C57.1789 24.3868 56.4237 18.9024 55.0216 13.215ZM50.0603 46.7817C48.2481 49.422 45.9831 51.9102 43.3724 54.0939C40.935 56.1251 38.1309 57.9026 35.089 59.3753C32.069 57.9024 29.2652 56.125 26.827 54.0939C24.2168 51.9102 21.9519 49.422 20.1397 46.7817C19.9888 46.5789 19.8382 46.3244 19.7086 46.1213C22.3619 45.664 25.317 44.547 28.0353 42.9727C27.3666 42.0081 26.8705 40.8911 26.6545 39.6721C25.9644 40.5357 25.1659 41.348 24.2385 42.0591C22.7284 43.1759 20.9167 44.2934 18.9536 44.9024C17.659 42.7191 16.6453 40.3832 15.8902 37.9457C14.9198 34.7461 14.4237 31.344 14.4237 27.7893C14.4452 24.6409 15.2435 18.8517 16.3865 14.2814C22.2974 11.6915 28.5963 10.4219 35.0892 10.4219C41.6037 10.4219 47.903 11.6915 53.8139 14.2812C54.9568 18.8515 55.7552 24.6407 55.7767 27.7891C55.7767 28.9063 55.7337 29.9727 55.6256 31.0391H39.9432C41.8847 32.4102 43.2651 34.4924 43.5886 36.9297L46.5872 36.219C47.2559 36.0665 47.5147 35.6096 47.6009 35.2032L55.108 34.6952C54.8919 35.8127 54.6119 36.8791 54.31 37.9455C53.339 41.0941 51.9153 44.0397 50.0603 46.7817Z" fill="#8D6E26"/>
<path d="M35.6284 40.383V44.75C37.6774 44.5982 39.4681 43.4806 40.5899 41.9064L36.7721 39.7231C36.4698 40.0273 36.0813 40.2815 35.6284 40.383Z" fill="white"/>
<path d="M34.5503 31.4453C32.5007 31.6485 30.7106 32.7149 29.6104 34.3399L33.4067 36.5233C33.7089 36.168 34.0969 35.9648 34.5501 35.8634" fill="white"/>
<path d="M35.0891 36.9297C34.4425 36.9297 33.9028 37.4376 33.9028 38.0975C33.9028 38.7581 34.4425 39.3166 35.0891 39.3166C35.7579 39.3166 36.2758 38.7581 36.2758 38.0975C36.2758 37.4376 35.7579 36.9297 35.0891 36.9297Z" fill="white"/>
<path d="M35.6284 31.4453V35.8634C36.0811 35.9648 36.4913 36.1682 36.7932 36.5233L40.5897 34.3399C39.4683 32.7149 37.6776 31.6485 35.6284 31.4453Z" fill="white"/>
<path d="M34.5503 40.383C34.1833 40.2815 33.8601 40.1293 33.5793 39.875C33.5364 39.824 33.4717 39.7734 33.4067 39.7231L29.6104 41.9064C29.6966 42.0589 29.783 42.16 29.8907 42.2621C30.9906 43.684 32.6732 44.5982 34.5503 44.75" fill="white"/>
<path d="M37.311 38.7585L41.1292 40.9923C41.8623 39.4186 42.0783 37.2346 41.1292 35.2544L37.3324 37.438C37.4407 37.8443 37.4622 38.301 37.311 38.7585Z" fill="white"/>
<path d="M30.2358 34.188L33.3419 35.9651C33.5793 35.813 33.838 35.6607 34.1187 35.5081V31.9536C32.5869 32.2072 31.2067 32.9692 30.2358 34.188Z" fill="#8D6E26"/>
<path d="M36.0601 31.9536V35.5587C36.3403 35.6607 36.5992 35.8129 36.8365 35.9651L39.9429 34.188C38.9721 32.9692 37.5913 32.2072 36.0601 31.9536Z" fill="#8D6E26"/>
<path d="M41.3022 37.488C41.2588 36.9297 41.1295 36.3712 40.9137 35.8633L37.8076 37.6407C37.8291 37.7933 37.8505 37.9455 37.8505 38.0975C37.8505 38.1486 37.8505 38.2502 37.8505 38.3006C38.7137 38.047 39.6411 37.8439 40.5903 37.6407C40.8061 37.5903 41.065 37.5393 41.3022 37.488Z" fill="#8D6E26"/>
<path d="M35.089 58.969C37.6777 57.2931 40.029 55.4146 42.0785 53.3323C44.4945 50.9454 46.4792 48.2542 48.0321 45.4109C49.6071 42.516 50.7289 39.3168 51.3978 36.1171C51.4405 35.8635 51.4838 35.6097 51.5267 35.356L47.9244 35.6097C47.7302 36.1171 47.299 36.5236 46.6945 36.6257C46.6732 36.6257 45.3571 36.981 43.6316 37.3872C43.6532 37.5903 43.6745 37.8443 43.6745 38.0977C43.6745 42.8717 39.8348 46.6798 35.0889 46.6798" fill="#DA140A"/>
<path d="M35.8439 38.0979C35.8439 37.6916 35.5201 37.3364 35.0889 37.3364C34.6791 37.3364 34.334 37.6918 34.334 38.0979C34.334 38.5555 34.6791 38.8596 35.0889 38.8596C35.5201 38.8596 35.8439 38.5554 35.8439 38.0979Z" fill="#8D6E26"/>
<path d="M36.0601 44.2932C37.5915 44.0396 38.9723 43.2268 39.9431 42.0589L36.8367 40.2305C36.5992 40.4334 36.3405 40.5862 36.0602 40.6877V44.2932" fill="#D40026"/>
<path d="M30.2358 42.0589L33.3419 40.2305C33.5793 40.4334 33.838 40.5862 34.1187 40.6877V44.2932C32.5869 44.0396 31.2067 43.2268 30.2358 42.0589Z" fill="#FE000C"/>
<path d="M41.3449 38.0977C41.3449 38.0472 41.3449 37.9457 41.3236 37.8945C41.1076 37.8945 40.8702 37.9457 40.6549 37.9968C39.7059 38.1998 38.7997 38.453 37.98 38.6562L40.9136 40.3832C41.194 39.672 41.3449 38.9103 41.3449 38.0977Z" fill="#D40026"/>
<path d="M29.0495 35.2544C28.1866 37.1332 28.2296 39.2154 29.0708 40.9923L32.8677 38.7585C32.7382 38.3522 32.7382 37.8947 32.8677 37.438" fill="white"/>
<path d="M29.2868 40.3828L32.3715 38.5549C32.3281 38.25 32.3281 37.9453 32.3715 37.6405L29.2652 35.8633C28.7043 37.3358 28.7043 38.9101 29.2868 40.3828Z" fill="#8D6E26"/>
<path d="M38.1954 24.1328C38.1954 24.3359 38.1528 24.8943 38.1313 25.0468H40.6122C40.461 24.3867 40.3961 23.4725 40.3746 22.7617C40.3746 22.8125 40.3314 21.3398 40.3314 21.3398C40.3314 21.2382 40.3746 21.086 40.439 21.035C40.5252 20.9336 40.612 20.9336 40.7197 20.9336C40.8275 20.883 41.0215 20.883 41.0435 21.2891L41.1077 22.8126C41.1296 23.5233 41.1296 24.4885 41.0435 25.047H43.4375C43.4161 24.844 43.3512 24.3363 43.3299 24.1838C43.632 24.8438 44.2788 25.1992 45.1419 25.1992C45.6597 25.1992 46.0482 24.9962 46.3497 24.7929C46.3497 24.8438 46.4793 25.0468 46.4793 25.0468H50.923C50.7289 24.3867 50.5994 23.4725 50.5345 22.7617L49.9092 17.785L47.6223 17.3787C47.8168 18.039 47.9459 19.0038 48.0321 19.6641L48.3772 22.8632C48.4421 23.4219 48.4853 24.0312 48.4853 24.6915V24.7421L48.3991 24.5393C48.2264 24.1328 48.1402 23.6247 48.0755 22.8632L47.9893 21.8475C47.8596 20.2224 46.9754 19.5117 45.0336 19.5117C44.7098 19.5117 43.8907 19.5625 43.3944 19.7149L43.5235 21.5427L44.0413 21.2378C44.473 20.9842 44.7968 20.8827 45.1846 20.8827C45.4868 20.8827 45.6808 20.9842 45.7672 21.1872C45.4006 21.2378 44.9908 21.3394 44.5374 21.5427C43.8471 21.8475 43.416 22.3044 43.2218 22.8123C43.2218 22.8123 43.2218 22.8123 43.2218 22.7615L43.1571 21.0856C43.1137 20.0192 42.4235 19.3084 41.3664 19.3084C40.8922 19.3084 40.4607 19.4607 40.0723 19.7149C40.0508 19.6641 40.029 19.6133 40.0075 19.5625L39.9212 19.3593L37.9366 19.2578C38.0228 19.6135 38.1526 20.6289 38.1739 20.9846C38.0664 20.4767 37.786 19.9178 37.2678 19.5117C36.8578 19.2578 36.3402 19.1054 35.8013 19.1054C35.0679 19.1054 34.3129 19.4101 33.8167 19.9177C33.2989 20.4255 33.0402 21.1362 33.0181 21.949C32.8243 21.7461 32.5656 21.5427 32.2637 21.4412L31.3576 20.9844H31.3144C31.0987 20.8828 31.0769 20.832 31.0769 20.7812C31.0987 20.6797 31.3144 20.5781 31.595 20.5781C31.9828 20.5781 32.5221 20.7812 32.9538 21.035L32.9966 19.4101C32.673 19.2578 32.2203 19.1562 31.5731 19.1562C31.228 19.1562 30.5806 19.2071 30.02 19.5119C29.869 19.6135 29.7393 19.715 29.6102 19.8168L29.6317 19.3595C29.1139 19.2579 28.5531 19.2579 27.8629 19.918C27.8408 19.8672 27.7982 19.6135 27.7553 19.5119L25.6195 19.6135C25.7705 20.2226 25.7922 21.086 25.7486 21.8476L25.7058 22.6603V22.7617C25.6842 23.1682 25.6624 23.6249 25.6195 24.0312C25.4469 23.4725 25.2531 22.7109 25.1018 22.1018L24.0445 17.3281L21.0247 17.785C21.0462 17.836 21.0894 17.9884 21.1109 18.1406C21.1325 18.3437 21.1325 18.7499 20.8521 19.6135C20.3558 20.9846 19.6658 23.0666 18.997 24.5395C18.9108 24.7423 18.7378 25.047 18.7378 25.047H21.0894C21.1325 24.6916 21.2836 24.0822 21.4345 23.6251C21.7582 23.6251 22.5993 23.6251 22.9875 23.5745C23.0737 23.93 23.1601 24.3869 23.182 24.6918L23.2249 25.0472H27.928C27.8197 24.2857 27.8631 23.2701 27.9059 22.7112C27.9493 22.0511 28.0786 21.594 28.3591 21.3401C28.5746 21.0863 28.812 21.0354 28.9847 21.0354C28.9631 21.9496 29.5456 22.3557 30.0632 22.6097L30.9906 23.0669C31.3144 23.2701 31.3144 23.3207 31.3144 23.4225C31.2929 23.5746 31.034 23.6253 30.7967 23.6253C30.3006 23.6253 29.6319 23.3207 28.8982 22.5081L28.8552 24.6412C29.4377 24.9458 30.1708 25.0981 30.818 25.0981C31.8966 25.0981 33.0402 24.5904 33.3419 23.6253C33.8816 24.6412 34.9386 25.0981 35.974 25.0981C36.9016 25.0976 37.5916 24.7927 38.1954 24.1328ZM21.9953 22.0506C22.125 21.6951 22.2327 21.3905 22.427 20.832C22.5563 21.3905 22.6212 21.7461 22.6859 22C22.427 22.0506 22.2976 22.0506 21.9953 22.0506ZM35.1975 21.4919C35.1975 20.7812 35.4564 20.4765 35.7153 20.4765C35.8015 20.4765 35.9955 20.4255 36.0817 20.7812C36.1251 20.9334 36.1466 21.0348 36.1466 21.0858C36.1466 21.289 36.0389 21.3396 35.9091 21.3396V21.3905C35.9091 21.3905 35.5426 21.4919 35.1975 21.6443C35.1975 21.5937 35.1975 21.5427 35.1975 21.4919ZM37.6565 22.9648C37.2036 23.3713 36.88 23.6247 36.3404 23.6247C35.9091 23.5741 35.6502 23.3202 35.4992 22.9648C35.9523 22.8125 37.6997 22.1524 38.1953 21.949C38.1953 22.3554 38.2173 22.8125 38.2173 22.8125C38.2173 23.1172 38.2173 23.4219 38.2173 23.6757L37.6565 22.9648ZM45.7025 23.6755C45.293 23.6755 45.2064 23.3711 45.1848 23.168C45.2063 22.9648 45.271 22.6601 45.9184 22.4569C45.9399 22.7107 45.9618 22.914 45.9618 22.914V23.117C45.9831 23.2696 45.9831 23.4219 46.0046 23.5741C45.9185 23.6247 45.8108 23.6247 45.7025 23.6755Z" fill="#8D6E26"/>
<path d="M32.6302 19.6641C32.4142 19.6133 32.0906 19.5117 31.5731 19.5117C31.1631 19.5117 30.624 19.6133 30.2142 19.8166C29.7394 20.1212 29.3943 20.5273 29.3728 20.9846C29.3294 21.6953 29.6964 22.0002 30.2357 22.254C30.6027 22.457 30.9476 22.6603 31.1631 22.7617C31.4439 22.9141 31.7028 23.0666 31.6807 23.4219C31.6596 23.7773 31.3358 24.0312 30.7967 24.0312C30.3433 24.0312 29.6966 23.7263 29.2432 23.3204L29.2217 24.3868C29.6102 24.5899 30.2357 24.6917 30.818 24.6917C31.8103 24.6917 33.0402 24.2346 33.0617 23.1172C33.0831 22.254 32.4792 21.9492 32.1126 21.7463C31.7456 21.5939 31.3792 21.3907 31.2065 21.3398C31.0339 21.2382 30.6887 21.1366 30.7104 20.7307C30.7533 20.3751 31.1631 20.2226 31.5952 20.2226C31.9616 20.2226 32.3281 20.3242 32.6088 20.4767" fill="white"/>
<path d="M23.7641 17.7852L21.4772 18.0901C21.5206 18.3948 21.4344 19.0041 21.197 19.7151C20.7223 21.0859 19.9458 23.3714 19.3418 24.6918H20.7655C20.8517 24.2347 20.9596 23.8283 21.1753 23.2698L23.2892 23.2189C23.3755 23.625 23.5266 24.2854 23.5481 24.6918H25.4679C25.2305 24.1331 24.9288 22.9651 24.7344 22.1527L23.7641 17.7852ZM21.4772 22.4062L22.5129 19.4104L23.1383 22.3556" fill="white"/>
<path d="M29.243 19.6641L29.2002 20.6797C28.8551 20.6289 28.4237 20.7305 28.0782 21.0858C27.7765 21.3907 27.5822 21.8475 27.5391 22.6603C27.4957 23.3203 27.4744 24.0822 27.5176 24.6916H25.8994C26.0072 24.0822 26.0505 23.3715 26.0721 22.711L26.1154 21.8988C26.1583 21.2383 26.1583 20.5784 26.0507 19.969L27.4744 19.9182C27.5391 20.1213 27.582 20.477 27.5606 20.8326C28.1863 19.867 28.7903 19.6641 29.243 19.6641Z" fill="white"/>
<path d="M49.5857 18.0899L48.1187 17.8359C48.2698 18.4962 48.3132 18.9529 48.3994 19.6134L48.7445 22.8126C48.8094 23.4726 48.8736 24.0821 48.8521 24.6916H50.4484C50.2978 24.0821 50.2329 23.4726 50.1682 22.8126" fill="white"/>
<path d="M43.006 24.6915C42.9197 24.082 42.8767 23.4725 42.8548 22.8125L42.7905 21.1364C42.7473 20.2224 42.2295 19.7149 41.3664 19.7149C40.8922 19.7149 40.3313 19.8669 39.8564 20.4765C39.8348 20.324 39.7701 19.9177 39.6837 19.7149L38.3896 19.6641C38.4972 20.2734 38.5406 20.8828 38.5623 21.5427L38.5836 22.8123C38.6051 23.4724 38.5836 24.0818 38.5408 24.6913H40.1586C40.0724 24.0818 40.029 23.4724 40.0075 22.8123L39.9646 21.3904C39.9431 20.8826 40.3313 20.5269 40.7196 20.5269C41.1723 20.5269 41.3883 20.8319 41.4098 21.2886L41.4746 22.8121C41.4961 23.4722 41.4961 24.0816 41.453 24.6911" fill="white"/>
<path d="M48.0541 24.6918C47.8596 24.1839 47.752 23.5744 47.7086 22.9144L47.6224 21.8987C47.5361 20.68 47.0185 19.8672 45.0337 19.8672C44.6888 19.8672 44.1923 19.918 43.7825 20.0196L43.8472 20.9338C44.2572 20.68 44.6671 20.4768 45.1847 20.4768C45.7243 20.4768 46.177 20.7306 46.2206 21.4923C45.7024 21.543 45.2281 21.6446 44.6886 21.8987C44.0846 22.1525 43.4593 22.6604 43.5236 23.4729C43.5883 24.3871 44.2786 24.793 45.1418 24.793C45.8105 24.793 46.2632 24.4885 46.5221 24.1839C46.5655 24.3869 46.6302 24.5396 46.6948 24.6918H48.0541ZM45.7024 24.0315C45.2282 24.0315 44.8396 23.7776 44.8182 23.2191C44.8182 22.6606 45.1633 22.2035 46.2632 22.0511L46.3281 22.9145C46.3495 23.2193 46.3495 23.4224 46.3929 23.676C46.2421 23.8792 45.9832 23.9807 45.7024 24.0315Z" fill="white"/>
<path d="M37.0525 19.8166C36.6855 19.5627 36.2541 19.4609 35.8013 19.4609C34.744 19.4609 33.3419 20.2224 33.3853 22.1524C33.4066 24.1328 34.9167 24.7423 35.9739 24.7423C36.9015 24.7423 37.4623 24.3868 37.9154 23.9298L37.5916 23.4727C37.3542 23.6757 36.9662 23.9806 36.3404 23.9806C35.6716 23.9298 35.2405 23.4727 35.0029 22.7619L37.9367 21.6955C37.8503 20.7307 37.5052 20.172 37.0525 19.8166ZM36.0386 21.6955L34.8738 22.1526C34.852 21.9494 34.8305 21.7463 34.8305 21.4923C34.8305 20.3243 35.4778 20.1214 35.6932 20.1214C36.0388 20.0706 36.3405 20.2737 36.4486 20.6801C36.5777 21.1366 36.5347 21.5429 36.0386 21.6955Z" fill="white"/>
</g>
<defs>
<clipPath id="clip0_82_45679">
<rect width="44.1788" height="52" fill="white" transform="translate(13 9)"/>
</clipPath>
</defs>
</svg>
