<svg width="70" height="70" viewBox="0 0 70 70" fill="none" xmlns="http://www.w3.org/2000/svg">
<g clip-path="url(#clip0_82_45347)">
<path fill-rule="evenodd" clip-rule="evenodd" d="M35.3981 60.9999L18.5065 48.1752C18.5065 48.1752 17.6728 47.3394 17.3388 46.8565C16.9829 46.3417 16.6949 45.777 16.4631 45.1956C16.2839 44.7458 16.1618 44.2723 16.0704 43.7963C16.0283 43.5776 16 43.1319 16 43.1319L16.0101 13.3555C16.0101 13.3555 16.1962 12.8591 16.3422 12.6407C16.4995 12.4057 16.6966 12.1946 16.9163 12.0167C17.1403 11.8348 17.4002 11.6986 17.6609 11.5739C18.1485 11.341 18.6619 11.1607 19.1809 11.0102C20.5514 10.6135 23.3685 10.1243 23.3685 10.1243C23.3685 10.1243 24.9561 9.85004 25.7543 9.74163C27.4336 9.51347 29.1172 9.30285 30.8076 9.1778C32.0833 9.08347 33.3638 9.06445 34.6428 9.03703C35.693 9.01436 36.744 8.97853 37.7936 9.01692C39.3982 9.07542 40.9981 9.23484 42.5953 9.39938C43.4467 9.48714 45.1424 9.72152 45.1424 9.72152L50.9909 10.8892C50.9909 10.8892 51.9964 11.126 52.4809 11.3018C52.8999 11.4543 53.3277 11.6084 53.6988 11.8558C53.916 12.0006 54.1053 12.1885 54.2725 12.3893C54.3923 12.533 54.4919 12.6946 54.5746 12.8624C54.6486 13.0129 54.7095 13.1718 54.7457 13.3356C54.7865 13.5197 54.796 13.8992 54.796 13.8992L54.8263 19.3552L54.8062 43.263C54.8062 43.263 54.6354 44.1548 54.5144 44.5917C54.4131 44.9568 54.3075 45.3236 54.1519 45.6689C54.0139 45.9761 53.8301 46.2609 53.6488 46.5446C53.4391 46.8737 53.2301 47.2065 52.9741 47.5008C52.7023 47.8149 52.3851 48.0877 52.0684 48.3564C51.7308 48.6435 51.0113 49.1619 51.0113 49.1619C45.7585 53.1288 40.2219 57.3312 35.3983 61.0001L35.3981 60.9999Z" fill="#2D315F"/>
<path d="M20.2542 41.2596L18.9996 40.3583L17.7188 41.2212L18.1883 39.75L16.9718 38.7985L18.5163 38.7904L19.0453 37.3395L19.5304 38.8058L21.074 38.8606L19.8293 39.7747L20.2542 41.2596ZM19.7039 27.71L18.606 26.9214L17.4848 27.6764L17.8958 26.3886L16.8308 25.5557L18.1828 25.5483L18.6461 24.2785L19.0706 25.5619L20.4216 25.61L19.332 26.4104L19.7039 27.71ZM20.0019 16.2748L18.8055 15.415L17.5837 16.2381L18.0316 14.8346L16.8712 13.9268L18.3444 13.919L18.849 12.535L19.3115 13.9336L20.784 13.9859L19.5967 14.858L20.0019 16.2748ZM36.1488 14.2013L34.9521 13.3414L33.7302 14.1645L34.1782 12.7608L33.018 11.8531L34.4912 11.8454L34.9957 10.4614L35.4583 11.86L36.9307 11.9121L35.7435 12.7842L36.1488 14.2013ZM41.6851 25.5761L40.4887 24.7165L39.2669 25.5396L39.7148 24.136L38.5542 23.2285L40.0274 23.2208L40.532 21.8369L40.9949 23.2355L42.4672 23.2876L41.2799 24.1596L41.6851 25.5761ZM31.2162 33.126L30.0195 32.2662L28.7975 33.0896L29.2454 31.6861L28.0852 30.7784L29.5584 30.7705L30.063 29.3865L30.5255 30.7851L31.998 30.8372L30.8107 31.7093L31.2162 33.126Z" fill="white"/>
<path fill-rule="evenodd" clip-rule="evenodd" d="M36.3342 23.1202L36.2939 17.8052C36.2939 17.8052 37.0404 18.2251 37.4415 18.369C37.6883 18.4575 37.9454 18.5288 38.2066 18.55C38.5015 18.5745 38.8058 18.5632 39.0924 18.4897C39.3718 18.4184 39.6451 18.2977 39.8776 18.1277C40.0385 18.0094 40.1634 17.8461 40.2802 17.6845C40.3844 17.5408 40.542 17.2214 40.542 17.2214C40.542 17.2214 41.2234 17.3737 41.5686 17.3622C41.8355 17.3536 42.1024 17.2913 42.3538 17.2013C42.6251 17.1044 42.8902 16.9741 43.1189 16.7987C43.3145 16.6485 43.4937 16.466 43.6222 16.255C43.7147 16.1029 43.7727 15.9278 43.8032 15.7519C43.8288 15.6066 43.8155 15.4561 43.8032 15.3091C43.7977 15.1574 43.7617 15.0188 43.7027 14.8862L46.5213 15.3292L36.3342 23.1202Z" fill="white"/>
<path d="M51.9924 16.2945L50.7957 15.4348L49.5739 16.2579L50.0218 14.8544L48.8616 13.9468L50.3348 13.9391L50.8394 12.5552L51.3019 13.9538L52.7744 14.0059L51.5871 14.8779L51.9924 16.2945Z" fill="white"/>
<path fill-rule="evenodd" clip-rule="evenodd" d="M21.4561 34.3939L21.4762 15.9123L25.0599 15.2075C25.0599 15.2075 25.133 15.6353 25.2207 15.8317C25.2999 16.0081 25.4138 16.1704 25.5431 16.3147C25.8294 16.6339 26.1471 16.9463 26.5296 17.1401C26.881 17.318 27.2852 17.3829 27.6772 17.4217C27.9916 17.4531 28.3141 17.444 28.6236 17.3815C28.813 17.3436 29.1672 17.1804 29.1672 17.1804C29.1672 17.1804 29.426 17.6782 29.6202 17.8751C29.8103 18.0678 30.0498 18.2122 30.2948 18.3279C30.548 18.4477 30.8235 18.5225 31.1 18.5693C31.3846 18.6181 31.6773 18.6269 31.9656 18.6099C32.2916 18.5905 32.617 18.5353 32.932 18.449C33.182 18.38 33.6568 18.1669 33.6568 18.1669V25.1127L27.194 30.0855L27.2042 29.25C27.2042 29.25 27.5362 29.0635 27.6773 28.9379C27.9265 28.7163 28.1426 28.4541 28.3218 28.173C28.5445 27.8234 28.7083 27.4366 28.8452 27.0455C28.9297 26.8042 28.9772 26.5513 29.0262 26.3005C29.0692 26.0824 29.1249 25.6409 29.1249 25.6409C29.1249 25.6409 28.8896 25.6975 28.7697 25.7118C28.5646 25.7359 28.1507 25.7347 28.1507 25.7347C28.1507 25.7347 28.5388 25.5888 28.7277 25.5034C28.8494 25.4482 28.9694 25.3886 29.0854 25.3224C29.2518 25.227 29.4297 25.1432 29.5699 25.0121C29.8502 24.7498 30.0604 24.4172 30.2542 24.086C30.4363 23.7746 30.5778 23.4393 30.6972 23.0993C31.0164 22.1901 31.1393 21.222 31.4219 20.3008C31.5157 19.9944 31.7441 19.3947 31.7441 19.3947C31.7441 19.3947 31.3217 19.3446 31.1199 19.3947C30.9945 19.4258 30.8762 19.4927 30.7777 19.5761C30.5839 19.7397 30.4605 19.9724 30.3146 20.1799C30.0434 20.5651 29.8184 20.9813 29.5494 21.3677C29.4153 21.5606 29.277 21.7511 29.1268 21.9316C29.0507 22.023 28.8851 22.193 28.8851 22.193C28.8851 22.193 28.1163 21.7221 27.8986 21.3476C27.7922 21.1644 27.8258 20.9299 27.7779 20.7235C27.7258 20.5001 27.5965 20.0591 27.5965 20.0591C27.5965 20.0591 27.9439 19.481 28.0797 19.1733C28.1547 19.0042 28.2406 18.8333 28.2607 18.6497C28.2801 18.4751 28.262 18.2908 28.2004 18.1263C28.1465 17.9815 28.0721 17.8219 27.939 17.7436C27.875 17.7062 27.7174 17.7235 27.7174 17.7235L26.4694 18.5289C26.4694 18.5289 26.3021 18.4258 26.2076 18.4082C26.1052 18.389 25.9928 18.3907 25.8955 18.4283C25.635 18.5289 25.4527 18.7693 25.241 18.9517C25.1441 19.0355 24.9595 19.2132 24.9595 19.2132C24.9595 19.2132 24.628 19.0779 24.456 19.0925C24.3543 19.1013 24.254 19.1492 24.1745 19.2132C24.1295 19.2497 24.0955 19.3009 24.0739 19.3543C24.0404 19.436 24.0178 19.5293 24.0337 19.6161C24.1008 19.9872 24.4483 20.252 24.5871 20.6026C24.6949 20.8758 24.7567 21.1675 24.7984 21.4582C24.8429 21.7672 24.852 22.0824 24.8386 22.3943C24.8143 22.9757 24.7447 23.5581 24.6174 24.1256C24.4889 24.6973 24.2615 25.2419 24.0737 25.7966C23.9048 26.2957 23.7863 26.8162 23.5501 27.2866C23.383 27.6194 22.926 28.2128 22.926 28.2128C22.926 28.2128 22.6865 28.4282 22.644 28.5752C22.6161 28.6724 22.6221 28.7905 22.6742 28.8772C22.7303 28.9704 22.8442 29.0203 22.9461 29.0582C23.0475 29.096 23.2682 29.0984 23.2682 29.0984C23.2682 29.0984 23.4444 29.3867 23.5099 29.5416C23.6247 29.8134 23.7165 30.0974 23.7713 30.3871C23.8053 30.5658 23.8013 30.7491 23.8115 30.9307C23.8211 31.0916 23.8285 31.2528 23.832 31.4139C23.8371 31.6621 23.8426 31.9108 23.832 32.1589C23.8253 32.3137 23.7918 32.622 23.7918 32.622L21.4561 34.3939Z" fill="white"/>
<path fill-rule="evenodd" clip-rule="evenodd" d="M17.9897 44.6416C17.9897 44.6416 18.3737 45.3971 18.6071 45.7492C18.8333 46.0898 19.0763 46.4234 19.3622 46.7156C19.8077 47.1708 20.3416 47.5299 20.842 47.9235C21.2308 48.2294 22.0248 48.8193 22.0248 48.8193V41.5415L17.9897 44.6416Z" fill="#B0382A"/>
<path fill-rule="evenodd" clip-rule="evenodd" d="M22.0247 41.5418L27.4496 37.4385V52.9419L22.0247 48.8199" fill="white"/>
<path fill-rule="evenodd" clip-rule="evenodd" d="M27.4497 37.4381L32.6744 33.3525V56.9559L27.4497 52.9411" fill="#B0382A"/>
<path fill-rule="evenodd" clip-rule="evenodd" d="M32.6743 56.9561L35.4148 59.0772L38.0914 56.9561V29.2529L32.6743 33.3527" fill="white"/>
<path fill-rule="evenodd" clip-rule="evenodd" d="M38.0913 56.9558L43.3444 52.9557V25.209L38.0913 29.2521" fill="#B0382A"/>
<path fill-rule="evenodd" clip-rule="evenodd" d="M43.3442 52.9557L48.7326 48.9128V21.0811L43.3442 25.2096" fill="white"/>
<path fill-rule="evenodd" clip-rule="evenodd" d="M48.7327 21.081L53.1387 17.7783V43.0331C53.1387 43.0331 53.076 43.4693 53.0345 43.6858C52.9882 43.9257 52.9467 44.1675 52.8736 44.4006C52.7855 44.6804 52.6718 44.9531 52.5412 45.216C52.4279 45.4438 52.2968 45.6636 52.1515 45.8724C51.965 46.1411 51.7606 46.3989 51.5346 46.6353C51.2403 46.9424 50.9057 47.2094 50.5784 47.4809C49.9788 47.9778 48.7327 48.9129 48.7327 48.9129" fill="#B0382A"/>
</g>
<defs>
<clipPath id="clip0_82_45347">
<rect width="38.8263" height="52" fill="white" transform="translate(16 9)"/>
</clipPath>
</defs>
</svg>
