<svg width="70" height="70" viewBox="0 0 70 70" fill="none" xmlns="http://www.w3.org/2000/svg">
<path fill-rule="evenodd" clip-rule="evenodd" d="M14.2454 11.5876C17.6684 13.0901 23.2865 12.9122 27.0547 10.0684C32.3236 13.9289 37.3947 13.5326 42.2298 10.0684C45.4534 12.3985 50.4166 13.3934 55.0736 11.6365L57.1613 14.5372C51.7174 21.8125 53.7325 28.7667 59.3476 34.8867L56.9897 37.2775C57.5239 52.9689 45.3706 56.7153 38.392 57.1042L34.6399 60.1741L30.9158 57.15C18.4568 56.074 11.8787 49.5012 12.2856 37.3177L9.86133 34.8684C14.5982 29.7448 18.1576 22.7436 12.0727 14.5356L14.2454 11.5876Z" fill="black" stroke="black" stroke-width="0.189272"/>
<path fill-rule="evenodd" clip-rule="evenodd" d="M14.5292 37.002H54.6189C55.6725 48.0956 48.6244 54.0876 37.9068 54.6767L31.0964 54.6939C20.8425 53.9568 13.2031 48.543 14.5292 37.002Z" fill="#004D98"/>
<path d="M37.4903 37.1353H31.8115V54.8623H37.4903V37.1353Z" fill="#A50044"/>
<path d="M26.1876 37.1353H20.5088V52.9781H26.1876V37.1353Z" fill="#A50044"/>
<path d="M26.1876 52.1665H22.4888V53.7984H26.1876V52.1665Z" fill="#A50044"/>
<path d="M48.7281 37.1353H43.0493V52.9781H48.7281V37.1353Z" fill="#A50044"/>
<path d="M46.7482 52.1665H43.0493V53.7984H46.7482V52.1665Z" fill="#A50044"/>
<path fill-rule="evenodd" clip-rule="evenodd" d="M34.4663 15.2532V30.9988L15.3292 31.1373L17.3017 23.5586L14.8447 14.4918L26.9568 12.9346L34.4663 15.2532Z" fill="white"/>
<path fill-rule="evenodd" clip-rule="evenodd" d="M34.7432 15.2532V30.9988L53.8802 31.1373L51.9077 23.5586L54.3647 14.4918L42.2526 12.9346L34.7432 15.2532Z" fill="#FFED02"/>
<path d="M28.8951 13.3833H23.4082V30.9014H28.8951V13.3833Z" fill="#DB0030"/>
<path d="M34.4663 25.4044V19.9175H17.3928V25.4044H34.4663Z" fill="#DB0030"/>
<path d="M38.4898 14.625H36.4604V30.7873H38.4898V14.625Z" fill="#DB0030"/>
<path d="M42.3418 13.4673H40.3125V30.8254H42.3418V13.4673Z" fill="#DB0030"/>
<path d="M46.2198 14.4458H44.1904V30.8617H46.2198V14.4458Z" fill="#DB0030"/>
<path d="M50.0606 15.0469H48.0312V30.8468H50.0606V15.0469Z" fill="#DB0030"/>
<path fill-rule="evenodd" clip-rule="evenodd" d="M27.0227 11.3154C23.4886 13.9058 17.8962 14.1783 14.6858 12.8832L13.4 14.5385C18.9162 22.3002 15.7469 30.1089 11.373 34.8913L13.3872 37.023C12.5699 48.7218 19.3971 55.4878 31.3991 56.184L34.6521 58.9008L37.8986 56.1413C44.888 56.0207 57.1435 52.1008 55.823 37.0059L57.8478 34.9084C52.7112 29.2118 50.9408 21.4093 55.9041 14.5385L54.6974 12.8938C50.3056 14.3371 45.2813 13.5371 42.258 11.3517C37.7232 14.6008 31.9643 14.9362 27.0227 11.3154ZM42.2985 13.5389C45.0251 15.2318 48.0381 15.7136 53.2321 15.2583C50.6312 19.7584 50.3503 25.1191 52.6533 30.2949L16.6081 30.2736C18.5468 25.6487 18.9916 20.3268 15.9524 15.1558C19.6988 15.6997 23.3584 15.5693 27.0077 13.5837C31.9577 16.4896 37.0501 16.5427 42.2985 13.5389ZM15.3287 37.1767H53.9818C54.9977 47.8727 48.2021 53.6489 37.8687 54.2168L31.3009 54.2339C21.4146 53.5233 14.0502 48.3041 15.3287 37.1767Z" fill="#EDBB00" stroke="#DEB405" stroke-width="0.177515"/>
<path fill-rule="evenodd" clip-rule="evenodd" d="M15.9106 15.2123C18.9498 20.3834 18.5047 25.7052 16.566 30.33L52.6104 30.3514C50.3074 25.1756 50.5893 19.8147 53.1902 15.3146C47.9962 15.7699 44.984 15.2887 42.2574 13.5957C37.0089 16.5996 31.9149 16.5452 26.9649 13.6394C23.3155 15.625 19.657 15.7562 15.9106 15.2123Z" stroke="black" stroke-width="0.75709"/>
<path fill-rule="evenodd" clip-rule="evenodd" d="M15.3285 37.1768H53.981C54.9969 47.8727 48.2014 53.6499 37.868 54.2179L31.3018 54.2345C21.4155 53.5238 14.05 48.3041 15.3285 37.1768Z" stroke="black" stroke-width="0.75709"/>
<path d="M34.6167 15.7529V30.3579" stroke="black" stroke-width="0.75709"/>
<path d="M39.9476 45.5114C39.9478 46.2016 39.8119 46.8851 39.5479 47.5228C39.2839 48.1604 38.8968 48.7399 38.4088 49.228C37.9208 49.716 37.3415 50.1032 36.7038 50.3674C36.0662 50.6315 35.3828 50.7675 34.6926 50.7675C34.0024 50.7675 33.319 50.6315 32.6813 50.3674C32.0437 50.1032 31.4643 49.716 30.9763 49.228C30.4883 48.7399 30.1013 48.1604 29.8372 47.5228C29.5732 46.8851 29.4374 46.2016 29.4375 45.5114C29.4374 44.8212 29.5732 44.1378 29.8372 43.5001C30.1013 42.8624 30.4883 42.283 30.9763 41.7949C31.4643 41.3068 32.0437 40.9196 32.6813 40.6555C33.319 40.3913 34.0024 40.2554 34.6926 40.2554C35.3828 40.2554 36.0662 40.3913 36.7038 40.6555C37.3415 40.9196 37.9208 41.3068 38.4088 41.7949C38.8968 42.283 39.2839 42.8624 39.5479 43.5001C39.8119 44.1378 39.9478 44.8212 39.9476 45.5114Z" fill="#EDBB00" stroke="black" stroke-width="0.760882"/>
<path d="M31.6609 41.231C31.0475 43.4666 30.6672 45.6679 32.4366 46.7256C33.6731 47.4647 34.5092 45.9574 34.7408 45.3734" stroke="black" stroke-width="0.662453"/>
<path d="M29.8296 47.6308C30.8655 47.5835 31.4061 47.4983 32.0705 46.4888" stroke="black" stroke-width="0.662453"/>
<path d="M34.6973 45.4125C35.7368 44.7735 36.6614 45.0827 37.091 46.6824C38.1028 46.2758 39.0779 47.0567 39.3319 47.8459" stroke="black" stroke-width="0.662453"/>
<path d="M37.1127 46.6826C36.3447 48.5368 34.3246 49.3951 31.4888 49.6777" stroke="black" stroke-width="0.662453"/>
<path d="M34.6988 45.4884C34.0608 44.9041 33.0791 44.2355 34.5092 42.5178C33.9024 41.7489 33.7371 40.9976 34.5303 40.2847" stroke="black" stroke-width="0.662453"/>
<path d="M39.9237 45.8258C38.9904 44.176 36.8182 41.8899 34.5093 42.4971" stroke="black" stroke-width="0.662453"/>
<path d="M27.3449 31.2329V31.2521H26.3901V33.1061V34.1569V36.2181H27.4218V34.1569H28.8934V33.1061H27.4218V32.3009H29.9613V31.2329H27.3449Z" fill="black"/>
<path fill-rule="evenodd" clip-rule="evenodd" d="M35.1552 32.7885L36.0811 32.305C35.4901 30.9981 33.0937 30.6265 32.3053 32.305C31.4919 34.307 32.3565 36.1671 33.9309 36.3483C34.9312 36.4939 35.724 36.0042 36.0606 35.1342L35.1449 34.6095C34.901 35.2172 33.9712 35.6354 33.2621 34.6198C33.0438 34.166 32.9878 33.4675 33.2313 32.7885C33.8128 31.9895 34.6629 32.076 35.1552 32.7885Z" fill="black" stroke="black" stroke-width="0.0378545"/>
<path fill-rule="evenodd" clip-rule="evenodd" d="M38.6948 31.2461L38.714 36.2569L41.4416 36.2462C42.3291 36.1219 43.4926 34.6691 42.1293 33.54C42.8501 32.9049 42.7597 31.5462 41.3177 31.2568L38.6948 31.2461ZM39.7435 32.2329H41.102C41.6993 32.4048 41.5221 32.9791 41.1212 33.0765H39.7435V32.2329ZM39.7542 34.0548L41.1831 34.074C41.8899 34.2844 41.7303 35.0899 41.2045 35.2274L39.7649 35.2167L39.7542 34.0548Z" fill="black" stroke="black" stroke-width="0.189272"/>
</svg>
