<svg width="70" height="70" viewBox="0 0 70 70" fill="none" xmlns="http://www.w3.org/2000/svg">
<g clip-path="url(#clip0_82_45597)">
<path d="M10.2041 34.9975C10.2041 21.3042 21.3038 10.2045 34.9971 10.2045C48.6895 10.2045 59.7892 21.3042 59.7892 34.9975C59.7892 48.6909 48.6895 59.7905 34.9971 59.7905C21.3038 59.7905 10.2041 48.6909 10.2041 34.9975Z" fill="#2E6ABD"/>
<path fill-rule="evenodd" clip-rule="evenodd" d="M9.92554 34.9973C9.92554 48.8445 21.1499 60.0688 34.997 60.0688C48.8433 60.0688 60.0676 48.8445 60.0676 34.9973C60.0676 21.1502 48.8433 9.92583 34.997 9.92583C21.1499 9.92583 9.92554 21.1502 9.92554 34.9973ZM34.997 59.5118C21.4575 59.5118 10.4826 48.5369 10.4826 34.9973C10.4826 21.4578 21.4575 10.4828 34.997 10.4828C48.5356 10.4828 59.5106 21.4578 59.5106 34.9973C59.5106 48.5369 48.5356 59.5118 34.997 59.5118Z" fill="#2E6ABD"/>
<path d="M11.2847 34.9713C11.2847 21.8802 21.8977 11.2671 34.9898 11.2671C48.0819 11.2671 58.6941 21.8802 58.6941 34.9713C58.6941 48.0634 48.0819 58.6765 34.9898 58.6765C21.8977 58.6765 11.2847 48.0634 11.2847 34.9713Z" fill="white"/>
<path fill-rule="evenodd" clip-rule="evenodd" d="M34.9899 11.4899C22.021 11.4899 11.5077 22.0032 11.5077 34.9712C11.5077 47.9401 22.021 58.4533 34.9899 58.4533C47.9588 58.4533 58.4712 47.9401 58.4712 34.9712C58.4712 22.0031 47.9588 11.4899 34.9899 11.4899ZM11.0618 34.9712C11.0618 21.7568 21.7747 11.0439 34.9899 11.0439C48.2051 11.0439 58.9171 21.7568 58.9171 34.9712C58.9171 48.1864 48.2051 58.8993 34.9899 58.8993C21.7747 58.8993 11.0618 48.1864 11.0618 34.9712Z" fill="white"/>
<path d="M34.9777 12.228C22.4146 12.228 12.2502 22.4159 12.2502 34.978C12.2502 47.542 22.4146 57.7055 34.9777 57.7055C47.5407 57.7055 57.7277 47.542 57.7277 34.978C57.7277 22.4159 47.5407 12.228 34.9777 12.228ZM36.535 13.695L38.2728 13.9659L38.7919 15.5232C38.8822 15.8012 38.9445 16.0838 38.9725 16.3582L38.995 16.3808C39.0934 16.1578 39.3552 15.7552 39.469 15.5909L40.3943 14.3044L42.0645 14.5752L39.4916 17.735L39.1756 19.7888L37.6409 19.5405L37.9794 17.4867L36.535 13.695ZM33.5558 13.8305L36.1513 19.1568L34.5263 19.3374L34.0749 18.2315L31.9985 18.4798L31.7502 19.6534L30.2381 19.8339L31.6148 14.0562L33.5558 13.8305ZM32.653 15.0718C32.6341 15.3841 32.5682 15.7543 32.5176 15.9971L32.2468 17.3513L33.6009 17.1933L33.0141 15.9294C32.8661 15.6071 32.7541 15.2785 32.6982 15.0718H32.653ZM43.4412 15.1846L46.8943 16.9902L46.3527 18.0058L44.2311 16.8999L43.7572 17.8253L45.7433 18.8634L45.2016 19.8791L43.2155 18.8409L42.6964 19.8114L44.8857 20.9624L44.3666 21.978L40.8457 20.1273L43.4412 15.1846ZM26.4464 15.5457C26.9108 15.4863 27.4142 15.6121 27.7555 16.2228C28.2664 17.1346 27.6968 17.6492 27.4846 17.8478L27.5072 17.893C27.9423 17.7205 28.6898 17.5896 29.1999 18.5023C29.9339 19.8132 28.5336 20.6103 28.0263 20.8947L26.0176 22.0232L23.2867 17.1256L25.3405 15.9746C25.5531 15.8554 25.9821 15.6052 26.4464 15.5457ZM26.2207 16.8322C26.1717 16.83 26.1196 16.8376 26.0627 16.8548C25.9869 16.8776 25.907 16.9159 25.8145 16.9676L25.0923 17.3739L25.6339 18.3218L26.3336 17.9155C26.6703 17.7277 26.7877 17.4786 26.6044 17.1482C26.4856 16.9359 26.3679 16.8387 26.2207 16.8322ZM49.2867 18.7055L51.0246 20.6013C51.3116 20.9128 52.3047 21.9636 51.1374 23.0388C50.6219 23.5137 50.0369 23.6996 49.377 23.3999L48.4065 25.9954L47.2555 24.7315L48.2034 22.61L47.7971 22.1812L46.2173 23.6256L45.1791 22.4971L49.2867 18.7055ZM27.4169 18.728C27.266 18.7077 27.0969 18.752 26.8978 18.8634L26.1756 19.2697L26.7624 20.3305L27.5523 19.9016C27.8954 19.7093 28.0037 19.3663 27.8232 19.044C27.7058 18.835 27.5678 18.7483 27.4169 18.728ZM49.5124 20.5562L48.6096 21.3912L49.1513 21.978C49.284 22.1234 49.6072 22.4764 50.0766 22.0457C50.3132 21.8264 50.3944 21.5131 50.0541 21.143L49.5124 20.5562ZM34.9777 20.7367C42.8346 20.7367 49.219 27.1212 49.219 34.978C49.219 42.8358 42.8346 49.1968 34.9777 49.1968C27.1208 49.1968 20.7589 42.8358 20.7589 34.978C20.7589 27.1212 27.1208 20.7367 34.9777 20.7367ZM19.2693 21.1655C19.6135 21.1394 19.942 21.2125 20.2173 21.3235L19.6982 22.6551C19.4345 22.5432 18.8938 22.3644 18.5246 22.9485C18.3025 23.3006 18.1914 24.0192 19.4273 24.7992C20.2055 25.2903 21.0785 25.6117 21.5489 24.8669C21.8847 24.3352 21.5272 23.8766 21.278 23.5805L22.2936 22.5648C23.1052 23.4306 23.2361 24.3451 22.5645 25.4086C21.8043 26.612 20.4421 27.3297 18.6148 26.1759C16.7867 25.0213 16.9131 23.3945 17.6218 22.2714C18.1014 21.5114 18.6958 21.2091 19.2693 21.1655ZM54.1166 25.0475L54.7034 26.8756L52.5367 29.0197C52.2677 29.2878 51.921 29.5921 51.5437 29.8548L51.5662 29.9225C51.7982 29.7979 52.1783 29.6543 52.6721 29.4937L55.2676 28.636L55.719 30.0128L50.3926 31.728L49.7832 29.8999L52.0627 27.643C52.3941 27.3134 52.7886 27.011 52.9655 26.9207L52.943 26.8756C52.6703 26.9794 52.4446 27.0905 52.1305 27.1916L49.219 28.1169L48.7902 26.7628L54.1166 25.0475ZM15.568 26.3114L16.6513 26.7176L15.8614 28.9294L16.9673 29.3357L17.7346 27.169L18.818 27.5527L18.0506 29.7193L20.0367 30.4416L19.5176 31.886L14.2589 29.9902L15.568 26.3114ZM19.7207 39.4693L20.8041 41.5232L18.6825 43.577C18.5652 43.6916 18.2402 43.9534 17.9829 44.1412L18.0055 44.1864C18.26 44.097 18.7475 43.9769 18.9759 43.9381L21.7971 43.4416L22.8353 45.4503L17.87 48.0232L17.193 46.7141L20.0367 45.2246C20.4059 45.0314 20.9774 44.7795 21.1877 44.7055L21.1426 44.6152C20.9296 44.682 20.248 44.8346 19.8336 44.9086L16.561 45.518L16.0419 44.5249L18.6374 41.952C18.8893 41.7055 19.245 41.4112 19.4048 41.2749L19.3596 41.2072C19.1782 41.3182 18.5453 41.6965 18.1409 41.9068L15.4325 43.3287L14.7555 42.0648L19.7207 39.4693ZM50.5055 39.5145L55.4256 42.2003L54.5002 43.893L51.318 43.8027C50.8512 43.7909 50.3547 43.7124 50.1669 43.6447L50.1443 43.6898C50.4071 43.8135 50.6445 43.8939 50.9343 44.0509L53.62 45.518L52.943 46.7818L48.0228 44.1187L48.9482 42.4259L51.995 42.5162C52.3742 42.5253 52.831 42.5596 53.2815 42.6516L53.3041 42.5839C53.0531 42.5018 52.7001 42.3339 52.2433 42.0874L49.8284 40.7784L50.5055 39.5145ZM47.3683 44.9989L48.1357 45.8339L46.3978 47.4589L47.0975 48.2037L48.745 46.6916L49.5124 47.5266L47.8874 49.0614L48.6322 49.8739L50.4377 48.2037L51.2277 49.0388L48.3162 51.7471L44.502 47.6395L47.3683 44.9989ZM23.4673 46.1048L24.686 47.0301L22.5193 49.8287C22.1582 50.2937 22.0562 50.7866 22.5645 51.1829C23.1116 51.6072 23.5711 51.358 23.9186 50.9121L26.0853 48.136L27.2589 49.0388L25.0923 51.8148C24.2337 52.9207 23.0755 53.0264 21.8648 52.0857C20.8474 51.2948 20.3057 50.1898 21.3232 48.8808L23.4673 46.1048ZM25.0246 47.2784L25.7919 47.8878L24.4152 48.8357L25.0246 47.2784ZM43.5315 48.1586L46.1721 53.0787L44.818 53.8235L43.6895 51.7471L42.0645 52.6048L43.1704 54.6812L41.8162 55.4034L39.1756 50.4832L40.5298 49.761L41.5228 51.5891L43.1478 50.7315L42.1773 48.8808L43.5315 48.1586ZM28.3648 49.5128L30.193 50.077L30.6895 53.1013C30.7536 53.4759 30.8068 53.9273 30.8023 54.3878L30.87 54.4103C30.9025 54.1485 31.0091 53.754 31.1634 53.2593L31.9759 50.6412L33.3301 51.07L31.66 56.3964L29.8318 55.8322L29.2902 52.6725C29.2125 52.2121 29.2161 51.7191 29.245 51.5214L29.1773 51.4989C29.1051 51.7814 29.0726 52.0423 28.9742 52.3565L28.0489 55.268L26.6947 54.8391L28.3648 49.5128ZM36.693 50.6412C37.7911 50.5761 38.4477 51.2249 38.7242 51.86L37.4152 52.4468C37.3041 52.1823 37.0505 51.6794 36.377 51.8374C35.9725 51.9331 35.411 52.3556 35.745 53.7784C35.9563 54.673 36.3327 55.5153 37.1895 55.3131C37.8016 55.1705 37.8584 54.5936 37.8891 54.2072H39.3336C39.3056 55.3916 38.7748 56.1319 37.5506 56.419C36.1657 56.7449 34.6599 56.3089 34.1652 54.2072C33.6705 52.1028 34.9036 51.0132 36.1964 50.7089C36.3713 50.6677 36.5361 50.6505 36.693 50.6412Z" fill="#ED1248"/>
<path d="M34.9551 21.8423C29.8192 21.8423 25.3721 24.7871 23.219 29.0871L25.1826 32.4499L25.7017 26.3336L28.6131 31.3215L29.1096 25.2277L32.0437 30.2155L32.5628 24.1218L35.4742 29.1096L35.9933 22.9933L38.9048 28.0037L39.3562 22.5871C37.9812 22.0987 36.498 21.8423 34.9551 21.8423ZM38.9048 28.0037L38.3857 34.1201L41.2971 39.0853L41.7937 32.9916L38.9048 28.0037ZM38.3857 34.1201L35.4742 29.1322L34.9551 35.226L32.0437 30.2381L31.5246 36.3319L28.6131 31.3666L28.094 37.4603L31.0055 42.4482L31.502 36.3319L34.436 41.3423L34.9551 35.2485L37.8666 40.2138L38.3857 34.1201ZM34.436 41.3423L33.9169 47.4586L31.0055 42.4708L30.5992 47.3232C31.9642 47.8035 33.4258 48.068 34.9551 48.068C39.9746 48.068 44.3296 45.2576 46.5333 41.1166L44.7277 37.9794L44.2086 44.0958L41.2971 39.1079L40.7781 45.2242L37.8666 40.2364L37.3475 46.3527L34.436 41.3423ZM44.7277 37.9794L45.2242 31.8631L42.3353 26.8978L41.8162 32.9916L44.7277 37.9794ZM28.094 37.4603L25.1826 32.4725L24.686 38.5888L27.5749 43.5541L28.094 37.4603ZM39.9656 22.8353L42.3353 26.8753L42.5385 24.2572C41.7404 23.6903 40.8828 23.2145 39.9656 22.8353ZM45.6305 27.3267L45.2468 31.8857L47.9777 36.5576C48.0418 36.0312 48.068 35.4977 48.068 34.9551C48.068 32.1123 47.167 29.4753 45.6305 27.3267ZM21.8874 33.8041C21.8549 34.1805 21.8423 34.5696 21.8423 34.9551C21.8423 37.8169 22.7685 40.4729 24.3249 42.6287L24.6635 38.5662L21.8874 33.8041ZM27.5749 43.5767L27.3944 45.6756C28.0516 46.1396 28.7549 46.5324 29.4933 46.8718L27.5749 43.5767Z" fill="#2E6ABD"/>
</g>
<defs>
<clipPath id="clip0_82_45597">
<rect width="52" height="52" fill="white" transform="translate(9 9)"/>
</clipPath>
</defs>
</svg>
