<svg width="70" height="70" viewBox="0 0 70 70" fill="none" xmlns="http://www.w3.org/2000/svg">
<g clip-path="url(#clip0_81_15960)">
<path d="M9 17H62V54.1H9V17Z" fill="#009B3A"/>
<path d="M13.5049 34.045L35.4999 48.09L57.4949 34.045L35.4999 20L13.5049 34.045Z" fill="#FEDF00"/>
<path d="M35.5001 43.32C40.6225 43.32 44.7751 39.1675 44.7751 34.045C44.7751 28.9226 40.6225 24.77 35.5001 24.77C30.3777 24.77 26.2251 28.9226 26.2251 34.045C26.2251 39.1675 30.3777 43.32 35.5001 43.32Z" fill="#002776"/>
<mask id="mask0_81_15960" style="mask-type:luminance" maskUnits="userSpaceOnUse" x="26" y="24" width="19" height="20">
<path d="M35.5001 43.32C40.6225 43.32 44.7751 39.1675 44.7751 34.045C44.7751 28.9226 40.6225 24.77 35.5001 24.77C30.3777 24.77 26.2251 28.9226 26.2251 34.045C26.2251 39.1675 30.3777 43.32 35.5001 43.32Z" fill="white"/>
</mask>
<g mask="url(#mask0_81_15960)">
<path d="M7.67505 52.5951C7.67505 46.6211 10.0482 40.8917 14.2725 36.6675C18.4967 32.4432 24.226 30.0701 30.2001 30.0701C36.1741 30.0701 41.9034 32.4432 46.1276 36.6675C50.3519 40.8917 52.7251 46.6211 52.7251 52.5951H51.4001C51.4001 46.9725 49.1665 41.5802 45.1907 37.6044C41.2149 33.6286 35.8226 31.3951 30.2001 31.3951C24.5775 31.3951 19.1852 33.6286 15.2094 37.6044C11.2336 41.5802 9.00005 46.9725 9.00005 52.5951H7.67505Z" fill="white"/>
</g>
<path fill-rule="evenodd" clip-rule="evenodd" d="M27.5893 31.3339C27.694 31.3211 27.7887 31.2626 27.8526 31.1713C27.9165 31.08 27.9443 30.9634 27.9301 30.8471C27.9158 30.7308 27.8605 30.6244 27.7764 30.5513C27.6924 30.4782 27.5863 30.4443 27.4817 30.4572C27.3771 30.47 27.2824 30.5285 27.2185 30.6198C27.1546 30.7111 27.1267 30.8277 27.141 30.944C27.1553 31.0603 27.2105 31.1667 27.2946 31.2398C27.3787 31.3129 27.4847 31.3468 27.5893 31.3339M27.5694 31.1711C27.6308 31.1636 27.6862 31.1273 27.7233 31.0703C27.7604 31.0133 27.7762 30.9402 27.7672 30.8671C27.7583 30.794 27.7252 30.7269 27.6754 30.6806C27.6256 30.6342 27.5631 30.6125 27.5017 30.62C27.4402 30.6275 27.3849 30.6638 27.3478 30.7208C27.3106 30.7778 27.2948 30.8509 27.3038 30.924C27.3128 30.9971 27.3458 31.0642 27.3956 31.1105C27.4454 31.1568 27.5079 31.1786 27.5694 31.1711" fill="#009B3A"/>
<path fill-rule="evenodd" clip-rule="evenodd" d="M28.3092 31.2542L28.4728 31.2428L28.4499 30.9155L28.8024 30.8908C28.8759 30.8857 28.9443 30.8516 28.9926 30.796C29.0409 30.7405 29.0651 30.668 29.06 30.5945C29.0549 30.5211 29.0207 30.4527 28.9652 30.4044C28.9096 30.3561 28.8371 30.3318 28.7637 30.337L28.2601 30.3722L28.3092 31.2542ZM28.4385 30.7518L28.7784 30.7281C28.8084 30.726 28.8364 30.712 28.8562 30.6893C28.8759 30.6666 28.8859 30.6369 28.8838 30.6069C28.8817 30.5768 28.8677 30.5488 28.845 30.5291C28.8222 30.5093 28.7926 30.4994 28.7625 30.5015L28.4226 30.5253L28.4385 30.7518Z" fill="#009B3A"/>
<path d="M29.0582 31.2018C29.0494 31.0759 29.0301 30.7989 28.8412 30.8121L28.6021 30.8289C28.879 30.8095 28.8984 31.0864 28.9072 31.2123" fill="#009B3A"/>
<path fill-rule="evenodd" clip-rule="evenodd" d="M29.4285 31.1845L29.8449 31.1772C29.8946 31.1763 29.9436 31.1657 29.9892 31.1459C30.0348 31.126 30.076 31.0974 30.1106 31.0617C30.1451 31.0259 30.1723 30.9837 30.1905 30.9374C30.2087 30.8912 30.2176 30.8418 30.2168 30.7921L30.2146 30.6659C30.2137 30.6162 30.2031 30.5672 30.1832 30.5216C30.1634 30.476 30.1348 30.4347 30.099 30.4002C30.0633 30.3657 30.0211 30.3385 29.9748 30.3203C29.9285 30.3021 29.8792 30.2931 29.8295 30.294L29.4131 30.3013L29.4285 31.1845ZM29.5897 31.0176L29.8294 31.0134C29.893 31.0123 29.9535 30.986 29.9977 30.9402C30.0418 30.8945 30.066 30.8331 30.0649 30.7695L30.0636 30.6938C30.0625 30.6302 30.0362 30.5697 29.9904 30.5255C29.9447 30.4813 29.8833 30.4571 29.8197 30.4582L29.58 30.4624L29.5897 31.0176Z" fill="#009B3A"/>
<path d="M30.5502 31.1733L31.3447 31.2011L31.3505 31.0371L30.7073 31.0147L30.7152 30.7877L31.2197 30.8053L31.225 30.6539L30.7205 30.6363L30.7267 30.4598L31.332 30.4809L31.3377 30.317L30.5811 30.2905L30.5502 31.1733Z" fill="#009B3A"/>
<path d="M31.6708 31.221L31.8217 31.2342L31.8745 30.6308L31.9977 31.2496L32.1359 31.2617L32.3647 30.6737L32.3119 31.2771L32.4628 31.2903L32.5398 30.4104L32.3198 30.3911L32.091 30.9791L31.9678 30.3603L31.7478 30.3411L31.6708 31.221Z" fill="#009B3A"/>
<path d="M33.5011 31.4276L34.154 31.5398L34.1797 31.3905L33.676 31.304L33.7102 31.105L34.1206 31.1755L34.1462 31.0263L33.7358 30.9557L33.7593 30.8189L34.2475 30.9028L34.2731 30.7536L33.6357 30.644L33.5011 31.4276Z" fill="#009B3A"/>
<path fill-rule="evenodd" clip-rule="evenodd" d="M35.1785 31.7571L35.3373 31.7981L35.4195 31.4805L35.7615 31.5689C35.8328 31.5874 35.9085 31.5767 35.972 31.5394C36.0354 31.502 36.0814 31.441 36.0998 31.3697C36.1183 31.2984 36.1076 31.2227 36.0703 31.1593C36.0329 31.0958 35.9718 31.0498 35.9006 31.0314L35.4119 30.905L35.1785 31.7571ZM35.4605 31.3217L35.7904 31.407C35.8196 31.4145 35.8505 31.4102 35.8765 31.3949C35.9024 31.3796 35.9212 31.3546 35.9288 31.3255C35.9363 31.2963 35.932 31.2653 35.9167 31.2394C35.9014 31.2134 35.8764 31.1946 35.8473 31.1871L35.5174 31.1018L35.4605 31.3217Z" fill="#009B3A"/>
<path fill-rule="evenodd" clip-rule="evenodd" d="M36.2622 32.0461L36.4187 32.0954L36.5173 31.7825L36.8543 31.8887C36.9245 31.9109 37.0007 31.9042 37.066 31.8702C37.1313 31.8362 37.1804 31.7777 37.2026 31.7074C37.2247 31.6372 37.218 31.5611 37.184 31.4958C37.15 31.4305 37.0915 31.3813 37.0213 31.3592L36.5399 31.2074L36.2622 32.0461ZM36.5667 31.626L36.8916 31.7285C36.9203 31.7375 36.9515 31.7348 36.9782 31.7209C37.0049 31.707 37.025 31.683 37.0341 31.6543C37.0431 31.6256 37.0404 31.5944 37.0265 31.5677C37.0126 31.541 36.9886 31.5209 36.9599 31.5119L36.635 31.4094L36.5667 31.626Z" fill="#009B3A"/>
<path d="M36.9782 32.2719C37.0161 32.1516 37.0996 31.8868 36.9191 31.8299L36.6904 31.7578C36.9552 31.8413 36.8717 32.1061 36.8338 32.2264" fill="#009B3A"/>
<path fill-rule="evenodd" clip-rule="evenodd" d="M37.7016 32.5308C37.8004 32.5677 37.9114 32.5596 38.0102 32.5081C38.1091 32.4566 38.1876 32.366 38.2287 32.2563C38.2697 32.1466 38.2698 32.0267 38.229 31.923C38.1882 31.8193 38.1097 31.7403 38.011 31.7034C37.9123 31.6665 37.8013 31.6747 37.7024 31.7262C37.6036 31.7776 37.525 31.8682 37.484 31.9779C37.443 32.0876 37.4429 32.2075 37.4837 32.3112C37.5245 32.4149 37.6029 32.4939 37.7016 32.5308M37.7591 32.3772C37.8171 32.3988 37.883 32.3922 37.9422 32.3588C38.0014 32.3254 38.0492 32.2678 38.075 32.1989C38.1008 32.1299 38.1025 32.0551 38.0797 31.991C38.0569 31.927 38.0115 31.8788 37.9535 31.8571C37.8956 31.8354 37.8297 31.842 37.7705 31.8754C37.7112 31.9089 37.6634 31.9664 37.6377 32.0354C37.6119 32.1043 37.6102 32.1791 37.633 32.2432C37.6557 32.3073 37.7011 32.3555 37.7591 32.3772" fill="#009B3A"/>
<mask id="mask1_81_15960" style="mask-type:luminance" maskUnits="userSpaceOnUse" x="38" y="31" width="2" height="3">
<path d="M38.3768 32.7922L38.729 31.9822L39.4581 32.2992L39.1058 33.1093L38.3768 32.7922ZM38.9778 32.4068L38.9174 32.5457L39.282 32.7042L39.3423 32.5653L38.9778 32.4068Z" fill="white"/>
</mask>
<g mask="url(#mask1_81_15960)">
<path fill-rule="evenodd" clip-rule="evenodd" d="M38.7413 32.9508C38.838 32.9928 38.9493 32.9904 39.0507 32.9442C39.152 32.898 39.2352 32.8116 39.282 32.7042C39.3287 32.5968 39.3351 32.4771 39.2997 32.3714C39.2644 32.2657 39.1902 32.1827 39.0935 32.1407C38.9969 32.0986 38.8856 32.101 38.7842 32.1472C38.6828 32.1935 38.5996 32.2798 38.5529 32.3872C38.5062 32.4946 38.4998 32.6144 38.5351 32.72C38.5705 32.8257 38.6446 32.9087 38.7413 32.9508M38.8067 32.8003C38.8635 32.825 38.9296 32.8219 38.9905 32.7916C39.0514 32.7613 39.1022 32.7063 39.1315 32.6388C39.1609 32.5713 39.1665 32.4967 39.1471 32.4315C39.1277 32.3663 39.0849 32.3158 39.0281 32.2911C38.9713 32.2664 38.9052 32.2696 38.8443 32.2999C38.7834 32.3302 38.7327 32.3851 38.7033 32.4526C38.674 32.5201 38.6684 32.5947 38.6878 32.6599C38.7071 32.7251 38.7499 32.7756 38.8067 32.8003" fill="#009B3A"/>
</g>
<path d="M38.9753 32.5708L39.282 32.7041L39.2317 32.8199L38.925 32.6865L38.9753 32.5708Z" fill="#009B3A"/>
<path d="M39.1663 32.6538L39.282 32.7041L39.1059 33.1092L38.9901 33.0588L39.1663 32.6538Z" fill="#009B3A"/>
<path fill-rule="evenodd" clip-rule="evenodd" d="M39.402 33.2476L39.5488 33.3208L39.6952 33.0271L40.0114 33.1848C40.0773 33.2176 40.1536 33.223 40.2234 33.1996C40.2932 33.1762 40.3509 33.1261 40.3837 33.0602C40.4166 32.9943 40.4219 32.9181 40.3986 32.8482C40.3752 32.7784 40.3251 32.7207 40.2592 32.6879L39.8074 32.4627L39.402 33.2476ZM39.7684 32.8803L40.0733 33.0323C40.1003 33.0458 40.1315 33.048 40.16 33.0384C40.1886 33.0289 40.2122 33.0083 40.2256 32.9814C40.2391 32.9544 40.2413 32.9232 40.2317 32.8947C40.2221 32.8661 40.2016 32.8425 40.1747 32.8291L39.8698 32.677L39.7684 32.8803Z" fill="#009B3A"/>
<path d="M40.0739 33.5826C40.1302 33.4697 40.2541 33.2212 40.0847 33.1368L39.8701 33.0298C40.1186 33.1537 39.9947 33.4021 39.9384 33.515" fill="#009B3A"/>
<path d="M40.4019 33.7556L41.0939 34.1471L41.1747 34.0043L40.6145 33.6874L40.7264 33.4897L41.1657 33.7383L41.2403 33.6065L40.8009 33.3579L40.8879 33.2042L41.4151 33.5024L41.4959 33.3597L40.8369 32.9868L40.4019 33.7556Z" fill="#009B3A"/>
<path d="M41.6908 34.188C41.6433 34.2625 41.6914 34.3455 41.7978 34.4134C41.9043 34.4812 41.9767 34.4787 42.0074 34.4309C42.104 34.2792 41.5454 34.058 41.7176 33.7937C41.866 33.5665 42.12 33.7433 42.2158 33.8043C42.3115 33.8653 42.4654 34.0232 42.3457 34.2051L42.1834 34.1017C42.2343 34.0218 42.1784 33.9451 42.0933 33.8909C42.0108 33.8383 41.9438 33.8143 41.8946 33.8915C41.8123 34.0149 42.3597 34.2476 42.1919 34.5111C42.0682 34.7053 41.8529 34.6205 41.7092 34.529C41.5868 34.451 41.4039 34.2672 41.5231 34.0812L41.6908 34.188Z" fill="#009B3A"/>
<path d="M42.6384 34.8147C42.5871 34.8866 42.6308 34.972 42.7335 35.0453C42.8363 35.1186 42.9088 35.1199 42.9418 35.0737C43.0463 34.9274 42.5 34.6772 42.6858 34.4222C42.8459 34.2032 43.0903 34.393 43.1827 34.4589C43.2752 34.5249 43.4205 34.6906 43.2916 34.8659L43.1349 34.7542C43.1899 34.6771 43.1381 34.5976 43.0559 34.539C42.9763 34.4822 42.9106 34.4547 42.8575 34.5292C42.7688 34.6481 43.3033 34.9092 43.122 35.1635C42.9882 35.351 42.7777 35.255 42.639 35.1561C42.5208 35.0718 42.3478 34.8787 42.4766 34.6993L42.6384 34.8147Z" fill="#009B3A"/>
<path fill-rule="evenodd" clip-rule="evenodd" d="M43.5346 35.8308C43.6171 35.8965 43.7252 35.923 43.8351 35.9046C43.945 35.8862 44.0477 35.8243 44.1207 35.7326C44.1936 35.641 44.2307 35.527 44.224 35.4158C44.2172 35.3045 44.167 35.2052 44.0845 35.1395C44.002 35.0739 43.8939 35.0474 43.784 35.0658C43.6741 35.0842 43.5714 35.1461 43.4985 35.2377C43.4256 35.3294 43.3884 35.4434 43.3952 35.5546C43.402 35.6659 43.4521 35.7652 43.5346 35.8308M43.6368 35.7025C43.6852 35.741 43.7499 35.7551 43.8166 35.7416C43.8832 35.7281 43.9464 35.6881 43.9923 35.6305C44.0381 35.5729 44.0628 35.5023 44.061 35.4343C44.0591 35.3663 44.0309 35.3065 43.9824 35.2679C43.9339 35.2294 43.8693 35.2153 43.8026 35.2288C43.7359 35.2423 43.6727 35.2822 43.6269 35.3399C43.581 35.3975 43.5563 35.4681 43.5582 35.5361C43.56 35.6041 43.5883 35.6639 43.6368 35.7025" fill="#009B3A"/>
<path d="M27.9285 31.9819L27.8056 32.36L27.9947 32.4214" fill="white"/>
<path d="M27.9285 31.9819L28.0513 32.36L27.8623 32.4214" fill="white"/>
<path d="M28.3066 32.2566H27.9091V32.4553" fill="white"/>
<path d="M28.3066 32.2566L27.9851 32.4902L27.8682 32.3294" fill="white"/>
<path d="M27.5505 32.2566L27.8721 32.4902L27.9889 32.3294" fill="white"/>
<path d="M27.5505 32.2566H27.948V32.4553" fill="white"/>
<path d="M28.1624 32.7009L28.0395 32.3229L27.8505 32.3843" fill="white"/>
<path d="M28.1624 32.7009L27.8408 32.4673L27.9576 32.3065" fill="white"/>
<path d="M27.6951 32.7009L28.0167 32.4673L27.8998 32.3065" fill="white"/>
<path d="M27.6951 32.7009L27.8179 32.3229L28.0069 32.3843" fill="white"/>
<path d="M28.7485 35.8811L28.6257 36.2591L28.8147 36.3206" fill="white"/>
<path d="M28.7485 35.8811L28.8714 36.2591L28.6823 36.3206" fill="white"/>
<path d="M29.1267 36.1558H28.7292V36.3545" fill="white"/>
<path d="M29.1267 36.1558L28.8051 36.3894L28.6883 36.2286" fill="white"/>
<path d="M28.3706 36.1558L28.6922 36.3894L28.809 36.2286" fill="white"/>
<path d="M28.3706 36.1558H28.7681V36.3545" fill="white"/>
<path d="M28.9824 36.6001L28.8596 36.2221L28.6706 36.2835" fill="white"/>
<path d="M28.9824 36.6001L28.6608 36.3665L28.7777 36.2057" fill="white"/>
<path d="M28.5151 36.6001L28.8367 36.3665L28.7199 36.2057" fill="white"/>
<path d="M28.5151 36.6001L28.638 36.2221L28.827 36.2835" fill="white"/>
<path d="M27.613 36.7803L27.5107 37.0953L27.6682 37.1465" fill="white"/>
<path d="M27.613 36.7803L27.7154 37.0953L27.5579 37.1465" fill="white"/>
<path d="M27.928 37.0093H27.5967V37.1749" fill="white"/>
<path d="M27.928 37.0093L27.66 37.204L27.5626 37.07" fill="white"/>
<path d="M27.2979 37.009L27.5658 37.2037L27.6632 37.0697" fill="white"/>
<path d="M27.2979 37.009H27.6291V37.1747" fill="white"/>
<path d="M27.8076 37.3794L27.7053 37.0644L27.5477 37.1155" fill="white"/>
<path d="M27.8076 37.3794L27.5396 37.1847L27.637 37.0507" fill="white"/>
<path d="M27.4182 37.3796L27.6862 37.1849L27.5888 37.0509" fill="white"/>
<path d="M27.4182 37.3796L27.5206 37.0646L27.6781 37.1158" fill="white"/>
<path d="M29.6575 35.5215L29.599 35.7015L29.689 35.7308" fill="white"/>
<path d="M29.6575 35.5215L29.716 35.7015L29.626 35.7308" fill="white"/>
<path d="M29.8374 35.6523H29.6481V35.747" fill="white"/>
<path d="M29.8374 35.6523L29.6843 35.7636L29.6286 35.687" fill="white"/>
<path d="M29.4773 35.6521L29.6304 35.7634L29.6861 35.6868" fill="white"/>
<path d="M29.4773 35.6521H29.6666V35.7467" fill="white"/>
<path d="M29.7686 35.864L29.7101 35.684L29.6201 35.7132" fill="white"/>
<path d="M29.7686 35.864L29.6154 35.7528L29.671 35.6762" fill="white"/>
<path d="M29.5461 35.8638L29.6993 35.7525L29.6436 35.6759" fill="white"/>
<path d="M29.5461 35.8638L29.6046 35.6837L29.6946 35.713" fill="white"/>
<path d="M30.6797 36.8687L30.5773 37.1837L30.7348 37.2349" fill="white"/>
<path d="M30.6797 36.8687L30.782 37.1837L30.6245 37.2349" fill="white"/>
<path d="M30.9946 37.0977H30.6634V37.2633" fill="white"/>
<path d="M30.9946 37.0977L30.7266 37.2924L30.6293 37.1584" fill="white"/>
<path d="M30.3645 37.0974L30.6325 37.2921L30.7298 37.1581" fill="white"/>
<path d="M30.3645 37.0974H30.6958V37.263" fill="white"/>
<path d="M30.8743 37.4678L30.7719 37.1527L30.6144 37.2039" fill="white"/>
<path d="M30.8743 37.4678L30.6063 37.2731L30.7036 37.1391" fill="white"/>
<path d="M30.4849 37.468L30.7529 37.2733L30.6555 37.1393" fill="white"/>
<path d="M30.4849 37.468L30.5872 37.153L30.7447 37.2042" fill="white"/>
<path d="M30.4019 37.856L30.32 38.108L30.446 38.1489" fill="white"/>
<path d="M30.4019 37.856L30.4837 38.108L30.3577 38.1489" fill="white"/>
<path d="M30.6541 38.0391H30.3891V38.1716" fill="white"/>
<path d="M30.6541 38.0391L30.4397 38.1948L30.3618 38.0876" fill="white"/>
<path d="M30.1499 38.0391L30.3643 38.1948L30.4422 38.0876" fill="white"/>
<path d="M30.1499 38.0391H30.4149V38.1716" fill="white"/>
<path d="M30.5574 38.3352L30.4755 38.0832L30.3495 38.1241" fill="white"/>
<path d="M30.5574 38.3352L30.343 38.1794L30.4209 38.0722" fill="white"/>
<path d="M30.2458 38.3354L30.4602 38.1797L30.3824 38.0725" fill="white"/>
<path d="M30.2458 38.3354L30.3277 38.0834L30.4538 38.1244" fill="white"/>
<path d="M38.377 30.7705L38.2541 31.1486L38.4431 31.21" fill="white"/>
<path d="M38.377 30.7705L38.4998 31.1486L38.3108 31.21" fill="white"/>
<path d="M38.7551 31.0452H38.3576V31.2439" fill="white"/>
<path d="M38.7551 31.0452L38.4335 31.2788L38.3167 31.118" fill="white"/>
<path d="M37.999 31.0452L38.3206 31.2788L38.4374 31.118" fill="white"/>
<path d="M37.999 31.0452H38.3965V31.2439" fill="white"/>
<path d="M38.6108 31.4895L38.488 31.1115L38.299 31.1729" fill="white"/>
<path d="M38.6108 31.4895L38.2893 31.2559L38.4061 31.0951" fill="white"/>
<path d="M38.1436 31.4895L38.4651 31.2559L38.3483 31.0951" fill="white"/>
<path d="M38.1436 31.4895L38.2664 31.1115L38.4554 31.1729" fill="white"/>
<path d="M41.9985 36.9033L41.8757 37.2814L42.0647 37.3428" fill="white"/>
<path d="M41.9985 36.9033L42.1214 37.2814L41.9323 37.3428" fill="white"/>
<path d="M42.3767 37.178H41.9792V37.3767" fill="white"/>
<path d="M42.3767 37.178L42.0551 37.4116L41.9383 37.2508" fill="white"/>
<path d="M41.6206 37.178L41.9422 37.4116L42.059 37.2508" fill="white"/>
<path d="M41.6206 37.178H42.0181V37.3767" fill="white"/>
<path d="M42.2324 37.6223L42.1096 37.2443L41.9206 37.3057" fill="white"/>
<path d="M42.2324 37.6223L41.9108 37.3887L42.0277 37.2279" fill="white"/>
<path d="M41.7651 37.6223L42.0867 37.3887L41.9699 37.2279" fill="white"/>
<path d="M41.7651 37.6223L41.888 37.2443L42.077 37.3057" fill="white"/>
<path d="M43.2859 37.1243L43.204 37.3763L43.33 37.4172" fill="white"/>
<path d="M43.2859 37.1243L43.3678 37.3763L43.2418 37.4172" fill="white"/>
<path d="M43.5381 37.3074H43.2731V37.4399" fill="white"/>
<path d="M43.5381 37.3074L43.3237 37.4631L43.2458 37.3559" fill="white"/>
<path d="M43.0339 37.3074L43.2483 37.4631L43.3262 37.3559" fill="white"/>
<path d="M43.0339 37.3074H43.2989V37.4399" fill="white"/>
<path d="M43.4414 37.6035L43.3595 37.3515L43.2335 37.3924" fill="white"/>
<path d="M43.4414 37.6035L43.227 37.4478L43.3049 37.3406" fill="white"/>
<path d="M43.1299 37.6038L43.3443 37.448L43.2664 37.3408" fill="white"/>
<path d="M43.1299 37.6038L43.2118 37.3517L43.3378 37.3927" fill="white"/>
<path d="M42.3774 37.7898L42.2751 38.1048L42.4326 38.156" fill="white"/>
<path d="M42.3774 37.7898L42.4798 38.1048L42.3223 38.156" fill="white"/>
<path d="M42.6924 38.0188H42.3611V38.1844" fill="white"/>
<path d="M42.6924 38.0188L42.4244 38.2135L42.327 38.0795" fill="white"/>
<path d="M42.0623 38.0186L42.3302 38.2133L42.4276 38.0793" fill="white"/>
<path d="M42.0623 38.0186H42.3935V38.1842" fill="white"/>
<path d="M42.572 38.3889L42.4697 38.0739L42.3121 38.1251" fill="white"/>
<path d="M42.572 38.3889L42.304 38.1942L42.4014 38.0602" fill="white"/>
<path d="M42.1826 38.3892L42.4506 38.1945L42.3533 38.0605" fill="white"/>
<path d="M42.1826 38.3892L42.285 38.0741L42.4425 38.1253" fill="white"/>
<path d="M40.1438 39.7332L40.0414 40.0482L40.199 40.0994" fill="white"/>
<path d="M40.1438 39.7332L40.2462 40.0482L40.0886 40.0994" fill="white"/>
<path d="M40.4587 39.9622H40.1275V40.1278" fill="white"/>
<path d="M40.4587 39.9622L40.1908 40.1569L40.0934 40.0229" fill="white"/>
<path d="M39.8286 39.9619L40.0966 40.1566L40.194 40.0226" fill="white"/>
<path d="M39.8286 39.9619H40.1599V40.1275" fill="white"/>
<path d="M40.3384 40.3323L40.236 40.0172L40.0785 40.0684" fill="white"/>
<path d="M40.3384 40.3323L40.0704 40.1376L40.1677 40.0036" fill="white"/>
<path d="M39.949 40.3325L40.217 40.1378L40.1196 40.0038" fill="white"/>
<path d="M39.949 40.3325L40.0513 40.0175L40.2089 40.0687" fill="white"/>
<path d="M40.1313 40.7332L40.0495 40.9852L40.1755 41.0261" fill="white"/>
<path d="M40.1313 40.7332L40.2132 40.9852L40.0872 41.0261" fill="white"/>
<path d="M40.3835 40.9163H40.1185V41.0488" fill="white"/>
<path d="M40.3835 40.9163L40.1692 41.072L40.0913 40.9648" fill="white"/>
<path d="M39.8794 40.9163L40.0938 41.072L40.1717 40.9648" fill="white"/>
<path d="M39.8794 40.9163H40.1444V41.0488" fill="white"/>
<path d="M40.2869 41.2124L40.205 40.9604L40.079 41.0013" fill="white"/>
<path d="M40.2869 41.2124L40.0725 41.0566L40.1504 40.9494" fill="white"/>
<path d="M39.9753 41.2126L40.1897 41.0569L40.1118 40.9497" fill="white"/>
<path d="M39.9753 41.2126L40.0572 40.9606L40.1832 41.0016" fill="white"/>
<path d="M41.0649 39.0674L40.9831 39.3194L41.1091 39.3604" fill="white"/>
<path d="M41.0649 39.0674L41.1468 39.3194L41.0208 39.3604" fill="white"/>
<path d="M41.3171 39.2505H41.0521V39.383" fill="white"/>
<path d="M41.3171 39.2505L41.1027 39.4063L41.0249 39.2991" fill="white"/>
<path d="M40.813 39.2505L41.0274 39.4063L41.1053 39.2991" fill="white"/>
<path d="M40.813 39.2505H41.078V39.383" fill="white"/>
<path d="M41.2205 39.5466L41.1386 39.2946L41.0126 39.3355" fill="white"/>
<path d="M41.2205 39.5466L41.0061 39.3909L41.084 39.2837" fill="white"/>
<path d="M40.9089 39.5469L41.1233 39.3911L41.0454 39.2839" fill="white"/>
<path d="M40.9089 39.5469L40.9908 39.2948L41.1168 39.3358" fill="white"/>
<path d="M41.8096 38.5344L41.7072 38.8495L41.8647 38.9006" fill="white"/>
<path d="M41.8096 38.5344L41.9119 38.8495L41.7544 38.9006" fill="white"/>
<path d="M42.1245 38.7634H41.7933V38.9291" fill="white"/>
<path d="M42.1245 38.7634L41.8565 38.9581L41.7592 38.8241" fill="white"/>
<path d="M41.4944 38.7632L41.7624 38.9579L41.8597 38.8239" fill="white"/>
<path d="M41.4944 38.7632H41.8256V38.9288" fill="white"/>
<path d="M42.0042 39.1335L41.9018 38.8185L41.7443 38.8697" fill="white"/>
<path d="M42.0042 39.1335L41.7362 38.9388L41.8335 38.8048" fill="white"/>
<path d="M41.6147 39.1338L41.8827 38.9391L41.7854 38.8051" fill="white"/>
<path d="M41.6147 39.1338L41.7171 38.8188L41.8746 38.8699" fill="white"/>
<path d="M40.106 38.8909L40.0241 39.1429L40.1501 39.1838" fill="white"/>
<path d="M40.106 38.8909L40.1878 39.1429L40.0618 39.1838" fill="white"/>
<path d="M40.3582 39.074H40.0932V39.2065" fill="white"/>
<path d="M40.3582 39.074L40.1438 39.2297L40.0659 39.1225" fill="white"/>
<path d="M39.854 39.074L40.0684 39.2297L40.1463 39.1225" fill="white"/>
<path d="M39.854 39.074H40.119V39.2065" fill="white"/>
<path d="M40.2615 39.3701L40.1796 39.1181L40.0536 39.159" fill="white"/>
<path d="M40.2615 39.3701L40.0471 39.2144L40.125 39.1072" fill="white"/>
<path d="M39.95 39.3704L40.1643 39.2146L40.0865 39.1074" fill="white"/>
<path d="M39.95 39.3704L40.0318 39.1183L40.1579 39.1593" fill="white"/>
<path d="M31.9668 34.0925L31.8644 34.4076L32.022 34.4587" fill="white"/>
<path d="M31.9668 34.0925L32.0692 34.4076L31.9116 34.4587" fill="white"/>
<path d="M32.2817 34.3215H31.9505V34.4872" fill="white"/>
<path d="M32.2817 34.3215L32.0138 34.5162L31.9164 34.3822" fill="white"/>
<path d="M31.6516 34.3213L31.9196 34.516L32.017 34.382" fill="white"/>
<path d="M31.6516 34.3213H31.9829V34.4869" fill="white"/>
<path d="M32.1614 34.6917L32.059 34.3766L31.9015 34.4278" fill="white"/>
<path d="M32.1614 34.6917L31.8934 34.4969L31.9907 34.363" fill="white"/>
<path d="M31.772 34.6919L32.04 34.4972L31.9426 34.3632" fill="white"/>
<path d="M31.772 34.6919L31.8743 34.3769L32.0319 34.428" fill="white"/>
<path d="M38.0239 33.3132L37.942 33.5653L38.0681 33.6062" fill="white"/>
<path d="M38.0239 33.3132L38.1058 33.5653L37.9798 33.6062" fill="white"/>
<path d="M38.2761 33.4963H38.0111V33.6288" fill="white"/>
<path d="M38.2761 33.4963L38.0617 33.6521L37.9839 33.5449" fill="white"/>
<path d="M37.772 33.4963L37.9864 33.6521L38.0642 33.5449" fill="white"/>
<path d="M37.772 33.4963H38.037V33.6288" fill="white"/>
<path d="M38.1794 33.7925L38.0976 33.5405L37.9715 33.5814" fill="white"/>
<path d="M38.1794 33.7925L37.9651 33.6367L38.0429 33.5295" fill="white"/>
<path d="M37.8679 33.7927L38.0823 33.637L38.0044 33.5298" fill="white"/>
<path d="M37.8679 33.7927L37.9498 33.5407L38.0758 33.5816" fill="white"/>
<path d="M35.4998 37.812L35.3769 38.1901L35.5659 38.2515" fill="white"/>
<path d="M35.4998 37.812L35.6226 38.1901L35.4336 38.2515" fill="white"/>
<path d="M35.8779 38.0867H35.4804V38.2854" fill="white"/>
<path d="M35.8779 38.0867L35.5563 38.3203L35.4395 38.1595" fill="white"/>
<path d="M35.1218 38.0867L35.4434 38.3203L35.5602 38.1595" fill="white"/>
<path d="M35.1218 38.0867H35.5193V38.2854" fill="white"/>
<path d="M35.7336 38.531L35.6108 38.153L35.4218 38.2144" fill="white"/>
<path d="M35.7336 38.531L35.4121 38.2974L35.5289 38.1366" fill="white"/>
<path d="M35.2664 38.531L35.5879 38.2974L35.4711 38.1366" fill="white"/>
<path d="M35.2664 38.531L35.3892 38.153L35.5782 38.2144" fill="white"/>
<path d="M36.5728 36.0359L36.4704 36.3509L36.6279 36.4021" fill="white"/>
<path d="M36.5728 36.0359L36.6751 36.3509L36.5176 36.4021" fill="white"/>
<path d="M36.8877 36.2649H36.5564V36.4305" fill="white"/>
<path d="M36.8877 36.2649L36.6197 36.4596L36.5224 36.3256" fill="white"/>
<path d="M36.2576 36.2646L36.5256 36.4594L36.6229 36.3254" fill="white"/>
<path d="M36.2576 36.2646H36.5888V36.4303" fill="white"/>
<path d="M36.7673 36.635L36.665 36.32L36.5075 36.3712" fill="white"/>
<path d="M36.7673 36.635L36.4993 36.4403L36.5967 36.3063" fill="white"/>
<path d="M36.3779 36.6353L36.6459 36.4406L36.5486 36.3066" fill="white"/>
<path d="M36.3779 36.6353L36.4803 36.3202L36.6378 36.3714" fill="white"/>
<path d="M35.5 35.2029L35.3976 35.5179L35.5552 35.5691" fill="white"/>
<path d="M35.5 35.2029L35.6024 35.5179L35.4448 35.5691" fill="white"/>
<path d="M35.8149 35.4319H35.4837V35.5975" fill="white"/>
<path d="M35.8149 35.4319L35.547 35.6266L35.4496 35.4926" fill="white"/>
<path d="M35.1848 35.4316L35.4528 35.6263L35.5502 35.4924" fill="white"/>
<path d="M35.1848 35.4316H35.5161V35.5973" fill="white"/>
<path d="M35.6946 35.802L35.5922 35.487L35.4347 35.5381" fill="white"/>
<path d="M35.6946 35.802L35.4266 35.6073L35.5239 35.4733" fill="white"/>
<path d="M35.3052 35.8022L35.5732 35.6075L35.4758 35.4735" fill="white"/>
<path d="M35.3052 35.8022L35.4075 35.4872L35.5651 35.5384" fill="white"/>
<path d="M34.5662 36.1021L34.4843 36.3541L34.6103 36.395" fill="white"/>
<path d="M34.5662 36.1021L34.6481 36.3541L34.522 36.395" fill="white"/>
<path d="M34.8184 36.2852H34.5534V36.4177" fill="white"/>
<path d="M34.8184 36.2852L34.604 36.4409L34.5261 36.3337" fill="white"/>
<path d="M34.3142 36.2852L34.5286 36.4409L34.6065 36.3337" fill="white"/>
<path d="M34.3142 36.2852H34.5792V36.4177" fill="white"/>
<path d="M34.7217 36.5813L34.6398 36.3293L34.5138 36.3702" fill="white"/>
<path d="M34.7217 36.5813L34.5073 36.4255L34.5852 36.3183" fill="white"/>
<path d="M34.4102 36.5815L34.6245 36.4258L34.5467 36.3186" fill="white"/>
<path d="M34.4102 36.5815L34.492 36.3295L34.6181 36.3705" fill="white"/>
<path d="M35.0332 36.8213L34.9747 37.0013L35.0647 37.0306" fill="white"/>
<path d="M35.0332 36.8213L35.0917 37.0013L35.0017 37.0306" fill="white"/>
<path d="M35.2131 36.9521H35.0238V37.0468" fill="white"/>
<path d="M35.2131 36.9521L35.06 37.0634L35.0044 36.9868" fill="white"/>
<path d="M34.853 36.9519L35.0062 37.0632L35.0618 36.9866" fill="white"/>
<path d="M34.853 36.9519H35.0423V37.0465" fill="white"/>
<path d="M35.1443 37.1638L35.0858 36.9838L34.9958 37.013" fill="white"/>
<path d="M35.1443 37.1638L34.9912 37.0526L35.0468 36.976" fill="white"/>
<path d="M34.9219 37.1636L35.075 37.0523L35.0194 36.9757" fill="white"/>
<path d="M34.9219 37.1636L34.9804 36.9836L35.0704 37.0128" fill="white"/>
<path d="M38.2764 39.9602L38.174 40.2752L38.3315 40.3264" fill="white"/>
<path d="M38.2764 39.9602L38.3787 40.2752L38.2212 40.3264" fill="white"/>
<path d="M38.5913 40.1892H38.2601V40.3548" fill="white"/>
<path d="M38.5913 40.1892L38.3233 40.3839L38.226 40.2499" fill="white"/>
<path d="M37.9612 40.189L38.2292 40.3837L38.3265 40.2497" fill="white"/>
<path d="M37.9612 40.189H38.2924V40.3546" fill="white"/>
<path d="M38.4709 40.5593L38.3686 40.2443L38.2111 40.2955" fill="white"/>
<path d="M38.4709 40.5593L38.203 40.3646L38.3003 40.2306" fill="white"/>
<path d="M38.0815 40.5596L38.3495 40.3649L38.2522 40.2309" fill="white"/>
<path d="M38.0815 40.5596L38.1839 40.2445L38.3414 40.2957" fill="white"/>
<path d="M39.0713 39.2063L38.9894 39.4583L39.1154 39.4993" fill="white"/>
<path d="M39.0713 39.2063L39.1532 39.4583L39.0272 39.4993" fill="white"/>
<path d="M39.3235 39.3894H39.0585V39.5219" fill="white"/>
<path d="M39.3235 39.3894L39.1091 39.5452L39.0312 39.438" fill="white"/>
<path d="M38.8193 39.3894L39.0337 39.5452L39.1116 39.438" fill="white"/>
<path d="M38.8193 39.3894H39.0843V39.5219" fill="white"/>
<path d="M39.2268 39.6855L39.1449 39.4335L39.0189 39.4745" fill="white"/>
<path d="M39.2268 39.6855L39.0124 39.5298L39.0903 39.4226" fill="white"/>
<path d="M38.9153 39.6858L39.1297 39.53L39.0518 39.4228" fill="white"/>
<path d="M38.9153 39.6858L38.9972 39.4338L39.1232 39.4747" fill="white"/>
<path d="M37.5444 38.9792L37.4625 39.2313L37.5886 39.2722" fill="white"/>
<path d="M37.5444 38.9792L37.6263 39.2313L37.5003 39.2722" fill="white"/>
<path d="M37.7966 39.1624H37.5316V39.2949" fill="white"/>
<path d="M37.7966 39.1624L37.5822 39.3181L37.5044 39.2109" fill="white"/>
<path d="M37.2925 39.1624L37.5069 39.3181L37.5848 39.2109" fill="white"/>
<path d="M37.2925 39.1624H37.5575V39.2949" fill="white"/>
<path d="M37.7 39.4585L37.6181 39.2065L37.492 39.2474" fill="white"/>
<path d="M37.7 39.4585L37.4856 39.3027L37.5634 39.1955" fill="white"/>
<path d="M37.3884 39.4587L37.6028 39.303L37.5249 39.1958" fill="white"/>
<path d="M37.3884 39.4587L37.4703 39.2067L37.5963 39.2477" fill="white"/>
<path d="M31.7771 38.5691L31.6543 38.9471L31.8433 39.0086" fill="white"/>
<path d="M31.7771 38.5691L31.8999 38.9471L31.7109 39.0086" fill="white"/>
<path d="M32.1553 38.8438H31.7578V39.0425" fill="white"/>
<path d="M32.1553 38.8438L31.8337 39.0774L31.7169 38.9166" fill="white"/>
<path d="M31.3992 38.8438L31.7208 39.0774L31.8376 38.9166" fill="white"/>
<path d="M31.3992 38.8438H31.7967V39.0425" fill="white"/>
<path d="M32.011 39.2881L31.8882 38.91L31.6991 38.9715" fill="white"/>
<path d="M32.011 39.2881L31.6894 39.0544L31.8062 38.8936" fill="white"/>
<path d="M31.5437 39.2881L31.8653 39.0544L31.7485 38.8936" fill="white"/>
<path d="M31.5437 39.2881L31.6665 38.91L31.8556 38.9715" fill="white"/>
<path d="M35.5 41.1685L35.4591 41.2945L35.5221 41.3149" fill="white"/>
<path d="M35.5 41.1685L35.5409 41.2945L35.4779 41.3149" fill="white"/>
<path d="M35.626 41.26H35.4935V41.3263" fill="white"/>
<path d="M35.626 41.26L35.5188 41.3379L35.4798 41.2843" fill="white"/>
<path d="M35.374 41.26L35.4812 41.3379L35.5202 41.2843" fill="white"/>
<path d="M35.374 41.26H35.5065V41.3263" fill="white"/>
<path d="M35.5779 41.4082L35.5369 41.2822L35.4739 41.3027" fill="white"/>
<path d="M35.5779 41.4082L35.4707 41.3303L35.5096 41.2767" fill="white"/>
<path d="M35.4221 41.408L35.5293 41.3301L35.4904 41.2765" fill="white"/>
<path d="M35.4221 41.408L35.4631 41.2819L35.5261 41.3024" fill="white"/>
</g>
<defs>
<clipPath id="clip0_81_15960">
<rect width="53" height="35" fill="white" transform="translate(9 17)"/>
</clipPath>
</defs>
</svg>
