<svg width="70" height="70" viewBox="0 0 70 70" fill="none" xmlns="http://www.w3.org/2000/svg">
<g clip-path="url(#clip0_82_45670)">
<path d="M61 34.9999C61 49.3604 49.3589 61 34.9999 61C20.6403 61 9 49.3604 9 34.9999C9 20.6409 20.6403 9 34.9999 9C49.3589 9 61 20.6409 61 34.9999Z" fill="#DBA111"/>
<path d="M60.1324 34.9997C60.1324 48.8805 48.8806 60.1324 34.9997 60.1324C21.1187 60.1324 9.8667 48.8806 9.8667 34.9997C9.8667 21.1187 21.1187 9.8667 34.9997 9.8667C48.8803 9.8667 60.1324 21.1187 60.1324 34.9997Z" fill="#034694"/>
<path d="M52.9101 35.0001C52.9101 44.8918 44.8912 52.9093 34.9996 52.9093C25.1074 52.9093 17.0884 44.8918 17.0884 35.0001C17.0884 25.1075 25.1074 17.0889 34.9996 17.0889C44.8914 17.0888 52.9101 25.1075 52.9101 35.0001Z" fill="#DBA111"/>
<path d="M52.3684 35C52.3684 44.5924 44.591 52.3684 34.9999 52.3684C25.4074 52.3684 17.6313 44.5923 17.6313 35C17.6313 25.4076 25.4074 17.6313 34.9999 17.6313C44.5912 17.6313 52.3684 25.4075 52.3684 35Z" fill="white"/>
<path d="M20.1178 49.9844C20.31 50.1678 20.7828 50.6181 20.7828 50.6181L21.236 50.1409L19.8841 48.8521L19.7102 49.0345L17.895 50.9374L18.5842 51.5933C18.5842 51.5933 19.1663 50.9829 19.3793 50.7605C19.5572 50.9295 19.9843 51.3367 19.9843 51.3367L20.4379 50.8605C20.4379 50.8605 20.0114 50.4537 19.8337 50.2835C19.9465 50.1645 20.0038 50.1044 20.1178 49.9844Z" fill="#DBA111"/>
<path d="M23.3778 52.1574C23.3166 51.7924 23.1117 51.4701 22.8017 51.2497C22.4931 51.0305 22.1227 50.944 21.7578 51.0038C21.3647 51.0707 21.0116 51.2997 20.7628 51.6478C20.515 51.9982 20.4149 52.4066 20.4816 52.8011C20.543 53.165 20.7464 53.4853 21.0555 53.7056C21.3647 53.9255 21.7379 54.0134 22.1023 53.9522C22.4951 53.886 22.8484 53.6565 23.0963 53.3073C23.2947 53.0304 23.3982 52.7133 23.3982 52.3963C23.3983 52.3173 23.3917 52.2361 23.3778 52.1574ZM21.4365 53.1682C21.1206 52.9447 21.3814 52.4774 21.5654 52.2206C21.7489 51.9617 22.1048 51.5613 22.4207 51.7846C22.7504 52.0204 22.4423 52.53 22.2945 52.7368C22.1461 52.946 21.7669 53.4039 21.4365 53.1682Z" fill="#DBA111"/>
<path d="M25.503 52.8789C24.7755 52.5108 23.934 52.8125 23.5476 53.5785C23.3539 53.9614 23.3161 54.3817 23.4408 54.7598C23.556 55.1113 23.8057 55.398 24.1443 55.5684C24.4829 55.7408 24.8639 55.7707 25.216 55.6551C25.594 55.5318 25.9092 55.2525 26.1017 54.8699C26.4898 54.1025 26.2318 53.247 25.503 52.8789ZM24.6984 55.0076C24.613 55.0356 24.5321 55.0269 24.4402 54.9811C24.2959 54.9076 24.2452 54.7762 24.2452 54.6294C24.2452 54.4263 24.3428 54.187 24.4257 54.0237C24.5692 53.74 24.8606 53.2918 25.2064 53.4663C25.2976 53.5129 25.3522 53.5734 25.3799 53.6577C25.4378 53.8323 25.3796 54.119 25.2237 54.426C25.0686 54.733 24.8723 54.9501 24.6984 55.0076Z" fill="#DBA111"/>
<path d="M27.0052 53.9323L26.8713 54.316C26.8713 54.316 27.2137 54.4361 27.3176 54.4705C27.1866 54.8453 26.5825 56.5695 26.5825 56.5695L27.4794 56.884C27.4794 56.884 28.0845 55.1613 28.2152 54.7865C28.3198 54.8231 28.6623 54.9421 28.6623 54.9421L28.8797 54.3227L27.0886 53.6943L27.0052 53.9323Z" fill="#DBA111"/>
<path d="M30.729 54.7643L29.5169 54.5083L29.4651 54.7549L28.9233 57.3274L30.1569 57.5889C30.5511 57.6703 30.8107 57.5735 30.9587 57.4778C31.1466 57.3551 31.2783 57.1541 31.329 56.9137C31.3429 56.8483 31.3496 56.7849 31.3496 56.7227C31.3496 56.549 31.2946 56.3924 31.195 56.2578C31.3339 56.1476 31.433 55.9918 31.4743 55.7974C31.4848 55.7472 31.491 55.6905 31.491 55.6313C31.491 55.3021 31.303 54.884 30.729 54.7643ZM30.3953 56.7282C30.3824 56.787 30.3588 56.8647 30.3143 56.8938C30.2731 56.9205 30.1941 56.9239 30.0917 56.9017C30.0917 56.9017 30.0451 56.8914 29.9899 56.8806C30.0293 56.6949 30.0557 56.5714 30.0941 56.3856C30.1468 56.3979 30.2142 56.4112 30.2142 56.4112C30.3732 56.4448 30.4038 56.5625 30.4038 56.6479C30.4039 56.6822 30.3995 56.7114 30.3953 56.7282ZM30.3125 55.3514C30.419 55.3756 30.4972 55.4146 30.5273 55.4601C30.541 55.481 30.5478 55.5103 30.5478 55.5449C30.5478 55.5658 30.545 55.59 30.5395 55.6191C30.5232 55.6944 30.5011 55.799 30.2914 55.756C30.2914 55.756 30.2653 55.7491 30.2293 55.7415C30.2627 55.5858 30.2786 55.508 30.3125 55.3514Z" fill="#DBA111"/>
<path d="M32.9669 55.1836L31.6504 57.8796L32.4022 57.9372C32.4022 57.9372 32.6057 57.5077 32.687 57.3366C32.8461 57.3499 33.0054 57.361 33.1613 57.3736C33.2196 57.5537 33.3665 58.0107 33.3665 58.0107L34.3668 58.0885L33.2492 54.624L32.9669 55.1836Z" fill="#DBA111"/>
<path d="M35.9354 57.3351C35.9187 56.9411 35.843 55.1475 35.843 55.1475L34.8931 55.1874L35.0132 58.0659L36.9169 57.9869L36.8884 57.2962C36.8884 57.2963 36.2084 57.3253 35.9354 57.3351Z" fill="#DBA111"/>
<path d="M38.5411 57.0598C38.4798 56.6702 38.2018 54.897 38.2018 54.897L37.9529 54.9369L37.2617 55.0445L37.7078 57.8917L39.591 57.596L39.4832 56.913C39.4832 56.913 38.8114 57.019 38.5411 57.0598Z" fill="#DBA111"/>
<path d="M43.9929 55.1445C43.9853 55.3913 43.8398 55.6038 43.6128 55.6937C43.487 55.7436 43.3669 55.7436 43.2465 55.6927C43.0619 55.6136 42.8908 55.4136 42.7881 55.1566C42.6672 54.8535 42.6426 54.596 42.7219 54.4151C42.7764 54.2884 42.8832 54.1938 43.0465 54.1283C43.2233 54.058 43.3913 54.1228 43.6214 54.2583L43.8326 54.3829L44.1832 53.8299L43.9751 53.6932C43.5927 53.4419 43.1192 53.3906 42.7096 53.5542C42.3295 53.7058 42.0348 53.9893 41.879 54.3518C41.7209 54.7195 41.7209 55.1402 41.8813 55.5393C42.1838 56.2956 43.0388 56.6682 43.7864 56.3689C44.3267 56.1531 44.6325 55.7427 44.6714 55.182L44.6892 54.9318L44.001 54.8807L43.9929 55.1445Z" fill="#DBA111"/>
<path d="M46.2106 54.358C46.016 54.0121 45.1418 52.4438 45.1418 52.4438L44.9228 52.5674L44.311 52.909L45.717 55.4244L47.3792 54.4958L47.0427 53.892C47.0428 53.892 46.4478 54.2237 46.2106 54.358Z" fill="#DBA111"/>
<path d="M48.0591 50.479L47.8553 50.6281L47.4982 50.8905L48.665 52.4809C48.7184 52.5529 48.7184 52.601 48.7137 52.629C48.7025 52.7111 48.6171 52.8 48.5415 52.8545C48.5058 52.8798 48.4233 52.9145 48.3389 52.9013C48.2786 52.8926 48.231 52.8598 48.1887 52.8026L47.0356 51.2301L46.2671 51.7927L47.4146 53.3573C47.5849 53.5889 47.7964 53.7259 48.0432 53.7635C48.3201 53.8067 48.6348 53.7124 48.9273 53.4963C49.529 53.0564 49.5191 52.4723 49.2566 52.1143L48.0591 50.479Z" fill="#DBA111"/>
<path d="M51.5602 49.9005C51.3833 49.7169 51.1651 49.6344 50.9361 49.6469C50.9226 49.4689 50.8536 49.2988 50.716 49.1564C50.4756 48.9083 49.9383 48.715 49.4436 49.1965L48.5537 50.0571L50.5589 52.1273L51.4641 51.2497C51.7535 50.9695 51.8171 50.6981 51.8199 50.5226C51.8247 50.2975 51.7321 50.0771 51.5602 49.9005ZM50.0453 49.8307C50.0751 49.8625 50.1117 49.8997 50.1117 49.9514C50.1117 49.9939 50.0886 50.0463 50.0191 50.1127C50.0191 50.1127 50.0003 50.1317 49.9749 50.1572C49.8626 50.0407 49.8093 49.986 49.6954 49.869C49.8962 49.6849 49.9795 49.7635 50.0453 49.8307ZM50.52 50.5434C50.6826 50.3865 50.839 50.5243 50.8837 50.5712C50.9269 50.6145 50.976 50.6756 50.976 50.7286C50.976 50.7286 50.976 50.7286 50.976 50.7303C50.975 50.7792 50.9337 50.8469 50.8592 50.9192C50.8592 50.9192 50.8246 50.9528 50.7836 50.9914C50.6524 50.8558 50.5637 50.7648 50.4323 50.6299C50.4711 50.5913 50.52 50.5434 50.52 50.5434Z" fill="#DBA111"/>
<path d="M20.1115 49.717C20.19 49.7925 20.7754 50.351 20.7754 50.351L20.9685 50.1474L19.8898 49.1187L19.8464 49.1642L18.1626 50.9304L18.5774 51.3263C18.5774 51.3263 19.2948 50.5744 19.372 50.4922C19.4505 50.5668 19.9783 51.0695 19.9783 51.0695L20.1717 50.8665C20.1717 50.8665 19.6439 50.3642 19.5655 50.2896C19.6355 50.2163 20.0422 49.7896 20.1115 49.717Z" fill="white"/>
<path d="M22.6915 51.4034C22.4241 51.2131 22.1041 51.137 21.7901 51.1896C21.4453 51.2487 21.136 51.45 20.9171 51.7581C20.6976 52.0671 20.6095 52.4254 20.668 52.7689C20.7207 53.0838 20.8977 53.3618 21.1652 53.5514C21.4342 53.7429 21.7555 53.8177 22.071 53.7649C22.4139 53.7072 22.7236 53.5051 22.9422 53.1991C23.1169 52.9523 23.2092 52.6728 23.2092 52.3959C23.2092 52.3269 23.2032 52.257 23.192 52.1881C23.1385 51.8736 22.9611 51.5948 22.6915 51.4034ZM22.4481 52.8471C22.2671 53.1001 21.7962 53.6561 21.3275 53.3227C20.8604 52.9911 21.2312 52.3642 21.4114 52.1095C21.5921 51.8549 22.0632 51.2998 22.5297 51.6314C22.9985 51.9659 22.6288 52.5932 22.4481 52.8471Z" fill="white"/>
<path d="M25.4176 53.0482C24.7864 52.7289 24.0551 52.9946 23.716 53.6652C23.5452 54.0024 23.5115 54.3693 23.6199 54.702C23.7195 55.0041 23.9359 55.2512 24.2294 55.3989C24.5235 55.5493 24.8533 55.576 25.1571 55.476C25.4876 55.3668 25.7635 55.122 25.9342 54.7851C26.2724 54.1145 26.0505 53.3671 25.4176 53.0482ZM24.3549 55.1486C23.8439 54.8915 24.1158 54.2154 24.257 53.9376C24.3978 53.6586 24.7804 53.0387 25.2907 53.2981C25.4265 53.366 25.5172 53.4671 25.5604 53.5994C25.6607 53.9056 25.4981 54.3012 25.392 54.5115C25.2864 54.7202 25.0635 55.0863 24.757 55.1867C24.6258 55.2311 24.4901 55.2176 24.3549 55.1486Z" fill="white"/>
<path d="M27.1843 53.9941L27.1119 54.199C27.1119 54.199 27.469 54.3246 27.5585 54.3561C27.5189 54.4682 26.8228 56.4533 26.8228 56.4533L27.3638 56.6435C27.3638 56.6435 28.0605 54.6584 28.0995 54.546C28.189 54.5771 28.5461 54.702 28.5461 54.702L28.6394 54.4383L27.2042 53.9346L27.1843 53.9941Z" fill="white"/>
<path d="M30.6911 54.9487L29.6638 54.7319L29.6501 54.7943L29.1479 57.1832L30.1962 57.4033C30.4626 57.4591 30.6844 57.4313 30.8559 57.319C31.0042 57.2222 31.1038 57.0677 31.1445 56.8754C31.1549 56.8229 31.1611 56.7728 31.1611 56.7239C31.1611 56.5149 31.0575 56.338 30.8725 56.2113C31.0867 56.1497 31.2401 55.992 31.2894 55.758C31.2978 55.7215 31.3029 55.6783 31.3029 55.6294C31.3028 55.3904 31.1771 55.0512 30.6911 54.9487ZM30.332 55.1602C30.5047 55.1967 30.6243 55.2628 30.6851 55.3568C30.7201 55.4102 30.7374 55.4726 30.7374 55.5453C30.7374 55.5807 30.7328 55.6175 30.7245 55.6574C30.6578 55.9755 30.4008 55.9721 30.253 55.9398C30.253 55.9398 30.0966 55.9076 30.0059 55.8885C30.027 55.7905 30.1463 55.2234 30.1668 55.1257C30.2325 55.1391 30.332 55.1602 30.332 55.1602ZM30.253 56.2266C30.5449 56.2879 30.5909 56.5182 30.5909 56.6581C30.5909 56.7182 30.5815 56.7611 30.5803 56.7682C30.5509 56.9062 30.4983 56.9995 30.4175 57.0517C30.332 57.1087 30.209 57.1197 30.0533 57.0874C30.0533 57.0874 29.8665 57.0474 29.7664 57.0275C29.7879 56.9248 29.9276 56.2631 29.9487 56.1622C30.0343 56.1801 30.253 56.2266 30.253 56.2266Z" fill="white"/>
<path d="M33.1373 55.2662L31.9424 57.7121L32.2865 57.7377C32.2865 57.7377 32.5394 57.2061 32.5729 57.1382C32.6457 57.1438 33.2306 57.1893 33.3024 57.1951C33.3252 57.2652 33.5077 57.8322 33.5077 57.8322L34.1004 57.8779L33.2129 55.1265L33.1373 55.2662ZM33.0061 56.2496C33.0639 56.4344 33.175 56.7905 33.2118 56.9068C33.0937 56.8981 32.8219 56.877 32.7051 56.8681C32.7587 56.7582 32.9216 56.4233 33.0061 56.2496Z" fill="white"/>
<path d="M35.754 57.5324C35.7493 57.4131 35.6614 55.3447 35.6614 55.3447L35.6004 55.347L35.0889 55.3679L35.194 57.8702L36.7206 57.8055L36.7071 57.4931C36.7074 57.4933 35.8644 57.5288 35.754 57.5324Z" fill="white"/>
<path d="M38.3842 57.2777C38.3652 57.1598 38.044 55.1123 38.044 55.1123L37.9828 55.1222L37.478 55.202L37.866 57.6757L39.3753 57.4375L39.3267 57.1283C39.3265 57.1285 38.4922 57.2596 38.3842 57.2777Z" fill="white"/>
<path d="M44.1808 55.1488C44.1718 55.4747 43.9806 55.7507 43.6825 55.8708C43.509 55.9399 43.3377 55.9374 43.1721 55.8663C42.9387 55.7677 42.7349 55.5339 42.6114 55.227C42.4724 54.8767 42.45 54.5698 42.5471 54.3404C42.6227 54.1669 42.7663 54.0371 42.9764 53.9537C43.2512 53.8437 43.5034 53.9691 43.7169 54.0958L43.7703 54.127L43.9239 53.8858L43.8725 53.8511C43.5412 53.6341 43.1319 53.5888 42.7797 53.7298C42.4459 53.8636 42.1868 54.1104 42.0522 54.4263C41.9142 54.7464 41.9155 55.1179 42.0567 55.468C42.3201 56.1289 43.0639 56.4534 43.7171 56.1932C44.1907 56.0031 44.4478 55.6595 44.4822 55.169L44.4867 55.1057L44.1843 55.0848L44.1808 55.1488Z" fill="white"/>
<path d="M46.1371 54.615C46.0781 54.5116 45.0682 52.7021 45.0682 52.7021L45.0127 52.7331L44.5679 52.9822L45.7878 55.1669L47.1214 54.4222L46.9697 54.1488C46.9699 54.149 46.2315 54.5603 46.1371 54.615Z" fill="white"/>
<path d="M48.0177 50.7427L47.9662 50.7805L47.7618 50.9307L48.8172 52.3687C48.8878 52.4655 48.9156 52.5621 48.9005 52.6567C48.8754 52.828 48.7194 52.9595 48.654 53.0062C48.5791 53.0627 48.4422 53.1094 48.311 53.0881C48.1997 53.0717 48.1084 53.0128 48.0352 52.9148L46.9933 51.4936L46.5317 51.8339L47.5669 53.245C47.7062 53.4354 47.8763 53.5476 48.0718 53.5766C48.38 53.6232 48.6694 53.4516 48.8149 53.3455C49.3144 52.9782 49.321 52.5188 49.1052 52.2265L48.0177 50.7427Z" fill="white"/>
<path d="M51.4241 50.032C51.2303 49.8316 50.9825 49.7859 50.7254 49.8848C50.7457 49.8248 50.7579 49.7637 50.7579 49.7025C50.7579 49.5539 50.6987 49.4088 50.5797 49.2864C50.4185 49.1207 50.0013 48.9159 49.5746 49.3308L48.8203 50.0616L50.5616 51.8592L51.3327 51.1116C51.5271 50.9249 51.6286 50.7236 51.6311 50.52C51.6341 50.3423 51.5619 50.1741 51.4241 50.032ZM50.2996 49.9539C50.2996 50.0798 50.2176 50.1832 50.1515 50.2478C50.1515 50.2478 50.0359 50.3601 49.9706 50.4244C49.9002 50.3522 49.4967 49.9364 49.4277 49.8627C49.4745 49.8174 49.5482 49.7472 49.5482 49.7472C49.7838 49.5177 49.9907 49.5025 50.1806 49.6993C50.2676 49.7896 50.2996 49.8749 50.2996 49.9539ZM50.7792 51.2584C50.7079 51.1849 50.2374 50.698 50.1652 50.6245C50.2273 50.5647 50.3885 50.4079 50.3885 50.4079C50.6957 50.1118 51.0072 50.4256 51.0204 50.4402C51.1172 50.5402 51.1648 50.6348 51.1648 50.7289C51.1648 50.7306 51.1648 50.7316 51.1648 50.7325C51.1636 50.8358 51.1037 50.944 50.99 51.0564C50.9903 51.0564 50.8401 51.2007 50.7792 51.2584Z" fill="white"/>
<path d="M23.4486 17.8719L22.3977 18.1553L22.5184 18.5317C22.6635 18.9881 22.5321 19.4659 22.1764 19.7779C21.9785 19.9514 21.75 20.031 21.498 20.0138C21.115 19.9881 20.6827 19.7402 20.342 19.3503C19.9405 18.8904 19.7402 18.4477 19.7657 18.0725C19.7834 17.7989 19.9165 17.5586 20.1717 17.335C20.4536 17.0881 20.8111 17.0977 21.296 17.1938L21.6557 17.2649L21.8883 16.2584L21.5262 16.1701C20.7476 15.9775 19.9357 16.1667 19.3565 16.6738C18.2221 17.6664 18.1295 19.2875 19.1413 20.4446C20.0815 21.5194 21.7129 21.6366 22.7762 20.7066C23.5421 20.0376 23.8089 19.1817 23.5487 18.2341L23.4486 17.8719Z" fill="#DBA111"/>
<path d="M26.3026 12.6005L25.2291 13.106C25.2291 13.106 25.8284 14.3759 26.0343 14.8136C25.7282 14.9576 25.4316 15.0977 25.1251 15.2424C24.9183 14.8051 24.3187 13.5346 24.3187 13.5346L22.9053 14.2019L25.0579 18.7679L26.4726 18.101C26.4726 18.101 25.8056 16.6887 25.5911 16.2308C25.8975 16.0874 26.1938 15.9474 26.5009 15.8027C26.7161 16.2593 27.3822 17.6718 27.3822 17.6718L28.7965 17.0044L26.6445 12.4395L26.3026 12.6005Z" fill="#DBA111"/>
<path d="M31.0884 15.4293C31.0195 15.0893 30.9495 14.7434 30.8814 14.4039C31.3181 14.316 32.4786 14.0817 32.4786 14.0817L32.2744 13.0675C32.2744 13.0675 31.1135 13.3022 30.6764 13.3905C30.6135 13.0796 30.5615 12.8185 30.4981 12.508C30.9517 12.4165 32.1935 12.1656 32.1935 12.1656L31.9888 11.1519L31.6173 11.2265L28.7607 11.8042L29.7594 16.7528L33.0136 16.0949L32.8092 15.0817C32.8092 15.0817 31.545 15.3365 31.0884 15.4293Z" fill="#DBA111"/>
<path d="M35.7042 11.0344L34.1393 11.002L34.1315 11.3794L34.0337 16.0489L37.3188 16.1178L37.3423 15.0244C37.3423 15.0244 36.0811 14.9973 35.6202 14.9879C35.6333 14.3698 35.7042 11.0344 35.7042 11.0344Z" fill="#DBA111"/>
<path d="M40.7752 13.5803C40.3692 13.2821 40.2504 13.1625 40.2914 12.9996C40.3116 12.9152 40.4036 12.6455 40.6952 12.7177C40.8707 12.7628 41.0453 12.8552 41.123 13.2329L41.2085 13.652L42.2418 13.3029L42.1775 12.9775C42.0504 12.3386 41.51 11.7947 40.8316 11.6252C40.3458 11.5046 39.8588 11.5691 39.4591 11.8092C39.0922 12.029 38.8341 12.3759 38.732 12.7864C38.4727 13.8213 39.1703 14.3196 39.6315 14.6497C40.1044 14.9878 40.2246 15.1202 40.1524 15.4027C40.1298 15.4909 40.0778 15.5606 39.9964 15.61C39.9018 15.6656 39.783 15.6858 39.6864 15.6606C39.438 15.5995 39.3304 15.4821 39.2257 15.1608L39.0988 14.7756L38.062 15.1996L38.1624 15.5288C38.3568 16.1684 38.8209 16.5715 39.5803 16.7618C40.4338 16.9753 41.4692 16.5828 41.7271 15.558C41.9962 14.4782 41.2613 13.9371 40.7752 13.5803Z" fill="#DBA111"/>
<path d="M44.5088 16.2727C44.9071 16.474 45.9627 17.0078 45.9627 17.0078L46.4296 16.0848C46.4296 16.0848 45.3731 15.5509 44.9761 15.3503C45.1182 15.0672 45.2386 14.8292 45.3805 14.5466C45.7925 14.7547 46.9248 15.3269 46.9248 15.3269L47.3904 14.4038L44.452 12.9189L44.2821 13.2553L42.1743 17.4242L45.1373 18.9207L45.6045 17.9982C45.6045 17.9982 44.4532 17.4165 44.0372 17.207C44.1929 16.8972 44.353 16.5826 44.5088 16.2727Z" fill="#DBA111"/>
<path d="M50.3607 16.7441L45.6523 19.1804L46.5531 19.9638C46.5531 19.9638 47.3302 19.5506 47.6127 19.4023C47.8227 19.5852 48.1323 19.8545 48.3389 20.034C48.2376 20.3344 47.9498 21.179 47.9498 21.179L49.1908 22.2587L51.2038 16.3228L50.3607 16.7441Z" fill="#DBA111"/>
<path d="M23.2723 18.1791L22.7173 18.33L22.758 18.4555C22.9343 19.0095 22.7753 19.589 22.3415 19.9682C22.0924 20.1868 21.802 20.2869 21.4812 20.2662C21.0263 20.2357 20.5426 19.9626 20.1521 19.5161C19.7057 19.005 19.4844 18.4997 19.5137 18.0547C19.5367 17.7168 19.7023 17.4107 20.006 17.1451C20.4047 16.7965 20.9067 16.8603 21.3451 16.947L21.4655 16.9703L21.5869 16.4443L21.4663 16.4142C20.7666 16.2424 20.0406 16.4103 19.5223 16.8641C18.4968 17.7622 18.4144 19.2291 19.3314 20.2784C20.18 21.2487 21.6509 21.355 22.6112 20.5164C23.3075 19.9058 23.5415 19.1612 23.3056 18.3011L23.2723 18.1791Z" fill="white"/>
<path d="M26.4099 12.8274L25.5654 13.2266C25.5654 13.2266 26.2763 14.7353 26.3699 14.9336C26.1891 15.0193 25.186 15.4926 25.004 15.5776C24.9107 15.3789 24.2002 13.8704 24.2002 13.8704L23.2402 14.3226L25.1781 18.432L26.1374 17.9804C26.1374 17.9804 25.3506 16.3127 25.2559 16.1109C25.4378 16.0252 26.4398 15.5531 26.6217 15.4671C26.7162 15.6684 27.5032 17.3371 27.5032 17.3371L28.4612 16.8844L26.5234 12.7744L26.4099 12.8274Z" fill="white"/>
<path d="M30.8905 15.7264C30.8511 15.529 30.624 14.4046 30.5846 14.2072C30.7948 14.1649 32.1815 13.8847 32.1815 13.8847L32.0766 13.3655C32.0766 13.3655 30.6903 13.6446 30.479 13.6873C30.4406 13.4937 30.2405 12.5045 30.2021 12.3111C30.4139 12.2676 31.8965 11.9691 31.8965 11.9691L31.7913 11.4497L29.0576 12.0014L29.9568 16.4554L32.7167 15.8983L32.6118 15.3789C32.6116 15.379 31.104 15.6832 30.8905 15.7264Z" fill="white"/>
<path d="M35.4464 11.2818L34.3866 11.2588L34.3844 11.3839L34.2905 15.802L37.0727 15.8609L37.0851 15.2712C37.0851 15.2712 35.579 15.2394 35.3632 15.2348C35.3687 14.999 35.4464 11.2818 35.4464 11.2818Z" fill="white"/>
<path d="M40.7567 12.4744C41.0937 12.5587 41.2883 12.7839 41.3708 13.1826L41.3994 13.322L41.9522 13.1351L41.9313 13.0261C41.8221 12.4816 41.3563 12.0165 40.7713 11.8693C40.3507 11.7644 39.9317 11.8195 39.5901 12.0246C39.281 12.2103 39.0631 12.5029 38.9772 12.8481C38.7595 13.7161 39.3253 14.1204 39.7791 14.4448C40.2384 14.7733 40.5153 14.9975 40.3974 15.4634C40.3506 15.6574 40.2239 15.7682 40.1262 15.8265C39.9748 15.9172 39.789 15.9455 39.6258 15.9055C39.2908 15.8215 39.1182 15.6413 38.9874 15.2394L38.9448 15.111L38.3711 15.345L38.4045 15.4551C38.5712 16.0033 38.9765 16.3508 39.6434 16.5178C40.3762 16.7008 41.2641 16.3692 41.4829 15.4964C41.7109 14.5815 41.1103 14.1388 40.6243 13.7835C40.2117 13.479 39.9625 13.2754 40.0473 12.9389C40.1216 12.638 40.3707 12.3777 40.7567 12.4744Z" fill="white"/>
<path d="M45.2699 14.2088C45.4633 14.3061 46.8125 14.9879 46.8125 14.9879L47.0527 14.5146L44.564 13.2573L44.507 13.3696L42.5142 17.3133L45.0261 18.5828L45.2655 18.1097C45.2655 18.1097 43.894 17.4162 43.6998 17.3177C43.7903 17.1376 44.3079 16.1151 44.3978 15.9349C44.5892 16.0316 45.8513 16.6694 45.8513 16.6694L46.0919 16.1961C46.0919 16.1961 44.8285 15.5588 44.637 15.4616C44.7261 15.2859 45.181 14.3845 45.2699 14.2088Z" fill="white"/>
<path d="M50.4766 16.9687L46.0981 19.2347L46.5875 19.6601C46.5875 19.6601 47.516 19.1678 47.6474 19.0983C47.7563 19.1934 48.5259 19.8629 48.6326 19.9558C48.5862 20.0942 48.2422 21.0997 48.2422 21.0997L49.0732 21.8221L50.765 16.8335L50.4766 16.9687ZM48.1543 18.8376C48.3614 18.7305 48.8905 18.4556 49.2132 18.2877C49.0931 18.6307 48.8951 19.1956 48.8192 19.4155C48.6513 19.2685 48.3224 18.9827 48.1543 18.8376Z" fill="white"/>
<path d="M47.4215 34.318C47.0624 33.3669 45.8259 32.9537 44.6571 33.3949C44.1697 33.5783 43.7705 33.8848 43.4984 34.2467C44.2701 32.0439 47.4139 31.5765 47.4139 29.5272C47.4139 26.0924 42.536 27.0545 43.2458 29.5277C43.2458 28.4056 45.0317 28.1999 45.0317 29.5277C45.0317 30.8558 41.9176 31.7266 41.9176 33.9702C41.9176 36.4434 44.3913 36.6723 44.1409 38.9343C44.0984 39.3243 43.679 39.8368 43.0719 39.8368C39.283 39.8368 40.6356 35.1727 39.3117 33.7535L39.3809 32.7952C40.1463 33.2645 42.1767 32.1651 40.84 30.4892C40.84 31.3133 39.1239 31.2677 39.1239 29.7106C39.1239 27.6037 41.0936 28.7031 41.1893 29.1684C41.0949 28.4011 41.0592 27.9142 41.1859 27.472C40.124 27.8144 40.0247 27.2006 40.159 26.9631C40.3128 26.6884 40.5186 26.3676 40.9323 26.3676C41.1559 26.3676 41.2902 26.3988 41.3693 26.4532C41.5015 26.5437 41.5982 26.3371 41.5793 26.5293C41.6929 26.3563 41.6474 26.5723 41.7571 26.3988C41.8687 26.2265 42.0192 26.0316 42.2834 25.7721L42.2721 25.3834L42.5814 25.4968L42.8784 25.0165C42.5579 24.3519 42.123 24.672 41.8027 23.848C41.5348 23.7785 37.3624 24.2322 37.4834 22.5678C37.1432 22.5678 36.3373 22.7542 36.836 23.4319C36.4482 23.4786 36.1687 23.0382 35.5841 24.2294C36.3164 24.0921 35.9374 24.9107 35.9374 25.1436C35.9374 26.6528 33.9283 26.6273 33.9283 25.9204C33.4441 26.3909 33.7188 27.4197 34.451 27.6732C34.451 27.6732 34.1725 28.7737 33.4851 29.4714C32.4647 29.4307 30.8276 29.2534 29.8859 28.3631C29.4797 27.9795 29.1572 27.7704 28.8825 27.663V27.1642C29.2846 26.9674 29.7256 26.6191 30.1838 26.037C30.5413 25.6004 30.7349 25.0405 30.6828 24.446C30.676 24.375 30.6655 24.3049 30.653 24.2365C30.6492 24.2147 30.6438 24.1936 30.6388 24.172C30.6287 24.124 30.6171 24.0781 30.6033 24.0307C30.5966 24.0079 30.5903 23.9845 30.5831 23.9618C30.5676 23.9143 30.5505 23.8689 30.532 23.8239C30.5243 23.805 30.5188 23.7848 30.5097 23.7671C30.4842 23.7064 30.4558 23.6493 30.425 23.5917C30.4119 23.5684 30.398 23.5467 30.3852 23.5252C30.3641 23.4907 30.3441 23.4557 30.3219 23.4223C30.3039 23.3958 30.2851 23.369 30.2662 23.3423C30.2467 23.3168 30.2262 23.2907 30.2061 23.2651C30.1839 23.2377 30.1621 23.2088 30.1383 23.1816C30.1226 23.1637 30.1055 23.1464 30.0889 23.1299C30.0294 23.0641 29.9648 23.003 29.8974 22.9446C29.8919 22.9398 29.8852 22.9335 29.8786 22.9285C29.841 22.8963 29.8008 22.8656 29.7614 22.8363C29.7513 22.8286 29.7408 22.8212 29.7295 22.8133C29.6873 22.7836 29.6441 22.7545 29.599 22.7267C29.5963 22.7249 29.5938 22.7238 29.5918 22.7219C29.163 22.4593 28.6448 22.3219 28.0975 22.3653C26.7797 22.4703 25.8002 23.5713 25.9103 24.8247C25.9959 25.8013 26.7162 26.5812 27.6526 26.83C27.3241 27.0133 27.0466 27.1191 26.9839 27.1191C26.9943 27.1258 27.0078 27.1336 27.0226 27.1431C27.0264 27.1448 27.0309 27.1476 27.0355 27.1499C27.0482 27.158 27.0633 27.1665 27.0787 27.1748C27.0825 27.177 27.0873 27.1792 27.091 27.1815C27.1121 27.1921 27.1339 27.2031 27.1584 27.2148C27.1622 27.2166 27.1668 27.218 27.1706 27.2199C27.1923 27.2299 27.2144 27.2405 27.2378 27.2494C27.2445 27.2525 27.2517 27.2552 27.2589 27.2576C27.3162 27.2816 27.3808 27.3031 27.4513 27.3233C27.4614 27.326 27.472 27.3283 27.4806 27.331C27.5092 27.3383 27.5382 27.3449 27.5681 27.3521C27.578 27.3539 27.5881 27.356 27.5987 27.3581C27.6365 27.3649 27.6761 27.3716 27.7158 27.3764C27.7192 27.3764 27.7226 27.3781 27.7259 27.3781V27.6618C27.711 27.6651 27.6976 27.6666 27.6837 27.6688C27.2551 27.7394 26.9765 27.8713 26.8506 28.2529C26.7255 28.6358 26.854 28.7742 27.0548 29.0429C26.8852 29.346 26.4408 29.4593 27.0207 30.129C26.9785 30.382 27.032 30.7847 27.4001 30.9069C27.5202 30.9476 27.6203 30.9693 27.7259 30.9876L27.7254 36.0083C27.3583 36.2028 27.1771 36.4454 27.0769 36.6715C27.0769 36.6715 26.7822 36.0172 26.8017 37.3133C27.1365 37.0535 27.0047 37.6141 27.0047 37.6141C26.5488 38.2049 27.1279 38.1728 27.1279 38.1728C27.5206 37.7805 27.4405 38.3506 27.4405 38.3506C27.4405 39.0458 27.7229 39.3178 27.7253 39.3189V43.1438L27.3917 43.1448L27.3949 44.2003L27.9782 44.1993C27.6509 44.3351 27.435 44.6584 27.4665 45.0157C27.5061 45.466 27.9221 45.8007 28.3959 45.7641C28.8692 45.7261 29.221 45.3313 29.1806 44.8798C29.1538 44.5682 28.9474 44.314 28.6667 44.1972L29.2049 44.1957L29.2027 43.1403L28.8817 43.1418L28.8822 39.7482C28.9484 39.7845 29.02 39.8097 29.0976 39.8266C29.1286 39.8324 29.1593 39.8367 29.1909 39.8388C29.2048 39.841 29.2193 39.841 29.2332 39.8414C29.1469 39.3953 29.4133 39.0996 29.4133 39.0996C29.5502 38.8936 29.7481 38.733 29.9733 38.6197C30.6468 38.2818 31.566 38.3672 31.8407 38.9173C33.5812 38.4585 35.0769 36.709 35.0769 36.709L35.9337 38.1672C34.1172 38.7746 30.1607 42.2141 32.9071 43.4054C32.9061 43.7522 32.8596 46.3258 31.2093 46.1213C28.8327 45.8286 28.24 46.8119 28.6964 47.9173C28.4819 48.8494 29.1997 49.173 29.1997 49.173C29.0919 48.6346 29.3509 48.1885 30.3331 48.1942C30.3281 49.1764 30.9624 49.3535 30.9624 49.3535C30.9669 48.5124 31.5514 48.2009 32.0707 48.2032C32.0669 48.8963 32.8721 49.1597 32.8721 49.1597C32.8721 49.1597 32.668 48.3609 33.5782 48.2032C35.8825 47.8017 33.7184 45.4318 37.2226 44.7787C37.2226 44.7787 35.4776 44.5156 35.4776 43.5617C35.4776 42.6935 37.0572 42.0998 37.601 42.0998C38.7162 44.2307 39.9278 44.2475 40.2454 44.2627C40.7393 44.8144 40.5738 46.6738 39.8608 46.6373C37.2506 46.4972 37.3461 48.0849 37.6386 48.4097C37.6052 49.026 38.0847 49.382 38.0847 49.382C38.0847 48.7213 38.7133 48.5356 39.5194 48.5792C39.477 49.3862 39.9912 49.5068 39.9912 49.5068C40.0053 48.6947 40.6061 48.5569 41.0329 48.5792C41.0018 49.1484 41.5667 49.316 41.5667 49.316C41.5667 49.316 41.5111 48.5936 42.2716 48.5936C43.7143 48.5926 41.6191 45.5008 44.4347 42.4431C41.9613 43.588 40.6455 40.726 40.6455 40.1768C41.9167 41.6644 46.0384 41.9614 46.0384 39.4202C46.0384 36.9926 43.3702 36.088 44.6186 35.1595C45.3447 34.6196 46.7724 35.7103 45.9555 36.8369C47.127 36.4028 47.7799 35.2685 47.4215 34.318ZM31.6118 34.3945C30.6793 34.9428 30.0542 35.6364 29.2041 35.9399C29.075 35.9852 28.972 35.9981 28.8826 35.9923V31.2538C29.1078 31.2749 29.6923 31.3549 30.3757 31.6375C31.0525 32.0068 31.0525 32.7701 30.1983 32.9511C30.7382 33.9847 32.6083 33.4787 33.0159 32.6368C33.2155 32.619 33.392 32.9755 33.5579 33.3124C33.2955 33.4487 32.7585 33.7195 31.6118 34.3945ZM42.0489 26.5393C41.9463 26.6785 41.8452 26.8169 41.7566 26.9354C41.9931 27.3285 42.438 27.5742 42.9254 27.5291C43.5991 27.4653 44.095 26.8674 44.033 26.1931C44.0294 26.1686 44.026 26.1465 44.0228 26.1225C43.9506 26.4717 43.539 26.7674 43.0156 26.8158C42.6192 26.853 42.2604 26.7392 42.0489 26.5393Z" fill="#D1D3D4"/>
<path d="M41.0024 26.1804C41.2372 26.5734 41.6832 26.8191 42.1705 26.7737C42.8453 26.7107 43.3398 26.1124 43.2781 25.4374C43.2756 25.4135 43.2712 25.3905 43.2681 25.3667C43.1965 25.7154 42.783 26.0119 42.2607 26.0604C41.8633 26.0976 41.505 25.9836 41.2934 25.7839C41.1915 25.9235 41.0892 26.0618 41.0024 26.1804Z" fill="#ED1C24"/>
<path d="M37.3924 21.0317C37.373 21.0317 37.3534 21.0393 37.3303 21.0473C36.9068 21.1366 35.6068 22.0313 36.0814 22.6763C35.6918 22.7224 34.7875 22.4555 34.2041 23.646C34.937 23.508 35.1815 24.1575 35.1815 24.3907C35.1815 25.2742 34.4952 25.6285 33.9248 25.6319C33.543 25.6329 33.2156 25.4774 33.1801 25.213C33.1817 25.2052 33.1783 25.1976 33.1801 25.1897C33.1796 25.189 33.1723 25.1907 33.1723 25.1897H33.1568C32.702 25.6696 32.9783 26.6699 33.6998 26.9196C33.6998 26.9196 33.4176 28.0215 32.7302 28.7193C32.0458 28.6928 31.0903 28.5997 30.2478 28.2772C30.0119 28.1875 29.7887 28.0749 29.5806 27.9436C29.4201 27.8441 29.266 27.7375 29.1307 27.61C28.7248 27.2264 28.4042 27.0181 28.13 26.9119V26.4076C28.5321 26.2104 28.975 25.8649 29.4332 25.2828C29.7913 24.8467 29.982 24.2875 29.9297 23.6925C29.9241 23.6214 29.9128 23.5527 29.8987 23.4831C29.8955 23.4614 29.8878 23.4427 29.8832 23.421C29.8727 23.3731 29.8659 23.3197 29.8522 23.2736C29.8459 23.2501 29.8371 23.2271 29.8289 23.2038C29.8138 23.1563 29.7923 23.117 29.7746 23.0719C29.7667 23.0528 29.7669 23.0288 29.7591 23.0099C29.7329 22.9504 29.7039 22.8953 29.6737 22.8392C29.6617 22.8153 29.6475 22.7923 29.6349 22.7694C29.6138 22.7351 29.5871 22.7019 29.5651 22.6686C29.5469 22.6419 29.5304 22.6176 29.5108 22.591C29.4915 22.5655 29.4694 22.5379 29.4488 22.5134C29.4267 22.4844 29.4107 22.4552 29.3867 22.4281C29.3712 22.4101 29.3491 22.3908 29.3324 22.3738C29.2722 22.3087 29.2134 22.2449 29.1462 22.1876C29.1394 22.1821 29.1296 22.1769 29.123 22.1721C29.0852 22.1404 29.0472 22.1079 29.0066 22.079C28.9959 22.072 28.9861 22.0629 28.9756 22.0557C28.9327 22.0252 28.889 21.9985 28.8437 21.9704C28.8411 21.9691 28.8384 21.9714 28.8359 21.9704C28.4073 21.7065 27.8936 21.5708 27.3465 21.6135C27.2287 21.623 27.1095 21.6439 26.9974 21.6678C25.8584 21.9202 25.0584 22.9317 25.1589 24.0726C25.2441 25.0391 25.944 25.8093 26.8655 26.0663C26.8749 26.0689 26.8867 26.0717 26.8966 26.0741C26.5674 26.2574 26.2924 26.3611 26.2294 26.3611C26.2402 26.3679 26.2532 26.3821 26.2682 26.3921C26.272 26.3939 26.2793 26.3897 26.2837 26.3921C26.297 26.3998 26.3059 26.4143 26.3225 26.4231C26.3266 26.4254 26.3334 26.4216 26.338 26.4231C26.3577 26.4336 26.3762 26.4502 26.4001 26.4619C26.4045 26.4632 26.4122 26.4673 26.4156 26.4697C26.4365 26.4795 26.461 26.4829 26.4854 26.493C26.4921 26.4958 26.4937 26.498 26.5009 26.5007C26.5595 26.5238 26.6236 26.5506 26.6949 26.5705C26.7047 26.5728 26.7158 26.5755 26.7259 26.5783C26.7536 26.5855 26.7813 26.5876 26.8112 26.5938C26.8213 26.5965 26.8317 26.5993 26.8423 26.6016C26.88 26.6088 26.9178 26.6199 26.9586 26.6248C26.9615 26.6248 26.9713 26.6229 26.9741 26.6248V26.9041C26.9608 26.9061 26.942 26.9091 26.9276 26.9119C26.5 26.9819 26.2231 27.1192 26.0976 27.5014C25.9724 27.8844 26.0986 28.024 26.2992 28.2927C26.1285 28.5947 25.6894 28.7086 26.2682 29.3787C26.2271 29.6311 26.2807 30.0321 26.6483 30.1545C26.7688 30.1952 26.869 30.2132 26.9741 30.232V35.2511C26.6066 35.4459 26.422 35.6919 26.3225 35.9182C26.3225 35.9182 25.6199 35.8239 25.6399 37.1206C25.9745 36.8595 26.2527 36.8569 26.2527 36.8569C25.7973 37.4471 26.1208 37.9895 26.1208 37.9895C26.5134 37.5962 26.6871 37.5938 26.6871 37.5938C26.6871 38.2919 26.9741 38.5635 26.9741 38.5635V42.3879H26.6406V42.8766V43.4429H27.2224C27.1512 43.4727 27.087 43.5127 27.0284 43.5593C26.8269 43.7127 26.7031 43.9496 26.7104 44.2109V44.2575C26.7504 44.7089 27.167 45.0489 27.6413 45.0099C28.1142 44.973 28.4638 44.576 28.4248 44.1256C28.3971 43.8154 28.1935 43.5598 27.9128 43.4429H28.4481V42.3879H28.13V38.9902C28.1967 39.0247 28.2634 39.0528 28.3395 39.0678C28.3721 39.0752 28.4087 39.0796 28.4403 39.0833C28.4542 39.0835 28.4652 39.0828 28.4791 39.0833C28.3928 38.6374 28.6575 38.3463 28.6575 38.3463C28.7955 38.1399 28.9918 37.9789 29.216 37.8654C29.8904 37.5272 30.8109 37.6102 31.0856 38.1601C32.8262 37.702 34.3204 35.957 34.3204 35.957L35.1815 37.4077C33.3646 38.0158 29.4098 41.4594 32.1561 42.6517C32.1549 42.9974 32.1067 45.569 30.4572 45.3668C28.0811 45.0727 27.4878 46.0533 27.9438 47.1587C27.7285 48.092 28.4481 48.4154 28.4481 48.4154C28.3407 47.8777 28.5986 47.4333 29.5806 47.438C29.5754 48.42 30.209 48.6016 30.209 48.6016C30.2124 47.7594 30.7984 47.4427 31.3183 47.4458C31.3149 48.1389 32.1173 48.4077 32.1173 48.4077C32.1173 48.4077 31.912 47.6035 32.8232 47.4458C35.1267 47.0443 32.9648 44.6788 36.4692 44.0247C36.4692 44.0247 34.7238 43.7617 34.7238 42.8068C34.7238 41.94 36.2987 41.3484 36.8416 41.3484C36.8421 41.3497 36.8487 41.3472 36.8493 41.3484C37.9645 43.4698 39.178 43.4887 39.4946 43.505C39.9882 44.0556 39.8198 45.9162 39.1067 45.8788C36.4965 45.7397 36.588 47.3304 36.8804 47.6552C36.8479 48.2725 37.3303 48.6249 37.3303 48.6249C37.3303 47.9638 37.9593 47.7833 38.7654 47.8259C38.7221 48.6321 39.2386 48.749 39.2386 48.749C39.2507 47.9368 39.8506 47.8033 40.2781 47.8259C40.2483 48.3964 40.8134 48.5628 40.8134 48.5628C40.8134 48.5628 40.7592 47.8423 41.5193 47.8414C42.9625 47.8414 40.8663 44.7474 43.6836 41.6898C41.2104 42.8352 39.8902 39.974 39.8902 39.4246C41.1617 40.9128 45.2894 41.2049 45.2894 38.6644C45.2894 36.6146 43.3865 35.6492 43.544 34.84C43.5729 34.6913 43.6685 34.5502 43.8621 34.4055C44.5891 33.8651 46.0169 34.9563 45.2041 36.0811C46.3745 35.647 47.0273 34.5103 46.6702 33.56C46.31 32.6089 45.0688 32.1959 43.9008 32.6368C43.4115 32.8215 43.0168 33.1276 42.745 33.4902C43.5154 31.2875 46.6625 30.8238 46.6625 28.7736C46.6625 25.3388 41.7792 26.3004 42.489 28.7736C42.489 28.7365 42.4922 28.7008 42.4967 28.665C42.5036 28.6009 42.5172 28.5438 42.5355 28.4866C42.8099 27.6293 44.2809 27.5688 44.2809 28.7736C44.2809 30.1017 41.1625 30.9741 41.1625 33.2187C41.1625 35.6919 43.639 35.9145 43.3888 38.1756C43.3465 38.5671 42.9254 39.0833 42.3183 39.0833C41.0164 39.0833 40.3182 38.5298 39.9135 37.749C39.1415 36.2576 39.4252 33.9323 38.556 33.0014L38.6258 32.0395C39.3915 32.5094 41.4261 31.4115 40.0919 29.7356C40.0919 30.5606 38.3698 30.5085 38.3698 28.9521C38.3698 26.8452 40.3375 27.952 40.4333 28.4168C40.3387 27.65 40.3039 27.1585 40.4333 26.7179C39.3703 27.0593 39.2693 26.4441 39.4015 26.2059C39.5571 25.9307 39.7643 25.6086 40.1773 25.6086C40.7742 25.6086 40.7362 25.8274 40.7048 26.1361C40.9327 25.7913 40.9965 25.5379 41.5271 25.0191L41.5193 24.6312L41.8296 24.7398L42.1244 24.2588C41.8043 23.5943 41.3677 23.9198 41.0461 23.0952C40.7794 23.0252 37.2709 22.6967 37.3924 21.0317ZM27.4939 23.3124C27.8209 23.2863 28.1099 23.5197 28.1378 23.8322C28.1649 24.1431 27.9223 24.4191 27.5947 24.445C27.2666 24.4714 26.977 24.2374 26.9509 23.9253C26.9436 23.8424 26.954 23.7663 26.9819 23.6925C26.9819 23.6908 26.9812 23.6854 26.9819 23.6848C26.9851 23.6736 26.9938 23.6647 26.9974 23.6537C27.0831 23.4703 27.2687 23.3306 27.4939 23.3124ZM33.1568 25.5931C33.1772 25.7136 33.2213 25.8207 33.2809 25.9189C33.2214 25.8206 33.1769 25.7138 33.1568 25.5931ZM43.1639 27.7109C43.0223 27.7867 42.8892 27.8873 42.7838 28.0057C42.89 27.8853 43.0205 27.7876 43.1639 27.7109ZM28.13 30.4958C28.3552 30.5175 28.9371 30.6022 29.6194 30.8837C29.6273 30.8875 29.6359 30.887 29.6427 30.8914C30.2988 31.2655 30.2857 32.0172 29.441 32.1947C29.9799 33.2292 31.8572 32.7263 32.2647 31.8844C32.4634 31.8667 32.6337 32.2229 32.8 32.5593C32.538 32.6958 32.0067 32.9625 30.8606 33.6376C29.928 34.1865 29.2984 34.8784 28.4481 35.1813C28.3185 35.2282 28.2188 35.2405 28.13 35.2356V30.4958ZM26.6251 35.9725C26.6013 35.9897 26.58 36.0149 26.563 36.0346C26.582 36.0115 26.5971 35.9922 26.6251 35.9725ZM25.9424 36.5233C25.8565 36.62 25.7786 36.7211 25.7252 36.8259C25.7778 36.7227 25.8581 36.6188 25.9424 36.5233ZM44.281 38.067C44.2851 38.1321 44.2887 38.2006 44.2887 38.2687C44.2887 38.3024 44.2802 38.3508 44.2732 38.4084C44.2802 38.3508 44.2809 38.3024 44.2809 38.2687C44.2809 38.198 44.2854 38.1345 44.281 38.067ZM44.0172 39.0833C43.9872 39.1252 43.9533 39.1671 43.9164 39.2074C43.9518 39.1685 43.9882 39.1238 44.0172 39.0833ZM27.2146 43.5205C27.2512 43.5205 27.2888 43.529 27.3232 43.536C27.2888 43.529 27.2512 43.5283 27.2146 43.5283C27.1819 43.5283 27.1523 43.53 27.1215 43.536C27.1523 43.5299 27.182 43.5205 27.2146 43.5205Z" fill="#034694"/>
<path d="M39.3641 23.9058L39.7878 23.9281L39.5758 24.2188C39.5758 24.2188 39.2928 24.3083 39.3641 23.9058ZM38.3534 23.9058H38.9638C38.9638 23.9058 38.9418 24.3984 39.3875 24.4424L39.2929 24.5993C39.2929 24.5993 38.095 24.2862 38.3534 23.9058Z" fill="white"/>
<path d="M27.8693 28.114C27.8904 28.0346 27.1499 27.6014 26.7471 27.4959C26.5775 27.452 26.4467 27.656 26.4256 27.7356C26.405 27.8156 26.4189 28.0576 26.5881 28.102C26.9912 28.2075 27.8487 28.1936 27.8693 28.114ZM27.8086 28.8531C27.8148 28.778 27.0763 28.5124 26.6953 28.4839C26.5358 28.4722 26.4518 28.6785 26.4467 28.7529C26.4414 28.8287 26.494 29.0444 26.6537 29.0557C27.0341 29.0839 27.8037 28.9293 27.8086 28.8531ZM26.9701 26.6245V26.9076C27.0784 27.0161 27.4733 27.1433 27.5183 27.1433V26.5826C27.5185 26.5827 27.2214 26.645 26.9701 26.6245ZM26.8155 29.3864C26.6999 29.391 26.6564 29.5443 26.6593 29.5995C26.6603 29.654 26.7154 29.8046 26.8311 29.8001C27.1063 29.7902 27.6457 29.6171 27.6435 29.5632C27.6413 29.509 27.0907 29.3769 26.8155 29.3864ZM26.2488 36.86C25.7934 37.4502 26.1214 37.9885 26.1214 37.9885C26.1214 37.5775 26.5903 37.0485 26.6948 36.9452C26.6948 36.9453 26.5342 36.86 26.2488 36.86ZM27.7018 38.1121C27.6318 38.4762 27.8129 38.8307 28.1266 38.9937C28.1933 39.0283 28.2657 39.0556 28.3417 39.0706C28.3743 39.078 28.4049 39.082 28.4365 39.0856C28.4504 39.0858 28.4644 39.0861 28.4783 39.0866C28.4783 39.0866 28.0171 38.6548 28.2025 38.2467C28.0822 38.1641 27.9026 38.1121 27.7018 38.1121ZM26.8683 26.0667C26.1777 25.7297 25.6867 24.8851 25.6867 23.8947C25.6867 22.8438 26.2388 21.9556 26.9974 21.6649C25.8584 21.9172 25.0549 22.9295 25.1555 24.0704C25.2407 25.0369 25.9468 25.8098 26.8683 26.0667ZM34.2003 23.6427C34.9332 23.5048 35.1819 24.1564 35.1819 24.3896C35.1819 25.2731 34.4938 25.6291 33.9234 25.6324V25.6329C36.5692 25.6329 35.6368 22.2065 34.2003 23.6427ZM32.4318 31.2459C33.6963 31.2459 33.6113 29.5944 33.3378 29.3207C33.7436 28.9153 34.5784 27.0553 34.5784 26.7117C34.5784 26.7117 32.9096 26.3518 33.176 25.1937C33.1755 25.1929 33.1755 25.1924 33.1755 25.1914L33.1532 25.1874C32.6984 25.6673 32.9749 26.6682 33.6965 26.918C33.6965 26.918 33.418 28.0185 32.7305 28.7163C32.0462 28.6897 31.0869 28.5997 30.2444 28.2772C31.5468 28.9684 32.8879 30.0131 32.4318 31.2459ZM27.4922 23.3164C27.8192 23.2902 28.1071 23.522 28.135 23.8345C28.1621 24.1454 27.9186 24.4202 27.5911 24.4461C27.2629 24.4724 26.9744 24.2406 26.9483 23.9285C26.9483 24.4123 27.341 24.8054 27.8257 24.8054C27.833 24.8054 27.8402 24.8049 27.8475 24.8049C27.8909 25.0195 27.9058 25.2474 27.8358 25.4144C28.3092 25.0027 28.7029 24.4878 28.7029 23.9285C28.7029 23.4435 28.3092 23.0505 27.8258 23.0505C27.4221 23.0505 27.0841 23.3223 26.9807 23.6917C27.0574 23.4886 27.2514 23.3359 27.4922 23.3164ZM36.8106 22.678C36.2388 22.1052 37.0839 21.0347 37.3943 21.0347C37.0548 21.0347 35.5825 21.9986 36.0823 22.678C36.358 22.678 36.8106 22.678 36.8106 22.678ZM29.4435 32.1957C29.8971 32.3349 30.3531 32.1652 30.4594 31.8166C30.5656 31.4675 30.2826 31.0731 29.8282 30.9334C29.7655 30.9147 29.7022 30.9012 29.6398 30.8936C30.2959 31.2677 30.2883 32.0183 29.4435 32.1957ZM28.1278 27.3763C28.1278 27.3763 28.7778 27.5819 29.5774 27.9473C29.4169 27.8478 29.2662 27.7355 29.1309 27.6081C28.7249 27.2244 28.402 27.0154 28.1278 26.9092V27.3763ZM28.3743 35.7368C29.7333 35.7368 34.4321 32.7369 34.4321 32.7369C33.2715 32.7369 32.8028 32.5573 32.8028 32.5573C32.5408 32.6939 32.0031 32.9636 30.857 33.6387C29.9244 34.1876 29.2994 34.8817 28.4491 35.1846C28.3195 35.2316 28.2166 35.2425 28.1278 35.2376C27.9321 35.2207 27.7168 35.1942 27.5183 35.1823V30.8678C27.5183 30.4153 27.188 30.2334 26.9701 30.2334V35.2544C26.6025 35.4493 26.4217 35.6913 26.3222 35.9177C26.3222 35.9177 25.6216 35.8243 25.6416 37.121C25.6416 36.7771 26.1519 36.1756 26.5058 36.1756C26.5058 35.7369 27.7937 35.7368 28.3743 35.7368ZM40.0949 42.6827C39.7508 42.6827 38.1713 42.7496 38.0295 41.3739C37.6804 41.2989 37.2729 41.2838 36.845 41.3447C37.9615 43.4756 39.1736 43.4927 39.4907 43.509C39.9843 44.0596 39.8189 45.9188 39.1059 45.8814C36.4957 45.7424 36.5914 47.3304 36.8838 47.6552C36.8838 46.4578 37.6978 46.1739 39.754 46.1739C39.7541 46.1739 41.4349 44.0228 40.0949 42.6827ZM40.6317 47.8245H40.2784C40.2485 48.395 40.8132 48.5629 40.8132 48.5629C40.6317 48.3816 40.4994 47.958 40.6317 47.8245ZM37.3287 48.6277C37.1785 48.4773 37.0548 47.8745 37.2729 47.6552H36.8838C36.8513 48.2725 37.3287 48.6277 37.3287 48.6277ZM45.1204 28.8021C45.1204 26.9792 42.6204 27.2656 42.497 28.6654C42.6072 27.6394 44.2775 27.488 44.2775 28.7731C44.2775 30.1011 41.1624 30.9711 41.1624 33.2157C41.1624 35.6889 43.6354 35.9178 43.3852 38.1789C43.3429 38.5703 42.9235 39.0819 42.3164 39.0819C41.0145 39.0819 40.3176 38.5293 39.913 37.7485C40.3268 38.8539 41.0552 39.7012 42.5709 39.7012C44.1415 39.7012 44.284 38.5404 44.284 38.2707C44.284 36.0068 41.9196 35.4686 41.9196 33.3171C41.9198 31.2221 45.1204 30.3591 45.1204 28.8021ZM26.6853 37.597C26.6853 38.295 26.9701 38.5658 26.9701 38.5658C26.9701 38.1449 27.143 37.7892 27.2419 37.691C27.0958 37.5439 26.6853 37.597 26.6853 37.597ZM44.7499 33.7388C44.1153 33.7388 43.5957 34.2244 43.541 34.8439C43.5699 34.6952 43.669 34.5507 43.8625 34.4061C44.5895 33.8657 46.0145 34.9541 45.2017 36.079C45.6485 35.8996 45.9623 35.4637 45.9623 34.9528C45.9625 34.2829 45.4197 33.7388 44.7499 33.7388ZM39.1884 47.8245H38.7645C38.7212 48.6308 39.2371 48.7521 39.2371 48.7521C39.0182 48.5338 38.9816 48.0311 39.1884 47.8245ZM27.2136 43.5246C27.148 43.5246 27.0869 43.5381 27.0286 43.5603C26.8271 43.7137 26.7042 43.9519 26.7116 44.2133C26.7787 44.4282 26.9767 44.5836 27.2136 44.5836C27.5061 44.5836 27.7429 44.3466 27.7429 44.0543C27.7429 43.7616 27.5061 43.5246 27.2136 43.5246ZM30.1914 47.4397H29.5786C29.5734 48.4217 30.2085 48.5998 30.2085 48.5998C30.0295 48.4195 29.8021 47.8287 30.1914 47.4397ZM32.0914 41.2296C32.0914 38.9834 37.4709 38.7198 37.4709 36.8693C37.4709 36.1157 36.8203 35.7754 36.3578 35.7754C36.4888 35.9065 37.1885 37.4111 35.1792 37.4111C33.3623 38.0192 29.4058 41.4584 32.1521 42.6507C32.1509 42.9964 32.1043 45.5702 30.4549 45.3679C28.0788 45.0739 27.486 46.0561 27.942 47.1615C27.942 45.4843 29.1199 45.7958 30.658 45.7958C31.6199 45.7958 33.0262 44.5794 33.0262 42.5313C33.0262 42.5313 32.0914 42.1726 32.0914 41.2296ZM27.5184 42.6062V38.0959C27.2136 38.0959 26.9701 38.5658 26.9701 38.5658L26.9702 42.414V42.3893L26.637 42.3903L26.6398 42.8762C26.8961 42.876 27.5184 42.7439 27.5184 42.6062ZM28.4444 48.418C28.4444 48.418 27.9688 47.6708 28.4784 47.1615H27.942C27.7267 48.0947 28.4444 48.418 28.4444 48.418ZM31.7606 47.4494C31.7606 47.4494 31.5045 47.4494 31.3159 47.4494C31.3125 48.1425 32.1178 48.405 32.1178 48.405C31.834 48.1225 31.6396 47.5687 31.7606 47.4494Z" fill="#6A7AB5"/>
<path d="M16.8024 39.9612L16.7727 39.8702L16.76 39.7754C16.7166 39.4511 16.6382 38.8469 16.1717 38.7388C16.047 38.7098 15.9181 38.7247 15.7806 38.7813C15.818 38.6377 15.8137 38.5078 15.7686 38.3886C15.5966 37.9414 14.9879 37.9471 14.6608 37.9514H14.5646L14.4699 37.9339C14.1486 37.8747 13.5492 37.7628 13.3033 38.1733C13.2372 38.2829 13.211 38.4098 13.2223 38.5576C13.0978 38.4773 12.9723 38.4413 12.8457 38.4474C12.367 38.4729 12.184 39.0538 12.0861 39.3664L12.0562 39.4572L12.0118 39.5415C11.855 39.8296 11.5641 40.3635 11.8783 40.7252C11.9622 40.8218 12.075 40.8865 12.2192 40.9207C12.1052 41.0151 12.0316 41.123 11.9995 41.2465C11.8744 41.7084 12.3708 42.0616 12.6367 42.2509L12.7147 42.3084L12.7818 42.3763C13.0071 42.6147 13.4256 43.0558 13.8664 42.8691C13.983 42.8188 14.0797 42.7319 14.1571 42.6055C14.2123 42.7434 14.2916 42.8455 14.3984 42.916C14.7999 43.176 15.2888 42.8137 15.5518 42.6203L15.6296 42.5633L15.7159 42.521C16.0112 42.3795 16.5615 42.1184 16.5199 41.6413C16.5089 41.5133 16.4554 41.3959 16.3596 41.2833C16.507 41.2746 16.6289 41.2299 16.7277 41.1497C17.1006 40.8486 16.9065 40.2715 16.8024 39.9612Z" fill="white"/>
<path d="M14.7051 40.3482C17.3832 41.9311 16.5584 40.1904 16.4996 39.933C16.4403 39.6765 16.4177 37.7511 14.7051 40.3482Z" fill="#ED1C24"/>
<path d="M14.5371 40.7441C13.8593 43.7791 15.2599 42.4579 15.4858 42.3233C15.7115 42.1876 17.5358 41.5706 14.5371 40.7441Z" fill="#ED1C24"/>
<path d="M14.107 40.7075C11.0099 40.9998 12.7003 41.9241 12.8989 42.0967C13.098 42.2688 14.2474 43.8139 14.107 40.7075Z" fill="#ED1C24"/>
<path d="M14.0099 40.2859C12.7738 37.4313 12.4173 39.3242 12.3143 39.5674C12.2114 39.8085 11.097 41.3802 14.0099 40.2859Z" fill="#ED1C24"/>
<path d="M58.2475 39.5418L58.2033 39.4574L58.173 39.3666C58.0751 39.0539 57.8921 38.4731 57.4147 38.4475C57.2867 38.4415 57.1619 38.4772 57.0374 38.5567C57.0487 38.4099 57.021 38.283 56.9566 38.1734C56.7096 37.7627 56.1111 37.8748 55.7899 37.9339L55.6941 37.9514H55.5984C55.2725 37.9472 54.6632 37.9416 54.4919 38.3888C54.4453 38.5078 54.4419 38.6379 54.4785 38.7813C54.343 38.7248 54.2139 38.7102 54.0884 38.7389C53.6223 38.8468 53.5423 39.4511 53.501 39.7754L53.4867 39.8703L53.4578 39.9613C53.3531 40.2715 53.1597 40.8486 53.5324 41.1501C53.6313 41.2302 53.7523 41.2749 53.9005 41.2836C53.8048 41.3962 53.7514 41.5138 53.7403 41.6417C53.699 42.1188 54.2484 42.3799 54.5443 42.5213L54.6298 42.5637L54.7075 42.6206C54.9714 42.8143 55.4607 43.1764 55.8609 42.9163C55.9692 42.8459 56.0478 42.7437 56.1023 42.6059C56.1803 42.7322 56.276 42.8192 56.3937 42.8695C56.8342 43.0561 57.2532 42.6151 57.4782 42.3767L57.546 42.3089L57.6229 42.2512C57.8896 42.0621 58.3856 41.7087 58.2611 41.247C58.2277 41.1232 58.1555 41.0154 58.0407 40.921C58.1844 40.8868 58.2976 40.8221 58.3811 40.7255C58.6958 40.3638 58.4053 39.8299 58.2475 39.5418Z" fill="white"/>
<path d="M55.8798 40.0647C53.5476 38.0071 55.4572 38.2527 55.7198 38.2296C55.9811 38.2076 57.8203 37.6333 55.8798 40.0647Z" fill="#ED1C24"/>
<path d="M55.5552 40.3482C52.877 41.9311 53.7002 40.1904 53.7603 39.933C53.819 39.6765 53.8412 37.7511 55.5552 40.3482Z" fill="#ED1C24"/>
<path d="M55.7229 40.7441C56.401 43.7791 55.0004 42.4579 54.774 42.3233C54.5485 42.1876 52.7249 41.5706 55.7229 40.7441Z" fill="#ED1C24"/>
<path d="M56.1519 40.7075C59.2492 40.9998 57.5599 41.9241 57.3606 42.0967C57.1627 42.2688 56.0117 43.8139 56.1519 40.7075Z" fill="#ED1C24"/>
<path d="M56.2485 40.2859C57.4854 37.4313 57.8412 39.3242 57.9446 39.5674C58.047 39.8085 59.1613 41.3802 56.2485 40.2859Z" fill="#ED1C24"/>
<path d="M56.8501 40.3753C56.8472 40.3504 56.8392 40.3282 56.8358 40.3041C57.0844 40.1215 57.3531 39.9258 57.3531 39.9258L57.3273 39.8679C57.3273 39.8679 57.0139 39.9226 56.7133 39.975C56.5624 39.7278 56.3052 39.5601 56.0108 39.5314C55.9172 39.2503 55.8238 38.9639 55.8238 38.9639L55.7608 38.9692C55.7608 38.9692 55.7185 39.2677 55.6758 39.56C55.4949 39.6088 55.3324 39.7112 55.2089 39.8578C55.1431 39.9368 55.0955 40.0262 55.0576 40.1195C54.7548 40.1195 54.4348 40.1205 54.4348 40.1205L54.4214 40.1828C54.4214 40.1828 54.7197 40.3282 54.9953 40.4631C54.9963 40.4883 54.993 40.5131 54.9953 40.5385C55.0164 40.7812 55.13 40.9991 55.3134 41.1581C55.2166 41.4607 55.1076 41.7988 55.1076 41.7988L55.161 41.8311C55.161 41.8311 55.4123 41.5708 55.636 41.3411C55.7528 41.3795 55.8772 41.3946 56.0029 41.3834C56.1296 41.3738 56.2497 41.3358 56.3586 41.2793C56.618 41.466 56.9105 41.6776 56.9105 41.6776L56.9584 41.6363C56.9584 41.6363 56.7926 41.3229 56.6448 41.0423C56.7981 40.8531 56.8702 40.6174 56.8501 40.3753Z" fill="white"/>
<path d="M55.875 39.909C55.7282 39.9204 55.5959 39.9897 55.5015 40.1032C55.4071 40.2156 55.3614 40.3577 55.3749 40.5038C55.4005 40.8061 55.6683 41.0309 55.9697 41.0042C56.1176 40.9908 56.2488 40.9218 56.3445 40.8097C56.4381 40.6963 56.4836 40.5551 56.4712 40.408C56.4448 40.1056 56.1767 39.8817 55.875 39.909Z" fill="#ED1C24"/>
<path d="M14.38 40.0647C16.7131 38.0071 14.8023 38.2527 14.5405 38.2296C14.2779 38.2076 12.439 37.6333 14.38 40.0647Z" fill="#ED1C24"/>
<path d="M15.2634 40.4631C15.5409 40.3283 15.8378 40.1827 15.8378 40.1827L15.8239 40.1204C15.8239 40.1204 15.5046 40.1194 15.201 40.1194C15.1643 40.0262 15.1165 39.9367 15.0503 39.8578C14.9269 39.7112 14.7645 39.609 14.5832 39.5598C14.5416 39.2673 14.4993 38.9692 14.4993 38.9692L14.4352 38.9639C14.4352 38.9639 14.3423 39.25 14.2502 39.5314C13.9538 39.5601 13.6963 39.7278 13.5457 39.975C13.2463 39.9226 12.931 39.8679 12.931 39.8679L12.9067 39.9258C12.9067 39.9258 13.1748 40.1215 13.4233 40.3041C13.4192 40.3283 13.412 40.3505 13.4094 40.3751C13.3888 40.6187 13.4627 40.8531 13.6157 41.0423C13.4667 41.3227 13.3009 41.6363 13.3009 41.6363L13.35 41.6776C13.35 41.6776 13.642 41.466 13.9011 41.2793C14.0101 41.3362 14.1301 41.3727 14.2564 41.3834C14.3831 41.3948 14.5071 41.3795 14.624 41.3411C14.847 41.5709 15.098 41.8311 15.098 41.8311L15.153 41.7988C15.153 41.7988 15.0438 41.4604 14.9465 41.1589C15.1295 40.9989 15.243 40.781 15.2646 40.5382C15.2672 40.5131 15.2634 40.4883 15.2634 40.4631Z" fill="white"/>
<path d="M14.7582 40.1037C14.6635 39.9902 14.5319 39.9206 14.3844 39.9095C14.083 39.8821 13.8149 40.1061 13.7886 40.4086C13.7762 40.5557 13.8216 40.6969 13.9151 40.8103C14.0096 40.9224 14.1425 40.9914 14.2892 41.0048C14.5906 41.0315 14.8586 40.8066 14.8848 40.5044C14.8971 40.3582 14.8521 40.2161 14.7582 40.1037Z" fill="#ED1C24"/>
<path d="M14.7208 27.1222C13.417 26.892 12.1685 27.7672 11.9381 29.0711C11.7081 30.3758 12.5823 31.6242 13.8863 31.8544C15.1913 32.0846 16.4404 31.2098 16.67 29.9053C16.9008 28.6012 16.026 27.3528 14.7208 27.1222Z" fill="white"/>
<path d="M15.2647 28.9394C15.2436 28.9265 15.2068 28.9027 15.1623 28.8732C14.9653 28.7426 14.579 28.4872 14.5684 28.4795C14.5149 28.4428 14.4628 28.4078 14.4115 28.3732C14.2398 28.2581 14.0862 28.158 13.9418 28.0747C13.8861 28.0431 13.8323 28.0135 13.7781 27.987C13.5485 27.8712 13.3284 27.8012 13.0686 27.7783C12.8683 27.9229 12.6945 28.102 12.5537 28.309C13.1511 28.5247 13.7344 28.8702 14.9489 29.6245C15.0183 29.464 15.2508 28.9695 15.2647 28.9394Z" fill="#ED1C24"/>
<path d="M14.7048 30.2269C14.7291 30.1664 14.8359 29.8962 14.8795 29.7922C13.635 29.0191 13.057 28.677 12.4583 28.4653C12.3655 28.632 12.2959 28.814 12.2505 29.0076C12.5922 29.4768 13.5081 29.9378 14.7048 30.2269Z" fill="#ED1C24"/>
<path d="M14.5702 28.2623C15.0362 27.9866 15.5656 28.0617 15.9743 28.2012C15.8219 28.0044 15.6374 27.8324 15.4228 27.6985C15.0367 27.6217 14.5035 27.6097 14.0791 27.947C14.2335 28.0377 14.3928 28.1435 14.5702 28.2623Z" fill="#ED1C24"/>
<path d="M12.7107 30.4892C12.773 30.5319 12.8369 30.5726 12.9048 30.6108C13.042 30.6866 13.1906 30.7522 13.344 30.8083C13.4091 30.8329 13.4753 30.8557 13.542 30.8773C13.7755 30.9541 14.3112 31.0932 14.3511 31.1025C14.3593 31.082 14.56 30.5855 14.6362 30.397C13.7083 30.1668 12.6923 29.764 12.2095 29.2402C12.1805 29.4821 12.1918 29.7213 12.2429 29.9482C12.3447 30.1701 12.5083 30.3469 12.7107 30.4892Z" fill="#ED1C24"/>
<path d="M14.3823 31.2962L14.1887 31.2463C14.0092 31.2007 13.8146 31.1496 13.6167 31.0889C13.7132 31.2945 13.865 31.4548 14.0269 31.5788C14.2438 31.6076 14.4579 31.6021 14.6637 31.5666C14.515 31.4509 14.3823 31.2962 14.3823 31.2962Z" fill="#ED1C24"/>
<path d="M16.323 28.8755C16.2789 28.7314 16.221 28.5918 16.1483 28.4618C15.7825 28.2987 15.2254 28.1393 14.7388 28.3773L15.4099 28.8205C15.5498 28.808 15.6786 28.8041 15.7964 28.807C15.8607 28.808 15.9204 28.8115 15.9775 28.8171C16.1089 28.8286 16.221 28.8498 16.323 28.8755Z" fill="#ED1C24"/>
<path d="M15.9793 28.998C15.9597 30.1009 15.4398 30.9516 14.9917 31.4838C15.693 31.2401 16.2461 30.6357 16.3841 29.8549C16.4313 29.5881 16.423 29.3257 16.3736 29.0759C16.2646 29.042 16.1343 29.0137 15.9793 28.998Z" fill="#ED1C24"/>
<path d="M13.9115 27.8536C14.2256 27.5767 14.5965 27.4832 14.9386 27.4755C14.8518 27.4478 14.7633 27.4238 14.671 27.4082C14.1833 27.3221 13.7061 27.4127 13.3008 27.6323C13.5166 27.6745 13.7117 27.7502 13.9115 27.8536Z" fill="#ED1C24"/>
<path d="M15.4353 28.9995C15.2757 29.3319 15.1818 29.5355 15.1039 29.7207C15.08 29.7768 15.0567 29.8313 15.0332 29.888C14.996 29.9809 14.8813 30.2695 14.8813 30.2695L14.8129 30.439L14.5166 31.1731C14.5983 31.2815 14.6973 31.3699 14.7947 31.439C15.235 30.9367 15.7829 30.0927 15.7997 28.9878C15.6889 28.9838 15.567 28.9879 15.4353 28.9995Z" fill="#ED1C24"/>
<path d="M13.3947 31.0161C13.2469 30.9653 13.0993 30.9073 12.96 30.8394C13.012 31.0002 13.0871 31.1429 13.1627 31.2654C13.3207 31.3668 13.4942 31.4468 13.6794 31.5039C13.5594 31.3687 13.4558 31.2088 13.3947 31.0161Z" fill="#ED1C24"/>
<path d="M12.7426 30.7203C12.6424 30.6603 12.5492 30.5934 12.4629 30.52C12.5606 30.6947 12.6836 30.8549 12.8264 30.9953C12.7925 30.9077 12.7627 30.817 12.7426 30.7203Z" fill="#ED1C24"/>
<path d="M53.3292 29.9053C53.5597 31.2098 54.8078 32.0846 56.112 31.8544C57.4167 31.6243 58.2907 30.3758 58.0616 29.0711C57.8314 27.7672 56.5827 26.892 55.2779 27.1222C53.9734 27.3527 53.0993 28.6011 53.3292 29.9053Z" fill="white"/>
<path d="M54.7339 28.9394C54.7546 28.9265 54.7915 28.9027 54.837 28.8732C55.0343 28.7426 55.4199 28.4872 55.4297 28.4795C55.4844 28.4428 55.5366 28.4078 55.5878 28.3732C55.7577 28.2581 55.9126 28.158 56.0572 28.0747C56.1128 28.0431 56.1673 28.0135 56.2204 27.987C56.4495 27.8712 56.6708 27.8012 56.9302 27.7783C57.1304 27.9229 57.3049 28.102 57.4438 28.309C56.8468 28.5247 56.2653 28.8702 55.0493 29.6245C54.9796 29.464 54.7482 28.9695 54.7339 28.9394Z" fill="#ED1C24"/>
<path d="M55.2946 30.2269C55.27 30.1664 55.1623 29.8962 55.1211 29.7922C56.3632 29.0191 56.9429 28.677 57.5412 28.4653C57.6335 28.632 57.7035 28.814 57.749 29.0076C57.4067 29.4768 56.491 29.9378 55.2946 30.2269Z" fill="#ED1C24"/>
<path d="M55.4292 28.2623C54.9628 27.9866 54.4338 28.0617 54.0244 28.2012C54.177 28.0044 54.3627 27.8324 54.5772 27.6985C54.9628 27.6217 55.4956 27.6097 55.9195 27.947C55.7664 28.0377 55.6059 28.1435 55.4292 28.2623Z" fill="#ED1C24"/>
<path d="M57.2875 30.4892C57.2266 30.5319 57.1629 30.5726 57.0938 30.6108C56.9572 30.6866 56.8089 30.7522 56.6558 30.8083C56.5901 30.8329 56.5235 30.8557 56.4569 30.8773C56.2246 30.9541 55.6884 31.0932 55.6481 31.1025C55.6392 31.082 55.4379 30.5855 55.3633 30.397C56.2908 30.1668 57.3061 29.764 57.7903 29.2402C57.8192 29.4821 57.8067 29.7213 57.7565 29.9482C57.6543 30.1701 57.4911 30.3469 57.2875 30.4892Z" fill="#ED1C24"/>
<path d="M55.6174 31.2962L55.8097 31.2463C55.9898 31.2007 56.1856 31.1496 56.3836 31.0889C56.2857 31.2945 56.1345 31.4548 55.9729 31.5788C55.7563 31.6076 55.5416 31.6021 55.3369 31.5666C55.4838 31.4509 55.6174 31.2962 55.6174 31.2962Z" fill="#ED1C24"/>
<path d="M53.6763 28.8755C53.7207 28.7314 53.7776 28.5918 53.8521 28.4618C54.2168 28.2987 54.7727 28.1393 55.2596 28.3773L54.5891 28.8205C54.449 28.808 54.3204 28.8041 54.2022 28.807C54.1388 28.808 54.0787 28.8115 54.0209 28.8171C53.8897 28.8286 53.7788 28.8498 53.6763 28.8755Z" fill="#ED1C24"/>
<path d="M54.0202 28.998C54.0392 30.1009 54.5605 30.9516 55.009 31.4838C54.3058 31.2401 53.752 30.6357 53.6155 29.8549C53.5687 29.5881 53.5754 29.3257 53.6265 29.0759C53.7346 29.042 53.8657 29.0137 54.0202 28.998Z" fill="#ED1C24"/>
<path d="M56.0886 27.8536C55.7743 27.5767 55.4026 27.4832 55.061 27.4755C55.1476 27.4478 55.2356 27.4238 55.3287 27.4082C55.8161 27.3221 56.2931 27.4127 56.6983 27.6323C56.4834 27.6745 56.2879 27.7502 56.0886 27.8536Z" fill="#ED1C24"/>
<path d="M54.564 28.9995C54.7241 29.3319 54.8162 29.5355 54.8967 29.7207C54.9198 29.7768 54.942 29.8313 54.9655 29.888C55.0034 29.9809 55.1179 30.2695 55.1179 30.2695L55.1858 30.439L55.4828 31.1731C55.4006 31.2815 55.3023 31.3699 55.2046 31.439C54.7646 30.9367 54.2156 30.0927 54.2002 28.9878C54.3105 28.9838 54.4329 28.9879 54.564 28.9995Z" fill="#ED1C24"/>
<path d="M56.6048 31.0161C56.7527 30.9653 56.8992 30.9073 57.0399 30.8394C56.9863 31.0002 56.9128 31.1429 56.8361 31.2654C56.6782 31.3668 56.5048 31.4468 56.3203 31.5039C56.4401 31.3687 56.5436 31.2088 56.6048 31.0161Z" fill="#ED1C24"/>
<path d="M57.2577 30.7203C57.3566 30.6603 57.45 30.5934 57.5367 30.52C57.4388 30.6947 57.3166 30.8549 57.1733 30.9953C57.2066 30.9077 57.2366 30.817 57.2577 30.7203Z" fill="#ED1C24"/>
</g>
<defs>
<clipPath id="clip0_82_45670">
<rect width="52" height="52" fill="white" transform="translate(9 9)"/>
</clipPath>
</defs>
</svg>
