<svg width="25" height="25" viewBox="0 0 25 25" fill="none" xmlns="http://www.w3.org/2000/svg">
<path d="M12.5 23.75C18.7132 23.75 23.75 18.7132 23.75 12.5C23.75 6.2868 18.7132 1.25 12.5 1.25C6.2868 1.25 1.25 6.2868 1.25 12.5C1.25 18.7132 6.2868 23.75 12.5 23.75Z" fill="#FF5A54"/>
<path fill-rule="evenodd" clip-rule="evenodd" d="M23.748 12.3389C23.7487 12.3926 23.75 12.4462 23.75 12.5001C23.75 18.7133 18.7132 23.7501 12.5 23.7501C12.441 23.7501 12.3823 23.7488 12.3235 23.7478L8.16742 19.5917C8.0238 19.4685 7.92892 19.2896 7.91655 19.0865L7.33544 9.55602H7.40828L6.58952 8.73725C6.54705 8.69478 6.52075 8.63619 6.52075 8.57164V7.36414C6.52075 6.96584 6.8456 6.64105 7.24385 6.64105H10.2907V6.04981C10.2907 5.60066 10.657 5.23438 11.1061 5.23438H13.894C14.1325 5.23438 14.3478 5.33773 14.4971 5.50203L15.6362 6.64105H17.7562C17.9802 6.64105 18.181 6.74384 18.3138 6.90467L23.748 12.3389Z" fill="#DB3A3C"/>
<path fill-rule="evenodd" clip-rule="evenodd" d="M10.1527 11.4892C10.3598 11.4892 10.5277 11.6571 10.5277 11.8642V16.626C10.5277 16.8331 10.3598 17.001 10.1527 17.001C9.94563 17.001 9.77772 16.8331 9.77772 16.626V11.8642C9.77772 11.6571 9.94563 11.4892 10.1527 11.4892ZM12.1251 11.8642C12.1251 11.6571 12.293 11.4892 12.5001 11.4892C12.7072 11.4892 12.8751 11.6571 12.8751 11.8642V16.626C12.8751 16.8331 12.7072 17.001 12.5001 17.001C12.293 17.001 12.1251 16.8331 12.1251 16.626V11.8642ZM14.4724 11.8642C14.4724 11.6571 14.6403 11.4892 14.8474 11.4892C15.0545 11.4892 15.2224 11.6571 15.2224 11.8642V16.626C15.2224 16.8331 15.0545 17.001 14.8474 17.001C14.6403 17.001 14.4724 16.8331 14.4724 16.626V11.8642ZM7.33549 9.55597L7.9166 19.0865C7.93989 19.4686 8.2555 19.7656 8.63833 19.7656H16.3618C16.7446 19.7656 17.0603 19.4686 17.0835 19.0865L17.6646 9.55597H7.33549ZM7.24389 6.64105H10.2907V6.04981C10.2907 5.60066 10.657 5.23438 11.1062 5.23438H13.894C14.3431 5.23438 14.7094 5.60066 14.7094 6.04981V6.64105H17.7562C18.1545 6.64105 18.4793 6.96589 18.4793 7.36414V8.57164C18.4793 8.70073 18.374 8.80602 18.2449 8.80602H6.75513C6.62603 8.80602 6.52075 8.70073 6.52075 8.57164V7.36414C6.52075 6.96584 6.84564 6.64105 7.24389 6.64105Z" fill="white"/>
</svg>
