<svg width="21" height="21" viewBox="0 0 21 21" fill="none" xmlns="http://www.w3.org/2000/svg">
<path fill-rule="evenodd" clip-rule="evenodd" d="M8.90508 1.82814C9.03883 1.5272 9.33726 1.33325 9.66658 1.33325C10.5506 1.33325 11.3985 1.68444 12.0236 2.30956C12.6487 2.93468 12.9999 3.78253 12.9999 4.66659V7.16658H16.879C17.2396 7.16325 17.5967 7.23797 17.9258 7.38566C18.2564 7.53405 18.5508 7.75256 18.7886 8.02603C19.0264 8.29951 19.2019 8.62141 19.303 8.96945C19.404 9.31749 19.4282 9.68334 19.3738 10.0416L18.2238 17.5415C18.2238 17.5417 18.2239 17.5413 18.2238 17.5415C18.1333 18.1374 17.8305 18.6812 17.3712 19.0715C16.9131 19.4609 16.33 19.6722 15.7289 19.6666H3.83325C3.17021 19.6666 2.53433 19.4032 2.06548 18.9344C1.59664 18.4655 1.33325 17.8296 1.33325 17.1666V11.3333C1.33325 10.6702 1.59664 10.0343 2.06548 9.56549C2.53433 9.09664 3.17021 8.83325 3.83325 8.83325H5.79169L8.90508 1.82814ZM7.16658 9.84343L10.1731 3.07875C10.4243 3.15888 10.6552 3.2982 10.8451 3.48807C11.1577 3.80063 11.3333 4.22456 11.3333 4.66659V7.99992C11.3333 8.46016 11.7063 8.83325 12.1666 8.83325H16.8833L16.8927 8.8332C17.0135 8.83183 17.1331 8.85674 17.2433 8.90621C17.3536 8.95567 17.4517 9.0285 17.531 9.11966C17.6102 9.21082 17.6687 9.31812 17.7024 9.43414C17.7361 9.55004 17.7441 9.67187 17.7261 9.7912C17.7261 9.79131 17.7261 9.79109 17.7261 9.7912L16.576 17.2916C16.5459 17.4903 16.4449 17.6715 16.2918 17.8016C16.1387 17.9318 15.9436 18.0022 15.7427 18L7.16658 17.9999V9.84343ZM5.49992 17.9999V10.4999H3.83325C3.61224 10.4999 3.40028 10.5877 3.244 10.744C3.08772 10.9003 2.99992 11.1122 2.99992 11.3333V17.1666C2.99992 17.3876 3.08772 17.5996 3.244 17.7558C3.40028 17.9121 3.61224 17.9999 3.83325 17.9999H5.49992Z" fill="#181818"/>
</svg>
