<svg width="25" height="25" viewBox="0 0 25 25" fill="none" xmlns="http://www.w3.org/2000/svg">
<path d="M15.5338 20.0114C14.7944 19.8702 14.2578 19.2214 14.2578 18.4687V16.7883H10.7422V18.4687C10.7422 19.2215 10.2056 19.8702 9.4662 20.0114C8.7823 20.142 8.30469 20.7195 8.30469 21.4158V22.2657C8.30469 22.4599 8.46205 22.6173 8.65625 22.6173H16.3438C16.538 22.6173 16.6953 22.4599 16.6953 22.2657V21.4158C16.6953 20.7195 16.2177 20.142 15.5338 20.0114Z" fill="#FFDE46"/>
<path d="M15.5338 20.0114C14.7944 19.8702 14.2578 19.2214 14.2578 18.4687V16.7883H12.5V22.6173H16.3438C16.538 22.6173 16.6953 22.4599 16.6953 22.2657V21.4158C16.6953 20.7195 16.2177 20.142 15.5338 20.0114Z" fill="#FFCD00"/>
<path d="M12.5 17.0156C16.1761 17.0156 19.1562 14.0355 19.1562 10.3594C19.1562 6.68323 16.1761 3.70312 12.5 3.70312C8.82385 3.70312 5.84375 6.68323 5.84375 10.3594C5.84375 14.0355 8.82385 17.0156 12.5 17.0156Z" fill="#FFDE46"/>
<path fill-rule="evenodd" clip-rule="evenodd" d="M12.5 3.70312V17.0156C16.1661 17.0156 19.1562 14.0255 19.1562 10.3594C19.1562 6.69323 16.1661 3.70312 12.5 3.70312Z" fill="#FFCD00"/>
<path d="M12.5 3C8.44203 3 5.14062 6.30141 5.14062 10.3594C5.14062 14.4173 8.44203 17.7188 12.5 17.7188C16.558 17.7188 19.8594 14.4173 19.8594 10.3594C19.8594 6.30141 16.558 3 12.5 3ZM15.8653 15.2672C15.812 15.2207 15.7509 15.1814 15.6826 15.1517L13.1581 14.0573L13.0779 13.1251L14.9861 11.7406L15.9866 12.0532L16.2419 14.7353C16.2489 14.8088 16.2674 14.8783 16.2947 14.9428C16.1567 15.0573 16.0134 15.1654 15.8653 15.2672ZM9.12739 15.2622C8.97856 15.1595 8.83452 15.0503 8.69586 14.9348C8.72131 14.8726 8.73838 14.8058 8.74508 14.7353L9.00308 12.0244L9.72327 11.7528L11.6702 13.1693L11.7496 14.0917L9.30439 15.1517C9.23853 15.1803 9.17933 15.2179 9.12739 15.2622ZM7.03063 8.00972C7.03517 8.00878 7.03972 8.00845 7.04427 8.00747L9.60003 7.43794L10.0214 8.10281L9.26609 10.4223L8.55059 10.6922L6.9103 8.83406C6.87017 8.78864 6.82512 8.75039 6.77717 8.71786C6.84692 8.47509 6.93186 8.23875 7.03063 8.00972ZM13.389 8.71069L14.0324 10.6951L12.3438 11.9203L10.6569 10.693L11.3028 8.70933L13.389 8.71069ZM16.4169 10.7143L15.4155 10.4015L14.6901 8.16389L15.319 7.42275L17.8818 7.99383C17.9106 8.00025 17.9395 8.00438 17.9682 8.00714C18.0658 8.23313 18.1498 8.46623 18.2191 8.70558C18.1726 8.73759 18.1288 8.775 18.0897 8.8193L16.4169 10.7143ZM16.8774 6.3293L15.5081 6.02414L14.8343 4.88325C15.6149 5.21728 16.31 5.7135 16.8774 6.3293ZM12.9287 4.42181L14.1978 6.5708L13.5751 7.30453L11.1794 7.30294L10.7537 6.63112L12.0218 4.48355C12.0335 4.46367 12.044 4.44342 12.0536 4.42294C12.201 4.41197 12.3499 4.40625 12.5 4.40625C12.6441 4.40625 12.7871 4.41169 12.9287 4.42181ZM10.1481 4.89094L9.479 6.02409L8.12605 6.32559C8.6885 5.71617 9.37625 5.22422 10.1481 4.89094ZM6.5503 10.551L7.61586 11.7581L7.44941 13.5071C6.90959 12.6441 6.5847 11.6337 6.5503 10.551ZM10.7608 16.0531L12.4935 15.3019L14.2315 16.0554C13.6833 16.2224 13.102 16.3125 12.5 16.3125C11.8952 16.3125 11.3112 16.2216 10.7608 16.0531ZM17.5393 13.5251L17.3712 11.7582L18.4503 10.5357C18.4183 11.6317 18.0885 12.6541 17.5393 13.5251Z" fill="#FDBF00"/>
<path d="M12.5 3V4.40625C12.6441 4.40625 12.7871 4.41169 12.9287 4.42181L14.1978 6.5708L13.5751 7.30453L12.5 7.30383V8.71008L13.389 8.71064L14.0324 10.6951L12.5 11.807V15.3047L14.2315 16.0554C13.6833 16.2224 13.102 16.3125 12.5 16.3125V17.7188C16.558 17.7188 19.8594 14.4173 19.8594 10.3594C19.8594 6.30141 16.558 3 12.5 3ZM16.8774 6.3293L15.5081 6.02414L14.8343 4.88325C15.6149 5.21728 16.31 5.7135 16.8774 6.3293ZM15.8653 15.2672C15.812 15.2207 15.7509 15.1814 15.6826 15.1517L13.1581 14.0573L13.0779 13.1251L14.9861 11.7406L15.9866 12.0532L16.2419 14.7353C16.2489 14.8088 16.2674 14.8783 16.2947 14.9428C16.1567 15.0573 16.0134 15.1654 15.8653 15.2672ZM15.4155 10.4016L14.6901 8.16394L15.319 7.4228L17.8818 7.99388C17.9106 8.0003 17.9395 8.00442 17.9682 8.00719C18.0658 8.23317 18.1498 8.46628 18.2191 8.70563C18.1726 8.73764 18.1288 8.77505 18.0897 8.81934L16.4168 10.7144L15.4155 10.4016ZM17.5393 13.5251L17.3712 11.7582L18.4503 10.5357C18.4183 11.6317 18.0885 12.6541 17.5393 13.5251Z" fill="#FF8856"/>
</svg>
