<svg width="70" height="70" viewBox="0 0 70 70" fill="none" xmlns="http://www.w3.org/2000/svg">
<g clip-path="url(#clip0_82_45312)">
<path d="M42.7105 41.2969C42.7105 51.3656 38.4757 53.9069 29.8943 58.1853C30.9969 58.9251 32.4831 59.8098 35.008 61.0161C41.6238 57.8636 48.016 53.73 48.016 42.7123V19.4708H42.7105V41.2969ZM37.6767 19.4708H22V24.0869H32.3872V38.8682C32.3872 45.6236 31.9877 46.2509 23.2624 50.2076C23.8697 51.7516 24.7486 53.2635 25.8992 54.6307C35.7591 50.2076 37.6767 47.9236 37.6767 40.2676V19.4708ZM24.0615 9.01608V13.1175C24.0615 14.163 23.4542 14.8707 22.1758 14.8707H22V14.0022H22.1598C22.7511 14.0022 23.0867 13.6966 23.0867 13.0854V9.86854H22.1918V9.01608H24.0615ZM25.8193 14.0343H26.7142V9.01608H27.673V13.9539C27.673 14.5651 27.3534 14.8868 26.7142 14.8868H25.8193C25.1801 14.8868 24.8605 14.5651 24.8605 13.9539V9.01608H25.8193V14.0343ZM30.3417 12.5868V9.01608H31.3006V12.6189C31.3006 14.2434 30.4536 14.8546 28.9355 14.8546H28.4561V9.01608H29.4149V13.9057H29.4628C30.102 13.9057 30.3417 13.3105 30.3417 12.5868ZM33.0584 9.90071V11.4609H34.177L34.0172 12.2972H33.0744V13.97H34.4647L34.3049 14.8546H32.0836V9.01608H34.225L34.3848 9.90071H33.0584ZM36.9416 9.01608H37.8685V14.8546H36.9416V12.8602L36.0307 10.8336H35.9828V14.8546H35.0559V9.01608H35.9668L36.8777 11.2196H36.9416V9.01608ZM41.2084 9.90071H40.2815V14.8546H39.3227V9.90071H38.3958L38.5556 9.01608H41.0486L41.2084 9.90071ZM42.6786 14.0343H43.5734V9.01608H44.5323V13.9378C44.5323 14.549 44.2127 14.8707 43.5734 14.8707H42.6786C42.0393 14.8707 41.7197 14.549 41.7197 13.9378V9.01608H42.6786V14.0343ZM45.2514 12.9245H46.1942V14.0826H47.0731V13.2623C47.0731 12.8602 46.9773 12.6833 46.6736 12.5063L45.7628 11.9273C45.4272 11.7021 45.2674 11.3161 45.2674 11.0105V9.93288C45.2674 9.32168 45.6669 9 46.1623 9H47.0572C47.6964 9 47.9521 9.32168 47.9521 9.93288V10.6567L47.0252 10.914V9.75595H46.1942V10.6406C46.1942 10.9301 46.2901 11.1231 46.5618 11.3L47.4407 11.8469C47.8082 12.0721 48 12.4259 48 12.8924V14.0182C48 14.6455 47.6005 14.8868 47.0891 14.8868H46.2102C45.571 14.8868 45.2514 14.6294 45.2514 14.0182V12.9245Z" fill="black"/>
</g>
<defs>
<clipPath id="clip0_82_45312">
<rect width="26" height="52" fill="white" transform="translate(22 9)"/>
</clipPath>
</defs>
</svg>
