<svg width="20" height="21" viewBox="0 0 20 21" fill="none" xmlns="http://www.w3.org/2000/svg">
<path fill-rule="evenodd" clip-rule="evenodd" d="M11.5949 19.1719C11.4612 19.4728 11.1627 19.6667 10.8334 19.6667C9.94936 19.6667 9.10151 19.3156 8.47639 18.6904C7.85127 18.0653 7.50008 17.2175 7.50008 16.3334V13.8334H3.62101C3.26038 13.8368 2.90328 13.762 2.57422 13.6143C2.24359 13.4659 1.94917 13.2474 1.71136 12.974C1.47356 12.7005 1.29805 12.3786 1.19701 12.0305C1.09597 11.6825 1.0718 11.3167 1.12618 10.9584L2.27617 3.45847C2.2762 3.45825 2.27613 3.45869 2.27617 3.45847C2.3667 2.86259 2.66954 2.31882 3.12879 1.92846C3.5869 1.53906 4.16996 1.32785 4.77107 1.33342H16.6667C17.3298 1.33342 17.9657 1.59681 18.4345 2.06565C18.9034 2.53449 19.1667 3.17037 19.1667 3.83342V9.66675C19.1667 10.3298 18.9034 10.9657 18.4345 11.4345C17.9657 11.9034 17.3298 12.1667 16.6667 12.1667H14.7083L11.5949 19.1719ZM13.3334 11.1566L10.3269 17.9212C10.0757 17.8411 9.84477 17.7018 9.6549 17.5119C9.34234 17.1994 9.16675 16.7754 9.16675 16.3334V13.0001C9.16675 12.5398 8.79365 12.1667 8.33342 12.1667H3.61675L3.60731 12.1668C3.48652 12.1682 3.36687 12.1433 3.25666 12.0938C3.14645 12.0443 3.04831 11.9715 2.96904 11.8803C2.88977 11.7892 2.83127 11.6819 2.79759 11.5659C2.76394 11.45 2.75587 11.3281 2.77393 11.2088C2.77394 11.2087 2.77391 11.2089 2.77393 11.2088L3.92399 3.70836C3.95413 3.50965 4.05506 3.32853 4.2082 3.19836C4.36134 3.06819 4.55636 2.99776 4.75733 3.00003L13.3334 3.00008V11.1566ZM15.0001 3.00008V10.5001H16.6667C16.8878 10.5001 17.0997 10.4123 17.256 10.256C17.4123 10.0997 17.5001 9.88776 17.5001 9.66675V3.83342C17.5001 3.6124 17.4123 3.40044 17.256 3.24416C17.0997 3.08788 16.8878 3.00008 16.6667 3.00008H15.0001Z" fill="#181818"/>
</svg>
