<svg width="70" height="70" viewBox="0 0 70 70" fill="none" xmlns="http://www.w3.org/2000/svg">
<g clip-path="url(#clip0_82_45546)">
<path d="M35.0064 9C20.6698 9 9 20.6698 9 35.0064C9 49.3429 20.6698 61.0127 35.0064 61.0127C49.3429 61.0127 61.0127 49.3429 61.0127 35.0064C61 20.6698 49.3429 9 35.0064 9Z" fill="#00285E"/>
<path d="M58.2953 35.0062C58.2953 22.1427 47.8699 11.7173 34.9937 11.7173C22.1302 11.7173 11.6921 22.1427 11.6921 35.0062C11.6921 47.8697 22.1302 58.3078 34.9937 58.3078C47.8699 58.2951 58.2953 47.8697 58.2953 35.0062Z" fill="white"/>
<path d="M49.8381 35.0066C49.8381 26.8161 43.1968 20.1748 35.0063 20.1748C26.8158 20.1748 20.1746 26.8161 20.1746 35.0066C20.1746 43.197 26.8158 49.8383 35.0063 49.8383C43.1968 49.8383 49.8381 43.197 49.8381 35.0066Z" fill="#6CADDF"/>
<path d="M35.0063 51.0063C26.181 51.0063 19.0063 43.819 19.0063 34.9937C19.0063 26.1683 26.181 18.9937 35.0063 18.9937C43.8317 18.9937 51.019 26.1683 51.019 34.9937C51.0063 43.8317 43.8317 51.0063 35.0063 51.0063ZM35.0063 19.8952C26.6762 19.8952 19.8952 26.6762 19.8952 35.0064C19.8952 43.3365 26.6762 50.1175 35.0063 50.1175C43.3365 50.1175 50.1175 43.3365 50.1175 35.0064C50.1175 26.6762 43.3365 19.8952 35.0063 19.8952Z" fill="#00285E"/>
<path d="M35.0063 59.9463C21.254 59.9463 10.0667 48.759 10.0667 35.0066C10.0667 21.2542 21.254 10.0669 35.0063 10.0669C48.7587 10.0669 59.946 21.2542 59.946 35.0066C59.9333 48.759 48.7587 59.9463 35.0063 59.9463ZM35.0063 10.6002C21.546 10.6002 10.6127 21.5463 10.6127 35.0066C10.6127 48.4542 21.5587 59.4002 35.0063 59.4002C48.454 59.4002 59.4 48.4542 59.4 35.0066C59.4 21.5463 48.454 10.6002 35.0063 10.6002Z" fill="#6CADDF"/>
<path d="M14.1937 34.4347L13.7747 34.5363L13.6604 34.1045L14.3588 33.9014H14.7144V36.3395H14.1937V34.4347Z" fill="#6CADDF"/>
<path d="M15.324 35.6665C15.324 35.3617 15.4637 35.1966 15.7176 35.0823C15.5271 34.968 15.4129 34.8157 15.4129 34.549V34.5363C15.4129 34.168 15.7557 33.876 16.2637 33.876C16.7716 33.876 17.1145 34.168 17.1145 34.5363V34.549C17.1145 34.803 17.0002 34.968 16.8097 35.0823C17.051 35.2093 17.2033 35.3617 17.2033 35.6538V35.6665C17.2033 36.1109 16.8097 36.3776 16.2764 36.3776C15.743 36.3776 15.324 36.0855 15.324 35.6665ZM16.67 35.6284C16.67 35.4379 16.4922 35.3236 16.251 35.3236C16.0097 35.3236 15.8319 35.4379 15.8319 35.6157C15.8319 35.7807 15.9843 35.9204 16.251 35.9204C16.5176 35.9204 16.67 35.7934 16.67 35.6284ZM16.6065 34.6125C16.6065 34.4601 16.4795 34.3204 16.2637 34.3204C16.0478 34.3204 15.9208 34.4474 15.9208 34.5998V34.6125C15.9208 34.7776 16.0605 34.9045 16.2637 34.9045C16.4668 34.9045 16.6065 34.7776 16.6065 34.6125Z" fill="#6CADDF"/>
<path d="M53.6602 35.3363C53.5333 35.4379 53.3809 35.5014 53.165 35.5014C52.6444 35.5014 52.3015 35.2093 52.3015 34.7268V34.7141C52.3015 34.2315 52.6825 33.8633 53.2285 33.8633C53.5587 33.8633 53.7364 33.9395 53.9269 34.1299C54.1047 34.3077 54.2063 34.5617 54.2063 35.0442V35.0569C54.2063 35.8442 53.838 36.3776 53.1523 36.3776C52.7968 36.3776 52.5682 36.2633 52.3523 36.0855L52.6317 35.6792C52.8095 35.8188 52.9618 35.8823 53.165 35.8823C53.5333 35.8823 53.6348 35.5395 53.6602 35.3363ZM53.6729 34.7014C53.6729 34.4855 53.5206 34.3204 53.2539 34.3204C52.9872 34.3204 52.8475 34.4728 52.8475 34.6887V34.7014C52.8475 34.9172 53.0126 35.0696 53.2666 35.0696C53.5206 35.0569 53.6729 34.9046 53.6729 34.7014Z" fill="#6CADDF"/>
<path d="M55.9078 35.8061H54.7268L54.6379 35.4252L55.9586 33.8887H56.403V35.3744H56.7332V35.8061H56.403V36.3268H55.8951V35.8061H55.9078ZM55.9078 35.3744V34.6252L55.2602 35.3744H55.9078Z" fill="#6CADDF"/>
<path d="M35.0064 50.1172C26.6762 50.1172 19.8953 43.3363 19.8953 35.0061C19.8953 26.676 26.6762 19.895 35.0064 19.895C43.3365 19.895 50.1175 26.676 50.1175 35.0061C50.1175 43.3363 43.3365 50.1172 35.0064 50.1172ZM35.0064 20.4537C26.981 20.4537 20.454 26.9807 20.454 35.0061C20.454 43.0315 26.981 49.5585 35.0064 49.5585C43.0318 49.5585 49.5588 43.0315 49.5588 35.0061C49.5588 26.9807 43.0318 20.4537 35.0064 20.4537Z" fill="white"/>
<path fill-rule="evenodd" clip-rule="evenodd" d="M34.727 21.9902C27.2731 21.9902 22.9683 22.968 22.9683 22.968C22.9683 22.968 21.254 29.5077 22.2318 37.8759C22.6382 41.3934 25.4953 48.949 34.9683 51.5394C44.4413 48.9617 47.2985 41.3934 47.7048 37.8759C48.6826 29.495 46.9683 22.968 46.9683 22.968C46.9683 22.968 42.6635 21.9902 35.2096 21.9902H34.727Z" fill="#00285E"/>
<path fill-rule="evenodd" clip-rule="evenodd" d="M46.3969 35.9331C46.3081 38.4728 45.9144 46.0664 34.9557 50.2442C24.0858 46.1807 23.5144 38.3204 23.5144 35.9331H46.3969Z" fill="#97C1E7"/>
<path fill-rule="evenodd" clip-rule="evenodd" d="M46.0666 35.5142C46.3587 29.2158 45.292 24.111 45.292 24.111C45.292 24.111 41.2032 23.3237 34.9682 23.3237C28.7206 23.3237 24.5682 24.1872 24.5682 24.1872C24.5682 24.1872 23.4381 29.3174 23.7428 35.5015H46.0666V35.5142Z" fill="white"/>
<path d="M35.2983 50.0156L23.73 36.0347C23.311 38.9172 25.6475 47.4124 35.2983 50.0156Z" fill="#6CADDF"/>
<path d="M27.1841 35.9458L37.8888 48.8601C38.9682 48.3395 39.7682 47.8315 40.5301 47.222L31.1841 35.9458H27.1841Z" fill="#6CADDF"/>
<path d="M34.6125 35.9585L42.5237 45.495C43.2983 44.6188 43.9586 43.8188 44.4284 42.9807L38.6125 35.9585H34.6125Z" fill="#6CADDF"/>
<path d="M46.2063 35.9585L42.2571 35.9458L45.5714 39.9458C46.1428 38.7141 46.2063 36.6442 46.2063 35.9585Z" fill="#6CADDF"/>
<path d="M39.6285 41.1903C39.6031 41.1014 39.5269 41.0252 39.438 40.9871L38.7777 40.7585C38.7142 40.7331 38.6634 40.7458 38.5999 40.7585C38.5491 40.53 38.4222 40.3268 38.2317 40.1871C38.2063 40.1744 38.1809 40.149 38.1555 40.1363C38.1174 40.1109 38.0666 40.0855 38.0158 40.0601C37.9269 40.022 37.838 39.9966 37.7618 39.9712C37.5714 39.9077 37.3809 39.8443 37.1396 39.6792C36.911 39.5141 36.8095 39.3617 36.7079 39.222C36.6825 39.1839 36.6571 39.1585 36.6317 39.1204C36.5682 39.0189 36.4793 38.93 36.3904 38.8538C36.2253 38.7395 36.0222 38.676 35.819 38.676C35.7682 38.676 35.7301 38.6887 35.6793 38.6887C35.6793 38.6887 35.6793 38.6887 35.6793 38.676C35.692 38.5998 35.6666 38.5109 35.6285 38.4474L35.2222 37.9014C35.1587 37.8252 35.0698 37.7744 34.9682 37.7744C34.8666 37.7744 34.7777 37.8125 34.7269 37.8887L34.2952 38.4347C34.2444 38.4982 34.219 38.5871 34.2317 38.676C34.1936 38.676 34.1682 38.6633 34.1301 38.6633C33.9269 38.6633 33.7237 38.7268 33.5587 38.8411C33.5333 38.8538 33.5079 38.8792 33.4952 38.8919C33.4571 38.93 33.419 38.9554 33.3809 39.0062C33.3174 39.0824 33.2666 39.1458 33.2158 39.222C33.0888 39.3871 32.9872 39.5395 32.7333 39.7173C32.5047 39.8823 32.3269 39.9331 32.1618 39.9839C32.1237 39.9966 32.0857 40.0093 32.0476 40.022C31.9333 40.0474 31.819 40.0982 31.7174 40.1744C31.5142 40.3141 31.3872 40.53 31.3364 40.7712C31.273 40.7458 31.1968 40.7458 31.1206 40.7585L30.473 40.9744C30.3841 40.9998 30.3079 41.076 30.2698 41.1649C30.2444 41.2538 30.2571 41.3554 30.3079 41.4316L30.7015 42.003C30.7523 42.0665 30.8158 42.1046 30.892 42.13C30.7904 42.3458 30.765 42.6125 30.8412 42.8411C30.8539 42.8665 30.8666 42.8919 30.8666 42.9173C30.8793 42.9681 30.9047 43.0189 30.9428 43.0697C30.9936 43.1458 31.0444 43.222 31.0952 43.2855C31.2222 43.4506 31.3364 43.603 31.4253 43.895C31.5142 44.1617 31.5015 44.3395 31.5015 44.5173C31.5015 44.5554 31.5015 44.6062 31.5015 44.6443C31.4888 44.7712 31.5015 44.8855 31.5523 44.9998C31.6285 45.2284 31.7936 45.4189 31.9841 45.5331C31.9587 45.5839 31.9333 45.6347 31.946 45.6855V46.3712C31.946 46.4728 31.9968 46.5617 32.073 46.6125C32.1491 46.6633 32.2507 46.6887 32.3396 46.6633L33.0126 46.4728C33.0761 46.4601 33.1142 46.4093 33.1523 46.3712C33.3555 46.5617 33.6349 46.6506 33.9015 46.6379C33.9523 46.6379 34.0031 46.6252 34.0666 46.6125C34.1555 46.5871 34.2444 46.5617 34.3206 46.5363C34.511 46.4728 34.7015 46.4093 35.0063 46.4093C35.2857 46.4093 35.4507 46.4728 35.6285 46.5236C35.6666 46.5363 35.7047 46.549 35.7428 46.5617C35.8571 46.6125 35.9841 46.6252 36.0983 46.6252C36.3396 46.6252 36.5809 46.5236 36.7587 46.3585C36.7968 46.4093 36.8349 46.4347 36.8983 46.4601L37.5587 46.6633C37.6476 46.6887 37.7491 46.676 37.838 46.6252C37.9142 46.5744 37.965 46.4855 37.965 46.3839L37.9777 45.6982C37.9777 45.6474 37.965 45.5966 37.9396 45.5458C38.1428 45.4316 38.3079 45.2411 38.3714 45.0125C38.3841 44.9871 38.3841 44.9617 38.3968 44.9236C38.4095 44.8728 38.4222 44.822 38.4222 44.7585C38.4349 44.6697 38.4349 44.5808 38.4349 44.4919C38.4349 44.2887 38.4349 44.0982 38.5237 43.8062C38.6126 43.5395 38.7142 43.3998 38.8285 43.2601C38.8539 43.222 38.8793 43.1966 38.9047 43.1585C38.9809 43.0697 39.0444 42.9554 39.0825 42.8411C39.1587 42.5998 39.1333 42.3331 39.019 42.1046C39.0825 42.0792 39.1333 42.0538 39.1714 42.003L39.5777 41.4443C39.6412 41.3808 39.6666 41.2919 39.6285 41.1903Z" fill="#00285E"/>
<path d="M34.6001 42.6764C34.6001 42.4605 34.7779 42.2954 34.9937 42.2954C35.2096 42.2954 35.3874 42.4732 35.3874 42.6764C35.3874 42.8922 35.2096 43.0573 34.9937 43.0573C34.7779 43.0573 34.6001 42.8795 34.6001 42.6764Z" fill="#FFC758"/>
<path d="M34.981 39.4002C34.9175 39.1589 34.7651 38.9557 34.5746 38.8414L34.981 38.3208L35.3619 38.8414C35.1715 38.9684 35.0445 39.1589 34.981 39.4002ZM31.8699 41.6605C31.6667 41.5208 31.527 41.343 31.4508 41.1272L30.8413 41.3303L31.2096 41.8637C31.3873 41.7367 31.6286 41.6605 31.8699 41.6605ZM33.0762 45.2541C32.8858 45.4065 32.6699 45.4827 32.4286 45.4827V46.1303L33.0635 45.9398C32.9873 45.7367 32.9873 45.4954 33.0762 45.2541ZM36.8858 45.2668C36.9746 45.4954 36.9746 45.724 36.8985 45.9398L37.5207 46.1303L37.5334 45.4827C37.3175 45.4954 37.0889 45.4192 36.8858 45.2668ZM38.0667 41.6732C38.3207 41.6605 38.5365 41.724 38.7143 41.8637L39.0953 41.343L38.4731 41.1272C38.4223 41.3303 38.2699 41.5335 38.0667 41.6732ZM34.1937 45.2795C33.9016 45.2795 33.6731 45.051 33.6731 44.7589C33.6731 44.7208 33.635 44.7081 33.6096 44.7335C33.4191 44.9621 33.2794 45.1652 33.2667 45.4065C33.254 45.7621 33.5588 46.0541 33.927 46.0541C33.9524 46.0541 33.9778 46.0541 33.9905 46.0541C34.0286 46.0541 34.054 46.0541 34.1048 46.0414C34.3588 45.9779 34.5873 45.851 35.0191 45.851C35.3873 45.851 35.5778 45.9525 35.7683 46.0033C35.8445 46.0287 35.9334 46.0541 36.0223 46.0541C36.3905 46.0541 36.6826 45.7621 36.6826 45.4065C36.6826 45.1525 36.5302 44.9621 36.3397 44.7335C36.327 44.7081 36.2889 44.7335 36.2889 44.7589C36.2889 45.0383 36.0477 45.2795 35.7683 45.2795C35.5524 45.2795 35.2731 45.0891 34.9937 45.0891C34.7524 45.0891 34.4096 45.2795 34.1937 45.2795ZM33.8508 44.5684C33.8508 44.8097 34.0413 45.0002 34.2826 45.0002C34.308 45.0002 34.3334 45.0002 34.3715 44.9875C34.3842 44.9875 34.3969 44.9875 34.4096 44.9748H34.4223C34.5746 44.924 34.7143 44.8605 34.981 44.8605C35.2477 44.8605 35.3746 44.9367 35.527 44.9748C35.5778 44.9875 35.6286 45.0002 35.6794 45.0002C35.9207 45.0002 36.1112 44.8097 36.1112 44.5684C36.1112 44.5049 36.0985 44.4414 36.0731 44.3906C36.0604 44.3652 36.0477 44.3399 36.035 44.3272C36.035 44.3272 35.2985 43.324 35.2731 43.2986C35.235 43.2478 35.1842 43.2732 35.1588 43.2859C35.1207 43.2986 35.0318 43.324 34.9683 43.324C34.9048 43.324 34.8286 43.3113 34.7905 43.2859C34.7397 43.2605 34.7016 43.2478 34.6762 43.2986C34.6508 43.3367 34.1175 44.0605 33.9524 44.2891C33.8889 44.3652 33.8508 44.4541 33.8508 44.5684ZM37.2413 44.2383C37.1524 44.5176 36.8604 44.6573 36.581 44.5684C36.5429 44.5557 36.5175 44.5811 36.5429 44.6192C36.708 44.8605 36.8477 45.0637 37.0889 45.1525C37.4318 45.2668 37.8127 45.0764 37.9143 44.7335C37.927 44.7081 37.927 44.6954 37.927 44.67C37.9397 44.6446 37.9397 44.6065 37.9524 44.5684C37.9778 44.3018 37.9143 44.0605 38.054 43.6414C38.1683 43.2986 38.3207 43.1462 38.435 42.9811C38.4858 42.9176 38.5365 42.8414 38.5619 42.7652C38.6762 42.4224 38.4858 42.0414 38.1429 41.9398C37.9016 41.8637 37.6604 41.9525 37.381 42.0541C37.3556 42.0668 37.3556 42.0922 37.3937 42.1049C37.6731 42.1938 37.8254 42.4859 37.7365 42.7652C37.6731 42.9684 37.4064 43.1716 37.3175 43.4383C37.2413 43.6541 37.3175 44.0224 37.2413 44.2383ZM36.454 44.3398C36.6826 44.416 36.9365 44.2891 37.0127 44.0605C37.0254 44.0351 37.0254 44.0097 37.0254 43.9716C37.0254 43.9589 37.0254 43.9462 37.0254 43.9335V43.9208C37.0254 43.7684 37 43.6033 37.0762 43.3621C37.1651 43.1081 37.2667 43.0065 37.3556 42.8795C37.381 42.8414 37.4064 42.7906 37.4318 42.7399C37.508 42.5113 37.381 42.27 37.1524 42.1938C37.0889 42.1811 37.0254 42.1684 36.9746 42.1811C36.9492 42.1811 36.9238 42.1811 36.8985 42.1938C36.8985 42.1938 35.7048 42.5748 35.6667 42.5875C35.6159 42.6129 35.6159 42.6637 35.6159 42.6891C35.6159 42.7271 35.6032 42.816 35.5905 42.8795C35.5778 42.9303 35.5397 43.0065 35.5016 43.0446C35.4635 43.0827 35.4381 43.1208 35.4762 43.1589C35.5143 43.197 36.0223 43.9208 36.2 44.1494C36.2635 44.2383 36.3524 44.3018 36.454 44.3398ZM37.1651 41.0129C37.4064 41.1779 37.4572 41.5081 37.2794 41.7367C37.254 41.7621 37.2794 41.8002 37.3175 41.7875C37.6096 41.7113 37.8381 41.6351 37.9905 41.4319C38.2064 41.1398 38.1429 40.7335 37.8508 40.5176C37.8381 40.5049 37.8127 40.4922 37.7873 40.4795C37.7619 40.4541 37.7365 40.4414 37.6858 40.4287C37.4445 40.3272 37.1905 40.3018 36.835 40.0478C36.5429 39.8319 36.4413 39.6414 36.3143 39.4764C36.2762 39.4129 36.2127 39.3494 36.1365 39.2859C35.8445 39.07 35.4254 39.1335 35.2223 39.4256C35.0826 39.6287 35.0826 39.8827 35.0953 40.1748C35.0953 40.2002 35.1334 40.2129 35.1461 40.1748C35.3111 39.9462 35.6413 39.8954 35.8826 40.0605C36.0604 40.1875 36.1746 40.5049 36.4032 40.6573C36.6064 40.8478 36.9873 40.8859 37.1651 41.0129ZM37.0254 41.8002C37.1651 41.6097 37.127 41.3303 36.9238 41.1906C36.9111 41.1779 36.8858 41.1525 36.8477 41.1399C36.835 41.1399 36.8223 41.1272 36.8096 41.1272H36.7969C36.6445 41.0764 36.4921 41.051 36.2762 40.8986C36.0604 40.7462 35.9969 40.6065 35.908 40.4922C35.8826 40.4541 35.8445 40.416 35.8064 40.3779C35.6159 40.2383 35.3365 40.2764 35.1969 40.4795C35.1588 40.5303 35.1334 40.5811 35.1207 40.6446C35.1207 40.67 35.108 40.6954 35.108 40.7208C35.108 40.7208 35.108 41.9652 35.108 42.0033C35.108 42.0668 35.1588 42.0668 35.1969 42.0795C35.235 42.0922 35.3238 42.1303 35.3619 42.1557C35.4127 42.1938 35.4635 42.2446 35.4889 42.2827C35.5143 42.3208 35.5397 42.3589 35.5905 42.3335C35.6413 42.3081 36.4921 42.0414 36.7588 41.9525C36.8731 41.9398 36.9619 41.8764 37.0254 41.8002ZM34.0667 40.0986C34.2953 39.9335 34.6254 39.9843 34.8032 40.2129C34.8286 40.2383 34.8667 40.2383 34.8667 40.2002C34.8794 39.9081 34.8794 39.6541 34.7397 39.451C34.5365 39.1589 34.1175 39.0954 33.8254 39.3113C33.8 39.324 33.7873 39.3367 33.7746 39.3494C33.7492 39.3621 33.7238 39.3875 33.6985 39.4256C33.5207 39.6287 33.4191 39.8573 33.0635 40.1113C32.7715 40.3272 32.5556 40.3652 32.3651 40.416C32.2889 40.4414 32.2 40.4668 32.1365 40.5176C31.8445 40.7335 31.7683 41.1398 31.9969 41.4319C32.1492 41.6351 32.3905 41.7113 32.6699 41.7875C32.6953 41.8002 32.708 41.7621 32.6953 41.7367C32.5302 41.5081 32.581 41.1779 32.8096 41.0129C32.9873 40.8859 33.3175 40.8732 33.5461 40.7081C33.7238 40.5811 33.8889 40.2256 34.0667 40.0986ZM34.7778 40.4795C34.6381 40.2891 34.3588 40.2383 34.1683 40.3779C34.1429 40.3906 34.1302 40.4033 34.1048 40.4287C34.0921 40.4414 34.0921 40.4414 34.0794 40.4541L34.0667 40.4668C33.9778 40.5938 33.9016 40.7335 33.6858 40.8859C33.4699 41.0383 33.3175 41.051 33.1778 41.1145C33.127 41.1272 33.0762 41.1525 33.0381 41.1779C32.8477 41.3176 32.7969 41.5843 32.9365 41.7875C32.9746 41.8383 33.0254 41.8764 33.0762 41.9018C33.1016 41.9145 33.1143 41.9271 33.1397 41.9271C33.1397 41.9271 34.3334 42.3081 34.3715 42.3208C34.435 42.3335 34.4604 42.2954 34.4731 42.27C34.4985 42.2446 34.5492 42.1684 34.6 42.1303C34.6508 42.0922 34.7143 42.0668 34.7651 42.0541C34.8159 42.0414 34.854 42.0287 34.854 41.9779C34.854 41.9272 34.854 41.0383 34.854 40.7589C34.8667 40.67 34.8413 40.5684 34.7778 40.4795ZM32.2381 42.7525C32.1492 42.4732 32.3016 42.1811 32.5683 42.0922C32.6064 42.0795 32.6064 42.0414 32.581 42.0287C32.3016 41.9272 32.0604 41.8383 31.8318 41.9145C31.4889 42.016 31.2985 42.397 31.4127 42.7399C31.4127 42.7652 31.4254 42.7779 31.4381 42.8033C31.4508 42.8287 31.4635 42.8668 31.4889 42.9049C31.6286 43.1335 31.8191 43.2986 31.9588 43.7176C32.0731 44.0605 32.035 44.2764 32.035 44.4795C32.0223 44.5557 32.035 44.6446 32.0604 44.7335C32.1746 45.0764 32.5429 45.2668 32.8858 45.1525C33.127 45.0764 33.2667 44.8732 33.4318 44.6192C33.4445 44.5938 33.4191 44.5684 33.3937 44.5811C33.1143 44.67 32.8223 44.5176 32.7334 44.251C32.6699 44.0478 32.7588 43.7303 32.6699 43.4637C32.5937 43.2224 32.3016 42.9557 32.2381 42.7525ZM32.8096 42.2065C32.581 42.2827 32.454 42.524 32.5302 42.7525C32.5302 42.7779 32.5429 42.8033 32.5683 42.8287C32.581 42.8414 32.581 42.8541 32.5937 42.8541C32.5937 42.8541 32.5937 42.8668 32.6064 42.8668C32.6953 42.9938 32.8096 43.1081 32.8985 43.3494C32.9873 43.6033 32.9492 43.743 32.9619 43.8954C32.9619 43.9462 32.9619 43.997 32.9873 44.0478C33.0635 44.2764 33.3048 44.4033 33.5334 44.3272C33.5969 44.3145 33.6477 44.2764 33.6858 44.2383C33.6985 44.2256 33.7238 44.2002 33.7365 44.1875C33.7365 44.1875 34.4731 43.1843 34.4858 43.1462C34.5238 43.0954 34.4858 43.0573 34.4604 43.0319C34.435 43.0065 34.3842 42.9303 34.3715 42.8668C34.3588 42.816 34.3461 42.7398 34.3461 42.6891C34.3461 42.6383 34.3461 42.6002 34.2953 42.5875C34.2445 42.5748 33.3937 42.2954 33.127 42.2065C33.0254 42.1811 32.9238 42.1684 32.8096 42.2065Z" fill="#EE3124"/>
<path d="M38.6382 29.2414L41.3176 28.3145C41.3176 28.3145 41.089 29.4319 41.1525 30.2954C41.2287 31.4129 41.8763 32.2637 41.8763 32.2637L38.5747 33.4065L38.6382 29.2414Z" fill="#FFC758"/>
<path d="M41.8762 32.2636C41.8762 32.2636 41.2921 31.4255 41.1905 30.4477C41.1143 29.7112 41.1905 29.0763 41.3174 28.3144C41.2032 28.8223 40.7714 30.2572 39.5651 31.5906C39.0825 32.1239 38.8667 32.5937 38.7778 32.9239L38.727 26.6128C38.727 26.6128 38.0921 26.8414 38.0286 26.8541C37.9524 26.8795 37.9143 26.9303 37.9143 26.943C37.9143 26.981 37.8889 27.0064 37.8381 27.0191C37.7873 27.0318 37.419 27.1715 37.1651 27.2477C37.1143 27.2604 37.1397 27.3112 37.1651 27.3112C37.4698 27.2985 37.9016 27.2604 37.9397 27.2604C38.0032 27.2477 38.0286 27.2223 38.0286 27.1842C38.0286 27.1842 38.0286 27.1842 38.0286 27.1715C38.0413 27.1207 38.0794 27.0826 38.1301 27.0826C38.1682 27.0826 38.3968 27.0572 38.5365 27.0318L38.473 33.8255H38.7778V33.343L41.8762 32.2636Z" fill="#D4A11E"/>
<path d="M30.0031 33.5843C30.0031 33.5843 29.5079 33.216 29.3682 32.5176C29.2285 31.8065 29.5841 31.4002 29.5841 31.4002L32.8349 30.2827C32.8349 30.2827 32.6317 30.9303 32.8222 31.6668C33.0634 32.5938 33.5587 33.216 33.5587 33.216C33.5587 33.216 32.365 32.9875 31.2095 33.1399C30.1174 33.2795 30.0031 33.5843 30.0031 33.5843Z" fill="#FFC758"/>
<path d="M26.2698 32.7714C26.2698 32.7714 26.6761 31.6666 27.8571 30.4602C28.7587 29.546 29.3428 29.2793 29.3428 29.2793C29.3428 29.2793 28.8222 30.0285 28.6063 31.2603C28.4666 32.0222 28.619 32.9872 28.619 32.9872C28.619 32.9872 28.0095 32.8603 27.311 32.7841C26.7269 32.7206 26.2698 32.7714 26.2698 32.7714Z" fill="#FFC758"/>
<path d="M29.3427 29.2793C29.3427 29.2793 28.8348 30.0285 28.6189 31.2603C28.4792 32.0222 28.6316 32.9872 28.6316 32.9872C28.6316 32.9872 28.4792 32.9491 28.1237 32.8729C26.6761 32.5428 29.3427 29.2793 29.3427 29.2793Z" fill="#D4A11E"/>
<path d="M31.2477 30.1682L31.2223 27.2476C31.1588 27.273 30.5874 27.4634 30.5239 27.4888C30.4477 27.5142 30.4096 27.565 30.4096 27.5904C30.4096 27.6285 30.3842 27.6539 30.3334 27.6666C30.2827 27.6793 29.9144 27.8063 29.6604 27.8952C29.6096 27.9079 29.635 27.9587 29.6604 27.9587C29.9525 27.946 30.3969 27.9079 30.435 27.9079C30.4985 27.8952 30.5239 27.8698 30.5366 27.8317C30.5366 27.8317 30.5366 27.8317 30.5366 27.819C30.5493 27.7682 30.5874 27.7301 30.6382 27.7301C30.6763 27.7301 30.8922 27.7047 31.0446 27.692L31.0192 30.1809H31.2477V30.1682Z" fill="#D4A11E"/>
<path d="M35.0318 27.5271H35.2604V24.7207C35.2604 24.7207 34.6255 24.9493 34.562 24.962C34.4858 24.9874 34.4477 25.0382 34.4477 25.0509C34.4477 25.089 34.4223 25.1144 34.3715 25.1271C34.3207 25.1398 33.9525 25.2667 33.6985 25.3556C33.6477 25.3683 33.6731 25.4191 33.6985 25.4191C34.0033 25.4064 34.435 25.3683 34.4731 25.3683C34.5366 25.3556 34.562 25.3302 34.5747 25.2921C34.5874 25.2413 34.6255 25.2032 34.6763 25.2032C34.7144 25.2032 34.9176 25.1778 35.0699 25.1651L35.0318 27.5271Z" fill="#D4A11E"/>
<path d="M34.4602 25.381H34.4729C34.5364 25.3683 34.5618 25.3429 34.5618 25.3048C34.5618 25.2667 34.5872 25.2413 34.6253 25.2286L34.5491 24.9873C34.4729 25.0127 34.4475 25.0635 34.4475 25.0762C34.4475 25.1143 34.4221 25.127 34.384 25.1397L34.4602 25.381Z" fill="#FFC758"/>
<path d="M30.4221 27.8951H30.4348C30.4983 27.8824 30.5237 27.857 30.5237 27.8189C30.5364 27.7808 30.5491 27.7554 30.5872 27.7427L30.511 27.5015C30.4348 27.5269 30.4094 27.5777 30.4094 27.5904C30.4094 27.6284 30.384 27.6411 30.3459 27.6538L30.4221 27.8951Z" fill="#FFC758"/>
<path d="M37.9143 27.2604H37.927C37.9905 27.2477 38.0159 27.2223 38.0159 27.1842C38.0286 27.1461 38.0413 27.1207 38.0794 27.108L38.0032 26.8667C37.927 26.8921 37.9016 26.9429 37.9016 26.9556C37.9016 26.9937 37.8762 27.0064 37.8381 27.0191L37.9143 27.2604Z" fill="#FFC758"/>
<path d="M33.5586 33.216C33.5586 33.216 33.038 32.4541 32.8348 31.6414C32.657 30.943 32.8348 30.2827 32.8348 30.2827C32.8348 30.2827 32.492 31.4764 31.6666 32.124C31.0951 32.5811 29.6856 33.0002 30.0158 33.5843C30.0666 33.5081 30.2063 33.3557 30.7777 33.216C30.8412 33.2033 30.9174 33.1906 30.9936 33.178V34.143H31.2983V33.1399C32.3523 33.0256 33.5586 33.216 33.5586 33.216Z" fill="#D4A11E"/>
<path d="M29.6603 31.197C29.6603 31.197 29.2793 30.9684 29.3301 30.2319C29.3809 29.47 29.7618 29.1399 29.7618 29.1145L32.2888 28.251C32.2888 28.251 32.0984 28.6319 32.238 29.2034C32.3904 29.8891 32.8349 30.2827 32.8349 30.2827C32.8349 30.2827 31.565 30.2954 30.4222 30.6891C29.8634 30.8795 29.6603 31.197 29.6603 31.197Z" fill="#FFC758"/>
<path d="M31.1588 29.6097C31.8826 29.0129 32.2763 28.251 32.2763 28.251C32.2763 28.251 32.1747 28.7335 32.2509 29.1653C32.3905 29.9018 32.8223 30.2827 32.8223 30.2827C32.8223 30.2827 31.7937 30.2954 30.6889 30.6129C29.9524 30.8161 29.7239 31.1081 29.6604 31.2097C29.4191 30.651 30.4223 30.2192 31.1588 29.6097Z" fill="#D4A11E"/>
<path d="M34.0414 33.7745C34.0414 33.7745 33.3429 33.2538 33.1779 32.276C33.0382 31.5014 33.5588 30.9427 33.5588 30.9427L37.508 29.584C37.508 29.584 37.2921 30.4602 37.4953 31.2983C37.7239 32.238 38.5874 33.4062 38.5874 33.4062C38.5874 33.4062 36.9493 32.9364 35.5271 33.1141C34.1683 33.2919 34.0414 33.7745 34.0414 33.7745Z" fill="#FFC758"/>
<path d="M33.2413 27.5142C33.2159 26.9174 33.635 26.4348 33.6477 26.4094L36.4794 25.4189C36.4794 25.4189 36.289 25.8634 36.3398 26.2443C36.4286 26.9682 36.835 27.3491 36.835 27.3491C36.835 27.3491 35.7175 27.2856 34.4096 27.7428C33.6858 27.9967 33.6096 28.3396 33.6096 28.3396C33.6096 28.3396 33.2667 28.2507 33.2413 27.5142Z" fill="#FFC758"/>
<path d="M35.4763 26.7523C35.9842 26.3078 36.4794 25.4316 36.4794 25.4316C36.4794 25.4316 36.289 25.8761 36.3398 26.257C36.4286 26.9808 36.835 27.3618 36.835 27.3618C36.835 27.3618 35.6286 27.3491 34.4731 27.7555C33.9779 27.9332 33.6604 28.1999 33.6223 28.3523C33.4572 27.7935 34.7779 27.3618 35.4763 26.7523Z" fill="#D4A11E"/>
<path d="M33.6476 30.7777C33.6476 30.7777 33.2412 30.3079 33.165 29.5713C33.0888 28.8094 33.5333 28.5047 33.5714 28.4793L36.8476 27.3491C36.8476 27.3491 36.7587 27.5904 36.8349 28.2507C36.911 28.8094 37.4571 29.5713 37.4571 29.5713C37.4571 29.5713 35.7047 29.6221 34.6253 30.0412C33.9396 30.3079 33.6476 30.7777 33.6476 30.7777Z" fill="#FFC758"/>
<path d="M35.8189 28.8856C36.5301 28.2761 36.8475 27.3618 36.8475 27.3618C36.8475 27.3618 36.7586 27.8824 36.8475 28.2888C37.0126 28.9999 37.5205 29.5967 37.5205 29.5967C37.5205 29.5967 35.9967 29.6221 34.892 29.9904C34.1682 30.2317 33.7237 30.6634 33.6602 30.7904C33.4951 30.1682 35.1078 29.4951 35.8189 28.8856Z" fill="#D4A11E"/>
<path d="M38.6509 33.4697C38.6509 33.4697 37.762 32.3141 37.4953 31.2983C37.3303 30.6253 37.4572 29.8633 37.508 29.5967C37.4065 29.9522 37.0509 31.1078 36.1747 31.9205C35.3366 32.6951 33.6858 33.0633 34.0414 33.7872C34.1049 33.6729 34.2953 33.3935 34.9684 33.2284L34.9557 34.1554H35.2731V33.1649C36.7334 32.9364 38.6509 33.4697 38.6509 33.4697Z" fill="#D4A11E"/>
<path fill-rule="evenodd" clip-rule="evenodd" d="M40.1745 35.6413C40.3777 35.6032 40.5809 35.5524 40.8856 35.4762C40.8729 35.4635 40.8475 35.4508 40.8348 35.4381C40.5047 35.0699 40.5555 34.6762 40.7586 34.4857C41.4952 33.8 41.4825 33.2921 41.4825 33.2921C41.4825 33.2921 39.692 33.6603 37.3301 33.7873C37.1777 33.8 36.6317 34.0413 36.4666 34.0413C36.1364 34.054 35.8063 34.0667 35.4634 34.0667C31.0063 34.1048 29.7618 33.7873 28.3015 33.5207C26.8158 33.2413 26.1682 32.9492 26.1682 32.9492L26.1174 33.1016C26.1174 33.1016 27.2856 33.5588 28.1237 33.9651C28.3015 34.054 28.9999 35.0953 29.2285 35.4508H23.9332C23.6412 29.381 24.8094 24.4159 24.8094 24.4159C24.8094 24.4159 28.8602 23.5524 34.9555 23.5524V22.9048C28.492 22.9048 24.1872 23.8191 24.1872 23.8191C24.1872 23.8191 22.3078 30.4476 23.2983 38.3461C23.7174 41.6349 26.4348 47.7937 34.9301 50.6508L35.2983 50.1302L34.9301 49.6095C26.9301 46.9302 24.5936 41.508 24.1872 38.4222C24.0983 37.7365 24.0348 37.0508 23.984 36.3905H34.9682V35.4635H29.3301C29.4571 35.0572 29.8507 34.9556 30.3459 35.0699C30.8539 35.1968 31.3618 35.3238 31.8444 35.2984C33.0507 35.2349 32.8729 34.9175 32.9872 34.9175C34.2317 34.9937 34.7015 35.2984 35.7809 35.273C36.7713 35.2603 37.1142 34.9937 37.2031 34.9937C38.4094 34.981 38.8666 35.5397 40.0729 35.6413C40.111 35.6413 40.1491 35.6413 40.1745 35.6413Z" fill="#FFC758"/>
<path fill-rule="evenodd" clip-rule="evenodd" d="M45.7111 23.8191C45.7111 23.8191 41.419 22.9048 34.9555 22.9048V23.5524C41.0508 23.5524 45.0889 24.4159 45.0889 24.4159C45.0889 24.4159 46.2698 29.381 45.9651 35.4508H40.6571C40.2381 35.0445 40.4793 34.5111 40.619 34.3842C41.2412 33.8254 41.2412 33.4445 41.2412 33.4445C41.2412 33.4445 39.8063 33.8 37.4444 33.9016C37.292 33.9016 36.6317 34.2064 36.4666 34.2064C36.1365 34.2191 35.6793 34.2318 35.3365 34.2318C32.2635 34.2318 30.7524 34.1683 28.0857 33.5968C28.1365 33.6603 28.1619 33.6857 28.2127 33.7619C28.2254 33.7873 29.3809 34.0794 29.3936 34.1048C29.5714 34.3461 29.8 34.5111 30.0793 34.6635C30.5111 34.8921 31.146 35.0826 31.6666 35.1207C32.873 35.1968 32.6444 34.7397 32.7587 34.7397C33.9905 34.7143 34.7905 35.1588 35.8698 35.1461C36.8603 35.1334 36.8857 34.8159 36.9873 34.8159C37.9651 34.7651 38.9555 35.1842 39.8063 35.4635H34.9555V36.3905H45.9016C45.8508 37.0635 45.7873 37.7365 45.6984 38.4222C45.292 41.5207 42.9555 46.9302 34.9555 49.6095V50.6508C43.4508 47.7937 46.1809 41.6476 46.5873 38.3461C47.5905 30.4476 45.7111 23.8191 45.7111 23.8191Z" fill="#D4A11E"/>
<path d="M15.1206 26.6762L15.565 25.8254L17.5714 25.6857L16.5555 23.946L17 23.1079L20.5682 24.9873L20.1619 25.7619L17.8254 24.5428L18.8285 26.346L18.8158 26.3587L16.7841 26.5619L19.0952 27.7809L18.6889 28.5555L15.1206 26.6762Z" fill="#00285E"/>
<path d="M19.1968 20.3268L19.7555 19.73L23.8952 21.2538L23.2603 21.9268L22.346 21.5713L21.1777 22.8157L21.5841 23.7046L20.9619 24.3649L19.1968 20.3268ZM21.5714 21.2792L20.2507 20.7712L20.8349 22.0538L21.5714 21.2792Z" fill="#00285E"/>
<path d="M22.3967 17.3935L23.0951 16.9745L26.0031 18.1173L24.7205 15.9967L25.4697 15.5396L27.5523 18.9808L26.9047 19.3745L23.9078 18.1935L25.2412 20.3903L24.492 20.8475L22.3967 17.3935Z" fill="#00285E"/>
<path d="M27.819 16.6951C27.5015 15.5777 28.0602 14.4348 29.2539 14.092C29.9777 13.8761 30.4983 14.0031 30.9555 14.2443L30.5872 15.0316C30.2063 14.8412 29.8634 14.765 29.4698 14.8793C28.8221 15.0697 28.5047 15.7427 28.6952 16.4158V16.4285C28.8856 17.0888 29.5078 17.5078 30.1682 17.3174C30.6126 17.1904 30.8285 16.9364 31.0571 16.5681L31.7555 16.9618C31.4761 17.5078 31.1078 17.9015 30.3713 18.1174C29.2412 18.4475 28.1364 17.8126 27.819 16.6951Z" fill="#00285E"/>
<path d="M32.6572 13.4571L33.5334 13.4317L33.5842 15.0317L35.2096 14.9936L35.1715 13.3936L36.0604 13.3682L36.162 17.4063L35.2731 17.4317L35.235 15.8063L33.5969 15.8571L33.6477 17.4698L32.7588 17.4951L32.6572 13.4571Z" fill="#00285E"/>
<path d="M41.2793 17.9523L42.0158 17.5967C42.219 18.0158 42.4856 18.3586 42.9047 18.5491C43.2349 18.7015 43.4888 18.6634 43.5904 18.4475V18.4348C43.692 18.2316 43.6031 18.0666 43.0698 17.6348C42.4222 17.1015 42.0412 16.6824 42.3714 15.9586V15.9459C42.6761 15.2856 43.4126 15.0951 44.1618 15.438C44.6952 15.6793 45.0761 16.0602 45.3047 16.53L44.6063 16.9491C44.3904 16.5681 44.1237 16.2888 43.819 16.1491C43.5142 16.0094 43.2856 16.0729 43.1968 16.2507V16.2634C43.0825 16.5047 43.2095 16.657 43.7682 17.1142C44.4158 17.6475 44.7206 18.1174 44.4158 18.7523V18.765C44.0856 19.4888 43.3364 19.6412 42.5491 19.2856C42.0158 19.0062 41.546 18.5491 41.2793 17.9523Z" fill="#00285E"/>
<path d="M47.1714 18.1937L46.1936 17.4445L46.6888 16.7969L49.3428 18.8159L48.8476 19.4762L47.8698 18.727L45.9269 21.2794L45.2158 20.7461L47.1714 18.1937Z" fill="#00285E"/>
<path d="M53.546 23.9204L54.3714 25.5712C54.6 26.0283 54.6508 26.4474 54.5365 26.8029C54.4349 27.1077 54.2064 27.349 53.8635 27.5268H53.8508C53.2667 27.8188 52.746 27.6918 52.3397 27.3109L51.4889 28.8347L51.0191 27.9077L51.781 26.549L51.4635 25.9268L50.308 26.5109L49.9143 25.7236L53.546 23.9204ZM52.5937 26.3966C52.7841 26.7776 53.1016 26.9045 53.4064 26.7522H53.4191C53.7619 26.5871 53.8127 26.2569 53.6222 25.876L53.2286 25.0887L52.2 25.6093L52.5937 26.3966Z" fill="#00285E"/>
<path d="M38.5872 16.1618L40.0729 16.4792L40.492 15.7681L38.765 15.3871L38.9301 14.5871L41.038 15.0443L41.2158 14.2824L38.2317 13.6348L37.3809 17.5713L40.3904 18.2316L40.5555 17.457L38.4094 16.9871L38.5872 16.1618Z" fill="#00285E"/>
<path d="M50.5618 20.022L47.4634 22.6124L49.4443 24.9617L50.0412 24.4537L48.6443 22.7775L49.2919 22.2315L50.2824 23.4124L51.0824 23.1458L49.9015 21.7236L50.5237 21.2029L51.9078 22.8537L52.5173 22.3458L50.5618 20.022Z" fill="#00285E"/>
<path d="M28.1619 54.4092C28.1619 53.2283 29.0381 52.2759 30.3079 52.2759C31.0825 52.2759 31.5396 52.5298 31.9333 52.9108L31.3619 53.5711C31.0444 53.2791 30.7269 53.114 30.3079 53.114C29.6095 53.114 29.1142 53.6854 29.1142 54.3965V54.4092C29.1142 55.1076 29.5968 55.7045 30.3079 55.7045C30.7777 55.7045 31.0698 55.514 31.3873 55.2219L31.9587 55.806C31.5396 56.2632 31.0698 56.5425 30.2698 56.5425C29.0635 56.5171 28.1619 55.5775 28.1619 54.4092Z" fill="#00285E"/>
<path d="M32.835 52.3394H33.7365V56.4409H32.835V52.3394Z" fill="#00285E"/>
<path d="M35.8316 53.1775H34.5872V52.3394H37.9903V53.1775H36.7459V56.4536H35.8443V53.1775H35.8316Z" fill="#00285E"/>
<path d="M39.9459 54.8282L38.3713 52.3394H39.4253L40.4031 53.9901L41.3936 52.3394H42.4221L40.8475 54.8029V56.4409H39.9459V54.8282Z" fill="#00285E"/>
</g>
<defs>
<clipPath id="clip0_82_45546">
<rect width="52" height="52" fill="white" transform="translate(9 9)"/>
</clipPath>
</defs>
</svg>
