<svg width="70" height="70" viewBox="0 0 70 70" fill="none" xmlns="http://www.w3.org/2000/svg">
<path d="M37.1883 58.3803C36.9851 58.9778 36.3376 60.4431 34.7704 60.4431C32.9878 60.4431 32.3696 58.5143 32.3396 58.433L32.2869 58.2505C32.2869 58.2505 33.822 58.3781 34.6677 58.3781C35.5112 58.3781 36.9565 58.2947 37.1904 58.2505L37.1883 58.3803Z" fill="black"/>
<path d="M41.8658 57.4292L42.2315 57.4755C41.7952 58.6157 41.0115 59.8934 39.4757 59.8934C37.9776 59.8934 37.2389 59.0264 36.9294 58.4467L36.6677 58.287C36.6677 58.287 39.2482 58.2036 41.8658 57.4292Z" fill="black"/>
<path d="M27.7291 57.4292L27.3633 57.4755C27.7975 58.6157 28.5847 59.8934 30.1256 59.8934C31.6151 59.8934 32.418 58.9808 32.7488 58.4467L32.9264 58.287C32.9264 58.287 30.3502 58.2036 27.7291 57.4292Z" fill="black"/>
<path d="M36.0209 58.5016C35.7778 58.8496 35.6145 58.8318 35.3271 58.8318C35.1781 58.8318 34.9642 58.9515 34.9663 59.1726C34.9727 59.3466 35.1146 59.4877 35.3478 59.4877C35.8783 59.4877 36.284 58.7526 36.3917 58.4396C36.3917 58.4396 36.7026 58.4268 36.7931 58.4175C36.7931 58.4175 36.237 60.0803 34.7895 60.0803C33.3399 60.0803 32.7488 58.4374 32.7488 58.4374C32.7488 58.4374 33.9709 58.5116 34.6676 58.5116C35.3663 58.5116 35.8113 58.5052 36.0209 58.5016Z" fill="url(#paint0_radial_82_45535)"/>
<path d="M27.9258 57.769C28.8677 58.0186 29.5408 58.2297 31.1273 58.4222C31.1273 58.4222 31.0767 58.5826 30.7316 58.5698C30.5997 58.5612 30.5818 58.5284 30.5362 58.5206C30.4342 58.502 30.2866 58.6054 30.3016 58.7773C30.3173 58.8985 30.4186 59.0489 30.7708 59.0489C31.123 59.0489 31.533 58.7623 31.7405 58.4942C31.7405 58.4942 31.9509 58.5434 32.1698 58.5541C32.1698 58.5541 31.4917 59.501 30.1597 59.501C28.6973 59.501 28.1525 58.1883 27.9258 57.769Z" fill="url(#paint1_radial_82_45535)"/>
<path d="M34.6497 49.9753C39.7009 49.9753 45.2968 46.875 49.2256 42.4057C49.6535 41.9223 50.3701 41.0039 52.0764 41.0039C53.7855 41.0039 56.0572 42.5619 55.7913 45.3969C55.593 47.4619 52.6418 52.1209 47.5885 54.9865C42.5366 57.8637 37.8827 58.479 34.6497 58.479C31.414 58.479 26.7643 57.8637 21.7096 54.9865C16.657 52.1209 13.7064 47.4619 13.5097 45.3969C13.2437 42.5619 15.5161 41.0039 17.2217 41.0039C18.9323 41.0039 19.6517 41.9223 20.0781 42.4057C24.0013 46.875 29.6 49.9753 34.6497 49.9753Z" fill="#FFE500" stroke="black" stroke-width="0.5" stroke-miterlimit="3.863"/>
<path d="M34.6071 50.6627C29.5246 50.6627 23.7412 47.6636 19.4815 42.8121C19.0479 42.3194 18.4961 41.6855 17.1826 41.6855C16.4154 41.6855 15.5455 42.0963 14.9687 42.7316C14.5344 43.2036 14.0474 44.0357 14.1644 45.3113C14.3333 47.054 17.0949 51.5639 22.017 54.3648C25.9844 56.6215 30.2205 57.7617 34.6071 57.7617C38.998 57.7617 43.2341 56.6215 47.2015 54.3648C52.1221 51.5639 54.888 47.054 55.0506 45.3113C55.1725 44.0357 54.6819 43.2036 54.2534 42.7316C53.6737 42.0963 52.8017 41.6855 52.038 41.6855C50.7189 41.6855 50.1677 42.3194 49.7381 42.8121C45.4809 47.6636 39.6903 50.6627 34.6071 50.6627Z" fill="#DA020E"/>
<path d="M56.471 25.3624L56.4888 24.1845C56.8517 24.4619 57.5341 24.4661 57.9334 24.0405C58.1152 23.8465 58.2186 23.5463 58.2036 23.2376C58.1865 22.8889 58.0282 22.5267 57.768 22.2714C56.2934 20.8304 54.9836 19.3915 54.9836 19.3915C54.8481 19.1775 54.6363 19.0228 54.5137 18.9701C54.3333 18.8838 53.6915 18.5907 53.2024 19.3337C52.761 20.0068 52.8266 20.9559 52.9115 21.3024L54.2941 23.1869C54.7675 23.7873 56.1016 25.0644 56.471 25.3624Z" fill="black"/>
<path d="M26.9191 13.1474C28.6596 12.5627 30.2511 12.0792 32.3959 11.8896L32.7211 11.707C31.5239 10.7623 30.3345 10.1177 29.1502 10.1177C28.4065 10.1177 26.8934 10.6232 26.5562 13.2928L26.9191 13.1474Z" fill="black"/>
<path d="M42.3842 13.1474C40.643 12.5627 39.0529 12.0792 36.9102 11.8896L36.5808 11.707C37.783 10.7623 38.9695 10.1177 40.1553 10.1177C40.8997 10.1177 42.4063 10.6232 42.7507 13.2928L42.3842 13.1474Z" fill="black"/>
<path d="M32.6833 11.8012C33.559 10.1177 34.3597 9.50879 34.8075 9.50879C35.3608 9.50879 36.0125 10.3887 36.5245 11.5274L36.6321 11.7855L36.1822 11.7506C35.887 11.695 35.0464 11.6843 34.7255 11.6843C34.3961 11.6843 33.6859 11.6843 33.2581 11.7242L32.6833 11.8012Z" fill="black"/>
<path d="M25.7788 49.74L24.511 52.0317C24.1281 52.7205 23.7338 53.1576 23.0871 52.7868C22.4504 52.4267 22.598 51.9048 22.9887 51.1931L24.2601 48.8986L23.2347 48.3296L21.8913 50.7546C21.1519 52.0894 22.0824 52.9173 22.8112 53.3187C23.5891 53.7494 24.7214 54.0695 25.4544 52.7447L26.807 50.309L25.7788 49.74ZM42.0817 54.4614L41.6546 53.1466L42.9266 52.7359L42.7505 52.189L41.477 52.6018L41.1148 51.4781L42.4168 51.051L42.2414 50.5098L39.8577 51.2848L41.1825 55.3577L43.8101 54.5056L43.6368 53.9623L42.0817 54.4614ZM44.8048 49.1906L43.3537 50.027L45.5021 53.7527L46.9474 52.917C48.4412 52.0556 48.5831 50.7508 47.9949 49.704C47.2868 48.4619 46.1182 48.4334 44.8048 49.1906ZM46.9973 50.3244C47.5414 51.2777 47.4309 51.9729 46.5931 52.4528L46.1938 52.6852L44.6165 49.96L45.0458 49.7112C46.0519 49.1329 46.623 49.6477 46.9973 50.3244ZM35.3898 52.0701L35.4676 52.6284L36.6669 52.4587L37.1853 56.1408L38.3004 55.9861L37.7835 52.3061L38.965 52.1421L38.8837 51.576L35.3898 52.0701ZM34.3745 52.105L33.2514 52.0436L33.0268 56.3219L34.1506 56.3818L34.3745 52.105ZM30.9647 51.582L30.1825 54.5054L28.7187 50.9794L27.8081 50.7349L26.6986 54.874L27.6905 55.1372L28.4791 52.1895L29.9651 55.7454L30.8556 55.9857L31.9608 51.8451L30.9647 51.582Z" fill="#FFE500"/>
<path d="M25.0552 24.5704V44.6367L34.6498 50.8016L44.2437 44.6367L44.258 24.6011C43.9506 24.3301 43.3125 23.7362 42.8126 23.4253H26.4427C26.0285 23.7162 25.1985 24.4164 25.0552 24.5704Z" fill="#FFE500"/>
<mask id="mask0_82_45535" style="mask-type:luminance" maskUnits="userSpaceOnUse" x="25" y="23" width="20" height="28">
<path d="M25.0552 24.5704V44.6367L34.6498 50.8016L44.2437 44.6367L44.258 24.6011C43.9506 24.3301 43.3125 23.7362 42.8126 23.4253H26.4427C26.0285 23.7162 25.1985 24.4164 25.0552 24.5704Z" fill="white"/>
</mask>
<g mask="url(#mask0_82_45535)">
<g filter="url(#filter0_f_82_45535)">
<path d="M25.0552 16.4199L25.0552 24.5705V44.6368L34.6498 50.8017L44.2437 44.6368L44.258 16.4506" stroke="#B54005" stroke-width="2" stroke-miterlimit="3.863"/>
</g>
</g>
<path d="M38.4844 38.9676V38.2218C38.4844 38.2218 38.2862 37.9152 37.7949 37.9152C37.3051 37.9152 37.012 38.0628 37.012 38.1861C37.012 38.3879 37.4505 38.9676 38.4844 38.9676ZM34.6155 32.3656L35.357 31.0707L35.9382 32.3656H36.9008C36.3218 32.9089 36.0851 33.7311 36.0851 34.2794V34.8769C36.0851 35.1308 35.9574 35.5507 35.9574 35.5507C35.9574 35.5507 36.7931 36.1875 36.9214 36.298C36.9749 36.3401 37.0334 36.3657 36.9949 36.4763C36.9286 36.6624 36.361 36.9183 36.3032 36.9668C36.1749 37.0809 36.1414 37.1494 36.1749 37.262C36.2155 37.3704 36.3218 37.3904 36.5393 37.3134C36.7589 37.2428 37.2138 37.0039 37.5953 36.8406C37.9753 36.6752 38.4844 36.7173 38.4844 36.7173V35.9864H37.0469V33.6641L36.7931 33.2548L37.427 32.1253L38.0644 33.2619L37.8134 33.6641V34.8769H38.5457V33.6641L38.2933 33.2619L38.9294 32.1339L39.5625 33.2619L39.3123 33.6641V34.8769H40.0495V33.6641L39.7886 33.2619L40.4267 32.1339L41.0628 33.2619L40.8089 33.6641L40.821 35.9828H39.3721V37.0553C39.7008 37.364 40.011 38.0628 40.011 38.4742C40.011 38.8956 39.7365 39.0739 39.7365 39.0739C39.8285 39.4047 39.8107 39.5423 39.7714 39.8418C39.7365 40.1463 39.3565 40.6211 39.3565 40.6211V46.1636C39.3565 46.5401 38.4844 46.503 38.4844 46.1814V40.7459C37.991 40.2062 36.6476 39.7819 36.6476 39.7819C36.1549 40.2746 35.8519 41.1303 35.8519 41.1303C36.0658 41.28 36.3988 41.1303 36.5243 40.9848C36.6476 40.8393 36.9008 40.8015 37.0469 40.8935C37.1902 40.9848 37.2259 41.0197 37.1767 41.2336C37.1204 41.459 37.0305 41.819 37.0305 42.0707C37.0305 42.3289 37.3207 42.2711 37.5375 42.2904C37.9753 42.3289 38.0473 42.818 38.011 43.0911C37.9753 43.3656 37.847 43.9482 37.847 44.3104C37.847 44.6691 37.8662 45.0313 37.9019 45.2366C37.9396 45.4349 38.011 45.6538 37.991 45.9097C37.9689 46.2541 37.7571 46.309 37.5375 46.088C37.3207 45.8705 34.2853 42.6348 34.2853 42.6348C34.0835 43.2929 34.9235 44.4152 35.1945 44.7617C35.4676 45.1083 35.4497 45.3628 35.2109 45.6003C34.977 45.8349 34.5214 45.9604 34.4322 46.1814C34.3395 46.3953 34.6497 47.0542 35.2879 47.8713C35.9239 48.687 34.5577 49.2346 33.7427 49.3979C32.922 49.5591 32.922 48.9958 32.9791 48.687C33.0332 48.3811 33.0332 48.195 33.0133 47.9262C32.9955 47.6524 32.7445 47.2731 32.3958 46.8189C32.0514 46.3625 32.0514 45.9475 32.1947 44.8901C32.3395 43.8355 32.3052 43.1624 32.3052 43.1624C32.3052 43.1624 31.9416 43.1774 31.4139 43.1624C30.8891 43.1424 30.4535 42.838 30.4164 41.5645C30.38 40.2946 30.3501 37.262 30.2638 36.944C30.1797 36.6296 29.8396 36.5718 29.6962 36.5297C29.5472 36.4927 29.5401 36.278 29.6841 36.201C30.0635 36.0164 30.5184 35.5507 30.3501 35.2613C30.1797 34.971 29.5116 35.0309 29.0645 35.2498C28.616 35.4666 28.1433 35.9429 28.0213 36.0727C27.9037 36.201 27.8017 36.201 27.8145 36.0627C27.8295 35.9144 27.7318 35.2206 27.6741 34.9803C27.6099 34.7379 27.3931 34.2794 27.3197 34.1582C27.2477 34.0363 27.3197 33.9892 27.4423 34.0363C27.56 34.0847 27.8295 34.1967 28.0826 34.2637C28.3379 34.3407 28.5811 34.2152 28.6973 33.9771C28.8185 33.7311 29.0552 33.2127 29.1764 32.981C29.2955 32.7521 29.488 32.8034 29.6463 32.8384C29.8032 32.8754 29.9487 32.9724 30.0934 33.0302C30.2374 33.0901 30.3579 33.0787 30.4093 33.0052C30.4585 32.9353 30.5184 32.909 30.6054 32.7278C30.6902 32.5467 30.7957 32.633 30.8093 32.705C31.2428 35.3119 32.3723 35.4317 32.3723 35.4317C32.2026 35.8659 31.8047 36.5583 31.7106 36.733C31.6086 36.8962 31.5708 37.1287 31.5459 37.3091C31.5266 37.4888 31.6086 39.2108 31.7291 39.8418C31.8518 40.4735 32.2375 40.2276 32.363 40.0343C32.4792 39.8418 32.8578 39.0403 32.8578 39.0403C32.8578 39.0403 32.9513 38.8222 32.9513 38.641C32.9513 38.4585 32.6375 38.0628 32.5655 37.9394C32.4906 37.8139 32.2261 37.5736 32.2261 36.9668C32.2261 36.3622 32.7709 35.9429 32.9669 35.7839C33.1609 35.6249 33.1609 35.4046 33.1345 35.272C33.0497 34.8042 32.5527 33.8202 32.3138 33.443C32.0692 33.0672 31.5972 32.3535 31.5972 32.3535H32.5783L33.2101 31.0415L33.8975 32.3592L34.6155 32.3656ZM34.4565 36.3401C34.7766 35.811 34.9107 35.2613 34.9107 35.2613H33.9852C33.9852 35.2613 34.1335 35.8238 34.4565 36.3401ZM33.4925 33.6726C33.5295 33.9436 33.7313 34.047 33.8846 33.9678C34.0372 33.8837 34.0108 33.6641 33.8974 33.4886C33.7891 33.3168 33.5637 33.125 33.4946 33.1535C33.424 33.1828 33.4682 33.5129 33.4925 33.6726ZM35.3271 33.1535C35.2608 33.125 35.0233 33.3168 34.9107 33.4886C34.8023 33.6641 34.7745 33.8837 34.9285 33.9678C35.079 34.047 35.2729 33.9414 35.3214 33.6726C35.3478 33.5129 35.3998 33.1828 35.3271 33.1535Z" fill="url(#paint2_linear_82_45535)"/>
<path d="M25.8079 29.5728V30.7807H43.5095V29.5728H42.2041V29.7678H27.1133V29.5728H25.8079Z" fill="#DA020E"/>
<path d="M25.8088 24.1445H43.5071V28.9575H25.8088V24.1445Z" fill="#DA020E"/>
<path d="M28.8499 27.5601L30.2054 27.8931L30.937 25.8545V25.3383L28.8499 27.5601ZM40.0211 28.7618V28.134H38.7419V27.6063H39.7872V25.279H38.8239L38.4945 24.6387L38.1729 25.279H37.2067V27.6063H38.2563V28.134H35.74V27.6063H36.7867V25.279H35.822L35.4961 24.6387L35.1667 25.279H34.2048V27.6063H35.2566V28.134H32.6882V27.6063H33.7371V25.279H32.7709L32.4479 24.6387L32.1164 25.279H31.1538V27.6063H32.2062V28.134L30.174 28.1404L28.1526 27.6684L28.5576 28.7618L40.0211 28.7618Z" fill="#FFE500"/>
<path d="M27.0195 12.9579C28.728 12.386 30.0193 11.9404 32.1234 11.7536C31.1537 11.0805 30.2931 10.5107 29.3034 10.5107C28.7829 10.5107 28.3379 10.7097 28.2353 11.0733C28.1397 11.4042 28.4007 11.5482 28.4934 11.5261C28.5904 11.5012 28.6595 11.4726 28.636 11.3828C28.611 11.288 28.6845 11.0469 29.0153 11.0469C29.3519 11.0469 29.4788 11.3585 29.4788 11.5725C29.4788 11.7864 29.1394 12.1436 28.5155 12.1436C27.9037 12.1436 27.59 11.7357 27.6135 11.3585C27.3183 11.7906 27.1465 12.2277 27.0195 12.9579Z" fill="url(#paint3_radial_82_45535)"/>
<path d="M15.1148 23.187L16.5024 21.3024C16.5823 20.9559 16.6457 20.0076 16.2022 19.3344C15.7173 18.5908 15.0785 18.8845 14.8909 18.9708C14.7726 19.0236 14.5572 19.1776 14.4246 19.3922C14.4246 19.3922 13.0905 20.8611 11.6224 22.3064C11.4149 22.5125 11.1867 22.8889 11.1675 23.2376C11.1496 23.5471 11.2744 23.858 11.4541 24.0519C11.8555 24.4797 12.5572 24.4626 12.9158 24.1845L12.9408 25.3625C13.3101 25.0651 14.6421 23.7874 15.1148 23.187Z" fill="black"/>
<path d="M34.6498 20.4442C42.5502 20.4442 47.0452 27.8598 48.0263 29.1618C49.769 31.4877 51.9024 33.3758 54.3745 32.7519C58.006 31.8228 57.817 26.4437 57.817 26.4437C56.9407 25.8126 55.4476 25.0183 52.7252 21.1594C50.0592 17.3767 44.0262 11.7729 34.6498 11.7729C25.2712 11.7729 19.2396 17.3767 16.58 21.1594C13.8548 25.0183 12.3567 25.8126 11.4889 26.4437C11.4889 26.4437 11.2928 31.8228 14.9272 32.7519C17.3979 33.3758 19.5298 31.4877 21.2753 29.1618C22.2529 27.8598 26.7507 20.4442 34.6498 20.4442Z" fill="#FFE500" stroke="black" stroke-width="0.5" stroke-miterlimit="3.863"/>
<path d="M34.6497 19.7403C42.2663 19.7403 46.7963 26.2012 48.4345 28.5324C50.6024 31.4263 52.4378 32.5187 54.2011 32.0702C56.7495 31.4213 57.0661 27.9139 57.1003 26.8522V26.8101L57.0718 26.788C56.1734 26.1655 54.6703 25.1337 52.1519 21.5636C50.6495 19.4316 44.9459 12.4702 34.6497 12.4702C24.357 12.4702 18.6484 19.4316 17.1468 21.5636C14.649 25.1109 13.0782 26.1926 12.2368 26.7702L12.2012 26.7994L12.2055 26.8365C12.2397 27.9003 12.557 31.4263 15.099 32.0702C16.8644 32.5187 18.7034 31.4263 20.8656 28.5324C22.5024 26.2012 27.0366 19.7403 34.6497 19.7403Z" fill="#DA020E"/>
<path d="M30.512 14.3431C29.1145 14.639 28.194 15.6693 28.4956 17.0661C28.671 17.8205 29.3441 19.2088 31.4732 18.756C32.0643 18.6434 32.3838 18.4081 32.6932 18.1122L32.3053 17.6665C32.1591 17.8291 31.941 18.0658 31.4511 18.1678C30.4208 18.3853 29.8083 17.5517 29.6557 16.8323C29.4289 15.7663 30.05 15.0318 30.7516 14.88C31.2529 14.7694 31.5566 14.9056 31.7492 14.9805H31.7556L31.8861 14.4343C31.5481 14.2988 31.1424 14.209 30.512 14.3431ZM42.2001 20.4883C42.9994 20.9696 43.8715 20.8876 44.2793 20.2123C44.576 19.7403 44.5788 19.3481 44.2223 18.6458C44.1303 18.4469 44.0098 18.3043 43.9292 18.1231C43.7717 17.8294 43.6262 17.5891 43.7617 17.3616C43.9114 17.1149 44.2579 17.0949 44.5717 17.2867C44.9004 17.4857 45.0366 17.8144 45.1057 18.039L45.6213 17.8165C45.463 17.393 45.2284 17.0129 44.6922 16.6956C43.7759 16.1438 43.0308 16.2892 42.7206 16.8062C42.4062 17.326 42.4953 17.7588 42.732 18.2023C42.732 18.2023 42.8789 18.454 42.9638 18.6258C43.1713 18.9724 43.413 19.4095 43.2433 19.6825C43.0379 20.0269 42.6843 20.1018 42.3399 19.8879C41.8985 19.6098 41.7951 19.2861 41.7031 18.9702L41.1363 19.2127C41.2611 19.6476 41.5541 20.0983 42.2001 20.4883ZM36.098 14.1182L36.0659 15.8637L34.3874 15.8395L34.4123 14.0876L33.2872 14.0669L33.2123 18.3501L34.3396 18.3743L34.3753 16.4106L36.0566 16.4413L36.0245 18.4014L37.1504 18.4186L37.2238 14.1353L36.098 14.1182ZM52.2176 27.7192C52.2254 27.7299 52.8778 28.0522 53.603 27.4012C54.2091 26.8564 54.0059 26.1099 53.3727 25.4089L52.2055 24.1119L49.0232 26.9798L49.7754 27.814L51.0425 26.6774L51.4083 27.0903L50.6061 28.9L51.5666 29.6672L52.2176 27.7192ZM52.7859 25.6093C53.0839 25.9402 53.0889 26.333 52.7424 26.6382C52.4051 26.9491 51.9744 26.8778 51.6471 26.5184L51.4568 26.3052L52.5342 25.3319L52.7859 25.6093ZM47.8196 24.5151L48.8856 23.6302L49.7405 24.6477L50.1826 24.2791L49.3226 23.2573L50.2246 22.4979L51.1052 23.5468L51.5423 23.1824L49.9337 21.2651L46.6545 24.0188L48.4256 26.133L48.8677 25.7657L47.8196 24.5151ZM46.5903 18.0789L46.2081 18.4981L47.1065 19.3103L44.6166 22.0726L45.4566 22.8277L47.9429 20.0647L48.8299 20.8633L49.2107 20.444L46.5903 18.0789ZM39.2581 18.3504L39.7116 17.0441L40.973 17.4791L41.1605 16.9357L39.897 16.5015L40.2813 15.3827L41.5812 15.8284L41.7637 15.2879L39.3958 14.4729L38.0039 18.5294L40.6136 19.4228L40.799 18.8823L39.2581 18.3504ZM25.6969 16.2518L27.3055 18.8159L23.7239 17.479L22.9268 17.9795L25.1978 21.6182L26.0627 21.0734L24.4434 18.4829L28.062 19.8263L28.8435 19.3364L26.5682 15.7L25.6969 16.2518ZM20.6871 20.1264L19.9548 20.9122L22.0077 24.9943L22.5089 24.4581L21.9513 23.3722L22.9424 22.3062L24.0662 22.7825L24.8919 21.8983L20.6871 20.1264ZM22.4184 22.0702L21.6747 22.8688L20.9103 21.3999L22.4184 22.0702ZM18.2678 22.7168L17.4706 23.6659L18.9601 26.7462L15.7657 25.7001L15.0784 26.5144L18.3605 29.2703L18.8589 28.6785L16.5394 26.7262L19.6482 27.7387L19.9755 27.3508L18.4931 24.3803L20.8226 26.3333L21.5499 25.4727L18.2678 22.7168Z" fill="#FFE500"/>
<path d="M13.2538 24.8994L13.2502 23.9546C14.8624 22.4744 15.6225 20.987 15.6225 20.987C15.6225 20.987 15.03 20.7638 14.7647 20.4265C14.6335 20.239 14.5829 19.983 14.605 19.8112C14.6564 19.4889 14.9073 19.3256 14.9929 19.2885C15.1783 19.2087 15.5227 19.0275 15.9063 19.5552C16.3149 20.1263 16.2072 21.2101 16.1509 21.4597C16.1509 21.4597 15.3993 22.7681 13.2538 24.8994Z" fill="url(#paint4_radial_82_45535)"/>
<path d="M15.0379 21.1591C14.8204 21.5385 14.2721 22.454 12.8852 23.7539C12.6549 23.9699 12.0802 24.1532 11.7543 23.7874C11.6324 23.6455 11.5518 23.4465 11.5639 23.2155C11.5796 22.9481 11.7401 22.6372 11.9012 22.5003C12.1807 22.2643 13.3722 21.0614 14.2193 20.1152C14.2428 20.2878 14.3911 20.5766 14.3911 20.5766C14.5081 20.7377 14.6507 20.9695 15.0379 21.1591Z" fill="url(#paint5_linear_82_45535)"/>
<path d="M34.6071 50.6627C29.5246 50.6627 23.7411 47.6636 19.4815 42.8121C19.0479 42.3194 18.4961 41.6855 17.1826 41.6855C16.4154 41.6855 15.5455 42.0963 14.9687 42.7316C14.5344 43.2036 14.0474 44.0357 14.1644 45.3113C14.3333 47.054 17.0949 51.5639 22.017 54.3648C25.9844 56.6215 30.2205 57.7617 34.6071 57.7617" fill="url(#paint6_linear_82_45535)"/>
<path d="M34.6069 50.6627C39.6895 50.6627 45.4729 47.6636 49.7326 42.8121C50.1661 42.3194 50.718 41.6855 52.0314 41.6855C52.7986 41.6855 53.6685 42.0963 54.2454 42.7316C54.6796 43.2036 55.1666 44.0357 55.0497 45.3113C54.8807 47.054 52.1191 51.5639 47.197 54.3648C43.2297 56.6215 38.9935 57.7617 34.6069 57.7617" fill="url(#paint7_linear_82_45535)"/>
<path d="M48.4346 28.5323C50.6026 31.4262 52.4379 32.5186 54.2013 32.0701C56.7496 31.4212 57.0662 27.9138 57.1005 26.8521V26.81L57.0719 26.7879C56.1735 26.1654 54.6704 25.1336 52.152 21.5635" fill="url(#paint8_linear_82_45535)"/>
<path d="M20.8722 28.5323C18.7042 31.4262 16.8688 32.5186 15.1055 32.0701C12.5571 31.4212 12.2405 27.9138 12.2063 26.8521V26.81L12.2348 26.7879C13.1332 26.1654 14.6363 25.1336 17.1548 21.5635" fill="url(#paint9_linear_82_45535)"/>
<path d="M42.287 12.9579C40.5786 12.386 39.2873 11.9404 37.1831 11.7536C38.1528 11.0805 39.0135 10.5107 40.0032 10.5107C40.5237 10.5107 40.9686 10.7097 41.0713 11.0733C41.1668 11.4042 40.9059 11.5482 40.8132 11.5261C40.7162 11.5012 40.647 11.4726 40.6706 11.3828C40.6955 11.288 40.6221 11.0469 40.2912 11.0469C39.9547 11.0469 39.8278 11.3585 39.8278 11.5725C39.8278 11.7864 40.1672 12.1436 40.7911 12.1436C41.4029 12.1436 41.7166 11.7357 41.6931 11.3585C41.9883 11.7906 42.1601 12.2277 42.287 12.9579Z" fill="url(#paint10_radial_82_45535)"/>
<path d="M34.73 10.7151C34.6765 11.0417 34.3007 11.3547 33.9207 11.3547C33.5399 11.3547 33.4258 11.2934 33.4258 11.2934C33.3681 11.3832 33.3175 11.4524 33.2576 11.5494C33.6027 11.5358 34.4034 11.5137 34.7243 11.5137C35.0444 11.5137 35.9322 11.5601 36.1233 11.5736C35.8145 10.8499 35.2191 9.84807 34.8077 9.84807C34.7934 9.84807 34.7756 9.84668 34.7535 9.84668C34.6573 9.84668 34.3238 10.1358 34.1452 10.3896C33.9105 10.7231 34.73 10.7151 34.73 10.7151Z" fill="url(#paint11_radial_82_45535)"/>
<path d="M56.053 24.8994L56.0566 23.9546C54.4444 22.4744 53.6843 20.987 53.6843 20.987C53.6843 20.987 54.2768 20.7638 54.5421 20.4265C54.6733 20.239 54.7239 19.983 54.7018 19.8112C54.6505 19.4889 54.3995 19.3256 54.3139 19.2885C54.1285 19.2087 53.7841 19.0275 53.4005 19.5552C52.992 20.1263 53.0996 21.2101 53.1559 21.4597C53.1559 21.4597 53.9075 22.7681 56.053 24.8994Z" fill="url(#paint12_radial_82_45535)"/>
<path d="M54.269 21.1591C54.4865 21.5385 55.0348 22.454 56.4217 23.7539C56.652 23.9699 57.2267 24.1532 57.5526 23.7874C57.6745 23.6455 57.7551 23.4465 57.743 23.2155C57.7273 22.9481 57.5668 22.6372 57.4057 22.5003C57.1262 22.2643 55.9347 21.0614 55.0876 20.1152C55.0641 20.2878 54.9158 20.5766 54.9158 20.5766C54.7988 20.7377 54.6562 20.9695 54.269 21.1591Z" fill="url(#paint13_linear_82_45535)"/>
<path d="M25.0552 24.5704V44.6367L34.6498 50.8016L44.2437 44.6367L44.258 24.6011C43.9506 24.3301 43.3125 23.7362 42.8126 23.4253H26.4427C26.0285 23.7162 25.1985 24.4164 25.0552 24.5704Z" stroke="black" stroke-width="0.5" stroke-miterlimit="3.863"/>
<path d="M41.6842 57.769C40.7423 58.0186 40.0692 58.2297 38.4826 58.4222C38.4826 58.4222 38.5333 58.5826 38.8784 58.5698C39.0103 58.5612 39.0281 58.5284 39.0737 58.5206C39.1757 58.502 39.3233 58.6054 39.3083 58.7773C39.2927 58.8985 39.1914 59.0489 38.8392 59.0489C38.4869 59.0489 38.0769 58.7623 37.8694 58.4942C37.8694 58.4942 37.6591 58.5434 37.4402 58.5541C37.4402 58.5541 38.1183 59.501 39.4502 59.501C40.9127 59.501 41.4574 58.1883 41.6842 57.769Z" fill="url(#paint14_radial_82_45535)"/>
<path d="M9.73633 37.1717C9.73633 34.7509 11.7007 32.7822 14.1244 32.7822C16.5487 32.7822 18.5117 34.7509 18.5117 37.1717C18.5117 39.5967 16.5487 41.5611 14.1244 41.5611C11.7007 41.5611 9.73633 39.5967 9.73633 37.1717Z" fill="#FFE500" stroke="black" stroke-width="0.5" stroke-miterlimit="3.863"/>
<path d="M10.7407 37.0082C10.7407 35.1728 12.2554 33.6802 14.1242 33.6802C15.9935 33.6802 17.507 35.1728 17.507 37.0082C17.507 38.8468 15.9935 40.3361 14.1242 40.3361C12.2554 40.3361 10.7407 38.8468 10.7407 37.0082Z" fill="url(#paint15_radial_82_45535)"/>
<path d="M15.0564 40.1883C14.8639 40.2496 14.7805 40.1148 14.6927 40.0179C14.3512 39.625 14.2635 38.579 14.2635 38.4406C14.2635 38.3016 14.3148 38.149 14.4125 38.1454C15.2361 38.1298 15.8243 37.8909 16.3641 37.4424C16.9032 37.0017 17.137 36.4962 17.1848 36.4063C17.2319 36.3065 17.3438 36.3244 17.3645 36.4627C17.3873 36.5782 17.4308 36.7857 17.4308 37.0103C17.4308 38.5177 16.4147 39.7491 15.0564 40.1883ZM14.1872 40.3245C14.1637 40.3245 14.1373 40.3273 14.1152 40.3273C13.5084 40.3273 12.8403 40.0956 12.4445 39.8703C12.0346 39.6471 11.8805 38.5947 11.8805 38.0627C11.8805 36.3308 12.5907 35.2997 12.7062 35.0972C12.8189 34.8919 13.0727 34.8705 13.2588 34.9204C13.4514 34.976 13.5198 35.0095 13.7416 35.0751C13.8571 35.1129 14.0917 35.1607 14.2678 35.1921C14.4439 35.2341 14.6336 35.2712 14.5195 35.5999C14.4068 35.9293 14.0232 36.7208 13.9847 37.6592C13.9476 38.5084 14.0603 39.3519 14.2521 39.8703C14.3783 40.2054 14.3783 40.3309 14.1872 40.3245ZM11.6802 36.3707C11.5183 36.2851 11.3237 35.8673 11.2581 35.7454C11.2138 35.6577 11.2138 35.4067 11.2773 35.2997C11.5483 34.8256 11.9326 34.3863 12.4274 34.1574C12.488 34.1311 12.5729 34.1261 12.5729 34.2715C12.5729 34.3492 12.615 34.4705 12.6164 34.5475C12.6164 34.6252 12.6492 34.7842 12.5508 34.9097C12.4474 35.0359 12.0046 35.821 11.8912 36.2609C11.8727 36.3593 11.8427 36.4627 11.6802 36.3707ZM11.5889 39.1501C11.1297 38.6966 10.8024 37.8752 10.8024 37.0103C10.8024 36.6745 10.8523 36.3529 10.9415 36.0477C10.9415 36.0477 11.0235 35.9108 11.0948 36.027C11.1497 36.1126 11.2253 36.1989 11.2866 36.3129C11.355 36.427 11.7101 36.6973 11.6802 36.9176C11.5561 37.7269 11.6673 38.8022 11.7058 38.9833C11.7401 39.1622 11.6909 39.2385 11.5889 39.1501ZM13.0385 33.8751C13.3786 33.7624 13.7416 33.699 14.1152 33.699C14.6835 33.699 15.2354 33.8023 15.696 34.0961C15.8144 34.1731 15.8479 34.263 15.8479 34.3963C15.8479 34.8305 15.1691 34.976 14.7198 34.976C14.2678 34.976 13.7116 34.797 13.318 34.6723C12.9258 34.5496 12.8403 34.3229 12.8403 34.2195C12.8403 34.1204 12.9166 33.915 13.0385 33.8751ZM16.1031 34.3578C16.1637 34.407 16.3242 34.5368 16.3242 34.5368C16.6408 34.8256 16.9267 35.155 17.0928 35.55C17.3003 36.0477 16.6565 36.8014 16.4675 36.9754C15.6147 37.7761 15.0806 37.7611 14.7783 37.8046C14.476 37.8488 14.2799 37.6592 14.2877 37.4317C14.307 36.7657 14.7812 35.6177 14.9174 35.4017C15.0043 35.2626 15.1555 35.1764 15.1555 35.1764C15.4721 35.0887 15.7794 34.9568 15.9384 34.7756C16.0939 34.5917 16.1031 34.3578 16.1031 34.3578ZM14.148 33.4829C12.1094 33.4829 10.4587 35.1343 10.4587 37.1714C10.4587 39.21 12.1094 40.8607 14.148 40.8607C16.1851 40.8607 17.8394 39.21 17.8394 37.1714C17.8394 35.1343 16.1851 33.4829 14.148 33.4829Z" fill="#DA020E"/>
<path d="M50.8799 37.1631C50.8799 34.7423 52.8443 32.7808 55.2679 32.7808C57.6929 32.7808 59.6559 34.7423 59.6559 37.1631C59.6559 39.5881 57.6929 41.5532 55.2679 41.5532C52.8443 41.5532 50.8799 39.5881 50.8799 37.1631Z" fill="#FFE500" stroke="black" stroke-width="0.5" stroke-miterlimit="3.863"/>
<path d="M57.8377 39.1351C57.7414 39.23 57.6872 39.1472 57.7279 38.9697C57.7614 38.7936 57.8734 37.7148 57.7486 36.9055C57.7179 36.6859 58.0751 36.4163 58.1407 36.3008C58.2063 36.1874 58.2812 36.099 58.334 36.0163C58.4074 35.8965 58.4851 36.0306 58.4851 36.0306C58.5793 36.3393 58.6249 36.6623 58.6249 36.9967C58.6249 37.8645 58.2933 38.6831 57.8377 39.1351ZM57.5404 36.2495C57.4263 35.811 56.9806 35.0223 56.8801 34.8969C56.7788 34.7756 56.8109 34.6145 56.8123 34.5368C56.8123 34.4598 56.8566 34.3364 56.8566 34.2565C56.8566 34.1175 56.9407 34.1204 57.0006 34.1467C57.4983 34.3756 57.8805 34.8084 58.1543 35.2869C58.2149 35.396 58.2163 35.6455 58.1714 35.7304C58.1072 35.853 57.914 36.2709 57.7486 36.3593C57.5831 36.4498 57.5589 36.3443 57.5404 36.2495ZM56.9863 39.8582C56.5899 40.0799 55.9218 40.3138 55.3121 40.3138H55.2415C55.054 40.3188 55.0497 40.1883 55.1781 39.8546C55.3642 39.3405 55.4804 38.4934 55.4419 37.6463C55.4034 36.7037 55.0248 35.9208 54.9071 35.5892C54.793 35.2605 54.9834 35.2206 55.1617 35.1835C55.3385 35.1486 55.5724 35.0972 55.6886 35.0601C55.9068 34.9938 55.9774 34.9603 56.1699 34.9054C56.3574 34.8569 56.6098 34.8812 56.7246 35.0815C56.8373 35.2869 57.5489 36.3244 57.5489 38.052C57.5489 38.5811 57.3935 39.6321 56.9863 39.8582ZM54.3745 40.1747C53.0126 39.7334 51.9986 38.5027 51.9986 36.9967C51.9986 36.775 52.0421 36.5696 52.06 36.4498C52.0863 36.3115 52.1904 36.2887 52.2425 36.3907C52.2903 36.4834 52.527 36.9882 53.0632 37.4303C53.6065 37.8752 54.1891 38.1184 55.0176 38.1355C55.1182 38.1405 55.1652 38.2881 55.1652 38.4299C55.1652 38.5704 55.0804 39.6143 54.7403 40.0043C54.6497 40.1042 54.5627 40.2411 54.3745 40.1747ZM52.3395 35.5386C52.5013 35.1436 52.7887 34.8084 53.1053 34.5261C53.1053 34.5261 53.2621 34.3934 53.3227 34.3471C53.3227 34.3471 53.3356 34.5831 53.4932 34.7599C53.65 34.9382 53.9545 35.078 54.2711 35.1614C54.2711 35.1614 54.4201 35.2519 54.5092 35.391C54.6497 35.6006 55.1203 36.7472 55.141 37.4181C55.1467 37.6463 54.9527 37.836 54.6497 37.7925C54.346 37.7518 53.8133 37.7611 52.9612 36.9647C52.773 36.79 52.1291 36.0377 52.3395 35.5386ZM53.7313 34.084C54.1984 33.7888 54.7431 33.6854 55.3121 33.6854C55.6886 33.6854 56.0465 33.7496 56.3895 33.8622C56.5157 33.9015 56.5899 34.1047 56.5899 34.2066C56.5899 34.3072 56.5064 34.5368 56.1114 34.6601C55.7178 34.7813 55.1638 34.9624 54.7125 34.9624C54.2583 34.9624 53.5816 34.8148 53.5816 34.3827C53.5816 34.2523 53.6144 34.1574 53.7313 34.084ZM55.2772 33.4736C53.2407 33.4736 51.5894 35.1257 51.5894 37.1579C51.5894 39.2014 53.2407 40.8471 55.2772 40.8471C57.3172 40.8471 58.9686 39.2014 58.9686 37.1579C58.9686 35.1257 57.3172 33.4736 55.2772 33.4736Z" fill="#DA020E"/>
<path d="M51.9346 36.992C51.9346 35.1567 53.4492 33.6641 55.318 33.6641C57.1873 33.6641 58.7009 35.1567 58.7009 36.992C58.7009 38.8307 57.1873 40.32 55.318 40.32C53.4492 40.32 51.9346 38.8307 51.9346 36.992Z" fill="url(#paint16_radial_82_45535)"/>
<defs>
<filter id="filter0_f_82_45535" x="17.8723" y="10.2371" width="33.5685" height="47.936" filterUnits="userSpaceOnUse" color-interpolation-filters="sRGB">
<feFlood flood-opacity="0" result="BackgroundImageFix"/>
<feBlend mode="normal" in="SourceGraphic" in2="BackgroundImageFix" result="shape"/>
<feGaussianBlur stdDeviation="3.09142" result="effect1_foregroundBlur_82_45535"/>
</filter>
<radialGradient id="paint0_radial_82_45535" cx="0" cy="0" r="1" gradientUnits="userSpaceOnUse" gradientTransform="translate(34.7709 59.2272) scale(1.71938 1.27814)">
<stop stop-color="#FFE500"/>
<stop offset="0.5" stop-color="#FFE500"/>
<stop offset="1" stop-color="#E15007"/>
</radialGradient>
<radialGradient id="paint1_radial_82_45535" cx="0" cy="0" r="1" gradientUnits="userSpaceOnUse" gradientTransform="translate(30.0478 58.635) scale(1.8181 1.63472)">
<stop stop-color="#FFE500"/>
<stop offset="0.5" stop-color="#FFE500"/>
<stop offset="1" stop-color="#E15007"/>
</radialGradient>
<linearGradient id="paint2_linear_82_45535" x1="34.1547" y1="30.9802" x2="34.1547" y2="40.5251" gradientUnits="userSpaceOnUse">
<stop stop-color="#8F0904"/>
<stop offset="0.249601" stop-color="#B40509"/>
<stop offset="1" stop-color="#DA020E"/>
</linearGradient>
<radialGradient id="paint3_radial_82_45535" cx="0" cy="0" r="1" gradientUnits="userSpaceOnUse" gradientTransform="translate(29.1885 11.8416) scale(2.07863 1.97916)">
<stop stop-color="#FFE500"/>
<stop offset="0.5" stop-color="#FFE500"/>
<stop offset="1" stop-color="#E15007"/>
</radialGradient>
<radialGradient id="paint4_radial_82_45535" cx="0" cy="0" r="1" gradientUnits="userSpaceOnUse" gradientTransform="translate(14.0786 22.3928) rotate(-60.273) scale(3.24352 2.85326)">
<stop stop-color="#FFE500"/>
<stop offset="0.5" stop-color="#FFE500"/>
<stop offset="1" stop-color="#E15007"/>
</radialGradient>
<linearGradient id="paint5_linear_82_45535" x1="13.6427" y1="21.1023" x2="14.4312" y2="21.969" gradientUnits="userSpaceOnUse">
<stop stop-color="#FFE500"/>
<stop offset="0.5" stop-color="#FFE500"/>
<stop offset="1" stop-color="#E15007"/>
</linearGradient>
<linearGradient id="paint6_linear_82_45535" x1="15.4337" y1="42.6148" x2="20.8798" y2="48.8657" gradientUnits="userSpaceOnUse">
<stop stop-color="#740703"/>
<stop offset="1" stop-color="#DA020E" stop-opacity="0"/>
</linearGradient>
<linearGradient id="paint7_linear_82_45535" x1="53.7804" y1="42.6148" x2="48.3342" y2="48.8657" gradientUnits="userSpaceOnUse">
<stop stop-color="#740703"/>
<stop offset="1" stop-color="#DA020E" stop-opacity="0"/>
</linearGradient>
<linearGradient id="paint8_linear_82_45535" x1="55.8012" y1="31.112" x2="52.8538" y2="28.3387" gradientUnits="userSpaceOnUse">
<stop stop-color="#740703"/>
<stop offset="1" stop-color="#DA020E" stop-opacity="0"/>
</linearGradient>
<linearGradient id="paint9_linear_82_45535" x1="13.5055" y1="31.112" x2="16.6263" y2="27.8187" gradientUnits="userSpaceOnUse">
<stop stop-color="#740703"/>
<stop offset="1" stop-color="#DA020E" stop-opacity="0"/>
</linearGradient>
<radialGradient id="paint10_radial_82_45535" cx="0" cy="0" r="1" gradientUnits="userSpaceOnUse" gradientTransform="translate(40.1181 11.8416) rotate(180) scale(2.07863 1.97916)">
<stop stop-color="#FFE500"/>
<stop offset="0.5" stop-color="#FFE500"/>
<stop offset="1" stop-color="#E15007"/>
</radialGradient>
<radialGradient id="paint11_radial_82_45535" cx="0" cy="0" r="1" gradientUnits="userSpaceOnUse" gradientTransform="translate(34.6534 10.8787) scale(1.57038 1.50101)">
<stop stop-color="#FFE500"/>
<stop offset="0.5" stop-color="#FFE500"/>
<stop offset="1" stop-color="#E15007"/>
</radialGradient>
<radialGradient id="paint12_radial_82_45535" cx="0" cy="0" r="1" gradientUnits="userSpaceOnUse" gradientTransform="translate(55.2282 22.3928) rotate(-119.727) scale(3.24352 2.85326)">
<stop stop-color="#FFE500"/>
<stop offset="0.5" stop-color="#FFE500"/>
<stop offset="1" stop-color="#E15007"/>
</radialGradient>
<linearGradient id="paint13_linear_82_45535" x1="55.6642" y1="21.1023" x2="54.8757" y2="21.969" gradientUnits="userSpaceOnUse">
<stop stop-color="#FFE500"/>
<stop offset="0.5" stop-color="#FFE500"/>
<stop offset="1" stop-color="#E15007"/>
</linearGradient>
<radialGradient id="paint14_radial_82_45535" cx="0" cy="0" r="1" gradientUnits="userSpaceOnUse" gradientTransform="translate(39.5622 58.635) rotate(180) scale(1.8181 1.63472)">
<stop stop-color="#FFE500"/>
<stop offset="0.5" stop-color="#FFE500"/>
<stop offset="1" stop-color="#E15007"/>
</radialGradient>
<radialGradient id="paint15_radial_82_45535" cx="0" cy="0" r="1" gradientUnits="userSpaceOnUse" gradientTransform="translate(14.1239 37.0082) scale(3.38316 3.32799)">
<stop stop-color="#DA030E" stop-opacity="0"/>
<stop offset="0.875" stop-color="#DA020E" stop-opacity="0"/>
<stop offset="1" stop-color="#DA020E"/>
</radialGradient>
<radialGradient id="paint16_radial_82_45535" cx="0" cy="0" r="1" gradientUnits="userSpaceOnUse" gradientTransform="translate(55.3177 36.9921) scale(3.38316 3.32799)">
<stop stop-color="#DA030E" stop-opacity="0"/>
<stop offset="0.875" stop-color="#DA020E" stop-opacity="0"/>
<stop offset="1" stop-color="#DA020E"/>
</radialGradient>
</defs>
</svg>
