<svg width="70" height="70" viewBox="0 0 70 70" fill="none" xmlns="http://www.w3.org/2000/svg">
<g clip-path="url(#clip0_82_45319)">
<path fill-rule="evenodd" clip-rule="evenodd" d="M46.3725 16.6681C43.3851 11.9565 39.2401 9.03216 34.5965 9C25.3095 9.0475 18 20.7211 18 35.0073C18 42.1417 19.8308 48.637 22.8197 53.3464C25.8081 58.056 29.9529 60.9826 34.5965 61C39.24 60.9826 43.3851 58.056 46.3725 53.3464C49.3617 48.637 51.1931 42.1417 51.1931 35.0073C51.1931 27.8708 49.3617 21.3775 46.3725 16.6681Z" fill="#1F211D"/>
<path fill-rule="evenodd" clip-rule="evenodd" d="M49.3862 25.0639C48.5663 21.9962 47.3773 19.2418 45.9149 16.9432C44.4373 14.6412 42.702 12.7798 40.7903 11.496C38.8783 10.2303 36.7981 9.52588 34.5966 9.52588C32.3952 9.52588 30.3149 10.2303 28.4029 11.496C26.4912 12.7798 24.7559 14.6412 23.2783 16.9432C21.8159 19.2418 20.627 21.9962 19.807 25.0639C18.9879 28.1147 18.5376 31.4793 18.5376 35.0157C18.5376 42.0574 20.3546 48.4571 23.2783 53.0579C24.7559 55.3588 26.4912 57.2193 28.4029 58.5032C30.3149 59.7713 32.3952 60.4741 34.5966 60.4741C36.7981 60.4741 38.8783 59.7713 40.7903 58.5032C42.702 57.2193 44.4373 55.3588 45.9149 53.0579C48.8386 48.4571 50.6556 42.0574 50.6556 35.0157C50.6556 31.4793 50.2053 28.1147 49.3862 25.0639Z" fill="#E21C2A"/>
<path fill-rule="evenodd" clip-rule="evenodd" d="M34.5966 59.0201C26.3868 58.9715 19.9683 48.1761 19.9683 35.0159C19.9683 21.8404 26.3868 11.0429 34.5966 10.9966C42.8065 11.0429 49.2251 21.8404 49.2251 35.0159C49.2251 48.1761 42.8065 58.9715 34.5966 59.0201Z" fill="#1F211D"/>
<path fill-rule="evenodd" clip-rule="evenodd" d="M34.5967 20.8858C40.1076 20.8858 44.886 23.8747 47.345 28.271C46.6859 24.6897 45.5456 21.4799 44.0183 18.8824C41.5935 14.7668 38.2602 12.2658 34.5967 12.249C30.9331 12.2658 27.5998 14.7668 25.175 18.8824C23.6477 21.4799 22.5074 24.6897 21.8484 28.271C24.3073 23.8747 29.0857 20.8858 34.5967 20.8858Z" fill="white"/>
<path fill-rule="evenodd" clip-rule="evenodd" d="M34.5966 49.1296C29.0856 49.1296 24.3229 46.1421 21.8647 41.7446C22.5073 45.3271 23.6476 48.5346 25.1749 51.1185C26.3955 53.167 27.8252 54.8422 29.4318 55.9838C31.0222 57.1414 32.7654 57.7678 34.5966 57.7678C36.4279 57.7678 38.171 57.1414 39.7614 55.9838C41.368 54.8422 42.7978 53.167 44.0182 51.1185C45.5455 48.5346 46.6858 45.3271 47.3284 41.7446C44.8702 46.1421 40.1076 49.1296 34.5966 49.1296Z" fill="white"/>
<path fill-rule="evenodd" clip-rule="evenodd" d="M39.4096 49.2509C38.5124 49.5514 38.0099 50.2344 38.363 51.2336C38.6009 51.9126 39.3152 52.3292 40.1946 52.0376C40.5013 51.9316 40.8358 51.7469 40.9429 51.4003L40.9609 51.4094C41.2555 52.2668 40.9609 52.6176 40.6061 52.7952C40.2553 52.9603 39.9323 52.8758 39.7228 52.6297L39.7204 52.6256L39.1295 53.0238C39.4721 53.5234 40.1141 53.6763 40.822 53.4383C41.6508 53.1611 42.3085 52.3716 41.7557 50.8029C41.5559 50.2292 40.9973 48.7202 39.4096 49.2509ZM40.1621 51.3348C39.8194 51.4476 39.3592 51.4495 39.1456 50.8416C38.9419 50.2617 39.4021 49.9872 39.6319 49.9166C40.0996 49.7621 40.4226 49.9692 40.5881 50.4272C40.7572 50.9122 40.477 51.2279 40.1621 51.3348Z" fill="#1F211D"/>
<path fill-rule="evenodd" clip-rule="evenodd" d="M34.853 19.8356C35.7913 19.8356 36.6382 19.4442 37.2234 18.8182L36.5293 18.1997C36.1138 18.6399 35.5169 18.9186 34.853 18.9186C33.5946 18.9186 32.5734 17.9267 32.5734 16.7005C32.5734 15.4669 33.5946 14.4733 34.853 14.4733C35.5169 14.4733 36.1138 14.7533 36.5293 15.1931L37.2216 14.5712C36.6324 13.9481 35.7913 13.5562 34.853 13.5562C33.0756 13.5562 31.634 14.9631 31.634 16.7005C31.634 18.4301 33.0756 19.8356 34.853 19.8356Z" fill="#1F211D"/>
<path fill-rule="evenodd" clip-rule="evenodd" d="M39.283 17.2956L39.9706 20.7979C40.1344 20.8658 40.2937 20.9299 40.4568 21.0036L41.4311 18.6712L42.4516 22.0465C42.851 22.2977 43.2429 22.574 43.6157 22.8643L41.845 17.0334L41.2921 16.6079L40.4934 18.5311L39.8294 15.4533L39.0613 14.9541L37.4573 20.0787C37.7577 20.1368 38.0547 20.2017 38.351 20.2783L39.283 17.2956Z" fill="#1F211D"/>
<path fill-rule="evenodd" clip-rule="evenodd" d="M27.707 20.2103L30.5037 19.1268L30.859 20.2775C31.1491 20.2008 31.4466 20.1368 31.7441 20.0787L30.1618 14.9541L29.0044 15.6794L25.3574 23.043C25.8159 22.6733 26.3035 22.3296 26.8063 22.0131L27.707 20.2103ZM29.6354 16.33L30.2374 18.2703L28.298 19.0214L29.6354 16.33Z" fill="#1F211D"/>
<path fill-rule="evenodd" clip-rule="evenodd" d="M35.7969 49.9424C34.8529 50.0223 34.1953 50.5619 34.2844 51.6148C34.3481 52.3228 34.9356 52.904 35.8617 52.8251C36.1882 52.8008 36.5535 52.7001 36.7475 52.3963L36.7613 52.4055C36.8302 53.3073 36.4528 53.5793 36.0673 53.6563C35.6864 53.7408 35.3958 53.5846 35.2557 53.2951V53.2883L34.5831 53.5372C34.7857 54.0916 35.3744 54.3928 36.1177 54.3342C36.9872 54.2636 37.8241 53.6563 37.6835 52.005C37.6365 51.3988 37.4716 49.8093 35.7969 49.9424ZM36.0088 52.1352C35.6459 52.1675 35.1978 52.0645 35.1417 51.4214C35.0931 50.8038 35.6053 50.6545 35.8513 50.6384C36.3376 50.5983 36.604 50.8717 36.6461 51.3606C36.6907 51.8729 36.3376 52.1131 36.0088 52.1352Z" fill="#1F211D"/>
<path fill-rule="evenodd" clip-rule="evenodd" d="M32.1862 49.7877C31.352 49.641 30.6218 49.9692 30.4937 50.6992C30.421 51.0916 30.5732 51.3951 30.9202 51.6312C30.1411 51.8008 30.0413 52.3674 30.0019 52.5811C29.8957 53.1652 30.192 53.953 31.4221 54.1706C32.6843 54.3847 33.2224 53.6102 33.3221 53.0725C33.4194 52.5209 33.2128 52.2088 32.7917 51.9224C33.2079 51.8158 33.4306 51.5264 33.4975 51.1594C33.6006 50.5701 33.1714 49.9588 32.1862 49.7877ZM32.3896 52.9505C32.3366 53.2451 32.0389 53.5848 31.5492 53.4963C31.1205 53.4232 30.8334 53.0974 30.9086 52.6813C30.9903 52.2238 31.425 52.0931 31.7691 52.1585C32.2923 52.2402 32.4467 52.6488 32.3896 52.9505ZM32.6157 51.0999C32.5602 51.402 32.2733 51.5867 31.9023 51.5235C31.4971 51.4494 31.3031 51.1327 31.3462 50.8856C31.4033 50.5678 31.702 50.3965 32.1254 50.4671C32.4261 50.5215 32.6735 50.7738 32.6157 51.0999Z" fill="#1F211D"/>
<path fill-rule="evenodd" clip-rule="evenodd" d="M27.6485 49.3708L27.5203 49.3273L27.3383 49.8362L27.3444 49.8379L27.2546 50.0838L27.43 50.1476C27.8932 50.3091 28.2092 50.3091 28.4204 50.2235L27.4665 52.9504L28.3761 53.2508L29.7801 49.2452L28.9536 48.9644C28.8896 49.1502 28.3374 49.596 27.6485 49.3708Z" fill="#1F211D"/>
<path fill-rule="evenodd" clip-rule="evenodd" d="M43.6497 37.019V44.8584C45.9315 42.8708 47.5227 40.1171 48.0049 37.019H43.6497Z" fill="white"/>
<path fill-rule="evenodd" clip-rule="evenodd" d="M35.3445 48.1921C36.4691 48.1289 37.5603 47.9257 38.5889 47.6282V37.019H35.3445V48.1921Z" fill="white"/>
<path fill-rule="evenodd" clip-rule="evenodd" d="M47.9401 32.5594C47.3789 29.6394 45.8438 27.0637 43.6497 25.1719V32.5594H47.9401Z" fill="white"/>
<path fill-rule="evenodd" clip-rule="evenodd" d="M35.3445 32.5592H38.5889V22.3882C37.544 22.0915 36.4691 21.8883 35.3445 21.8252V32.5592Z" fill="white"/>
<path fill-rule="evenodd" clip-rule="evenodd" d="M43.6497 25.1577H43.634C43.6394 25.1622 43.6444 25.1669 43.6497 25.1714V25.1577Z" fill="white"/>
<path fill-rule="evenodd" clip-rule="evenodd" d="M22.6832 41.3523V28.6616C21.6389 30.5568 21.0288 32.7156 21.0288 35.0156C21.0288 37.3004 21.6389 39.4594 22.6832 41.3523Z" fill="#E21C2A"/>
<path fill-rule="evenodd" clip-rule="evenodd" d="M39.2967 22.6226V33.2629H35.3433V36.3145L39.2967 36.3309V47.3931C40.612 46.925 41.8344 46.2499 42.9279 45.4222V36.3309H48.1161C48.1642 35.8915 48.1803 35.4545 48.1803 35.0156C48.1803 34.4218 48.1317 33.8267 48.0513 33.2629H42.9279V24.5938C41.8344 23.7646 40.612 23.0919 39.2967 22.6226Z" fill="#E21C2A"/>
<path fill-rule="evenodd" clip-rule="evenodd" d="M30.2825 47.5338C31.1024 47.8 31.9379 47.9881 32.821 48.1131V21.9023C31.9379 22.0118 31.1024 22.2164 30.2825 22.4826V47.5338Z" fill="#E21C2A"/>
<path fill-rule="evenodd" clip-rule="evenodd" d="M25.2219 44.5447C25.9935 45.2648 26.8291 45.8744 27.7439 46.4086V23.6084C26.8291 24.1247 25.9935 24.7496 25.2219 25.4708V44.5447Z" fill="#E21C2A"/>
</g>
<defs>
<clipPath id="clip0_82_45319">
<rect width="33.1661" height="52" fill="white" transform="translate(18 9)"/>
</clipPath>
</defs>
</svg>
