<svg width="70" height="70" viewBox="0 0 70 70" fill="none" xmlns="http://www.w3.org/2000/svg">
<g clip-path="url(#clip0_82_45433)">
<path d="M34.9994 9C20.6623 9 9 20.6635 9 34.9994C9 49.3354 20.6623 61 34.9994 61C49.3354 61 60.9989 49.3354 60.9989 34.9994C60.9989 20.6635 49.3354 9 34.9994 9Z" fill="#004170"/>
<path d="M34.9634 10.8662C28.5155 10.8662 22.4527 13.3771 17.893 17.9367C13.3334 22.4964 10.8225 28.5592 10.8225 35.0071C10.8225 41.4551 13.3334 47.5167 17.893 52.0775C22.4527 56.6372 28.5155 59.1481 34.9634 59.1481C41.4114 59.1481 47.4742 56.6372 52.0339 52.0775C56.5935 47.5167 59.1044 41.4551 59.1044 35.0071C59.1044 28.5592 56.5935 22.4964 52.0339 17.9367C47.4742 13.3771 41.4114 10.8662 34.9634 10.8662ZM34.9634 11.8224C47.7688 11.8224 58.1482 22.2029 58.1482 35.0071C58.1482 47.8114 47.7688 58.1919 34.9634 58.1919C22.1592 58.1919 11.7787 47.8114 11.7787 35.0071C11.7787 22.2029 22.1592 11.8224 34.9634 11.8224Z" fill="white"/>
<path d="M28.0117 18.3042L28.1137 15.7509L29.7956 17.6793C29.1868 17.857 28.5918 18.0657 28.0117 18.3042ZM28.3694 14.4358C27.9452 14.5723 27.5255 14.7202 27.1128 14.8818L26.6668 21.652C27.0681 21.4066 27.4808 21.1785 27.9039 20.9687L27.9681 19.3911C28.7844 19.0311 29.6351 18.733 30.5133 18.5025L31.5532 19.696C32.0107 19.5974 32.475 19.5172 32.9451 19.4598L28.3694 14.4358ZM46.7223 18.6175C47.6165 18.4077 49.2595 20.0403 49.5736 21.1456C49.835 20.9461 50.4163 20.5196 50.4163 20.5196C49.7215 18.543 46.9562 16.5653 45.6422 17.8035C44.8626 18.5395 45.3052 19.6734 45.9851 20.39L46.6454 21.0848C47.3196 21.7945 47.9078 22.5007 47.3666 22.9467C46.7899 23.4237 45.1768 22.229 44.2068 20.1779L43.3389 20.8326C43.5464 21.3726 44.0142 22.1545 44.6425 22.816C45.3545 23.5659 46.1307 24.0543 46.8254 24.1907C47.3712 24.2985 47.9158 24.2171 48.2746 23.8834C49.1701 23.0534 48.8445 21.8426 47.4377 20.3614L46.8541 19.748C46.2063 19.0658 46.4712 18.6771 46.7223 18.6175ZM20.4962 20.3524L22.1231 18.5673C22.4888 18.166 23.1136 18.1362 23.5161 18.5031C23.9174 18.8688 23.9472 19.4937 23.5803 19.8949L21.9534 21.6812L20.4962 20.3524ZM24.0859 23.6245L22.733 22.392L24.4092 20.5462C25.1682 19.7149 25.1682 18.3758 24.3358 17.618C23.5035 16.859 22.1483 16.9633 21.3904 17.7957L18.9014 20.5336L23.2363 24.4833C23.5081 24.1852 23.7935 23.9009 24.0859 23.6245ZM34.8842 14.5014H37.1038C37.6473 14.5014 38.0898 14.944 38.0898 15.4874C38.0898 16.0309 37.6473 16.4734 37.1038 16.4734H34.8842V14.5014ZM34.8842 19.3363V17.5294H36.3964L37.7012 19.5919C38.2182 19.6859 38.7262 19.804 39.2237 19.9473L37.6599 17.4537C38.5565 17.2141 39.296 16.4241 39.296 15.4874C39.296 14.3615 38.2297 13.4443 37.1038 13.4443H33.6769V19.3867C34.0748 19.3557 34.476 19.3363 34.883 19.3363L34.8842 19.3363ZM41.4952 20.7947L43.7894 15.2766C43.4133 15.108 43.0315 14.951 42.6452 14.8042L40.3521 20.3189C40.7408 20.4622 41.1214 20.6216 41.4952 20.7947Z" fill="white"/>
<path d="M39.5843 34.8358C37.5079 31.1933 36.28 26.8927 36.1883 21.863C35.7905 21.8274 35.388 21.8057 34.981 21.8057C34.5706 21.8057 34.1659 21.8274 33.7646 21.8641C33.6729 26.8927 32.445 31.1933 30.3686 34.8358H39.5843ZM39.8886 35.3536H30.0641C28.4361 38.0548 26.3334 40.3857 23.8752 42.3691C24.9381 43.9857 26.3425 45.357 27.9878 46.3785C27.927 46.0277 27.8938 45.6688 27.8938 45.3019C27.8938 41.6423 31.0662 38.6751 34.9803 38.6751C38.8945 38.6751 42.0669 41.6423 42.0669 45.3019C42.0669 45.6688 42.0337 46.0277 41.9729 46.3785C43.6159 45.3581 45.0203 43.9892 46.082 42.3737C43.6216 40.3891 41.5178 38.0571 39.8886 35.3536Z" fill="#E30613"/>
<path d="M36.8558 21.9404C43.3026 22.8519 48.2613 28.3896 48.2613 35.0875C48.2613 37.2326 47.75 39.2573 46.8465 41.0516C40.9947 36.6616 37.4394 30.4751 36.8558 21.9404ZM41.9727 46.3783C42.0335 46.0275 42.0667 45.6686 42.0667 45.3017C42.0667 41.6421 38.8943 38.6749 34.9801 38.6749C31.0659 38.6749 27.8935 41.6421 27.8935 45.3017C27.8935 45.6686 27.9268 46.0275 27.9887 46.3783C26.3423 45.3568 24.9378 43.9855 23.8762 42.369C26.3331 40.3855 28.4358 38.0546 30.0639 35.3535H39.8883C41.5175 38.0569 43.6214 40.3889 46.0818 42.3735C45.0201 43.989 43.6168 45.3579 41.9727 46.3783ZM39.7462 47.4835C38.266 48.0534 36.6609 48.3687 34.9801 48.3687C33.3005 48.3687 31.6954 48.0534 30.2152 47.4835C29.6752 46.6638 29.3622 45.6961 29.3622 44.6574C29.3622 41.7109 31.8777 39.3215 34.9801 39.3215C38.0837 39.3215 40.5992 41.7109 40.5992 44.6574C40.5992 45.6961 40.2862 46.6638 39.7462 47.4835ZM21.6989 35.0875C21.6989 28.3884 26.6599 22.8508 33.1079 21.9404C32.5243 30.4751 28.9678 36.6628 23.1149 41.0528C22.2114 39.2585 21.6989 37.2337 21.6989 35.0875ZM34.9801 21.8063C35.3883 21.8063 35.7896 21.8269 36.1885 21.8636C36.2791 26.8922 37.5082 31.1928 39.5845 34.8352H30.3677C32.4452 31.1928 33.6731 26.8922 33.7648 21.8636C34.165 21.8281 34.5708 21.8063 34.9801 21.8063ZM34.9801 20.8501C27.13 20.8501 20.7439 27.2373 20.7439 35.0875C20.7439 42.9376 27.13 49.3237 34.9801 49.3237C42.8303 49.3237 49.2175 42.9376 49.2175 35.0875C49.2175 27.2373 42.8303 20.8501 34.9801 20.8501Z" fill="white"/>
<path d="M37.1436 43.6962C36.4557 43.6962 35.7942 44.25 35.4112 45.2612C35.4043 45.275 35.3998 45.2921 35.3998 45.3094C35.3986 45.3736 35.4502 45.4263 35.5144 45.4275C35.5603 45.4275 35.5993 45.4022 35.6199 45.3644C35.6199 45.3618 35.621 45.3611 35.621 45.3585C35.6221 45.3585 35.6221 45.3572 35.6221 45.3559C35.9156 44.7219 36.4614 44.4238 36.7709 44.4238C36.9452 44.4238 37.0862 44.5648 37.0862 44.7391C37.0862 44.9133 36.9452 45.0544 36.7709 45.0544C36.7549 45.0544 36.7296 45.0524 36.7147 45.0498C36.701 45.0478 36.6677 45.0395 36.6505 45.0773C36.6379 45.1082 36.6116 45.2596 36.7468 45.4144C36.826 45.5038 36.9888 45.5783 37.1435 45.5783C37.6641 45.5783 38.0848 45.1564 38.0848 44.637C38.0848 44.1165 37.6641 43.6962 37.1436 43.6962ZM34.5191 45.2607C34.135 44.2495 33.4735 43.6958 32.7867 43.6958C32.2662 43.6958 31.8455 44.1177 31.8455 44.637C31.8455 45.1564 32.2662 45.5783 32.7867 45.5783C32.9415 45.5783 33.1043 45.5038 33.1834 45.4144C33.3187 45.2596 33.2924 45.1083 33.2786 45.0784C33.2626 45.0395 33.2293 45.0475 33.2155 45.0498C33.2006 45.0524 33.1754 45.0544 33.1594 45.0544C32.9851 45.0544 32.8441 44.9134 32.8441 44.7391C32.8441 44.566 32.9851 44.425 33.1594 44.425C33.4678 44.425 34.0147 44.7219 34.307 45.3571C34.307 45.3584 34.3081 45.3584 34.3081 45.3597C34.3092 45.361 34.3104 45.3623 34.3104 45.3643C34.3299 45.4021 34.37 45.4285 34.4148 45.4273C34.4801 45.426 34.5317 45.3735 34.5306 45.3092C34.5306 45.2921 34.526 45.2757 34.5191 45.2607ZM35.9048 43.2596C35.9048 42.7173 35.1951 41.0239 34.9807 41.0239C34.9647 41.0239 34.9475 41.0319 34.928 41.048C34.6689 41.2566 34.0555 42.7551 34.0555 43.2596C34.0555 43.6643 34.8729 44.7306 34.8729 45.3107C34.8729 45.3703 34.9211 45.4185 34.9807 45.4185C35.0392 45.4185 35.0885 45.3703 35.0885 45.3107C35.0885 45.3094 35.0873 45.3081 35.0873 45.3074C35.0907 44.7273 35.9048 43.6632 35.9048 43.2596ZM35.4525 46.2406C35.2977 46.1454 35.1796 45.9941 35.1372 45.8129C35.1177 45.7441 35.0558 45.6925 34.9801 45.6925C34.9056 45.6925 34.8426 45.7441 34.8231 45.8129C34.7806 45.9941 34.6626 46.1454 34.5078 46.2406C34.4791 46.2577 34.4768 46.2704 34.4883 46.2921C34.5823 46.479 34.7417 46.7106 34.9366 46.8677C34.9641 46.8894 34.9744 46.8906 34.9801 46.8906C34.987 46.8906 34.9962 46.8893 35.0237 46.8677C35.2198 46.7106 35.378 46.479 35.472 46.2921C35.4835 46.2704 35.4812 46.2577 35.4525 46.2406Z" fill="#CEAB5D"/>
<path d="M32.0642 53.7107L31.2709 53.5364L31.3431 53.2154L32.1353 53.3942L32.0642 53.7107ZM22.2775 47.3326C22.0952 46.6528 21.4062 45.9866 20.8856 45.9866C20.7687 45.9866 20.6655 46.0199 20.5761 46.0864C20.4706 46.1643 20.4087 46.2687 20.3904 46.3948C20.3606 46.5943 20.4408 46.8454 20.6059 47.0644L20.8432 47.3819C21.0267 47.6273 21.2044 47.8841 21.1665 48.087C21.1528 48.1685 21.1069 48.2338 21.0301 48.2831C20.9888 48.3106 20.9407 48.3232 20.8868 48.3232C20.5646 48.3232 20.02 47.75 19.7517 46.9268L19.746 46.9119L19.5122 47.132L19.5076 47.1366L19.5087 47.1412C19.5614 47.3476 19.7013 47.6801 19.9363 47.9953C20.184 48.3255 20.466 48.5548 20.7309 48.6397C20.8169 48.6672 20.9006 48.681 20.9808 48.681C21.0966 48.681 21.1998 48.6511 21.2778 48.595C21.4062 48.4998 21.483 48.3806 21.5036 48.2384C21.5437 47.9759 21.4039 47.6285 21.0897 47.2089L20.8799 46.928C20.7125 46.7044 20.7194 46.5588 20.7549 46.4762C20.787 46.404 20.8535 46.3536 20.9292 46.3444C20.9407 46.3431 20.9533 46.3431 20.9659 46.3431C21.3477 46.3431 21.8888 46.9771 22.0299 47.4689L22.0333 47.4804L22.0447 47.4745C22.1238 47.4286 22.2156 47.3759 22.2729 47.3438L22.2798 47.3392L22.2775 47.3326ZM43.8516 50.2033L43.5662 50.3489L43.518 51.9276L42.2121 51.0391L41.9267 51.1858L42.8989 53.1888L43.1901 53.0592L42.5148 51.6353L42.5205 51.632L43.8149 52.5091L43.8642 50.9475L43.8699 50.9443L44.6278 52.3292L44.9052 52.1722L43.8516 50.2033ZM47.6234 47.2107L49.7674 47.3586L49.7708 47.354L48.5131 46.2224L48.7275 45.9839L50.3831 47.4732L50.1904 47.7117L48.0247 47.5638L48.0201 47.5684L49.2939 48.7149L49.0691 48.9442L47.409 47.4491L47.6234 47.2107ZM46.7405 48.083L48.2608 49.7191L48.0212 49.9312L46.5055 48.3009L46.7405 48.083ZM45.4279 49.6217L45.5918 50.4563L46.1628 50.0504L45.4279 49.6217ZM47.4354 50.4265L47.1557 50.6489L46.4666 50.227L45.656 50.8037L45.8131 51.6108L45.5276 51.7931L45.0575 49.3969L45.3476 49.1917L47.4354 50.4265ZM39.6738 52.3018L39.8629 52.9301L40.8122 52.6446C41.0427 52.5747 41.1378 52.4165 41.0748 52.209C41.0026 51.9671 40.7996 51.9625 40.6231 52.0164L39.6738 52.3018ZM40.5313 51.7091C40.8719 51.6059 41.2514 51.6816 41.3821 52.1161C41.5219 52.5793 41.2559 52.8178 41.0805 52.8866L41.7765 53.6364L41.4394 53.7568L40.748 52.9978L39.9558 53.2363L40.2229 54.1317L39.9168 54.2188L39.2748 52.0875L40.5313 51.7091ZM38.508 52.2705L38.5538 52.5881L37.0657 52.8014L37.1494 53.3804L37.8992 53.2726L37.945 53.5902L37.1952 53.698L37.2915 54.371L38.8347 54.1497L38.8795 54.4661L37.0198 54.7333L36.7034 52.5285L38.508 52.2705ZM35.039 53.617L36.0594 53.6331L36.0502 54.2247C36.0433 54.6248 35.5996 54.8851 35.0413 54.8759C34.4485 54.8656 33.8351 54.4494 33.8478 53.6927C33.8569 53.0575 34.3729 52.5439 35.086 52.5554C35.6168 52.5633 35.892 52.8466 36.0193 52.9738L35.7934 53.1985C35.6856 53.0896 35.5171 52.8833 35.1135 52.8764C34.5219 52.8661 34.1745 53.2467 34.1676 53.7122C34.1596 54.149 34.4978 54.5457 35.0619 54.556C35.4483 54.5619 35.7269 54.3875 35.7292 54.1983L35.7338 53.9495L35.0333 53.938L35.039 53.617ZM30.1449 51.9542L30.0394 52.2569L29.3022 52.0001L28.6682 53.8173L28.3655 53.7118L28.9984 51.8946L28.2612 51.6378L28.3666 51.3351L30.1449 51.9542ZM26.2948 50.3075L26.68 52.4205L26.6857 52.4231L27.4722 50.9258L27.7565 51.0748L26.7212 53.048L26.4404 52.9207L26.0517 50.7825L26.0471 50.7799L25.2468 52.3001L24.9717 52.1396L26.0116 50.1584L26.2948 50.3075ZM25.3174 49.6854L24.07 51.5771L23.8017 51.4017L25.0491 49.51L25.3174 49.6854ZM23.406 48.7461L22.6379 49.1107L23.171 49.5635L23.406 48.7461ZM23.1182 50.9118L22.8328 50.6974L23.0747 49.9017L22.3168 49.2586L21.5636 49.6163L21.3079 49.3824L23.5321 48.3322L23.8039 48.5626L23.1182 50.9118Z" fill="white"/>
</g>
<defs>
<clipPath id="clip0_82_45433">
<rect width="51.9989" height="52" fill="white" transform="translate(9 9)"/>
</clipPath>
</defs>
</svg>
