<svg width="70" height="70" viewBox="0 0 70 70" fill="none" xmlns="http://www.w3.org/2000/svg">
<path d="M42.7117 23.9617C42.4874 23.9617 42.313 23.7892 42.313 23.5796C42.313 23.3701 42.4874 23.1975 42.7117 23.1975C42.9359 23.1975 43.1104 23.3701 43.1104 23.5796C43.1228 23.7892 42.9359 23.9617 42.7117 23.9617ZM18.9285 41.8338C18.9285 33.2922 26.2291 26.3529 35.1494 26.3529C44.0697 26.3529 51.3703 33.3045 51.3703 41.8338C51.3703 50.3508 44.0697 57.3271 35.1494 57.3271C26.2291 57.3147 18.9285 50.3508 18.9285 41.8338ZM41.5157 18.1934C41.9019 18.292 42.1386 18.6617 42.0389 19.0315C41.9393 19.4013 41.5406 19.6231 41.1544 19.5245C40.7682 19.4259 40.5315 19.0561 40.6311 18.6864C40.7308 18.3166 41.1295 18.0947 41.5157 18.1934ZM42.176 16.8375C42.4002 16.8375 42.5746 17.0101 42.5746 17.2196C42.5746 17.4292 42.4002 17.6017 42.176 17.6017C41.9517 17.6017 41.7773 17.4292 41.7773 17.2196C41.7648 16.9978 41.9517 16.8375 42.176 16.8375ZM41.8396 15.4571C42.0638 15.4571 42.2383 15.6296 42.2383 15.8392C42.2383 16.0487 42.0638 16.2213 41.8396 16.2213C41.6153 16.2213 41.4409 16.0487 41.4409 15.8392C41.4285 15.6296 41.6153 15.4571 41.8396 15.4571ZM46.823 19.0808C47.0472 19.0808 47.2217 19.2534 47.2217 19.4629C47.2217 19.6724 47.0472 19.845 46.823 19.845C46.5987 19.845 46.4243 19.6724 46.4243 19.4629C46.4243 19.2534 46.5987 19.0808 46.823 19.0808ZM46.4866 17.7127C46.7109 17.7127 46.8853 17.8852 46.8853 18.0947C46.8853 18.3043 46.7109 18.4768 46.4866 18.4768C46.2624 18.4768 46.0879 18.3043 46.0879 18.0947C46.0879 17.8852 46.2624 17.7127 46.4866 17.7127ZM45.8886 16.5047C46.1128 16.5047 46.2873 16.6773 46.2873 16.8868C46.2873 17.0964 46.1004 17.2689 45.8886 17.2689C45.6643 17.2689 45.4899 17.0964 45.4899 16.8868C45.4775 16.6773 45.6643 16.5047 45.8886 16.5047ZM44.9293 15.4324C45.1535 15.4324 45.328 15.605 45.328 15.8145C45.328 16.024 45.1535 16.1966 44.9293 16.1966C44.705 16.1966 44.5306 16.024 44.5306 15.8145C44.5306 15.605 44.705 15.4324 44.9293 15.4324ZM43.7582 14.6189C43.9825 14.6189 44.1569 14.7915 44.1569 15.001C44.1569 15.2106 43.9825 15.3831 43.7582 15.3831C43.5339 15.3831 43.3595 15.2106 43.3595 15.001C43.3595 14.7915 43.5339 14.6189 43.7582 14.6189ZM42.4874 14.1382C42.7117 14.1382 42.8861 14.3108 42.8861 14.5203C42.8861 14.7299 42.7117 14.9024 42.4874 14.9024C42.2632 14.9024 42.0888 14.7299 42.0888 14.5203C42.0888 14.3108 42.2756 14.1382 42.4874 14.1382ZM41.2042 14.2492C41.4285 14.2492 41.6029 14.4217 41.6029 14.6313C41.6029 14.8408 41.4285 15.0133 41.2042 15.0133C40.98 15.0133 40.8055 14.8408 40.8055 14.6313C40.8055 14.4217 40.98 14.2492 41.2042 14.2492ZM40.2574 13.2015C40.4816 13.2015 40.656 13.374 40.656 13.5836C40.656 13.7931 40.4692 13.9657 40.2574 13.9657C40.0331 13.9657 39.8587 13.7931 39.8587 13.5836C39.8587 13.374 40.0331 13.2015 40.2574 13.2015ZM39.024 12.425C39.2482 12.425 39.4227 12.5975 39.4227 12.8071C39.4227 13.0166 39.2482 13.1892 39.024 13.1892C38.7997 13.1892 38.6253 13.0166 38.6253 12.8071C38.6253 12.5975 38.7997 12.425 39.024 12.425ZM37.7408 11.9689C37.965 11.9689 38.1394 12.1415 38.1394 12.351C38.1394 12.5606 37.965 12.7331 37.7408 12.7331C37.5165 12.7331 37.3421 12.5606 37.3421 12.351C37.3421 12.1415 37.5165 11.9689 37.7408 11.9689ZM36.4326 11.7471C36.6569 11.7471 36.8313 11.9196 36.8313 12.1292C36.8313 12.3387 36.6569 12.5113 36.4326 12.5113C36.2084 12.5113 36.0339 12.3387 36.0339 12.1292C36.0215 11.9196 36.2084 11.7471 36.4326 11.7471ZM23.9866 21.8664C23.6378 22.0513 23.2017 21.928 23.0024 21.5952C22.9563 21.5157 22.9272 21.4277 22.9167 21.3367C22.9063 21.2456 22.9147 21.1534 22.9415 21.0657C22.9684 20.978 23.013 20.8967 23.0728 20.8266C23.1325 20.7566 23.2061 20.6994 23.2889 20.6585C23.6378 20.4736 24.0738 20.5968 24.2732 20.9296C24.46 21.2624 24.3354 21.6815 23.9866 21.8664ZM29.1444 19.5245C28.7582 19.6231 28.3595 19.4013 28.2599 19.0315C28.1602 18.6617 28.3969 18.2796 28.7831 18.1934C29.1693 18.0947 29.568 18.3166 29.6677 18.6864C29.7673 19.0561 29.5306 19.4382 29.1444 19.5245ZM35.1494 18.7973C35.0561 18.7989 34.9635 18.7824 34.8767 18.7486C34.7899 18.7148 34.7107 18.6644 34.6436 18.6003C34.5765 18.5362 34.5228 18.4596 34.4856 18.375C34.4484 18.2904 34.4284 18.1993 34.4268 18.1071C34.4268 17.725 34.7507 17.4168 35.1494 17.4168C35.5481 17.4168 35.872 17.725 35.872 18.1071C35.872 18.4892 35.5481 18.7973 35.1494 18.7973ZM28.1353 17.6017C27.911 17.6017 27.7366 17.4292 27.7366 17.2196C27.7366 17.0101 27.911 16.8375 28.1353 16.8375C28.3595 16.8375 28.5339 17.0101 28.5339 17.2196C28.5339 17.4292 28.3471 17.6017 28.1353 17.6017ZM28.4717 16.2213C28.2474 16.2213 28.073 16.0487 28.073 15.8392C28.073 15.6296 28.2474 15.4571 28.4717 15.4571C28.6959 15.4571 28.8703 15.6296 28.8703 15.8392C28.8703 16.0487 28.6835 16.2213 28.4717 16.2213ZM23.4758 19.8573C23.2516 19.8573 23.0771 19.6847 23.0771 19.4752C23.0771 19.2657 23.2516 19.0931 23.4758 19.0931C23.7001 19.0931 23.8745 19.2657 23.8745 19.4752C23.8869 19.6847 23.7001 19.8573 23.4758 19.8573ZM23.8122 18.4768C23.5879 18.4768 23.4135 18.3043 23.4135 18.0947C23.4135 17.8852 23.6004 17.7127 23.8122 17.7127C24.0364 17.7127 24.2109 17.8852 24.2109 18.0947C24.2233 18.3043 24.0364 18.4768 23.8122 18.4768ZM24.4102 17.2689C24.1859 17.2689 24.0115 17.0964 24.0115 16.8868C24.0115 16.6773 24.1859 16.5047 24.4102 16.5047C24.6344 16.5047 24.8089 16.6773 24.8089 16.8868C24.8213 17.0964 24.6344 17.2689 24.4102 17.2689ZM25.3695 16.1966C25.1452 16.1966 24.9708 16.024 24.9708 15.8145C24.9708 15.605 25.1452 15.4324 25.3695 15.4324C25.5937 15.4324 25.7682 15.605 25.7682 15.8145C25.7682 16.024 25.5937 16.1966 25.3695 16.1966ZM26.5406 15.3831C26.3163 15.3831 26.1419 15.2106 26.1419 15.001C26.1419 14.7915 26.3163 14.6189 26.5406 14.6189C26.7648 14.6189 26.9393 14.7915 26.9393 15.001C26.9517 15.2106 26.7648 15.3831 26.5406 15.3831ZM27.8114 14.9147C27.5871 14.9147 27.4127 14.7422 27.4127 14.5327C27.4127 14.3231 27.5871 14.1506 27.8114 14.1506C28.0356 14.1506 28.21 14.3231 28.21 14.5327C28.21 14.7422 28.0356 14.9147 27.8114 14.9147ZM29.0946 15.0133C28.8703 15.0133 28.6959 14.8408 28.6959 14.6313C28.6959 14.4217 28.8703 14.2492 29.0946 14.2492C29.3188 14.2492 29.4932 14.4217 29.4932 14.6313C29.5057 14.8408 29.3188 15.0133 29.0946 15.0133ZM30.0414 13.978C29.8172 13.978 29.6428 13.8054 29.6428 13.5959C29.6428 13.3864 29.8296 13.2138 30.0414 13.2138C30.2657 13.2138 30.4401 13.3864 30.4401 13.5959C30.4401 13.8054 30.2657 13.978 30.0414 13.978ZM31.2748 13.1892C31.0506 13.1892 30.8761 13.0166 30.8761 12.8071C30.8761 12.5975 31.0506 12.425 31.2748 12.425C31.4991 12.425 31.6735 12.5975 31.6735 12.8071C31.6735 13.0166 31.4991 13.1892 31.2748 13.1892ZM32.558 12.7331C32.3338 12.7331 32.1594 12.5606 32.1594 12.351C32.1594 12.1415 32.3462 11.9689 32.558 11.9689C32.7823 11.9689 32.9567 12.1415 32.9567 12.351C32.9567 12.5606 32.7823 12.7331 32.558 12.7331ZM35.1494 16.5047C34.9251 16.5047 34.7507 16.3322 34.7507 16.1227C34.7507 15.9131 34.9376 15.7406 35.1494 15.7406C35.3736 15.7406 35.5481 15.9131 35.5481 16.1227C35.5481 16.3322 35.3736 16.5047 35.1494 16.5047ZM35.1494 15.112C34.9251 15.112 34.7507 14.9394 34.7507 14.7299C34.7507 14.5203 34.9376 14.3478 35.1494 14.3478C35.3736 14.3478 35.5481 14.5203 35.5481 14.7299C35.5481 14.9394 35.3736 15.112 35.1494 15.112ZM35.1494 13.7192C34.9251 13.7192 34.7507 13.5466 34.7507 13.3371C34.7507 13.1275 34.9376 12.955 35.1494 12.955C35.3736 12.955 35.5481 13.1275 35.5481 13.3371C35.5481 13.5466 35.3736 13.7192 35.1494 13.7192ZM33.8786 12.5113C33.6544 12.5113 33.4675 12.3387 33.4675 12.1292C33.4675 11.9196 33.6544 11.7471 33.8786 11.7471C34.1029 11.7471 34.2773 11.9196 34.2773 12.1292C34.2773 12.351 34.0904 12.5113 33.8786 12.5113ZM47.0099 20.6585C47.3587 20.8434 47.4833 21.2624 47.2964 21.5952C47.1095 21.928 46.661 22.0513 46.3122 21.8664C46.2304 21.8243 46.158 21.7664 46.0992 21.6963C46.0403 21.6261 45.9963 21.545 45.9696 21.4577C45.9429 21.3704 45.9341 21.2787 45.9437 21.1881C45.9533 21.0974 45.9812 21.0095 46.0256 20.9296C46.225 20.5968 46.661 20.4736 47.0099 20.6585ZM37.7283 22.6799C37.504 22.6799 37.3296 22.5073 37.3296 22.2978C37.3296 22.0882 37.504 21.9157 37.7283 21.9157C37.9526 21.9157 38.127 22.0882 38.127 22.2978C38.1394 22.5073 37.9526 22.6799 37.7283 22.6799ZM27.5871 23.9617C27.3629 23.9617 27.1884 23.7892 27.1884 23.5796C27.1884 23.3701 27.3753 23.1975 27.5871 23.1975C27.8114 23.1975 27.9858 23.3701 27.9858 23.5796C27.9858 23.7892 27.8114 23.9617 27.5871 23.9617ZM32.5705 22.6799C32.3462 22.6799 32.1718 22.5073 32.1718 22.2978C32.1718 22.0882 32.3587 21.9157 32.5705 21.9157C32.7947 21.9157 32.9692 22.0882 32.9692 22.2978C32.9692 22.5073 32.7947 22.6799 32.5705 22.6799Z" fill="white"/>
<path d="M38.1395 19.9066C38.2516 20.1408 38.3762 20.3134 38.5382 20.4613C38.1644 20.412 37.8031 20.3627 37.4294 20.3257C37.6412 20.2148 37.8156 20.0669 37.9651 19.882C38.0149 19.8943 38.0772 19.9066 38.1395 19.9066ZM32.1594 19.9066C32.2217 19.9066 32.284 19.8943 32.3463 19.882C32.4834 20.0669 32.6702 20.2148 32.8696 20.3257C32.4958 20.3627 32.1221 20.3996 31.7608 20.4613C31.9352 20.301 32.0722 20.1162 32.1594 19.9066ZM30.0041 20.7817C29.6802 20.8557 29.3563 20.9297 29.0324 21.0159C29.2068 20.8064 29.3189 20.5476 29.3438 20.2764C29.5182 20.4983 29.7425 20.6708 30.0041 20.7817ZM26.304 21.9403C26.4036 21.7924 26.4659 21.6199 26.5157 21.4597L26.5656 21.4473C26.6652 21.4227 26.7525 21.3857 26.8272 21.3364C26.9767 21.435 27.1511 21.509 27.3255 21.5583C26.9892 21.6692 26.6403 21.8048 26.304 21.9403ZM35.1495 19.5738C35.2491 19.8327 35.436 20.0545 35.6603 20.2271C35.4858 20.2271 35.3239 20.2148 35.1495 20.2148C34.9875 20.2148 34.8131 20.2148 34.6387 20.2271C34.8754 20.0545 35.0498 19.8327 35.1495 19.5738ZM43.4717 21.3241C43.5465 21.3734 43.6461 21.4103 43.7334 21.435L43.7832 21.4473C43.8206 21.6199 43.8953 21.7801 43.995 21.928C43.6586 21.7924 43.3098 21.6569 42.9609 21.5336C43.1478 21.4966 43.3222 21.4227 43.4717 21.3241ZM41.2666 21.0159C40.9427 20.9297 40.6187 20.8557 40.2948 20.7817C40.5564 20.6708 40.7807 20.4983 40.9427 20.2764C40.98 20.5476 41.0922 20.8064 41.2666 21.0159ZM42.5249 18.0085C42.799 17.8976 42.9983 17.6634 43.0606 17.3799C43.4966 17.4785 43.9825 17.5894 44.3812 17.7496C44.755 17.8852 45.054 18.0824 45.2657 18.255C45.4775 18.785 45.6021 19.4013 45.6769 20.1531C45.4153 20.2641 45.2408 20.5229 45.1412 20.7817C44.9792 21.1762 44.9792 21.5829 45.4277 21.891C45.3281 21.8986 45.228 21.8852 45.1339 21.8517C45.0399 21.8182 44.9542 21.7653 44.8824 21.6966C44.8105 21.6279 44.7543 21.5448 44.7173 21.453C44.6803 21.3612 44.6634 21.2626 44.6677 21.1638C44.7536 21.0676 44.8174 20.954 44.8546 20.831C44.9792 20.3627 44.6927 19.8943 44.2068 19.7834C43.7209 19.6601 43.235 19.9436 43.1104 20.3997C43.098 20.449 43.0855 20.4983 43.0855 20.5476C42.6744 21.0283 41.8521 20.7817 41.8148 20.1531C42.5747 20.301 42.8986 19.9313 43.0232 19.4383C43.1354 19.0315 43.0855 18.6124 42.5996 18.3659C42.5747 18.2303 42.5623 18.1071 42.5249 18.0085Z" fill="#E62644"/>
<path d="M29.6802 16.3073C31.1254 15.5432 33.0066 15.4076 34.4643 15.6171V15.7157C34.3585 15.8726 34.3177 16.0636 34.3501 16.2493C34.3826 16.4351 34.4859 16.6015 34.6387 16.7141C34.3646 16.8004 34.1528 16.9976 34.078 17.3427C33.5299 17.466 33.3804 17.8604 33.3804 18.2794C33.3804 18.7848 33.5922 19.2162 34.3646 19.2532C34.2774 19.5367 34.0033 19.7339 33.6794 19.7339C33.3679 19.7339 33.0938 19.5367 33.0066 19.2655C33.0315 19.1915 33.0315 19.1176 33.0315 19.0436C33.0315 18.5629 32.6204 18.1808 32.1221 18.1808C31.6237 18.1808 31.2126 18.5629 31.2126 19.0436C31.2126 19.1915 31.25 19.3394 31.3247 19.4504C31.3135 19.5975 31.2557 19.7375 31.1595 19.8503C31.0634 19.9631 30.9337 20.0431 30.789 20.079C30.4775 20.1529 30.1661 20.0297 30.0041 19.7708C30.7392 19.549 30.8388 19.0806 30.7018 18.5876C30.5897 18.1808 30.3405 17.8357 29.7799 17.848C29.698 17.6743 29.5569 17.5346 29.3812 17.4536C29.456 17.0592 29.5432 16.6648 29.6802 16.3073ZM35.8222 15.6048C37.2799 15.3953 39.1736 15.5308 40.6063 16.295C40.7433 16.6648 40.843 17.0469 40.8928 17.4536C40.7309 17.5276 40.5938 17.6508 40.4942 17.848C39.9335 17.8357 39.6844 18.1808 39.5847 18.5876C39.4476 19.0806 39.5473 19.549 40.2824 19.7708C40.1204 20.0173 39.8089 20.1529 39.4975 20.079C39.3521 20.0444 39.2218 19.9647 39.1254 19.8516C39.029 19.7385 38.9717 19.598 38.9618 19.4504C39.0365 19.3271 39.0739 19.1915 39.0739 19.0436C39.0739 18.5629 38.6752 18.1808 38.1644 18.1808C37.6661 18.1808 37.255 18.5629 37.255 19.0436C37.255 19.1176 37.2674 19.1915 37.2799 19.2655C37.1802 19.5367 36.9186 19.7339 36.6071 19.7339C36.2832 19.7339 36.0216 19.5367 35.9219 19.2532C36.6943 19.2162 36.9061 18.7848 36.9061 18.2794C36.9061 17.848 36.7566 17.466 36.2084 17.3427C36.1776 17.199 36.1098 17.0657 36.0116 16.9555C35.9134 16.8454 35.7881 16.7623 35.6478 16.7141C35.8222 16.5785 35.9468 16.3567 35.9468 16.1225C35.9468 15.9746 35.897 15.8267 35.8222 15.7157V15.6048ZM25.9302 17.7494C26.3289 17.6015 26.8148 17.4783 27.2508 17.3797C27.3131 17.6632 27.5124 17.8973 27.7865 18.0083C27.7491 18.1069 27.7242 18.2301 27.7367 18.3534C27.2383 18.5999 27.201 19.019 27.3131 19.4257C27.4501 19.9187 27.7616 20.2885 28.5216 20.1406C28.4966 20.7692 27.6619 21.0157 27.2508 20.535C27.2508 20.4857 27.2383 20.4364 27.2259 20.3871C27.1013 19.9187 26.603 19.6476 26.1171 19.7708C25.6312 19.8941 25.3447 20.3625 25.4692 20.8185C25.5066 20.9418 25.5689 21.065 25.6561 21.1513C25.6686 21.4101 25.5315 21.6567 25.2824 21.7922C25.1578 21.8539 25.0207 21.8785 24.8961 21.8785C25.3447 21.5827 25.3447 21.176 25.1827 20.7692C25.0706 20.5227 24.9086 20.2639 24.6345 20.1529C24.6968 19.4011 24.8214 18.7848 25.0332 18.2548C25.2574 18.0822 25.544 17.885 25.9302 17.7494ZM36.4452 22.162L35.1495 22.618L33.8662 22.162L35.1495 21.706L36.4452 22.162ZM26.74 23.8383L26.6279 24.2697L26.5905 24.4299L26.5033 24.3806L26.0672 24.1464L26.1794 23.7397L26.2043 23.6534L26.3538 23.7027L26.74 23.8383ZM43.5589 23.8383L44.0947 23.6411L44.1196 23.7274L44.2317 24.1464L43.8081 24.3683L43.7209 24.4176L43.6835 24.2573L43.5589 23.8383Z" fill="#E62644"/>
<path d="M41.2667 21.016C41.0923 20.8064 40.9801 20.5476 40.9552 20.2764C40.7933 20.4983 40.5565 20.6708 40.3074 20.7818C40.6188 20.8557 40.9428 20.9297 41.2667 21.016ZM43.4718 21.3241C43.3223 21.4227 43.1479 21.4967 42.9735 21.546C43.3223 21.6692 43.6712 21.8048 44.0075 21.9404C43.909 21.7937 43.8373 21.6309 43.7957 21.4597L43.7459 21.4474C43.6462 21.4227 43.559 21.3734 43.4718 21.3241ZM35.1496 19.5739C35.0499 19.8327 34.8755 20.0546 34.6388 20.2271C34.8132 20.2271 34.9752 20.2148 35.1496 20.2148C35.324 20.2148 35.4859 20.2148 35.6604 20.2271C35.4332 20.0594 35.2566 19.8335 35.1496 19.5739ZM26.3041 21.9404C26.6404 21.8048 26.9893 21.6692 27.3381 21.546C27.1637 21.4967 26.9893 21.4227 26.8398 21.3241C26.765 21.3734 26.6653 21.4104 26.5781 21.435L26.5283 21.4474C26.466 21.6199 26.4037 21.7925 26.3041 21.9404ZM30.0042 20.7818C29.7426 20.6708 29.5183 20.4983 29.3564 20.2764C29.319 20.5476 29.2193 20.8064 29.0449 21.016C29.3564 20.9297 29.6803 20.8557 30.0042 20.7818ZM32.1595 19.9067C32.0723 20.1162 31.9353 20.3011 31.7609 20.4613C32.1222 20.412 32.4959 20.3627 32.8697 20.3257C32.6579 20.2148 32.4835 20.0669 32.3464 19.882C32.2841 19.8943 32.2218 19.9067 32.1595 19.9067ZM38.1396 19.9067C38.0807 19.9054 38.0221 19.8971 37.9652 19.882C37.8281 20.0669 37.6413 20.2148 37.4295 20.3257C37.8032 20.3627 38.177 20.3997 38.5383 20.4613C38.3763 20.3134 38.2517 20.1408 38.1521 19.9436L38.1396 19.9067ZM47.01 20.6585C46.8421 20.5702 46.6463 20.5491 46.4632 20.5996C46.28 20.65 46.1234 20.7682 46.0258 20.9297C45.8389 21.2625 45.9635 21.6815 46.3124 21.8664C46.6612 22.0513 47.0972 21.928 47.2966 21.5953C47.4959 21.2625 47.3713 20.8434 47.01 20.6585ZM41.5158 18.1934C41.1296 18.0948 40.731 18.3167 40.6313 18.6864C40.5316 19.0562 40.7683 19.4383 41.1546 19.5246C41.5408 19.6232 41.9394 19.4013 42.0391 19.0315C42.1388 18.6618 41.9021 18.2797 41.5158 18.1934ZM42.1761 16.8376C41.9519 16.8376 41.7775 17.0101 41.7775 17.2197C41.7775 17.4292 41.9644 17.6018 42.1761 17.6018C42.4004 17.6018 42.5748 17.4292 42.5748 17.2197C42.5748 16.9978 42.4004 16.8376 42.1761 16.8376ZM41.8398 15.4571C41.6155 15.4571 41.4411 15.6297 41.4411 15.8392C41.4411 16.0487 41.628 16.2213 41.8398 16.2213C42.064 16.2213 42.2384 16.0487 42.2384 15.8392C42.2384 15.6297 42.064 15.4571 41.8398 15.4571ZM46.8232 19.0808C46.5989 19.0808 46.4245 19.2534 46.4245 19.4629C46.4245 19.6725 46.5989 19.845 46.8232 19.845C47.0474 19.845 47.2218 19.6725 47.2218 19.4629C47.2218 19.2534 47.0474 19.0808 46.8232 19.0808ZM46.4868 17.7127C46.2625 17.7127 46.0881 17.8853 46.0881 18.0948C46.0881 18.3043 46.2625 18.4769 46.4868 18.4769C46.711 18.4769 46.8854 18.3043 46.8854 18.0948C46.8854 17.8853 46.711 17.7127 46.4868 17.7127ZM45.8888 16.5048C45.6645 16.5048 45.4901 16.6774 45.4901 16.8869C45.4901 17.0964 45.677 17.269 45.8888 17.269C46.113 17.269 46.2874 17.0964 46.2874 16.8869C46.2874 16.6774 46.113 16.5048 45.8888 16.5048ZM44.9295 15.4325C44.7052 15.4325 44.5308 15.605 44.5308 15.8146C44.5308 16.0241 44.7052 16.1967 44.9295 16.1967C45.1537 16.1967 45.3281 16.0241 45.3281 15.8146C45.3281 15.605 45.1537 15.4325 44.9295 15.4325ZM43.7584 14.619C43.5341 14.619 43.3597 14.7915 43.3597 15.0011C43.3597 15.2106 43.5341 15.3832 43.7584 15.3832C43.9826 15.3832 44.157 15.2106 44.157 15.0011C44.157 14.7915 43.9826 14.619 43.7584 14.619ZM42.4876 14.1383C42.2634 14.1383 42.0889 14.3108 42.0889 14.5204C42.0889 14.7299 42.2634 14.9025 42.4876 14.9025C42.7119 14.9025 42.8863 14.7299 42.8863 14.5204C42.8987 14.3108 42.7119 14.1383 42.4876 14.1383ZM41.2044 14.2492C40.9801 14.2492 40.8057 14.4218 40.8057 14.6313C40.8057 14.8408 40.9801 15.0134 41.2044 15.0134C41.4286 15.0134 41.6031 14.8408 41.6031 14.6313C41.6031 14.4218 41.4286 14.2492 41.2044 14.2492ZM40.2575 13.2015C40.0333 13.2015 39.8589 13.3741 39.8589 13.5836C39.8589 13.7932 40.0333 13.9657 40.2575 13.9657C40.4818 13.9657 40.6562 13.7932 40.6562 13.5836C40.6687 13.3741 40.4818 13.2015 40.2575 13.2015ZM39.0242 12.425C38.7999 12.425 38.6255 12.5976 38.6255 12.8071C38.6255 13.0167 38.7999 13.1892 39.0242 13.1892C39.2484 13.1892 39.4228 13.0167 39.4228 12.8071C39.4228 12.5976 39.2484 12.425 39.0242 12.425ZM37.7409 11.969C37.5167 11.969 37.3423 12.1415 37.3423 12.3511C37.3423 12.5606 37.5167 12.7332 37.7409 12.7332C37.9652 12.7332 38.1396 12.5606 38.1396 12.3511C38.1521 12.1415 37.9652 11.969 37.7409 11.969ZM36.4328 11.7471C36.2085 11.7471 36.0341 11.9197 36.0341 12.1292C36.0341 12.3387 36.2085 12.5113 36.4328 12.5113C36.657 12.5113 36.8315 12.3387 36.8315 12.1292C36.8315 11.9197 36.657 11.7471 36.4328 11.7471ZM23.9868 21.8664C24.3356 21.6815 24.4602 21.2625 24.2733 20.9297C24.1764 20.7675 24.0198 20.6487 23.8364 20.5982C23.6529 20.5477 23.4568 20.5693 23.2891 20.6585C22.9403 20.8434 22.8157 21.2625 23.0026 21.5953C23.1894 21.928 23.6379 22.0513 23.9868 21.8664ZM29.1446 19.5246C29.5308 19.426 29.7675 19.0562 29.6678 18.6864C29.5682 18.3167 29.1695 18.0948 28.7833 18.1934C28.3971 18.292 28.1604 18.6618 28.26 19.0315C28.3722 19.4013 28.7584 19.6232 29.1446 19.5246ZM35.1496 18.7974C35.5482 18.7974 35.8722 18.4892 35.8722 18.1071C35.8705 18.0149 35.8506 17.9238 35.8134 17.8392C35.7762 17.7546 35.7225 17.678 35.6554 17.6139C35.5883 17.5498 35.5091 17.4994 35.4223 17.4656C35.3355 17.4318 35.2428 17.4153 35.1496 17.4169C35.0563 17.4153 34.9636 17.4318 34.8768 17.4656C34.7901 17.4994 34.7109 17.5498 34.6437 17.6139C34.5766 17.678 34.523 17.7546 34.4858 17.8392C34.4486 17.9238 34.4286 18.0149 34.427 18.1071C34.427 18.4892 34.7509 18.7974 35.1496 18.7974ZM28.1354 17.6018C28.3597 17.6018 28.5341 17.4292 28.5341 17.2197C28.5341 17.0101 28.3597 16.8376 28.1354 16.8376C27.9112 16.8376 27.7368 17.0101 27.7368 17.2197C27.7243 17.4292 27.9112 17.6018 28.1354 17.6018ZM28.4718 16.2213C28.6961 16.2213 28.8705 16.0487 28.8705 15.8392C28.8705 15.6297 28.6961 15.4571 28.4718 15.4571C28.2476 15.4571 28.0732 15.6297 28.0732 15.8392C28.0607 16.0487 28.2476 16.2213 28.4718 16.2213ZM23.476 19.8574C23.7002 19.8574 23.8747 19.6848 23.8747 19.4753C23.8747 19.2657 23.7002 19.0932 23.476 19.0932C23.2517 19.0932 23.0773 19.2657 23.0773 19.4753C23.0773 19.6848 23.2517 19.8574 23.476 19.8574ZM23.8124 18.4769C24.0366 18.4769 24.211 18.3043 24.211 18.0948C24.2078 17.9923 24.1644 17.8952 24.0899 17.8238C24.0155 17.7525 23.916 17.7127 23.8124 17.7127C23.5881 17.7127 23.4137 17.8853 23.4137 18.0948C23.4137 18.3043 23.5881 18.4769 23.8124 18.4769ZM24.4104 17.269C24.6346 17.269 24.809 17.0964 24.809 16.8869C24.809 16.6774 24.6346 16.5048 24.4104 16.5048C24.1861 16.5048 24.0117 16.6774 24.0117 16.8869C24.0117 17.0964 24.1986 17.269 24.4104 17.269ZM25.3697 16.1967C25.5939 16.1967 25.7683 16.0241 25.7683 15.8146C25.7683 15.605 25.5939 15.4325 25.3697 15.4325C25.1454 15.4325 24.971 15.605 24.971 15.8146C24.971 16.0241 25.1454 16.1967 25.3697 16.1967ZM26.5408 15.3832C26.765 15.3832 26.9394 15.2106 26.9394 15.0011C26.9394 14.7915 26.765 14.619 26.5408 14.619C26.3165 14.619 26.1421 14.7915 26.1421 15.0011C26.1421 15.2106 26.329 15.3832 26.5408 15.3832ZM27.8115 14.9148C28.0358 14.9148 28.2102 14.7422 28.2102 14.5327C28.2102 14.3232 28.0358 14.1506 27.8115 14.1506C27.5873 14.1506 27.4129 14.3232 27.4129 14.5327C27.4129 14.7422 27.5873 14.9148 27.8115 14.9148ZM29.0948 15.0134C29.319 15.0134 29.4934 14.8408 29.4934 14.6313C29.4934 14.4218 29.319 14.2492 29.0948 14.2492C28.8705 14.2492 28.6961 14.4218 28.6961 14.6313C28.6961 14.8408 28.8705 15.0134 29.0948 15.0134ZM30.0416 13.9781C30.2658 13.9781 30.4403 13.8055 30.4403 13.596C30.4403 13.3864 30.2658 13.2139 30.0416 13.2139C29.8173 13.2139 29.6429 13.3864 29.6429 13.596C29.6429 13.8055 29.8173 13.9781 30.0416 13.9781ZM31.275 13.1892C31.4992 13.1892 31.6737 13.0167 31.6737 12.8071C31.6737 12.5976 31.4992 12.425 31.275 12.425C31.0507 12.425 30.8763 12.5976 30.8763 12.8071C30.8763 13.0167 31.0507 13.1892 31.275 13.1892ZM32.5582 12.7332C32.7825 12.7332 32.9569 12.5606 32.9569 12.3511C32.9569 12.1415 32.7825 11.969 32.5582 11.969C32.334 11.969 32.1595 12.1415 32.1595 12.3511C32.1595 12.5606 32.334 12.7332 32.5582 12.7332ZM35.1496 16.5048C35.3738 16.5048 35.5482 16.3322 35.5482 16.1227C35.5482 15.9132 35.3738 15.7406 35.1496 15.7406C34.9253 15.7406 34.7509 15.9132 34.7509 16.1227C34.7509 16.3322 34.9253 16.5048 35.1496 16.5048ZM35.1496 15.112C35.3738 15.112 35.5482 14.9394 35.5482 14.7299C35.5482 14.5204 35.3738 14.3478 35.1496 14.3478C34.9253 14.3478 34.7509 14.5204 34.7509 14.7299C34.7509 14.9394 34.9253 15.112 35.1496 15.112ZM35.1496 13.7192C35.3738 13.7192 35.5482 13.5467 35.5482 13.3371C35.5482 13.1276 35.3738 12.955 35.1496 12.955C34.9253 12.955 34.7509 13.1276 34.7509 13.3371C34.7509 13.5467 34.9253 13.7192 35.1496 13.7192ZM33.8788 12.5113C34.1031 12.5113 34.2775 12.3387 34.2775 12.1292C34.2742 12.0268 34.2308 11.9296 34.1564 11.8583C34.082 11.7869 33.9824 11.7471 33.8788 11.7471C33.6546 11.7471 33.4677 11.9197 33.4677 12.1292C33.4677 12.3511 33.6546 12.5113 33.8788 12.5113ZM44.9419 21.9404C45.2783 22.1129 45.5399 22.039 45.8639 21.928C45.3281 21.6692 45.0416 21.435 45.2908 20.8311C45.4029 20.5599 45.5399 20.3504 45.8389 20.2641C45.6521 17.9099 44.9668 16.7883 42.7243 15.716L42.5624 15.7653C42.5624 15.7899 42.5748 15.8146 42.5748 15.8515C42.5748 16.172 42.3879 16.3322 42.1388 16.5048C42.5374 16.5787 42.8987 16.7636 42.8987 17.2197C42.8987 17.6018 42.6247 17.8113 42.2758 17.9099C42.3879 18.1194 42.4129 18.2057 42.3879 18.4522C42.8489 18.6618 42.9486 18.9329 42.824 19.389C42.6496 20.0299 42.2509 20.0915 41.6155 19.9313C41.5813 20.1271 41.6154 20.3286 41.7123 20.5027C41.8092 20.6768 41.9631 20.813 42.1487 20.889C42.3343 20.9651 42.5405 20.9763 42.7334 20.921C42.9264 20.8657 43.0945 20.747 43.2102 20.5846C43.2102 20.5229 43.2227 20.4736 43.2351 20.412C43.3348 20.0422 43.7335 19.808 44.1321 19.9067C44.5308 20.0053 44.7675 20.3874 44.6554 20.7571C44.618 20.8804 44.5557 20.979 44.4685 21.0653C44.456 21.435 44.618 21.7678 44.9419 21.9404ZM34.5266 13.3248C34.5266 13.2755 34.5391 13.2262 34.5391 13.1646C31.6114 12.955 29.5059 14.8655 29.2193 17.5525C29.481 17.6511 29.5806 17.762 29.6928 18.0085C30.2036 17.9839 30.4278 18.1811 30.5524 18.6248C30.7268 19.2534 30.4029 19.4999 29.7675 19.6601C29.9544 20.0669 30.3406 20.3504 30.8389 20.2271C31.2376 20.1285 31.4992 19.7957 31.4992 19.4013C31.4251 19.292 31.386 19.1632 31.3871 19.0315C31.3871 18.6494 31.711 18.329 32.1222 18.329C32.5208 18.329 32.8572 18.6371 32.8572 19.0315C32.8572 19.1055 32.8448 19.1794 32.8198 19.2534C32.932 19.6232 33.2559 19.882 33.6795 19.882C34.1903 19.882 34.4893 19.5246 34.564 19.0808C33.9162 19.0808 33.5424 18.9206 33.5424 18.2674C33.5424 17.799 33.7168 17.5648 34.2152 17.4662C34.3273 16.8869 34.6388 16.8499 35.1371 16.776C35.6479 16.8622 35.9469 16.8869 36.059 17.4662C36.5574 17.5648 36.7318 17.799 36.7318 18.2674C36.7318 18.9206 36.358 19.0808 35.7102 19.0808C35.785 19.5246 36.084 19.882 36.5948 19.882C37.0059 19.882 37.3298 19.6232 37.4544 19.2534C37.4299 19.1819 37.4173 19.107 37.417 19.0315C37.417 18.6494 37.7409 18.329 38.1521 18.329C38.5632 18.329 38.8871 18.6371 38.8871 19.0315C38.8871 19.1671 38.8497 19.2904 38.775 19.4013C38.7874 19.7957 39.0366 20.1285 39.4353 20.2271C39.9336 20.3504 40.3198 20.0669 40.5067 19.6601C39.8713 19.4999 39.5599 19.2534 39.7218 18.6248C39.8464 18.1811 40.0707 17.9839 40.5815 18.0085C40.706 17.762 40.7933 17.6511 41.0549 17.5525C40.7683 14.8655 38.6753 12.955 35.7351 13.1646C35.7476 13.2139 35.7476 13.2632 35.7476 13.3248C35.7476 13.4604 35.6977 13.5713 35.623 13.6822V14.3601C35.6977 14.4711 35.7476 14.582 35.7476 14.7176C35.7476 14.8532 35.6977 14.9641 35.623 15.075L35.6354 15.7776C35.6977 15.8762 35.7476 15.9871 35.7476 16.1104C35.7476 16.5171 35.4361 16.6281 35.1247 16.7636C34.8132 16.6281 34.5017 16.5048 34.5017 16.1104C34.5017 15.9748 34.5516 15.8639 34.6263 15.7529V15.0874C34.5485 14.9838 34.505 14.8589 34.5017 14.7299C34.5017 14.5943 34.5516 14.4834 34.6263 14.3725V13.6822C34.5616 13.574 34.5272 13.4506 34.5266 13.3248ZM25.0084 20.8311C25.2451 21.435 24.971 21.6692 24.4353 21.928C24.7592 22.039 25.0208 22.1129 25.3572 21.9404C25.6936 21.7678 25.8431 21.435 25.8057 21.0899C25.7179 21.0046 25.6535 20.8986 25.6188 20.7818C25.5773 20.5973 25.61 20.404 25.71 20.243C25.81 20.0819 25.9694 19.9657 26.1546 19.919C26.2612 19.8912 26.3729 19.8875 26.4812 19.9082C26.5896 19.9289 26.6918 19.9734 26.7803 20.0385C26.8689 20.1036 26.9415 20.1876 26.9928 20.2843C27.044 20.381 27.0726 20.4878 27.0765 20.5969C27.6371 21.2994 28.7708 20.9297 28.6712 19.9436C28.0358 20.0915 27.6371 20.0299 27.4627 19.4013C27.3381 18.9576 27.4378 18.6741 27.8987 18.4646C27.8863 18.218 27.8987 18.1318 28.0109 17.9222C27.662 17.8236 27.3879 17.6141 27.3879 17.232C27.3879 16.7636 27.7492 16.5911 28.1479 16.5171C27.9112 16.3322 27.7243 16.1843 27.7243 15.8639C27.7243 15.8392 27.7243 15.8022 27.5624 15.7529C25.2825 16.8253 24.6471 17.9099 24.4477 20.2887C24.7592 20.3627 24.8962 20.5599 25.0084 20.8311ZM44.3938 23.062C41.5906 21.8048 38.4511 21.0899 35.1496 21.0899C31.8481 21.0899 28.721 21.7925 25.9178 23.0497C25.731 23.136 25.5192 23.0497 25.432 22.8771C25.3448 22.6922 25.432 22.5567 25.5192 22.4087C24.9461 22.5813 24.5225 22.5813 24.0242 22.2115C23.1022 22.8032 22.0433 21.5829 22.7409 21.0283C22.417 20.6215 22.417 20.1778 22.8904 19.882C22.8009 19.7603 22.7529 19.6135 22.7534 19.4629C22.7534 19.0069 23.1147 18.822 23.5134 18.7481C23.2766 18.5755 23.0898 18.4153 23.0898 18.0948C23.0898 17.6264 23.476 17.4292 23.8871 17.3922C23.775 17.2197 23.6878 17.0964 23.6878 16.8869C23.6878 16.5048 24.0117 16.1967 24.4228 16.1967C24.5474 16.1967 24.672 16.2336 24.7841 16.2706C24.7094 16.1104 24.6471 15.9871 24.6471 15.8146C24.6471 15.4325 24.971 15.1243 25.3821 15.1243C25.5815 15.1243 25.6936 15.1983 25.868 15.2722C25.8394 15.1844 25.8226 15.0932 25.8182 15.0011C25.8182 14.619 26.1421 14.2985 26.5532 14.2985C26.7775 14.2985 26.9021 14.3848 27.0765 14.4957C27.1637 14.126 27.3755 13.8301 27.8115 13.8301C28.1354 13.8301 28.3223 14.0027 28.4843 14.2369C28.6587 14.052 28.8207 13.9287 29.0948 13.9287C29.2069 13.9287 29.3065 13.9534 29.4187 13.9781C29.3513 13.8568 29.3129 13.7219 29.3065 13.5836C29.3065 13.2015 29.6305 12.8934 30.0291 12.8934C30.2658 12.8934 30.3904 12.992 30.5773 13.1029C30.5649 13.0167 30.5275 12.9057 30.5275 12.8071C30.5275 12.425 30.8514 12.1169 31.2625 12.1169C31.4992 12.1169 31.6238 12.2032 31.7982 12.3264C31.8854 11.9567 32.0972 11.6608 32.5457 11.6608C32.8198 11.6608 32.9693 11.7718 33.1438 11.9443C33.2808 11.6485 33.4801 11.439 33.8539 11.439C33.9536 11.439 34.0408 11.4636 34.1404 11.5006C34.3647 11.2541 34.564 11.1432 34.8879 11.0692V10.3297H34.2775V9.88596H34.8879V9.35596H35.3738V9.88596H35.9843V10.3174H35.3738V11.0569C35.6853 11.1308 35.8971 11.2418 36.1213 11.4883C36.221 11.4513 36.3082 11.4267 36.4079 11.4267C36.7816 11.4267 36.981 11.6485 37.118 11.932C37.2924 11.7594 37.4544 11.6485 37.716 11.6485C38.1645 11.6485 38.3763 11.9567 38.4511 12.3141C38.6255 12.1908 38.7625 12.1046 38.9992 12.1046C39.3979 12.1046 39.7343 12.4127 39.7343 12.7948C39.7343 12.8934 39.7094 13.0043 39.6969 13.0906C39.8838 12.9797 40.0084 12.8934 40.2451 12.8934C40.6438 12.8934 40.9801 13.2015 40.9801 13.5836C40.9801 13.7315 40.9303 13.8425 40.868 13.9781C40.9677 13.9534 41.0798 13.9287 41.1919 13.9287C41.466 13.9287 41.628 14.052 41.8024 14.2369C41.9644 13.9904 42.1512 13.8301 42.4751 13.8301C42.9237 13.8301 43.1354 14.1383 43.2227 14.4957C43.3971 14.3848 43.5217 14.2985 43.7459 14.2985C44.1446 14.2985 44.481 14.6067 44.481 15.0011C44.481 15.0874 44.456 15.186 44.4436 15.2722C44.6055 15.186 44.7301 15.1243 44.917 15.1243C45.3157 15.1243 45.6521 15.4325 45.6521 15.8146C45.6521 15.9871 45.5898 16.1104 45.515 16.2583C45.6396 16.2213 45.7517 16.1843 45.8888 16.1843C46.2874 16.1843 46.6238 16.4925 46.6238 16.8746C46.6238 17.0841 46.5366 17.2074 46.4245 17.3799C46.8481 17.4169 47.2343 17.6141 47.2343 18.0825C47.2343 18.4029 47.0474 18.5632 46.8107 18.7357C47.2094 18.822 47.5707 18.9946 47.5707 19.4506C47.5707 19.6232 47.5208 19.7341 47.4336 19.8697C47.9195 20.1655 47.907 20.5969 47.5831 21.0036C48.0067 21.3364 47.7825 21.8541 47.4336 22.1253C47.0723 22.3964 46.6986 22.4457 46.2999 22.1869C45.8016 22.5567 45.378 22.5567 44.8049 22.3841L44.8921 22.5567C45.0042 22.8648 44.7177 23.1729 44.3938 23.062ZM26.8771 23.7646L26.2791 23.555L26.2293 23.4687C26.1795 23.4934 26.1421 23.4934 26.1047 23.5057C25.9428 23.518 25.9552 23.3455 26.03 23.3085C28.7957 22.0636 31.873 21.3734 35.1371 21.3734C38.4012 21.3734 41.4785 22.0636 44.2443 23.3085C44.319 23.3455 44.3315 23.518 44.1695 23.5057C44.1321 23.5057 44.0948 23.4934 44.0449 23.4687L43.9951 23.555L43.3971 23.7646L43.5715 24.4178L43.5217 24.5287C43.8331 24.6643 43.6213 24.8862 43.4843 24.8246C40.9428 23.6783 38.1147 23.0497 35.1247 23.0497C32.1346 23.0497 29.3065 23.6783 26.765 24.8246C26.7027 24.8492 26.628 24.8246 26.5906 24.7506C26.5532 24.6767 26.5906 24.6274 26.6404 24.578C26.6654 24.5534 26.7027 24.5411 26.7401 24.5287L26.6903 24.4178L26.8771 23.7646ZM30.1786 23.2839L31.4494 22.4334L29.9046 22.2732L28.6338 23.1236L30.1786 23.2839ZM42.7119 24.0727C42.9984 24.0727 43.2351 23.8508 43.2351 23.5797C43.2351 23.3085 42.9984 23.0867 42.7119 23.0867C42.4253 23.0867 42.1886 23.3085 42.1886 23.5797C42.2011 23.8508 42.4253 24.0727 42.7119 24.0727ZM32.5707 22.7908C32.8572 22.7908 33.0939 22.569 33.0939 22.2978C33.0939 22.0267 32.8572 21.8048 32.5707 21.8048C32.2841 21.8048 32.0474 22.0267 32.0474 22.2978C32.0474 22.569 32.2841 22.7908 32.5707 22.7908ZM27.5873 24.0727C27.8738 24.0727 28.1105 23.8508 28.1105 23.5797C28.1105 23.3085 27.8863 23.0867 27.5873 23.0867C27.3007 23.0867 27.064 23.3085 27.064 23.5797C27.064 23.8508 27.3007 24.0727 27.5873 24.0727ZM37.7285 22.7908C38.015 22.7908 38.2517 22.569 38.2517 22.2978C38.2517 22.0267 38.015 21.8048 37.7285 21.8048C37.4419 21.8048 37.2177 22.0267 37.2177 22.2978C37.2177 22.569 37.4544 22.7908 37.7285 22.7908ZM40.1205 23.2839L41.6653 23.1236L40.3946 22.2732L38.8497 22.4334L40.1205 23.2839ZM36.7692 22.1622L35.1496 21.5829L33.53 22.1622L35.1496 22.7415L36.7692 22.1622ZM18.3805 41.8339C18.3805 50.6467 25.9303 57.8571 35.1496 57.8571C44.3813 57.8571 51.9311 50.6467 51.9311 41.8339C51.9311 32.9964 44.3813 25.8106 35.1496 25.8106C25.9178 25.8106 18.3805 32.9964 18.3805 41.8339ZM53.7501 41.8339C53.7501 51.6081 45.4029 59.595 35.1496 59.595C24.8962 59.595 16.5491 51.6081 16.5491 41.8339C16.5491 32.0474 24.8962 24.0604 35.1496 24.0604C45.4029 24.048 53.7501 32.035 53.7501 41.8339ZM32.7077 34.2783L35.1371 36.6448L37.4046 34.3522C36.6072 34.155 35.8472 34.0071 35.0125 33.9825C34.2401 33.9455 33.4552 34.118 32.7077 34.2783ZM39.0989 32.6267L42.662 29.1139C47.2717 31.6406 50.3738 36.3736 50.3738 41.7846C50.3738 45.3097 49.0657 48.539 46.8605 51.0657L45.2036 49.4757C47.0723 47.2941 48.2933 45.1248 48.2933 41.649C48.2933 37.939 46.2625 33.7976 43.0233 31.6529L40.8805 33.7483C41.9768 34.5371 42.8489 35.326 43.584 36.4353L41.9519 37.7787C41.3041 36.6941 40.4693 35.9299 39.3979 35.2274L35.1371 39.5167L30.7144 35.1657C28.422 36.6941 27.0765 38.8757 27.0142 41.5874C26.9394 45.1987 29.3813 47.7008 32.8074 48.7978V41.5504H38.0399V43.0418H34.8381V44.9769H38.0026V46.6778H34.8381V49.1183C37.1803 49.2292 39.6845 47.935 41.2044 46.3327L42.7742 47.8487C40.7683 50.0674 37.878 51.189 34.8506 51.2136V53.4446H32.8198V50.9794C28.1977 49.8825 24.8464 46.0122 24.9087 41.3901C24.9461 38.2225 26.7152 35.6218 29.2816 33.7729L27.1139 31.6283C23.7501 34.2536 21.9436 37.4583 21.7941 41.6243C21.682 45.3097 23.6753 48.2678 24.9336 49.5127L23.476 50.9301C21.221 48.4157 19.8879 45.3097 19.8879 41.7722C19.8879 36.3983 22.9901 31.6653 27.5624 29.1385L31.1753 32.7376C32.4585 32.2692 33.7916 32.0227 35.162 32.0227C36.5325 32.0474 37.716 32.2815 38.9868 32.7376L39.0989 32.6267Z" fill="#FCBF00"/>
<path d="M54.2981 41.8339C54.2981 51.9039 45.7017 60.1251 35.1494 60.1251C24.5846 60.1251 16.0007 51.9039 16.0007 41.8339C16.0007 31.7516 24.5971 23.5181 35.1494 23.5181C45.7142 23.5181 54.2981 31.7516 54.2981 41.8339ZM53.7499 41.8339C53.7499 32.0474 45.4027 24.0604 35.1494 24.0604C24.8961 24.0604 16.5489 32.0474 16.5489 41.8339C16.5489 51.6081 24.8961 59.5951 35.1494 59.5951C45.4027 59.5951 53.7499 51.6081 53.7499 41.8339ZM18.9285 41.8339C18.9285 50.3509 26.2291 57.3272 35.1494 57.3272C44.0697 57.3272 51.3703 50.3632 51.3703 41.8339C51.3703 33.2923 44.0697 26.353 35.1494 26.353C26.2291 26.3407 18.9285 33.2923 18.9285 41.8339ZM18.3803 41.8339C18.3803 32.9965 25.9301 25.8107 35.1494 25.8107C44.3811 25.8107 51.931 32.9965 51.931 41.8339C51.931 50.6467 44.3811 57.8572 35.1494 57.8572C25.9177 57.8449 18.3803 50.6467 18.3803 41.8339ZM37.1178 38.2965L46.1876 47.2325C47.2217 45.6056 47.7449 43.9416 47.7449 41.6367C47.7449 37.6186 45.3778 33.9579 43.0979 32.3309L41.7275 33.6744C42.8114 34.5002 43.5962 35.4 44.3064 36.5339L41.7898 38.617C41.1918 37.483 40.5564 36.6818 39.4725 35.93L37.1178 38.2965ZM48.617 49.6237C46.985 52.2737 44.4933 54.369 41.5406 55.6263L40.0705 54.1965L37.3296 51.5218C36.7067 51.6574 36.0589 51.7314 35.3986 51.7437V53.987H32.259V51.3986C27.5497 50.1784 24.2981 45.963 24.3479 41.3902C24.3604 40.626 24.4725 39.8865 24.6594 39.1716L23.1145 37.6679C22.6536 38.9004 22.3919 40.2316 22.3421 41.6491C22.2549 44.4839 23.5506 47.553 25.7059 49.5128L23.4384 51.7191C20.7723 48.8595 19.3147 45.6425 19.3147 41.7723C19.3147 36.1272 22.5539 31.197 27.6494 28.4853L31.2997 32.1337C32.5082 31.7146 33.8786 31.5051 35.1369 31.5051C36.4949 31.5174 37.7283 31.7516 38.8371 32.1337L42.5497 28.4484C47.6826 31.1723 50.9218 36.1025 50.9218 41.7846C50.9343 44.6688 50.1245 47.2818 48.617 49.6237ZM32.2466 46.5793L27.5622 42.0188C27.6743 44.5702 29.3064 46.986 32.2466 48.0584V46.5793ZM39.0987 32.6267L38.9742 32.75C37.7535 32.2845 36.4576 32.0423 35.1494 32.0351C33.779 32.0351 32.4459 32.2816 31.1627 32.75L27.5497 29.1509C22.9775 31.6653 19.8753 36.3984 19.8753 41.7723C19.8753 45.3221 21.2084 48.4158 23.4634 50.9302L24.921 49.5128C23.6627 48.2679 21.6693 45.3098 21.7815 41.6244C21.931 37.4584 23.7374 34.2537 27.1012 31.6284L29.269 33.773C26.7026 35.6218 24.9335 38.2225 24.8961 41.3902C24.8338 46.0123 28.1727 49.8825 32.8072 50.9795V53.4446H34.8379V51.2137C37.8778 51.1891 40.7682 50.0674 42.7615 47.8488L41.1918 46.3328C39.6718 47.9351 37.1801 49.2416 34.8255 49.1184V46.6779H37.9899V44.977H34.8255V43.0418H38.0273V41.5504H32.7948V48.7979C29.3687 47.7009 26.9144 45.1988 27.0016 41.5874C27.0639 38.8758 28.4094 36.6942 30.7017 35.1658L35.1245 39.5167L39.3853 35.2274C40.4692 35.93 41.2914 36.6942 41.9393 37.7788L43.5713 36.4353C42.8363 35.326 41.9642 34.5372 40.8678 33.7484L43.0107 31.653C46.2499 33.7977 48.2806 37.9391 48.2806 41.6491C48.2806 45.1125 47.0597 47.2942 45.1909 49.4758L46.8479 51.0658C49.0531 48.539 50.3612 45.3221 50.3612 41.7846C50.3612 36.3737 47.259 31.6407 42.6494 29.1139L39.0987 32.6267ZM32.7075 34.2784C33.4551 34.1181 34.2399 33.9456 35.0124 33.9702C35.8471 33.9949 36.607 34.1428 37.4044 34.34L35.1369 36.6325L32.7075 34.2784ZM33.8163 34.5988L35.1245 35.8807L36.3454 34.6481C35.9094 34.5618 35.4609 34.5249 34.9874 34.5125C34.7009 34.5002 34.2649 34.5372 33.8163 34.5988ZM43.5589 23.8386L43.671 24.27L43.7208 24.4179L43.808 24.3686L44.2316 24.1467L44.1195 23.7277L44.0946 23.6414L43.5589 23.8386ZM44.3936 23.0621C44.7175 23.173 45.0041 22.8525 44.8546 22.5814L44.7673 22.4088C45.3404 22.5814 45.764 22.5814 46.2624 22.2116C46.661 22.4704 47.0223 22.4211 47.3961 22.15C47.7574 21.8788 47.9692 21.3611 47.5456 21.0284C47.8695 20.6216 47.882 20.1779 47.3961 19.8944C47.4833 19.7588 47.5331 19.6479 47.5331 19.4753C47.5331 19.0193 47.1718 18.8344 46.7732 18.7605C47.0099 18.5756 47.1967 18.4277 47.1967 18.1072C47.1967 17.6388 46.8105 17.4416 46.3869 17.4046C46.4991 17.2321 46.5863 17.1211 46.5863 16.8993C46.5863 16.5172 46.2624 16.2091 45.8512 16.2091C45.7266 16.2091 45.6021 16.246 45.4775 16.283C45.5522 16.1228 45.6145 16.0118 45.6145 15.8393C45.6145 15.4572 45.2906 15.1491 44.8795 15.1491C44.6801 15.1491 44.568 15.2107 44.406 15.297C44.4185 15.2107 44.4434 15.1121 44.4434 15.0258C44.4418 14.9319 44.4215 14.8393 44.3837 14.7531C44.3459 14.667 44.2913 14.5891 44.223 14.5239C44.1547 14.4586 44.0742 14.4073 43.9859 14.3729C43.8976 14.3385 43.8033 14.3216 43.7084 14.3232C43.4841 14.3232 43.3595 14.4095 43.1851 14.5205C43.0979 14.1507 42.8861 13.8549 42.4376 13.8549C42.1137 13.8549 41.9268 14.0274 41.7649 14.2616C41.5904 14.0767 41.4285 13.9535 41.1544 13.9535C41.0423 13.9535 40.9301 13.9781 40.8305 14.0028C40.8928 13.8672 40.9426 13.7563 40.9426 13.6084C40.9426 13.2263 40.6187 12.9181 40.2075 12.9181C39.9708 12.9181 39.8462 13.0044 39.6594 13.1153C39.6718 13.0291 39.6967 12.9181 39.6967 12.8195C39.6967 12.4374 39.3728 12.1293 38.9617 12.1293C38.725 12.1293 38.6004 12.2156 38.4135 12.3388C38.3263 11.9691 38.1145 11.6732 37.6785 11.6732C37.4044 11.6732 37.2549 11.7842 37.0805 11.9567C36.931 11.6609 36.7441 11.4514 36.3703 11.4514C36.2582 11.4514 36.1835 11.476 36.0838 11.513C35.8595 11.2665 35.6602 11.1556 35.3363 11.0816V10.3421H35.9467V9.88603H35.3363V9.35603H34.8504V9.88603H34.2399V10.3174H34.8504V11.057C34.5389 11.1309 34.3396 11.2418 34.1029 11.4884C34.0121 11.4503 33.9149 11.4294 33.8163 11.4267C33.4426 11.4267 33.2433 11.6486 33.1062 11.9321C32.9318 11.7595 32.7698 11.6486 32.5082 11.6486C32.0597 11.6486 31.8479 11.9567 31.7607 12.3142C31.5863 12.1909 31.4492 12.1046 31.225 12.1046C30.8263 12.1046 30.4899 12.4128 30.4899 12.7949C30.4899 12.8935 30.5149 13.0044 30.5398 13.0907C30.3529 12.9798 30.2158 12.8811 29.9916 12.8811C29.8983 12.8795 29.8057 12.8961 29.7189 12.9299C29.6321 12.9637 29.5529 13.0141 29.4858 13.0782C29.4187 13.1423 29.365 13.2188 29.3278 13.3034C29.2906 13.3881 29.2706 13.4791 29.269 13.5714C29.269 13.7193 29.3188 13.8302 29.3811 13.9658C29.269 13.9411 29.1693 13.9165 29.0572 13.9165C28.7831 13.9165 28.6212 14.0398 28.4467 14.2246C28.2848 13.9781 28.0979 13.8179 27.774 13.8179C27.3255 13.8179 27.1137 14.126 27.0389 14.4835C26.9019 14.3849 26.7649 14.2986 26.5406 14.2986C26.4457 14.297 26.3514 14.3138 26.2631 14.3483C26.1748 14.3827 26.0942 14.434 26.026 14.4992C25.9577 14.5645 25.9031 14.6424 25.8653 14.7285C25.8275 14.8146 25.8072 14.9073 25.8055 15.0011C25.8055 15.0874 25.8305 15.186 25.8429 15.2723C25.7034 15.1778 25.5386 15.1263 25.3695 15.1244C24.9708 15.1244 24.6345 15.4325 24.6345 15.8146C24.6345 15.9872 24.6967 16.1105 24.7715 16.2584C24.6594 16.2337 24.5472 16.1967 24.4102 16.1967C24.0115 16.1967 23.6752 16.5049 23.6752 16.887C23.6752 17.0965 23.7624 17.2198 23.8745 17.3923C23.4634 17.4293 23.0896 17.6265 23.0896 18.0949C23.0896 18.4153 23.2765 18.5756 23.5132 18.7481C23.1145 18.8344 22.7532 19.007 22.7532 19.463C22.7532 19.6356 22.8031 19.7465 22.8903 19.8821C22.4168 20.1779 22.4168 20.6216 22.7408 21.0284C22.0431 21.583 23.1021 22.8156 24.024 22.2116C24.5223 22.5814 24.9459 22.5814 25.519 22.4088C25.4443 22.5691 25.3446 22.7046 25.4318 22.8772C25.519 23.0621 25.7308 23.136 25.9177 23.0498C28.7208 21.7925 31.8479 21.09 35.1494 21.09C38.4634 21.1023 41.5904 21.8049 44.3936 23.0621ZM26.7399 23.8386L26.3537 23.703L26.2042 23.6537L26.1793 23.74L26.0672 24.1467L26.4908 24.3686L26.578 24.4179L26.6154 24.2577L26.7399 23.8386ZM26.4908 24.5042L25.9301 24.2084L26.0672 23.6784C25.8554 23.6537 25.7557 23.4195 25.8554 23.2593C25.7406 23.2758 25.6234 23.2562 25.5205 23.2031C25.4176 23.15 25.3343 23.0661 25.2823 22.9635C25.2325 22.8649 25.22 22.7663 25.2325 22.6677C24.8089 22.7539 24.3604 22.6553 24.024 22.4211C23.0398 22.9881 21.8811 21.6323 22.5165 21.0037C22.23 20.597 22.3047 20.1039 22.666 19.8328C22.6051 19.7191 22.5751 19.5917 22.5788 19.463C22.5788 19.1056 22.8155 18.7974 23.1394 18.6618C22.9952 18.5075 22.9151 18.3051 22.9152 18.0949C22.9152 17.6881 23.2142 17.3553 23.6004 17.2567C23.5395 17.143 23.5095 17.0156 23.5132 16.887C23.5132 16.4063 23.9119 16.0242 24.4102 16.0242H24.4974C24.4664 15.895 24.4657 15.7605 24.4953 15.631C24.5249 15.5014 24.5841 15.3803 24.6682 15.2769C24.7523 15.1734 24.8593 15.0903 24.9808 15.034C25.1024 14.9777 25.2353 14.9496 25.3695 14.9518C25.4692 14.9518 25.5564 14.9642 25.6436 14.9888C25.6436 14.5205 26.0547 14.1384 26.5406 14.1384C26.6901 14.1384 26.8271 14.1753 26.9517 14.237C27.0763 13.9042 27.4127 13.67 27.7989 13.67C28.073 13.67 28.3346 13.7932 28.4966 13.9905C28.6585 13.8549 28.8579 13.7809 29.0946 13.7809H29.1569C29.1444 13.7193 29.132 13.6577 29.132 13.596C29.132 13.1153 29.5306 12.7332 30.029 12.7332C30.1536 12.7332 30.2657 12.7579 30.3653 12.7949C30.3778 12.3265 30.7765 11.9444 31.2624 11.9444C31.4243 11.9444 31.5738 11.9814 31.6984 12.0553C31.823 11.7225 32.1594 11.4884 32.5456 11.4884C32.7574 11.4884 32.9443 11.55 33.0938 11.6732C33.2557 11.4391 33.5298 11.2788 33.8537 11.2788C33.9409 11.2788 34.0157 11.2911 34.0904 11.3158C34.2399 11.1679 34.4144 11.057 34.6261 10.9707L34.7134 10.9337V10.49H34.1029V9.7258H34.7134V9.1958H35.5481V9.7258H36.1585V10.49H35.5481V10.9337L35.6353 10.9707C35.8346 11.0446 36.0215 11.1556 36.171 11.3158C36.2457 11.2911 36.3205 11.2788 36.4077 11.2788C36.7316 11.2788 37.0057 11.4391 37.1677 11.6732C37.3172 11.5623 37.5165 11.4884 37.7158 11.4884C38.1021 11.4884 38.4384 11.7225 38.563 12.0553C38.6876 11.9814 38.8371 11.9444 38.9991 11.9444C39.4974 11.9444 39.8961 12.3265 39.8961 12.7949C39.9957 12.7579 40.1079 12.7332 40.2325 12.7332C40.7308 12.7332 41.1295 13.1153 41.1295 13.596C41.1295 13.6577 41.1295 13.7193 41.1046 13.7809H41.1668C41.3839 13.7845 41.5939 13.858 41.7649 13.9905C41.9268 13.7932 42.176 13.67 42.4625 13.67C42.8487 13.67 43.1851 13.9042 43.3097 14.237C43.4343 14.1753 43.5713 14.1384 43.7208 14.1384C44.2192 14.1384 44.6178 14.5205 44.6178 14.9888C44.707 14.9636 44.7993 14.9512 44.8919 14.9518C45.3903 14.9518 45.7889 15.3339 45.7889 15.8146C45.7889 15.8886 45.7765 15.9625 45.764 16.0365H45.8512C46.3496 16.0365 46.7482 16.4186 46.7482 16.8993C46.7482 17.0349 46.7109 17.1581 46.661 17.2691C47.0597 17.3553 47.3462 17.7005 47.3462 18.1072C47.3462 18.3291 47.259 18.5263 47.1095 18.6865C47.4459 18.8098 47.6826 19.1179 47.6826 19.4877C47.6826 19.6232 47.6452 19.7465 47.5954 19.8574C47.9567 20.1286 48.0315 20.6216 47.7449 21.0284C48.1436 21.4228 47.7948 22.0514 47.4584 22.3102C47.1345 22.5567 46.6735 22.7046 46.225 22.4458C45.8761 22.68 45.4401 22.7786 45.0165 22.6923C45.0663 23.0374 44.7424 23.3332 44.3936 23.2839C44.4933 23.4442 44.3936 23.6784 44.1818 23.703L44.3188 24.233L43.7582 24.5288C43.833 24.6151 43.8454 24.7384 43.7956 24.8493C43.7208 24.9972 43.5464 25.0835 43.3845 25.0095C40.8678 23.8756 38.0647 23.247 35.0871 23.247C32.122 23.247 29.3188 23.8756 26.8022 25.0095C26.6403 25.0835 26.4658 24.9972 26.3911 24.8493C26.4036 24.7137 26.416 24.5905 26.4908 24.5042ZM26.877 23.7646L26.7026 24.4179L26.7524 24.5288C26.7275 24.5411 26.6901 24.5535 26.6527 24.5781C26.6029 24.6151 26.5655 24.6644 26.6029 24.7507C26.6403 24.8246 26.715 24.8493 26.7773 24.8246C29.3188 23.6784 32.1469 23.0498 35.1369 23.0498C38.1394 23.0498 40.955 23.6784 43.4966 24.8246C43.6212 24.8863 43.8454 24.6644 43.534 24.5288L43.5838 24.4179L43.4094 23.7646L44.0074 23.5551L44.0572 23.4688C44.107 23.4935 44.1444 23.4935 44.1818 23.5058C44.3438 23.5181 44.3313 23.3456 44.2565 23.3086C41.3961 22.0252 38.2902 21.3652 35.1494 21.3735C31.8853 21.3735 28.808 22.0637 26.0423 23.3086C25.9675 23.3456 25.9551 23.5181 26.117 23.5058C26.1544 23.5058 26.1918 23.4935 26.2416 23.4688L26.279 23.5551L26.877 23.7646ZM40.5564 16.1474C39.8462 14.4342 38.1768 13.2139 35.9592 13.3249C35.9592 13.4728 35.9094 13.6084 35.8346 13.7316V14.3109C35.9094 14.4342 35.9592 14.5698 35.9592 14.7177C35.9592 14.8656 35.9094 15.0135 35.8346 15.1244V15.4942C37.3546 15.297 39.1486 15.4449 40.5564 16.1474ZM35.8222 15.716C35.9279 15.8729 35.9687 16.0639 35.9363 16.2496C35.9038 16.4354 35.8006 16.6018 35.6477 16.7144C35.9218 16.8007 36.1336 16.9979 36.2084 17.343C36.7565 17.4663 36.906 17.8607 36.906 18.2798C36.906 18.7851 36.6943 19.2165 35.9218 19.2535C36.009 19.537 36.2831 19.7342 36.607 19.7342C36.9185 19.7342 37.1926 19.537 37.2798 19.2658C37.2549 19.1918 37.2549 19.1179 37.2549 19.0439C37.2549 18.5632 37.666 18.1811 38.1644 18.1811C38.6627 18.1811 39.0738 18.5632 39.0738 19.0439C39.0738 19.1918 39.0364 19.3274 38.9617 19.4507C38.9742 19.7465 39.1859 19.993 39.4974 20.0793C39.8089 20.1532 40.1203 20.03 40.2823 19.7711C39.5472 19.5493 39.4476 19.0809 39.5846 18.5879C39.6967 18.1811 39.9459 17.836 40.4941 17.8484C40.5938 17.6511 40.7308 17.5279 40.8928 17.4539C40.8429 17.0472 40.7557 16.6651 40.6062 16.2953C39.161 15.5311 37.2798 15.3956 35.8222 15.6051V15.716ZM34.5265 13.3249C34.5265 13.4605 34.5763 13.5714 34.6511 13.6823V14.3602C34.5763 14.4711 34.5265 14.5821 34.5265 14.7177C34.5265 14.8532 34.5763 14.9642 34.6511 15.0751V15.7653C34.5763 15.8763 34.5265 15.9872 34.5265 16.1228C34.5265 16.5295 34.8379 16.6405 35.1494 16.776C35.4609 16.6405 35.7723 16.5172 35.7723 16.1228C35.7723 15.9995 35.735 15.8763 35.6602 15.79L35.6477 15.0874C35.7225 14.9765 35.7723 14.8656 35.7723 14.73C35.7723 14.5944 35.7225 14.4835 35.6477 14.3725V13.6823C35.7225 13.5714 35.7723 13.4605 35.7723 13.3249C35.7723 13.2756 35.7599 13.2263 35.7599 13.1646C38.6876 12.9551 40.7931 14.8656 41.0796 17.5525C40.818 17.6511 40.7183 17.7621 40.6062 18.0086C40.0954 17.9839 39.8712 18.1811 39.7466 18.6249C39.5722 19.2535 39.8961 19.5 40.5315 19.6602C40.3446 20.067 39.9584 20.3505 39.46 20.2272C39.2715 20.1843 39.1033 20.0791 38.9833 19.929C38.8632 19.7789 38.7985 19.5928 38.7997 19.4014C38.8739 19.2921 38.913 19.1632 38.9119 19.0316C38.9102 18.9377 38.8899 18.8451 38.8521 18.759C38.8143 18.6728 38.7597 18.5949 38.6914 18.5297C38.6232 18.4645 38.5426 18.4132 38.4543 18.3787C38.366 18.3443 38.2717 18.3274 38.1768 18.3291C38.0819 18.3274 37.9876 18.3443 37.8993 18.3787C37.811 18.4132 37.7304 18.4645 37.6622 18.5297C37.5939 18.5949 37.5393 18.6728 37.5015 18.759C37.4637 18.8451 37.4434 18.9377 37.4418 19.0316C37.4418 19.1056 37.4542 19.1795 37.4791 19.2535C37.367 19.6232 37.0306 19.8821 36.6195 19.8821C36.1087 19.8821 35.8097 19.5246 35.735 19.0809C36.3828 19.0809 36.7565 18.9207 36.7565 18.2674C36.7565 17.7991 36.5821 17.5649 36.0838 17.4663C35.9717 16.887 35.6602 16.85 35.1619 16.776C34.6511 16.8623 34.3521 16.887 34.2399 17.4663C33.7416 17.5649 33.5672 17.7991 33.5672 18.2674C33.5672 18.9207 33.9409 19.0809 34.5888 19.0809C34.514 19.5246 34.215 19.8821 33.7042 19.8821C33.5117 19.8824 33.3242 19.8215 33.1694 19.7083C33.0146 19.5951 32.9007 19.4356 32.8446 19.2535C32.8695 19.1795 32.882 19.1056 32.882 19.0316C32.8803 18.9377 32.86 18.8451 32.8222 18.759C32.7844 18.6728 32.7298 18.5949 32.6615 18.5297C32.5933 18.4645 32.5127 18.4132 32.4244 18.3787C32.3361 18.3443 32.2418 18.3274 32.1469 18.3291C31.7358 18.3291 31.4119 18.6372 31.4119 19.0316C31.4119 19.1672 31.4492 19.2905 31.524 19.4014C31.5115 19.7958 31.2624 20.1286 30.8637 20.2272C30.3653 20.3505 29.9791 20.067 29.7923 19.6602C30.4276 19.5 30.7391 19.2535 30.5771 18.6249C30.4526 18.1811 30.2283 17.9839 29.7175 18.0086C29.5929 17.7621 29.5057 17.6511 29.2441 17.5525C29.5306 14.8656 31.6237 12.9551 34.5639 13.1646C34.5389 13.2263 34.5265 13.2756 34.5265 13.3249ZM29.6801 16.3077C29.5431 16.6774 29.4434 17.0595 29.406 17.4663C29.568 17.5402 29.7051 17.6635 29.8047 17.8607C30.3653 17.8484 30.6145 18.1935 30.7266 18.6002C30.8637 19.0932 30.764 19.5616 30.029 19.7835C30.1909 20.03 30.5024 20.1656 30.8139 20.0916C31.1253 20.0177 31.3371 19.7588 31.3496 19.463C31.275 19.3403 31.2362 19.1995 31.2374 19.0563C31.2374 18.5756 31.6486 18.1935 32.1469 18.1935C32.6452 18.1935 33.0564 18.5756 33.0564 19.0563C33.0564 19.1302 33.0439 19.2042 33.0315 19.2781C33.1311 19.5493 33.3928 19.7465 33.7042 19.7465C34.0281 19.7465 34.2898 19.5493 34.3894 19.2658C33.617 19.2288 33.4052 18.7974 33.4052 18.2921C33.4052 17.8607 33.5547 17.4786 34.1029 17.3553C34.1901 17.0102 34.4019 16.8253 34.6635 16.7267C34.5725 16.6562 34.4984 16.5665 34.4467 16.4642C34.395 16.3619 34.3669 16.2495 34.3645 16.1351C34.3645 15.9872 34.4144 15.8393 34.4891 15.7284V15.6051C33.0065 15.4079 31.1253 15.5435 29.6801 16.3077ZM34.3521 13.3249C32.122 13.2016 30.465 14.4342 29.7424 16.1474C31.1378 15.4572 32.9443 15.2846 34.4642 15.4942V15.1244C34.3894 15.0011 34.3396 14.8656 34.3396 14.7177C34.3396 14.5698 34.3894 14.4218 34.4642 14.3109V13.7316C34.3936 13.6072 34.3551 13.4675 34.3521 13.3249ZM43.4218 21.1639L43.4717 21.127C43.5713 21.2009 43.6585 21.2502 43.7831 21.2872C43.833 21.2995 43.8952 21.2995 43.9451 21.3118C44.0074 21.62 44.1195 21.8665 44.3438 22.0884L44.2441 22.2239C43.7084 22.0021 43.1727 21.7925 42.612 21.6077L42.6369 21.4474C42.911 21.4228 43.1976 21.3242 43.4218 21.1639ZM43.4717 21.3242C43.3222 21.4228 43.1477 21.4967 42.9733 21.546C43.3222 21.6693 43.671 21.8049 44.0074 21.9405C43.9089 21.7937 43.8372 21.631 43.7956 21.4598L43.7457 21.4474C43.6461 21.4228 43.5589 21.3735 43.4717 21.3242ZM35.0622 19.2411H35.2366C35.2989 19.6849 35.5979 20.067 36.009 20.2518L35.9717 20.4121C35.6976 20.3998 35.4235 20.3998 35.1494 20.3998C34.8753 20.3998 34.6012 20.3998 34.3271 20.4121L34.2898 20.2518C34.7009 20.0546 34.9999 19.6849 35.0622 19.2411ZM35.1494 19.5739C35.0497 19.8328 34.8753 20.0546 34.6386 20.2272C34.813 20.2272 34.975 20.2149 35.1494 20.2149C35.3238 20.2149 35.4858 20.2149 35.6602 20.2272C35.433 20.0595 35.2564 19.8336 35.1494 19.5739ZM26.0672 22.2116L25.9675 22.076C26.1918 21.8418 26.3039 21.6077 26.3662 21.2995C26.578 21.2749 26.6527 21.2502 26.8271 21.127C27.0888 21.3118 27.3504 21.4228 27.6743 21.4351L27.6992 21.5953C27.1386 21.7802 26.6029 21.9898 26.0672 22.2116ZM26.3039 21.9405C26.6403 21.8049 26.9891 21.6693 27.3379 21.546C27.1635 21.4967 26.9891 21.4228 26.8396 21.3242C26.7649 21.3735 26.6652 21.4104 26.578 21.4351L26.5281 21.4474C26.4658 21.62 26.4036 21.7925 26.3039 21.9405ZM30.3529 20.7202V20.8805C29.8172 20.9914 29.3064 21.1146 28.7831 21.2625L28.7084 21.1146C29.0448 20.8311 29.2441 20.3998 29.1818 19.956L29.3438 19.9191C29.5182 20.3381 29.9044 20.6339 30.3529 20.7202ZM30.0041 20.7818C29.7424 20.6709 29.5182 20.4984 29.3562 20.2765C29.3188 20.5477 29.2192 20.8065 29.0448 21.016C29.3562 20.9298 29.6801 20.8558 30.0041 20.7818ZM31.4617 20.6709L31.3994 20.523C31.7109 20.3258 31.9102 20.067 32.0348 19.7342H32.1345C32.2341 19.7342 32.3089 19.7095 32.4085 19.6849C32.6203 19.9807 32.8695 20.1902 33.2308 20.2888L33.2183 20.4491C32.6203 20.5107 32.0348 20.5846 31.4617 20.6709ZM32.1594 19.9067C32.0722 20.1163 31.9351 20.3011 31.7607 20.4614C32.122 20.4121 32.4957 20.3628 32.8695 20.3258C32.6577 20.2149 32.4833 20.067 32.3462 19.8821C32.284 19.8944 32.2217 19.9067 32.1594 19.9067ZM37.0805 20.4614L37.068 20.3011C37.4293 20.1902 37.6785 19.9807 37.8903 19.6972C37.9899 19.7218 38.0647 19.7465 38.1644 19.7465H38.264C38.3886 20.0793 38.5879 20.3381 38.8994 20.5353L38.8371 20.6832C38.264 20.5846 37.6785 20.5107 37.0805 20.4614ZM38.1394 19.9067C38.0805 19.9055 38.0219 19.8972 37.965 19.8821C37.828 20.067 37.6411 20.2149 37.4293 20.3258C37.8031 20.3628 38.1768 20.3998 38.5381 20.4614C38.3761 20.3135 38.2516 20.1409 38.1519 19.9437L38.1394 19.9067ZM41.6029 21.1146L41.5281 21.2625C41.0173 21.1146 40.4941 20.9914 39.9584 20.8805V20.7202C40.3944 20.6339 40.7806 20.3381 40.9551 19.9314L41.117 19.9684C41.0672 20.4121 41.2541 20.8435 41.6029 21.1146ZM41.2665 21.016C41.0921 20.8065 40.98 20.5477 40.9551 20.2765C40.7931 20.4984 40.5564 20.6709 40.3072 20.7818C40.6187 20.8558 40.9426 20.9298 41.2665 21.016ZM41.5157 18.1935C41.1295 18.0949 40.7308 18.3167 40.6311 18.6865C40.5315 19.0563 40.7682 19.4384 41.1544 19.5246C41.5406 19.6232 41.9393 19.4014 42.0389 19.0316C42.1386 18.6618 41.9019 18.2798 41.5157 18.1935ZM41.5406 18.0825C41.9891 18.1935 42.2632 18.6249 42.1511 19.0563C42.0389 19.4877 41.578 19.7465 41.1295 19.6356C41.0243 19.6121 40.9249 19.5681 40.8371 19.5063C40.7493 19.4444 40.6748 19.3659 40.618 19.2752C40.5612 19.1846 40.5232 19.0837 40.5062 18.9784C40.4892 18.8731 40.4935 18.7655 40.519 18.6618C40.6311 18.2305 41.0921 17.9716 41.5406 18.0825ZM42.176 16.8377C41.9517 16.8377 41.7773 17.0102 41.7773 17.2198C41.7773 17.4293 41.9642 17.6018 42.176 17.6018C42.4002 17.6018 42.5747 17.4293 42.5747 17.2198C42.5747 16.9979 42.4002 16.8377 42.176 16.8377ZM42.176 16.7267C42.4625 16.7267 42.6992 16.9486 42.6992 17.2198C42.6992 17.4909 42.4625 17.7128 42.176 17.7128C41.8894 17.7128 41.6527 17.4909 41.6527 17.2198C41.6527 16.9486 41.8894 16.7267 42.176 16.7267ZM41.8396 15.4572C41.6153 15.4572 41.4409 15.6298 41.4409 15.8393C41.4409 16.0488 41.6278 16.2214 41.8396 16.2214C42.0639 16.2214 42.2383 16.0488 42.2383 15.8393C42.2383 15.6298 42.0639 15.4572 41.8396 15.4572ZM41.8396 15.3463C42.1261 15.3463 42.3629 15.5681 42.3629 15.8393C42.3629 16.1105 42.1261 16.3323 41.8396 16.3323C41.5531 16.3323 41.3163 16.1105 41.3163 15.8393C41.3163 15.5681 41.5531 15.3463 41.8396 15.3463ZM46.823 19.0809C46.5987 19.0809 46.4243 19.2535 46.4243 19.463C46.4243 19.6725 46.5987 19.8451 46.823 19.8451C47.0472 19.8451 47.2217 19.6725 47.2217 19.463C47.2217 19.2535 47.0472 19.0809 46.823 19.0809ZM46.823 18.97C47.1095 18.97 47.3462 19.1918 47.3462 19.463C47.3462 19.7342 47.1095 19.956 46.823 19.956C46.5364 19.956 46.2997 19.7342 46.2997 19.463C46.2997 19.1918 46.5364 18.97 46.823 18.97ZM46.4866 17.7128C46.2624 17.7128 46.0879 17.8853 46.0879 18.0949C46.0879 18.3044 46.2624 18.477 46.4866 18.477C46.7109 18.477 46.8853 18.3044 46.8853 18.0949C46.8853 17.8853 46.7109 17.7128 46.4866 17.7128ZM46.4866 17.6018C46.7732 17.6018 47.0099 17.8237 47.0099 18.0949C47.0099 18.366 46.7732 18.5879 46.4866 18.5879C46.2001 18.5879 45.9634 18.366 45.9634 18.0949C45.9758 17.8237 46.2001 17.6018 46.4866 17.6018ZM45.8886 16.5049C45.6644 16.5049 45.4899 16.6774 45.4899 16.887C45.4899 17.0965 45.6768 17.2691 45.8886 17.2691C46.1129 17.2691 46.2873 17.0965 46.2873 16.887C46.2873 16.6774 46.1129 16.5049 45.8886 16.5049ZM45.8886 16.3939C46.1751 16.3939 46.4119 16.6158 46.4119 16.887C46.4119 17.1581 46.1751 17.38 45.8886 17.38C45.6021 17.38 45.3653 17.1581 45.3653 16.887C45.3653 16.6158 45.6021 16.3939 45.8886 16.3939ZM44.9293 15.4325C44.705 15.4325 44.5306 15.6051 44.5306 15.8146C44.5306 16.0242 44.705 16.1967 44.9293 16.1967C45.1536 16.1967 45.328 16.0242 45.328 15.8146C45.328 15.6051 45.1536 15.4325 44.9293 15.4325ZM44.9293 15.3216C45.2158 15.3216 45.4526 15.5435 45.4526 15.8146C45.4526 16.0858 45.2283 16.3077 44.9293 16.3077C44.6428 16.3077 44.406 16.0858 44.406 15.8146C44.4185 15.5435 44.6428 15.3216 44.9293 15.3216ZM43.7582 14.6191C43.534 14.6191 43.3595 14.7916 43.3595 15.0011C43.3595 15.2107 43.534 15.3832 43.7582 15.3832C43.9825 15.3832 44.1569 15.2107 44.1569 15.0011C44.1569 14.7916 43.9825 14.6191 43.7582 14.6191ZM43.7582 14.5081C44.0448 14.5081 44.2815 14.73 44.2815 15.0011C44.2815 15.2723 44.0448 15.4942 43.7582 15.4942C43.4717 15.4942 43.235 15.2723 43.235 15.0011C43.235 14.73 43.4717 14.5081 43.7582 14.5081ZM42.4874 14.1384C42.2632 14.1384 42.0888 14.3109 42.0888 14.5205C42.0888 14.73 42.2632 14.9025 42.4874 14.9025C42.7117 14.9025 42.8861 14.73 42.8861 14.5205C42.8986 14.3109 42.7117 14.1384 42.4874 14.1384ZM42.4874 14.0274C42.774 14.0274 43.0107 14.2493 43.0107 14.5205C43.0107 14.7916 42.774 15.0135 42.4874 15.0135C42.2009 15.0135 41.9642 14.7916 41.9642 14.5205C41.9766 14.2493 42.2009 14.0274 42.4874 14.0274ZM41.2042 14.2493C40.98 14.2493 40.8055 14.4218 40.8055 14.6314C40.8055 14.8409 40.98 15.0135 41.2042 15.0135C41.4285 15.0135 41.6029 14.8409 41.6029 14.6314C41.6029 14.4218 41.4285 14.2493 41.2042 14.2493ZM41.2042 14.1384C41.4908 14.1384 41.7275 14.3602 41.7275 14.6314C41.7275 14.9025 41.4908 15.1244 41.2042 15.1244C40.9177 15.1244 40.681 14.9025 40.681 14.6314C40.681 14.3602 40.9177 14.1384 41.2042 14.1384ZM40.2574 13.2016C40.0331 13.2016 39.8587 13.3742 39.8587 13.5837C39.8587 13.7932 40.0331 13.9658 40.2574 13.9658C40.4816 13.9658 40.656 13.7932 40.656 13.5837C40.6685 13.3742 40.4816 13.2016 40.2574 13.2016ZM40.2574 13.103C40.5439 13.103 40.7806 13.3249 40.7806 13.596C40.7806 13.8672 40.5439 14.0891 40.2574 14.0891C39.9708 14.0891 39.7341 13.8672 39.7341 13.596C39.7466 13.3249 39.9708 13.103 40.2574 13.103ZM39.024 12.4251C38.7997 12.4251 38.6253 12.5977 38.6253 12.8072C38.6253 13.0167 38.7997 13.1893 39.024 13.1893C39.2482 13.1893 39.4227 13.0167 39.4227 12.8072C39.4227 12.5977 39.2482 12.4251 39.024 12.4251ZM39.024 12.3142C39.3105 12.3142 39.5472 12.536 39.5472 12.8072C39.5472 13.0784 39.3105 13.3002 39.024 13.3002C38.7374 13.3002 38.5007 13.0784 38.5007 12.8072C38.5132 12.536 38.7374 12.3142 39.024 12.3142ZM37.7408 11.9691C37.5165 11.9691 37.3421 12.1416 37.3421 12.3511C37.3421 12.5607 37.5165 12.7332 37.7408 12.7332C37.965 12.7332 38.1394 12.5607 38.1394 12.3511C38.1519 12.1416 37.965 11.9691 37.7408 11.9691ZM37.7408 11.8581C38.0273 11.8581 38.264 12.08 38.264 12.3511C38.264 12.6223 38.0273 12.8442 37.7408 12.8442C37.4542 12.8442 37.2175 12.6223 37.2175 12.3511C37.23 12.08 37.4542 11.8581 37.7408 11.8581ZM36.4326 11.7472C36.2084 11.7472 36.034 11.9198 36.034 12.1293C36.034 12.3388 36.2084 12.5114 36.4326 12.5114C36.6569 12.5114 36.8313 12.3388 36.8313 12.1293C36.8313 11.9198 36.6569 11.7472 36.4326 11.7472ZM36.4326 11.6363C36.7192 11.6363 36.9559 11.8581 36.9559 12.1293C36.9559 12.4005 36.7192 12.6223 36.4326 12.6223C36.1461 12.6223 35.9218 12.4005 35.9218 12.1293C35.9094 11.8581 36.1461 11.6363 36.4326 11.6363ZM23.9866 21.8665C24.3354 21.6816 24.46 21.2625 24.2732 20.9298C24.1762 20.7676 24.0196 20.6488 23.8362 20.5983C23.6527 20.5477 23.4566 20.5693 23.2889 20.6586C22.9401 20.8435 22.8155 21.2625 23.0024 21.5953C23.1893 21.9281 23.6378 22.0514 23.9866 21.8665ZM24.0364 21.9651C23.6253 22.1746 23.127 22.0391 22.9027 21.6446C22.8497 21.5523 22.8163 21.4502 22.8046 21.3446C22.7929 21.239 22.8031 21.1321 22.8346 21.0306C22.8661 20.929 22.9182 20.8349 22.9878 20.754C23.0573 20.6731 23.1428 20.6071 23.2391 20.56C23.6502 20.3504 24.161 20.486 24.3728 20.8805C24.5971 21.2625 24.4476 21.7556 24.0364 21.9651ZM29.1444 19.5246C29.5306 19.426 29.7673 19.0563 29.6677 18.6865C29.568 18.3167 29.1693 18.0949 28.7831 18.1935C28.3969 18.2921 28.1602 18.6618 28.2599 19.0316C28.372 19.4014 28.7582 19.6232 29.1444 19.5246ZM29.1818 19.6356C28.9687 19.6909 28.7423 19.6611 28.5512 19.5528C28.3601 19.4444 28.2197 19.2661 28.1602 19.0563C28.0481 18.6249 28.3097 18.1935 28.7707 18.0825C29.2192 17.9716 29.6801 18.2305 29.7923 18.6618C29.9044 19.0932 29.6303 19.5246 29.1818 19.6356ZM35.1494 18.7974C35.5481 18.7974 35.872 18.4893 35.872 18.1072C35.8704 18.0149 35.8504 17.9239 35.8132 17.8393C35.776 17.7546 35.7223 17.6781 35.6552 17.614C35.5881 17.5499 35.5089 17.4995 35.4221 17.4657C35.3353 17.4319 35.2427 17.4153 35.1494 17.417C35.0561 17.4153 34.9635 17.4319 34.8767 17.4657C34.7899 17.4995 34.7107 17.5499 34.6436 17.614C34.5765 17.6781 34.5228 17.7546 34.4856 17.8393C34.4484 17.9239 34.4284 18.0149 34.4268 18.1072C34.4268 18.4893 34.7507 18.7974 35.1494 18.7974ZM35.1494 18.9084C35.0414 18.91 34.9342 18.8906 34.8338 18.8512C34.7334 18.8118 34.6418 18.7532 34.5643 18.6788C34.4868 18.6044 34.4248 18.5157 34.382 18.4176C34.3392 18.3195 34.3163 18.214 34.3147 18.1072C34.3147 17.6635 34.6884 17.306 35.1494 17.306C35.6104 17.306 35.9841 17.6635 35.9841 18.1072C35.9966 18.5509 35.6104 18.9084 35.1494 18.9084ZM28.1353 17.6018C28.3595 17.6018 28.534 17.4293 28.534 17.2198C28.534 17.0102 28.3595 16.8377 28.1353 16.8377C27.911 16.8377 27.7366 17.0102 27.7366 17.2198C27.7242 17.4293 27.911 17.6018 28.1353 17.6018ZM28.1353 17.7128C27.8487 17.7128 27.6245 17.4909 27.6245 17.2198C27.6245 16.9486 27.8612 16.7267 28.1353 16.7267C28.4218 16.7267 28.6585 16.9486 28.6585 17.2198C28.6461 17.4909 28.4218 17.7128 28.1353 17.7128ZM28.4717 16.2214C28.6959 16.2214 28.8703 16.0488 28.8703 15.8393C28.8703 15.6298 28.6959 15.4572 28.4717 15.4572C28.2474 15.4572 28.073 15.6298 28.073 15.8393C28.0605 16.0488 28.2474 16.2214 28.4717 16.2214ZM28.4717 16.3323C28.1851 16.3323 27.9484 16.1105 27.9484 15.8393C27.9484 15.5681 28.1851 15.3463 28.4717 15.3463C28.7582 15.3463 28.9949 15.5681 28.9949 15.8393C28.9825 16.1105 28.7457 16.3323 28.4717 16.3323ZM23.4758 19.8574C23.7001 19.8574 23.8745 19.6849 23.8745 19.4753C23.8745 19.2658 23.7001 19.0932 23.4758 19.0932C23.2516 19.0932 23.0771 19.2658 23.0771 19.4753C23.0771 19.6849 23.2516 19.8574 23.4758 19.8574ZM23.4758 19.9684C23.1893 19.9684 22.9526 19.7465 22.9526 19.4753C22.9526 19.2042 23.1893 18.9823 23.4758 18.9823C23.7624 18.9823 23.9866 19.2042 23.9866 19.4753C23.9991 19.7465 23.7624 19.9684 23.4758 19.9684ZM23.8122 18.477C24.0364 18.477 24.2109 18.3044 24.2109 18.0949C24.2076 17.9924 24.1642 17.8952 24.0898 17.8239C24.0154 17.7526 23.9158 17.7127 23.8122 17.7128C23.5879 17.7128 23.4135 17.8853 23.4135 18.0949C23.4135 18.3044 23.5879 18.477 23.8122 18.477ZM23.8122 18.5879C23.5256 18.5879 23.2889 18.366 23.2889 18.0949C23.2889 17.8237 23.5256 17.6018 23.8122 17.6018C24.0987 17.6018 24.3354 17.8237 24.3354 18.0949C24.3354 18.366 24.0987 18.5879 23.8122 18.5879ZM24.4102 17.2691C24.6345 17.2691 24.8089 17.0965 24.8089 16.887C24.8089 16.6774 24.6345 16.5049 24.4102 16.5049C24.1859 16.5049 24.0115 16.6774 24.0115 16.887C24.0115 17.0965 24.1984 17.2691 24.4102 17.2691ZM24.4102 17.38C24.1237 17.38 23.8869 17.1581 23.8869 16.887C23.8869 16.6158 24.1237 16.3939 24.4102 16.3939C24.6967 16.3939 24.9335 16.6158 24.9335 16.887C24.9335 17.1581 24.6967 17.38 24.4102 17.38ZM25.3695 16.1967C25.5938 16.1967 25.7682 16.0242 25.7682 15.8146C25.7682 15.6051 25.5938 15.4325 25.3695 15.4325C25.1453 15.4325 24.9708 15.6051 24.9708 15.8146C24.9708 16.0242 25.1453 16.1967 25.3695 16.1967ZM25.3695 16.3077C25.083 16.3077 24.8462 16.0858 24.8462 15.8146C24.8462 15.5435 25.083 15.3216 25.3695 15.3216C25.656 15.3216 25.8928 15.5435 25.8928 15.8146C25.8928 16.0858 25.656 16.3077 25.3695 16.3077ZM26.5406 15.3832C26.7649 15.3832 26.9393 15.2107 26.9393 15.0011C26.9393 14.7916 26.7649 14.6191 26.5406 14.6191C26.3163 14.6191 26.1419 14.7916 26.1419 15.0011C26.1419 15.2107 26.3288 15.3832 26.5406 15.3832ZM26.5406 15.4942C26.2541 15.4942 26.0173 15.2723 26.0173 15.0011C26.0173 14.73 26.2541 14.5081 26.5406 14.5081C26.8271 14.5081 27.0639 14.73 27.0639 15.0011C27.0639 15.2723 26.8271 15.4942 26.5406 15.4942ZM27.8114 14.9149C28.0356 14.9149 28.21 14.7423 28.21 14.5328C28.21 14.3232 28.0356 14.1507 27.8114 14.1507C27.5871 14.1507 27.4127 14.3232 27.4127 14.5328C27.4127 14.7423 27.5871 14.9149 27.8114 14.9149ZM27.8114 15.0258C27.5248 15.0258 27.2881 14.8039 27.2881 14.5328C27.2881 14.2616 27.5248 14.0398 27.8114 14.0398C28.0979 14.0398 28.3346 14.2616 28.3346 14.5328C28.3222 14.8039 28.0979 15.0258 27.8114 15.0258ZM29.0946 15.0135C29.3188 15.0135 29.4933 14.8409 29.4933 14.6314C29.4933 14.4218 29.3188 14.2493 29.0946 14.2493C28.8703 14.2493 28.6959 14.4218 28.6959 14.6314C28.6959 14.8409 28.8703 15.0135 29.0946 15.0135ZM29.0946 15.1244C28.808 15.1244 28.5713 14.9025 28.5713 14.6314C28.5713 14.3602 28.808 14.1384 29.0946 14.1384C29.3811 14.1384 29.6178 14.3602 29.6178 14.6314C29.6178 14.9025 29.3811 15.1244 29.0946 15.1244ZM30.0414 13.9781C30.2657 13.9781 30.4401 13.8056 30.4401 13.596C30.4401 13.3865 30.2657 13.2139 30.0414 13.2139C29.8172 13.2139 29.6428 13.3865 29.6428 13.596C29.6428 13.8056 29.8172 13.9781 30.0414 13.9781ZM30.0414 14.0891C29.7549 14.0891 29.5182 13.8672 29.5182 13.596C29.5182 13.3249 29.7549 13.103 30.0414 13.103C30.328 13.103 30.5647 13.3249 30.5647 13.596C30.5647 13.8672 30.328 14.0891 30.0414 14.0891ZM31.2748 13.1893C31.4991 13.1893 31.6735 13.0167 31.6735 12.8072C31.6735 12.5977 31.4991 12.4251 31.2748 12.4251C31.0506 12.4251 30.8761 12.5977 30.8761 12.8072C30.8761 13.0167 31.0506 13.1893 31.2748 13.1893ZM31.2748 13.3002C30.9883 13.3002 30.7516 13.0784 30.7516 12.8072C30.7516 12.536 30.9883 12.3142 31.2748 12.3142C31.5614 12.3142 31.7981 12.536 31.7981 12.8072C31.7981 13.0784 31.5614 13.3002 31.2748 13.3002ZM32.558 12.7332C32.7823 12.7332 32.9567 12.5607 32.9567 12.3511C32.9567 12.1416 32.7823 11.9691 32.558 11.9691C32.3338 11.9691 32.1594 12.1416 32.1594 12.3511C32.1594 12.5607 32.3338 12.7332 32.558 12.7332ZM32.558 12.8442C32.2715 12.8442 32.0348 12.6223 32.0348 12.3511C32.0348 12.08 32.2715 11.8581 32.558 11.8581C32.8446 11.8581 33.0813 12.08 33.0813 12.3511C33.0813 12.6223 32.8446 12.8442 32.558 12.8442ZM35.1494 16.5049C35.3737 16.5049 35.5481 16.3323 35.5481 16.1228C35.5481 15.9132 35.3737 15.7407 35.1494 15.7407C34.9252 15.7407 34.7507 15.9132 34.7507 16.1228C34.7507 16.3323 34.9252 16.5049 35.1494 16.5049ZM35.1494 16.6158C34.8629 16.6158 34.6261 16.3939 34.6261 16.1228C34.6261 15.8516 34.8629 15.6298 35.1494 15.6298C35.4359 15.6298 35.6727 15.8516 35.6727 16.1228C35.6727 16.3939 35.4359 16.6158 35.1494 16.6158ZM35.1494 15.1121C35.3737 15.1121 35.5481 14.9395 35.5481 14.73C35.5481 14.5205 35.3737 14.3479 35.1494 14.3479C34.9252 14.3479 34.7507 14.5205 34.7507 14.73C34.7507 14.9395 34.9252 15.1121 35.1494 15.1121ZM35.1494 15.223C34.8629 15.223 34.6261 15.0011 34.6261 14.73C34.6261 14.4588 34.8629 14.237 35.1494 14.237C35.4359 14.237 35.6727 14.4588 35.6727 14.73C35.6727 15.0011 35.4359 15.223 35.1494 15.223ZM35.1494 13.7193C35.3737 13.7193 35.5481 13.5467 35.5481 13.3372C35.5481 13.1277 35.3737 12.9551 35.1494 12.9551C34.9252 12.9551 34.7507 13.1277 34.7507 13.3372C34.7507 13.5467 34.9252 13.7193 35.1494 13.7193ZM35.1494 13.8179C34.8629 13.8179 34.6261 13.596 34.6261 13.3249C34.6261 13.0537 34.8629 12.8318 35.1494 12.8318C35.4359 12.8318 35.6727 13.0537 35.6727 13.3249C35.6727 13.6084 35.4359 13.8179 35.1494 13.8179ZM33.8786 12.5114C34.1029 12.5114 34.2773 12.3388 34.2773 12.1293C34.2741 12.0268 34.2306 11.9296 34.1562 11.8583C34.0818 11.787 33.9822 11.7471 33.8786 11.7472C33.6544 11.7472 33.4675 11.9198 33.4675 12.1293C33.4675 12.3511 33.6544 12.5114 33.8786 12.5114ZM33.8786 12.6346C33.5921 12.6346 33.3554 12.4128 33.3554 12.1416C33.3554 11.8705 33.5921 11.6486 33.8786 11.6486C34.1652 11.6486 34.4019 11.8705 34.4019 12.1416C34.3894 12.4128 34.1652 12.6346 33.8786 12.6346ZM47.0099 20.6586C46.842 20.5703 46.6462 20.5492 46.463 20.5996C46.2798 20.6501 46.1232 20.7683 46.0256 20.9298C45.8388 21.2625 45.9634 21.6816 46.3122 21.8665C46.661 22.0514 47.0971 21.9281 47.2964 21.5953C47.4957 21.2625 47.3712 20.8435 47.0099 20.6586ZM47.0722 20.56C47.4833 20.7695 47.6203 21.2625 47.3961 21.6446C47.2838 21.8341 47.1018 21.9733 46.8882 22.0331C46.6745 22.0928 46.4458 22.0685 46.2499 21.9651C46.1543 21.9173 46.0696 21.8507 46.001 21.7694C45.9324 21.688 45.8814 21.5936 45.8511 21.492C45.8207 21.3904 45.8117 21.2837 45.8246 21.1786C45.8375 21.0734 45.872 20.9719 45.926 20.8805C46.0382 20.6909 46.2202 20.5517 46.4339 20.492C46.6475 20.4323 46.8763 20.4566 47.0722 20.56ZM25.0082 20.8311C24.8961 20.56 24.759 20.3505 24.46 20.2642C24.6594 17.8853 25.2948 16.8007 27.5497 15.716C27.7491 15.79 27.7366 15.8146 27.7366 15.8393C27.7366 16.1598 27.9235 16.32 28.1602 16.4925C27.7615 16.5788 27.4002 16.7514 27.4002 17.2198C27.4002 17.6018 27.6743 17.8114 28.0232 17.91C27.911 18.1195 27.8861 18.2058 27.911 18.4523C27.4501 18.6618 27.3504 18.9453 27.4625 19.3891C27.6369 20.0177 28.0356 20.0916 28.671 19.9314C28.7052 20.1272 28.6711 20.3287 28.5742 20.5028C28.4773 20.6768 28.3234 20.8131 28.1378 20.8891C27.9522 20.9651 27.746 20.9764 27.5531 20.9211C27.3601 20.8657 27.192 20.7471 27.0763 20.5846C27.0763 20.523 27.0639 20.4737 27.0514 20.4121C26.9517 20.0546 26.5531 19.8328 26.1544 19.9191C25.7682 20.0177 25.519 20.3998 25.6187 20.7695C25.656 20.8928 25.7183 20.9914 25.8055 21.0777C25.8429 21.4351 25.681 21.7556 25.357 21.9281C25.0207 22.1007 24.759 22.0267 24.4351 21.9158C24.9708 21.6693 25.2449 21.4351 25.0082 20.8311ZM25.0456 18.2551C24.8213 18.7851 24.7092 19.4014 24.6345 20.1532C24.8961 20.2642 25.0705 20.523 25.1702 20.7818C25.3321 21.1763 25.3321 21.583 24.8836 21.8911C25.0207 21.9035 25.1452 21.8788 25.2698 21.8049C25.519 21.6693 25.656 21.4228 25.6436 21.1639C25.5574 21.0632 25.4937 20.9456 25.4567 20.8188C25.3321 20.3504 25.6311 19.8821 26.1046 19.7711C26.5904 19.6479 27.0763 19.9314 27.2134 20.3874C27.2258 20.4367 27.2383 20.486 27.2383 20.5353C27.6494 21.016 28.4717 20.7695 28.509 20.1409C27.7491 20.2888 27.4252 19.9191 27.3006 19.426C27.1884 19.0193 27.2383 18.6002 27.7242 18.3537C27.7242 18.2181 27.7366 18.1072 27.774 18.0086C27.6413 17.9543 27.5242 17.8686 27.4329 17.759C27.3417 17.6494 27.2791 17.5192 27.2507 17.38C26.8147 17.4663 26.3288 17.5895 25.9301 17.7498C25.5439 17.8853 25.2574 18.0825 25.0456 18.2551ZM27.5622 15.8886C26.3039 16.5172 25.5688 17.1581 25.1328 18.0456C25.357 17.8853 25.6062 17.7498 25.8803 17.6511C26.2914 17.4909 26.7898 17.3677 27.2258 17.2814V17.2198C27.2258 16.8623 27.4625 16.5418 27.7864 16.4186C27.6528 16.2724 27.5736 16.0854 27.5622 15.8886ZM44.9418 21.9405C44.789 21.8601 44.6643 21.7358 44.5843 21.584C44.5042 21.4322 44.4725 21.26 44.4933 21.09C44.5805 21.0037 44.6428 20.9051 44.6801 20.7818C44.7024 20.692 44.7066 20.5987 44.6923 20.5073C44.678 20.4158 44.6457 20.3281 44.5971 20.2491C44.5484 20.1701 44.4845 20.1013 44.409 20.0468C44.3335 19.9923 44.2478 19.9531 44.1569 19.9314C44.0502 19.9036 43.9385 19.8999 43.8302 19.9206C43.7219 19.9413 43.6196 19.9858 43.5311 20.0509C43.4425 20.116 43.3699 20.2 43.3187 20.2967C43.2674 20.3934 43.2388 20.5002 43.235 20.6093C42.6743 21.3118 41.5406 20.9421 41.6403 19.956C42.2756 20.1039 42.6743 20.0423 42.8487 19.4137C42.9733 18.97 42.8612 18.6865 42.4127 18.477C42.4252 18.2305 42.4127 18.1442 42.3006 17.9346C42.6494 17.836 42.9235 17.6265 42.9235 17.2444C42.9235 16.776 42.5622 16.6035 42.1635 16.5295C42.4002 16.3446 42.5996 16.1967 42.5996 15.8763C42.5996 15.8516 42.5996 15.8146 42.5871 15.79L42.7491 15.7407C44.9916 16.813 45.6768 17.9346 45.8761 20.2888C45.5647 20.3751 45.4276 20.5846 45.328 20.8558C45.0913 21.4598 45.3653 21.6939 45.9011 21.9528C45.5398 22.0391 45.2781 22.113 44.9418 21.9405ZM43.0605 17.38C42.9982 17.6635 42.7989 17.8977 42.5248 18.0086C42.5622 18.1072 42.5871 18.2305 42.5747 18.3537C43.073 18.6002 43.1104 19.0193 42.9982 19.426C42.8612 19.9191 42.5497 20.2888 41.7898 20.1409C41.8271 20.7695 42.6494 21.016 43.0605 20.5353C43.0605 20.486 43.073 20.4367 43.0854 20.3874C43.21 19.9314 43.7084 19.6479 44.1818 19.7711C44.6677 19.8944 44.9542 20.3628 44.8296 20.8188C44.7923 20.9421 44.73 21.0653 44.6428 21.1516C44.6178 21.5707 44.9791 21.9035 45.4027 21.8788C44.9542 21.583 44.9542 21.1763 45.1162 20.7695C45.2158 20.5107 45.3778 20.2518 45.6519 20.1409C45.5896 19.3891 45.465 18.7728 45.2408 18.2428C45.029 18.0702 44.73 17.873 44.3562 17.7374C43.9825 17.6018 43.4841 17.4786 43.0605 17.38ZM42.7366 15.8639C42.7242 16.0735 42.6369 16.2707 42.4999 16.4063C42.8363 16.5295 43.073 16.8377 43.073 17.2074V17.2691C43.5215 17.3677 43.9949 17.4786 44.4185 17.6388C44.7175 17.7498 44.9667 17.8853 45.166 18.0332C44.73 17.1581 43.9949 16.5172 42.7366 15.8639ZM40.1203 23.2839L38.8496 22.4335L40.3944 22.2732L41.6652 23.1237L40.1203 23.2839ZM37.7283 22.7909C37.4418 22.7909 37.2175 22.5691 37.2175 22.2979C37.2175 22.0267 37.4542 21.8049 37.7283 21.8049C38.0149 21.8049 38.2516 22.0267 38.2516 22.2979C38.2516 22.5691 38.0149 22.7909 37.7283 22.7909ZM37.7283 22.68C37.9526 22.68 38.127 22.5074 38.127 22.2979C38.127 22.0884 37.9526 21.9158 37.7283 21.9158C37.5041 21.9158 37.3296 22.0884 37.3296 22.2979C37.3296 22.5074 37.5165 22.68 37.7283 22.68ZM27.5871 23.9618C27.8114 23.9618 27.9858 23.7893 27.9858 23.5798C27.9858 23.3702 27.8114 23.1977 27.5871 23.1977C27.3629 23.1977 27.1884 23.3702 27.1884 23.5798C27.1884 23.7893 27.3629 23.9618 27.5871 23.9618ZM27.5871 24.0728C27.3006 24.0728 27.0639 23.8509 27.0639 23.5798C27.0639 23.3086 27.3006 23.0867 27.5871 23.0867C27.8737 23.0867 28.1104 23.3086 28.1104 23.5798C28.0979 23.8509 27.8737 24.0728 27.5871 24.0728ZM32.5705 22.68C32.7948 22.68 32.9692 22.5074 32.9692 22.2979C32.9659 22.1954 32.9225 22.0983 32.8481 22.0269C32.7737 21.9556 32.6741 21.9157 32.5705 21.9158C32.3462 21.9158 32.1718 22.0884 32.1718 22.2979C32.1594 22.5074 32.3462 22.68 32.5705 22.68ZM32.5705 22.7909C32.284 22.7909 32.0472 22.5691 32.0472 22.2979C32.0472 22.0267 32.284 21.8049 32.5705 21.8049C32.857 21.8049 33.0938 22.0267 33.0938 22.2979C33.0813 22.5691 32.857 22.7909 32.5705 22.7909ZM42.7117 23.9618C42.9359 23.9618 43.1104 23.7893 43.1104 23.5798C43.1104 23.3702 42.9359 23.1977 42.7117 23.1977C42.4874 23.1977 42.313 23.3702 42.313 23.5798C42.313 23.7893 42.4874 23.9618 42.7117 23.9618ZM42.7117 24.0728C42.4252 24.0728 42.1884 23.8509 42.1884 23.5798C42.1884 23.3086 42.4252 23.0867 42.7117 23.0867C42.9982 23.0867 43.235 23.3086 43.235 23.5798C43.235 23.8509 42.9982 24.0728 42.7117 24.0728ZM30.1785 23.2839L28.6336 23.1237L29.9044 22.2732L31.4492 22.4335L30.1785 23.2839ZM36.4451 22.1623L35.1494 21.7063L33.8662 22.1623L35.1494 22.6184L36.4451 22.1623ZM36.769 22.1623L35.1494 22.7416L33.5298 22.1623L35.1494 21.583L36.769 22.1623Z" fill="#004996"/>
</svg>
