<svg width="18" height="19" viewBox="0 0 18 19" fill="none" xmlns="http://www.w3.org/2000/svg">
<g opacity="0.5">
<path fill-rule="evenodd" clip-rule="evenodd" d="M13.2803 5.21967C13.5732 5.51256 13.5732 5.98744 13.2803 6.28033L5.78033 13.7803C5.48744 14.0732 5.01256 14.0732 4.71967 13.7803C4.42678 13.4874 4.42678 13.0126 4.71967 12.7197L12.2197 5.21967C12.5126 4.92678 12.9874 4.92678 13.2803 5.21967Z" fill="#181818"/>
<path fill-rule="evenodd" clip-rule="evenodd" d="M4.5 5.75C4.5 5.33579 4.83579 5 5.25 5H12.75C13.1642 5 13.5 5.33579 13.5 5.75V13.25C13.5 13.6642 13.1642 14 12.75 14C12.3358 14 12 13.6642 12 13.25V6.5H5.25C4.83579 6.5 4.5 6.16421 4.5 5.75Z" fill="#181818"/>
</g>
</svg>
