<svg width="70" height="70" viewBox="0 0 70 70" fill="none" xmlns="http://www.w3.org/2000/svg">
<g clip-path="url(#clip0_81_39522)">
<path d="M9 17H62V52H9V17Z" fill="white"/>
<path d="M28.6294 20.8889H61.9998V24.7778H28.6294V20.8889Z" fill="#0038A8"/>
<path d="M28.6294 28.6667H61.9998V32.5556H28.6294V28.6667Z" fill="#0038A8"/>
<path d="M9 36.4446H62V40.3335H9V36.4446Z" fill="#0038A8"/>
<path d="M9 44.2222H62V48.1111H9V44.2222Z" fill="#0038A8"/>
<path d="M18.3703 28.6235L19.0201 29.5847C16.35 31.4988 17.9801 32.6307 16.0879 33.2433C17.2648 32.1056 15.9323 31.9302 16.9239 29.5589" fill="#FCD116"/>
<path fill-rule="evenodd" clip-rule="evenodd" d="M18.3883 28.5344L19.1089 29.6003L19.0583 29.6365C18.3958 30.1114 18.0031 30.5356 17.7561 30.9125C17.5093 31.2891 17.4058 31.6216 17.325 31.9186C17.3161 31.9516 17.3074 31.9844 17.2987 32.0168C17.2304 32.2734 17.167 32.5114 17.0224 32.7187C16.8567 32.9561 16.5897 33.1483 16.1083 33.3042L15.8438 33.3898L16.0429 33.1973C16.3324 32.9174 16.4611 32.7029 16.5132 32.5049C16.5656 32.3052 16.5427 32.1148 16.5114 31.8717L16.5103 31.8634C16.4795 31.6236 16.443 31.3401 16.4762 30.9692C16.5098 30.5941 16.6143 30.1321 16.8643 29.5342L16.8891 29.475L17.0088 29.524L16.984 29.5833C16.7382 30.171 16.6375 30.6203 16.6052 30.9805C16.5733 31.3376 16.6083 31.6097 16.639 31.8491L16.6399 31.8555C16.6707 32.0949 16.6982 32.3098 16.6385 32.5372C16.5931 32.7101 16.4986 32.886 16.3263 33.0862C16.6266 32.9573 16.801 32.8103 16.9158 32.6458C17.0467 32.4581 17.1041 32.2433 17.1736 31.9834C17.1822 31.9514 17.1909 31.9187 17.2 31.8852C17.282 31.5834 17.3898 31.2358 17.6475 30.8427C17.8984 30.4598 18.2894 30.0367 18.9319 29.5691L18.2807 28.6058L18.3883 28.5344Z" fill="#7B3F00"/>
<path d="M17.1416 27.7584L16.9176 28.8956C13.6617 28.3698 14.0111 30.3177 12.2335 29.4192C13.878 29.4429 13.0956 28.3666 15.4873 27.3875" fill="#FCD116"/>
<path fill-rule="evenodd" clip-rule="evenodd" d="M17.2172 27.7079L16.9689 28.9689L16.9072 28.9589C16.0994 28.8285 15.5189 28.8521 15.0754 28.9448C14.6323 29.0374 14.3221 29.1996 14.0533 29.3529C14.0234 29.3699 13.9939 29.3869 13.9647 29.4038C13.7335 29.5372 13.5191 29.6608 13.2689 29.7057C12.9824 29.757 12.6563 29.7049 12.204 29.4763L11.9554 29.3507L12.2338 29.3547C12.6381 29.3605 12.8846 29.2986 13.0662 29.1936C13.2493 29.0878 13.3734 28.9349 13.5289 28.7393L13.5366 28.7296C13.6895 28.5373 13.8698 28.3105 14.1593 28.0717C14.4536 27.8288 14.8589 27.5748 15.462 27.3279L15.5218 27.3034L15.5717 27.4224L15.5119 27.4469C14.9191 27.6895 14.5253 27.9372 14.2423 28.1708C13.9633 28.401 13.79 28.619 13.6373 28.8111L13.6308 28.8193C13.4774 29.0122 13.3393 29.185 13.1318 29.3049C12.9738 29.3962 12.7796 29.4549 12.5136 29.4755C12.8184 29.5957 13.0468 29.6146 13.2453 29.579C13.4718 29.5385 13.6655 29.4269 13.8998 29.292C13.9287 29.2754 13.9582 29.2584 13.9884 29.2412C14.2615 29.0855 14.5855 28.9155 15.0482 28.8189C15.4987 28.7247 16.0772 28.7007 16.8656 28.8222L17.09 27.6826L17.2172 27.7079Z" fill="#7B3F00"/>
<path d="M17.1413 27.7568L16.6282 27.6638L16.6336 27.6848C15.266 28.0147 14.5244 28.5764 13.9435 29.0033C13.6529 29.2167 13.4021 29.3981 13.13 29.4961C12.9497 29.5621 12.7562 29.5848 12.565 29.5624C13.9787 30.0642 13.8812 28.4044 16.9174 28.8947L17.1413 27.7568Z" fill="#7B3F00"/>
<path fill-rule="evenodd" clip-rule="evenodd" d="M17.1762 27.7332L16.9411 28.9281L16.913 28.9235C16.1566 28.8014 15.5968 28.8134 15.1609 28.8915C14.7251 28.9696 14.4116 29.1139 14.1473 29.2584C14.0786 29.296 14.0128 29.3339 13.9488 29.3708C13.7681 29.4748 13.6017 29.5706 13.4241 29.6286C13.1802 29.7081 12.9145 29.7174 12.5554 29.5899L12.3106 29.503L12.5685 29.5333C12.7551 29.5551 12.944 29.5329 13.1199 29.4685L13.12 29.4685C13.3874 29.3722 13.6347 29.1936 13.9261 28.9796M17.1762 27.7332L17.1467 27.7279ZM17.1068 27.7801L16.6681 27.7006L16.6696 27.7063L16.6408 27.7132C15.3112 28.0339 14.5765 28.5743 14.0024 28.9966C13.9886 29.0067 13.9749 29.0168 13.9613 29.0268C13.6715 29.2396 13.4173 29.4239 13.1404 29.5235C13.0276 29.5648 12.9097 29.5896 12.7904 29.5973C13.0321 29.6507 13.2254 29.6316 13.4054 29.5729C13.5768 29.517 13.7356 29.4256 13.9143 29.3227C13.9793 29.2853 14.0469 29.2464 14.1187 29.2071C14.3863 29.0607 14.706 28.9134 15.1501 28.8338C15.5885 28.7553 16.1466 28.743 16.8941 28.8612L17.1068 27.7801ZM16.598 27.6632L16.5887 27.6267L17.1467 27.7279M16.598 27.6632C15.2748 27.9876 14.5389 28.5289 13.9674 28.9493C13.9535 28.9595 13.9397 28.9696 13.9261 28.9796" fill="#7B3F00"/>
<path fill-rule="evenodd" clip-rule="evenodd" d="M13.907 28.8725C14.484 28.4477 15.2433 27.8887 16.6043 27.5606L16.6354 27.6858C15.2998 28.0079 14.5575 28.5543 13.9839 28.9766C13.9707 28.9863 13.9576 28.9959 13.9446 29.0055C13.6559 29.2178 13.4014 29.4016 13.131 29.4992C12.856 29.5984 12.5673 29.608 12.211 29.482L12.254 29.3606C12.5834 29.4771 12.841 29.4665 13.0862 29.378C13.3359 29.2879 13.5752 29.1165 13.8671 28.9018C13.8803 28.8921 13.8936 28.8823 13.907 28.8725Z" fill="#7B3F00"/>
<path d="M18.8149 26.7222L17.8988 25.8147L13.7764 31.7131L19.731 27.6296L18.8149 26.7222L13.7764 31.7131Z" fill="#FCD116"/>
<path fill-rule="evenodd" clip-rule="evenodd" d="M17.8898 25.7151L19.8318 27.6387L13.5205 31.9668L17.8898 25.7151ZM17.908 25.9145L14.2385 31.1648L18.7234 26.7222L17.908 25.9145ZM18.815 26.813L14.3301 31.2556L19.6305 27.6207L18.815 26.813Z" fill="#7B3F00"/>
<path d="M16.8929 26.2787L15.921 26.9263C13.9949 24.2792 12.8483 25.9007 12.2342 24.0231C13.38 25.1891 13.5713 23.8676 15.963 24.8467" fill="#FCD116"/>
<path fill-rule="evenodd" clip-rule="evenodd" d="M16.9828 26.296L15.905 27.0142L15.8685 26.964C15.3906 26.3072 14.9633 25.9183 14.5834 25.6739C14.2038 25.4297 13.8683 25.3277 13.5687 25.2482C13.5354 25.2394 13.5023 25.2308 13.4696 25.2223C13.2107 25.155 12.9706 25.0927 12.7616 24.9495C12.5223 24.7856 12.3289 24.5209 12.1727 24.0432L12.0868 23.7806L12.2808 23.978C12.5626 24.2648 12.7796 24.3922 12.9805 24.4436C13.183 24.4955 13.3767 24.4725 13.6236 24.4411L13.6327 24.44C13.8761 24.4091 14.1635 24.3725 14.5385 24.4048C14.9182 24.4374 15.385 24.5403 15.9881 24.7872L16.0479 24.8116L15.998 24.9306L15.9382 24.9061C15.3454 24.6635 14.8914 24.5643 14.5267 24.533C14.1656 24.5019 13.8896 24.537 13.6466 24.5678L13.6394 24.5687C13.3963 24.5996 13.1779 24.6272 12.9476 24.5682C12.7723 24.5234 12.5944 24.4299 12.3923 24.2591C12.5218 24.557 12.6697 24.7299 12.8355 24.8435C13.0247 24.9731 13.2415 25.0296 13.5037 25.0979C13.536 25.1064 13.569 25.115 13.6027 25.1239C13.9072 25.2047 14.2579 25.3109 14.6542 25.5658C15.0402 25.8141 15.4664 26.2014 15.937 26.8383L16.911 26.1893L16.9828 26.296Z" fill="#7B3F00"/>
<path d="M16.8943 26.2785L16.598 25.854L16.5867 25.8727C15.3838 25.1499 14.4576 25.0287 13.7415 24.9244C13.3834 24.8721 13.0763 24.8252 12.8138 24.7042C12.6392 24.6249 12.486 24.5056 12.3669 24.3561C13.0077 25.6992 14.1259 24.4574 15.9221 26.9266L16.8943 26.2785Z" fill="#7B3F00"/>
<path fill-rule="evenodd" clip-rule="evenodd" d="M16.9356 26.2859L15.9147 26.9665L15.8981 26.9437C15.4506 26.3285 15.0462 25.9457 14.6821 25.6961C14.3181 25.4467 13.9932 25.3296 13.7029 25.2471C13.6275 25.2256 13.5539 25.2064 13.4822 25.1877C13.2801 25.135 13.0938 25.0864 12.9268 25.0032C12.6975 24.889 12.503 24.7098 12.3402 24.3686L12.2292 24.136L12.39 24.3377C12.5063 24.4836 12.6557 24.6 12.8262 24.6774L12.8263 24.6774C13.0842 24.7963 13.3869 24.8428 13.7459 24.8952M16.9356 26.2859L16.9186 26.2615ZM16.853 26.2706L16.5997 25.9077L16.5966 25.9127L16.5714 25.8975C15.4017 25.1948 14.4957 25.0633 13.7878 24.9606C13.7707 24.9581 13.7539 24.9556 13.7371 24.9532C13.3799 24.9011 13.0684 24.8537 12.8013 24.7306C12.692 24.681 12.591 24.6161 12.5011 24.5381C12.6339 24.7448 12.7841 24.8665 12.9534 24.9508C13.1146 25.031 13.2923 25.0774 13.4922 25.1296C13.5649 25.1486 13.6406 25.1683 13.7194 25.1907C14.0134 25.2743 14.3448 25.3937 14.7157 25.6478C15.0819 25.8988 15.4853 26.2803 15.9293 26.8864L16.853 26.2706ZM16.5768 25.8322L16.5964 25.8L16.9186 26.2615M16.5768 25.8322C15.4092 25.1367 14.5017 25.0049 13.7968 24.9026C13.7797 24.9002 13.7628 24.8977 13.7459 24.8952" fill="#7B3F00"/>
<path fill-rule="evenodd" clip-rule="evenodd" d="M13.8086 24.8052C14.5202 24.9086 15.4566 25.0445 16.6535 25.7647L16.586 25.875C15.4114 25.1683 14.496 25.0354 13.7886 24.9327C13.7723 24.9303 13.7562 24.928 13.7401 24.9256C13.3843 24.8738 13.073 24.8257 12.812 24.7055C12.5467 24.5833 12.3356 24.3881 12.1738 24.0497L12.2909 23.9939C12.4405 24.3068 12.6304 24.4795 12.867 24.5885C13.1079 24.6994 13.3996 24.7457 13.7595 24.7981C13.7757 24.8005 13.7921 24.8028 13.8086 24.8052Z" fill="#7B3F00"/>
<path d="M18.8145 26.7223V25.439L11.6889 26.7223L18.8145 28.0056V26.7223H11.6889Z" fill="#FCD116"/>
<path fill-rule="evenodd" clip-rule="evenodd" d="M18.8794 25.3621V28.0825L11.3269 26.7223L18.8794 25.3621ZM18.7498 25.5158L12.4075 26.6581H18.7498V25.5158ZM18.7498 26.7864H12.4075L18.7498 27.9287V26.7864Z" fill="#7B3F00"/>
<path d="M18.8145 26.7222H11.6889L18.8145 28.0055" fill="#7B3F00"/>
<path d="M17.7719 25.0667L16.6263 24.8422C17.148 21.6185 15.1874 21.9599 16.088 20.2013C16.068 21.8301 17.2055 21.188 18.1971 23.5592" fill="#FCD116"/>
<path fill-rule="evenodd" clip-rule="evenodd" d="M17.8229 25.142L16.5525 24.8931L16.5624 24.832C16.6918 24.0322 16.6667 23.4572 16.5723 23.0177C16.478 22.5785 16.3139 22.2709 16.1589 22.0043C16.1417 21.9747 16.1245 21.9454 16.1075 21.9164C15.9726 21.6871 15.8476 21.4745 15.8018 21.2265C15.7495 20.9426 15.8011 20.6197 16.0303 20.1722L16.1562 19.9263L16.1528 20.2021C16.1479 20.6018 16.214 20.8547 16.3258 21.0477C16.4387 21.2424 16.601 21.3822 16.805 21.5528C16.8112 21.558 16.8174 21.5632 16.8237 21.5684C17.2311 21.9091 17.7632 22.3539 18.2569 23.5347L18.2817 23.5939L18.162 23.643L18.1372 23.5838C17.6555 22.4316 17.1414 22.0019 16.7423 21.6683C16.7353 21.6625 16.7283 21.6566 16.7214 21.6508C16.5195 21.482 16.3393 21.3287 16.2135 21.1116C16.1173 20.9456 16.0546 20.7458 16.0322 20.478C15.9115 20.78 15.8929 21.0065 15.9293 21.2035C15.9707 21.4279 16.0834 21.62 16.2198 21.8524C16.2366 21.8811 16.2538 21.9103 16.2712 21.9403C16.4287 22.2112 16.6006 22.5325 16.699 22.991C16.7949 23.4375 16.8204 24.0105 16.7 24.7912L17.8481 25.0161L17.8229 25.142Z" fill="#7B3F00"/>
<path d="M17.7718 25.0668L17.8642 24.5589L17.843 24.5641C17.5078 23.2091 16.9407 22.4734 16.5097 21.8971C16.2943 21.6088 16.111 21.3601 16.0118 21.0904C15.945 20.9117 15.9216 20.72 15.9437 20.5307C15.4421 21.9295 17.1123 21.8369 16.626 24.8424L17.7718 25.0668Z" fill="#7B3F00"/>
<path fill-rule="evenodd" clip-rule="evenodd" d="M17.7955 25.1011L16.5924 24.8654L16.5969 24.8376C16.7181 24.0888 16.7047 23.5345 16.625 23.1026C16.5454 22.6709 16.3994 22.3601 16.2533 22.0981C16.2153 22.0299 16.177 21.9647 16.1398 21.9012C16.0347 21.7221 15.9379 21.557 15.8791 21.381C15.7984 21.1393 15.7885 20.8762 15.9159 20.5208L16.0028 20.2786L15.973 20.534C15.9514 20.7187 15.9742 20.9058 16.0394 21.0801L16.0395 21.0803C16.137 21.3453 16.3174 21.5906 16.5334 21.8796M17.7955 25.1011L17.8008 25.0718ZM17.7481 25.0323L17.8271 24.598L17.8214 24.5994L17.8144 24.5709C17.4884 23.2535 16.9429 22.5247 16.5165 21.9551C16.5063 21.9414 16.4961 21.9279 16.486 21.9144C16.2712 21.6269 16.0851 21.3747 15.9841 21.1003C15.9423 20.9885 15.9171 20.8717 15.909 20.7535C15.8559 20.9928 15.8755 21.1843 15.9351 21.3626C15.9918 21.5324 16.0841 21.6899 16.1881 21.8672C16.2259 21.9316 16.2652 21.9986 16.3049 22.0698C16.4529 22.3352 16.6019 22.6521 16.683 23.0921C16.7631 23.5264 16.7768 24.0791 16.6596 24.8191L17.7481 25.0323ZM17.8645 24.5286L17.9013 24.5196L17.8008 25.0718M17.8645 24.5286C17.535 23.2176 16.9885 22.4876 16.5641 21.9206C16.5538 21.9068 16.5435 21.8932 16.5334 21.8796" fill="#7B3F00"/>
<path fill-rule="evenodd" clip-rule="evenodd" d="M16.6434 21.8602C17.0718 22.4325 17.6355 23.1854 17.9686 24.5335L17.8428 24.564C17.5159 23.2411 16.9648 22.505 16.539 21.9362C16.5292 21.9231 16.5195 21.9101 16.5098 21.8972C16.2957 21.6109 16.1104 21.3586 16.0116 21.0906C15.9112 20.8182 15.9009 20.5323 16.0267 20.18L16.1489 20.2228C16.0325 20.5486 16.0438 20.8037 16.1333 21.0466C16.2245 21.2939 16.3974 21.5313 16.6139 21.8208C16.6237 21.8338 16.6335 21.847 16.6434 21.8602Z" fill="#7B3F00"/>
<path d="M18.8149 26.7222L19.731 25.8147L13.7763 21.7312L17.8988 27.6296L18.8149 26.7222L13.7763 21.7312Z" fill="#FCD116"/>
<path fill-rule="evenodd" clip-rule="evenodd" d="M19.8315 25.8057L17.8896 27.7293L13.5202 21.4775L19.8315 25.8057ZM19.6302 25.8237L14.33 22.1889L18.8148 26.6314L19.6302 25.8237ZM18.7231 26.7221L14.2384 22.2797L17.9077 27.5298L18.7231 26.7221Z" fill="#7B3F00"/>
<path d="M18.8149 26.7222L13.7764 21.7312L17.8988 27.6296" fill="#7B3F00"/>
<path d="M19.2563 24.8231L18.6104 23.8636C21.2783 21.9434 19.655 20.8154 21.5439 20.1983C20.3673 21.3387 21.6891 21.5232 20.6944 23.8966" fill="#FCD116"/>
<path fill-rule="evenodd" clip-rule="evenodd" d="M19.238 24.9124L18.5218 23.8483L18.5724 23.8119C19.2343 23.3355 19.627 22.9104 19.8743 22.533C20.1214 22.1558 20.2255 21.8231 20.3067 21.5259C20.3157 21.4929 20.3245 21.4601 20.3332 21.4276C20.402 21.1709 20.4658 20.9328 20.6106 20.7252C20.7763 20.4873 21.0432 20.2946 21.5238 20.1376L21.7879 20.0513L21.5887 20.2443C21.2993 20.5248 21.1699 20.7404 21.1169 20.9398C21.0635 21.1408 21.0851 21.3328 21.1149 21.5773L21.1161 21.5871C21.1454 21.828 21.18 22.1124 21.1454 22.4836C21.1104 22.8599 21.0046 23.3228 20.7538 23.9213L20.7289 23.9806L20.6097 23.9318L20.6345 23.8724C20.8811 23.2842 20.9831 22.8339 21.0168 22.4724C21.05 22.1149 21.0168 21.8417 20.9875 21.6013L20.9866 21.5933C20.9573 21.3524 20.9312 21.1361 20.992 20.9076C21.0382 20.7338 21.1332 20.5571 21.3058 20.3561C21.006 20.4857 20.8316 20.6331 20.7167 20.7979C20.5857 20.9858 20.5279 21.2008 20.458 21.4608C20.4493 21.4929 20.4406 21.5256 20.4314 21.559C20.3489 21.861 20.2405 22.2088 19.9825 22.6026C19.7313 22.986 19.3403 23.41 18.6983 23.8791L19.3456 24.8407L19.238 24.9124Z" fill="#7B3F00"/>
<path d="M19.2555 24.8217L19.6828 24.5264L19.6641 24.5153C20.395 23.321 20.521 22.4036 20.629 21.6942C20.6831 21.3394 20.7316 21.0352 20.8543 20.7747C20.9347 20.6015 21.0551 20.4493 21.2056 20.3306C19.855 20.9714 21.0957 22.0725 18.6098 23.8623L19.2555 24.8217Z" fill="#7B3F00"/>
<path fill-rule="evenodd" clip-rule="evenodd" d="M19.2475 24.8627L18.5696 23.8553L18.5925 23.8387C19.2119 23.3928 19.5979 22.9907 19.85 22.629C20.1019 22.2675 20.221 21.9453 20.3051 21.6576C20.327 21.5828 20.3466 21.5098 20.3657 21.4388C20.4196 21.2384 20.4693 21.0538 20.5535 20.8881C20.6691 20.6605 20.8499 20.4671 21.1929 20.3044L21.4268 20.1934L21.2237 20.3535C21.0768 20.4693 20.9593 20.6178 20.8808 20.7869L20.8808 20.787C20.7603 21.043 20.7122 21.3428 20.6579 21.6984M19.2475 24.8627L19.2721 24.8457ZM19.2633 24.7808L19.6286 24.5283L19.6236 24.5253L19.639 24.5003C20.3495 23.3391 20.4857 22.4415 20.5922 21.7402C20.5947 21.7233 20.5973 21.7066 20.5998 21.69C20.6538 21.3362 20.7028 21.0276 20.8275 20.7626C20.8779 20.6542 20.9435 20.5538 21.0221 20.4644C20.8141 20.5969 20.6913 20.7462 20.6059 20.9142C20.5247 21.0741 20.4773 21.2502 20.424 21.4484C20.4046 21.5205 20.3844 21.5954 20.3616 21.6736C20.2763 21.965 20.155 22.2937 19.8982 22.6621C19.6448 23.0257 19.2601 23.4269 18.6499 23.8693L19.2633 24.7808ZM19.7044 24.5053L19.7367 24.5245L19.2721 24.8457M19.7044 24.5053C20.4078 23.3462 20.5443 22.4471 20.6503 21.7489C20.6528 21.732 20.6554 21.7151 20.6579 21.6984" fill="#7B3F00"/>
<path fill-rule="evenodd" clip-rule="evenodd" d="M20.7505 21.7633C20.6437 22.4678 20.5032 23.3948 19.7767 24.5822L19.6665 24.5159C20.3795 23.3507 20.5169 22.4445 20.623 21.7442C20.6255 21.7281 20.6279 21.7121 20.6303 21.6962C20.6839 21.3439 20.7335 21.0358 20.8551 20.777C20.9786 20.5139 21.175 20.3042 21.5145 20.1425L21.5698 20.2582C21.2559 20.4077 21.0821 20.5962 20.9719 20.8308C20.8597 21.0697 20.812 21.3585 20.7579 21.7147C20.7554 21.7308 20.753 21.747 20.7505 21.7633Z" fill="#7B3F00"/>
<path d="M18.8148 26.7222H20.1104L18.8148 19.6638L17.5192 26.7222H18.8148V19.6638Z" fill="#FCD116"/>
<path fill-rule="evenodd" clip-rule="evenodd" d="M20.188 26.7864H17.4416L18.8148 19.3052L20.188 26.7864ZM20.0328 26.658L18.8796 20.3755V26.658H20.0328ZM18.75 26.658V20.3755L17.5969 26.658H18.75Z" fill="#7B3F00"/>
<path d="M18.8149 26.7222V19.6638L17.5194 26.7222" fill="#7B3F00"/>
<path d="M20.4862 25.6893L20.7128 24.5545C23.9672 25.0713 23.6225 23.1291 25.3979 24.0212C23.7536 24.0014 24.4861 25.0786 22.0923 26.0608" fill="#FCD116"/>
<path fill-rule="evenodd" clip-rule="evenodd" d="M20.4102 25.7397L20.6615 24.4813L20.7232 24.4911C21.5306 24.6193 22.1111 24.5944 22.5548 24.5009C22.9981 24.4075 23.3087 24.2449 23.5778 24.0914C23.6077 24.0744 23.6373 24.0573 23.6665 24.0404C23.898 23.9068 24.1127 23.783 24.363 23.7377C24.6496 23.6858 24.9756 23.737 25.4273 23.9639L25.6756 24.0887L25.3972 24.0853C24.9931 24.0805 24.7432 24.1431 24.5566 24.249C24.3686 24.3558 24.2382 24.5098 24.0764 24.7058C24.0724 24.7106 24.0684 24.7155 24.0643 24.7204C23.9061 24.9121 23.7203 25.1373 23.4287 25.3745C23.1295 25.6178 22.7207 25.8723 22.1172 26.12L22.0573 26.1445L22.0077 26.026L22.0676 26.0014C22.6609 25.758 23.0583 25.5096 23.3464 25.2753C23.6281 25.0463 23.807 24.8294 23.9651 24.6379C23.9688 24.6334 23.9725 24.629 23.9761 24.6245C24.136 24.4309 24.2803 24.258 24.4922 24.1377C24.6536 24.046 24.8504 23.9868 25.1177 23.9655C24.8132 23.8463 24.5849 23.828 24.3863 23.8639C24.1597 23.9049 23.9658 24.0166 23.7311 24.1517C23.7022 24.1684 23.6727 24.1854 23.6424 24.2026C23.369 24.3586 23.0446 24.5289 22.5817 24.6264C22.131 24.7214 21.5525 24.7467 20.7644 24.6273L20.5373 25.7646L20.4102 25.7397Z" fill="#7B3F00"/>
<path d="M20.4864 25.6891L20.9991 25.7806L20.9939 25.7596C22.3618 25.4276 23.1045 24.8658 23.6863 24.4389C23.9773 24.2255 24.2284 24.044 24.5007 23.9457C24.681 23.8795 24.8746 23.8564 25.0657 23.8783C23.6535 23.3814 23.747 25.0358 20.713 24.5541L20.4864 25.6891Z" fill="#7B3F00"/>
<path fill-rule="evenodd" clip-rule="evenodd" d="M20.4516 25.7125L20.6895 24.5207L20.7175 24.5252C21.4735 24.6452 22.0331 24.6319 22.4691 24.5531C22.9049 24.4742 23.2187 24.3296 23.4832 24.1849C23.552 24.1472 23.6178 24.1093 23.6819 24.0724C23.8628 23.9683 24.0294 23.8724 24.2071 23.8142C24.451 23.7343 24.7167 23.7245 25.0754 23.8507L25.3199 23.9367L25.0622 23.9072C24.8757 23.8858 24.6868 23.9084 24.5108 23.973L24.5107 23.9731C24.2431 24.0697 23.9955 24.2483 23.7037 24.4623M20.4516 25.7125L20.4811 25.7178ZM20.521 25.6656L20.9594 25.7438L20.958 25.7382L20.9867 25.7312C22.3167 25.4083 23.0525 24.8679 23.6275 24.4456C23.6413 24.4355 23.655 24.4254 23.6686 24.4154C23.9589 24.2025 24.2134 24.0182 24.4904 23.9182C24.6033 23.8768 24.7212 23.8518 24.8405 23.8438C24.599 23.7912 24.4057 23.8106 24.2256 23.8696C24.0542 23.9258 23.8952 24.0173 23.7163 24.1203C23.6512 24.1577 23.5836 24.1967 23.5117 24.236C23.2438 24.3825 22.9238 24.5301 22.4797 24.6105C22.0413 24.6898 21.4833 24.7034 20.7363 24.5873L20.521 25.6656ZM21.0295 25.7809L21.0386 25.8173L20.4811 25.7178M21.0295 25.7809C22.353 25.4544 23.09 24.9131 23.6624 24.4927C23.6762 24.4825 23.69 24.4723 23.7037 24.4623" fill="#7B3F00"/>
<path fill-rule="evenodd" clip-rule="evenodd" d="M23.7235 24.5715C23.1458 24.9958 22.3857 25.5542 21.0248 25.8842L20.994 25.7595C22.3295 25.4357 23.0726 24.8899 23.6468 24.468C23.6601 24.4583 23.6732 24.4487 23.6862 24.4391C23.9752 24.227 24.23 24.0435 24.5005 23.9456C24.7755 23.8462 25.064 23.8359 25.4198 23.9606L25.3766 24.0816C25.0477 23.9663 24.7901 23.9775 24.5449 24.0662C24.2952 24.1565 24.0556 24.3277 23.7634 24.5422C23.7502 24.5519 23.7369 24.5617 23.7235 24.5715Z" fill="#7B3F00"/>
<path d="M18.8149 26.7222L19.731 27.6296L23.8534 21.7312L17.8988 25.8147L18.8149 26.7222L23.8534 21.7312Z" fill="#FCD116"/>
<path fill-rule="evenodd" clip-rule="evenodd" d="M19.7402 27.7295L17.7983 25.8059L24.1096 21.4777L19.7402 27.7295ZM19.7221 27.53L23.3914 22.2799L18.9067 26.7223L19.7221 27.53ZM18.8151 26.6316L23.2998 22.1891L17.9997 25.8238L18.8151 26.6316Z" fill="#7B3F00"/>
<path d="M18.8149 26.7222L23.8535 21.7312L17.8988 25.8147" fill="#7B3F00"/>
<path d="M20.7362 27.1656L21.7082 26.518C23.6343 29.1651 24.7809 27.5436 25.395 29.4212C24.2492 28.2552 24.0304 29.5635 21.6387 28.5844" fill="#FCD116"/>
<path fill-rule="evenodd" clip-rule="evenodd" d="M20.6463 27.1483L21.7242 26.4301L21.7607 26.4803C22.2385 27.1371 22.6658 27.526 23.0458 27.7704C23.4254 28.0146 23.7608 28.1166 24.0605 28.1961C24.0938 28.2049 24.1268 28.2135 24.1596 28.222C24.4185 28.2893 24.6586 28.3516 24.8676 28.4948C25.1069 28.6587 25.3003 28.9234 25.4565 29.4011L25.5424 29.6637L25.3484 29.4663C25.0667 29.1796 24.848 29.0512 24.6443 28.9986C24.4389 28.9455 24.2415 28.967 23.9913 28.9966L23.979 28.9981C23.733 29.0273 23.4431 29.0617 23.0673 29.0284C22.6852 28.9945 22.2168 28.8908 21.6137 28.644L21.5539 28.6195L21.6038 28.5005L21.6636 28.525C22.2563 28.7676 22.7121 28.8676 23.0795 28.9002C23.4417 28.9324 23.7204 28.8993 23.9661 28.8701L23.9766 28.8689C24.2232 28.8396 24.4448 28.8139 24.6775 28.874C24.8547 28.9198 25.0341 29.0141 25.237 29.1854C25.1075 28.8874 24.9595 28.7144 24.7937 28.6008C24.6045 28.4712 24.3877 28.4147 24.1255 28.3464C24.0932 28.3379 24.0602 28.3293 24.0265 28.3204C23.722 28.2396 23.3713 28.1334 22.975 27.8785C22.589 27.6302 22.1628 27.2429 21.6922 26.606L20.7182 27.255L20.6463 27.1483Z" fill="#7B3F00"/>
<path d="M20.7346 27.1658L21.0309 27.5903L21.0422 27.5717C22.2451 28.2944 23.1713 28.4157 23.8874 28.5199C24.2455 28.5722 24.5526 28.6191 24.8151 28.7401C24.9898 28.8195 25.1429 28.9387 25.262 29.0882C24.6212 27.7451 23.503 28.9869 21.7068 26.5177L20.7346 27.1658Z" fill="#7B3F00"/>
<path fill-rule="evenodd" clip-rule="evenodd" d="M20.6938 27.1584L21.7146 26.4778L21.7313 26.5007C22.1788 27.1159 22.5832 27.4987 22.9473 27.7482C23.3113 27.9976 23.6362 28.1148 23.9265 28.1973C24.0019 28.2187 24.0755 28.2379 24.1472 28.2566C24.3493 28.3094 24.5355 28.358 24.7026 28.4412C24.9319 28.5553 25.1264 28.7346 25.2892 29.0757L25.4002 29.3083L25.2394 29.1066C25.1231 28.9608 24.9737 28.8444 24.8032 28.767L24.8031 28.7669C24.5452 28.648 24.2425 28.6015 23.8835 28.5491M20.6938 27.1584L20.7108 27.1828ZM20.7764 27.1737L21.0297 27.5366L21.0328 27.5316L21.058 27.5468C22.2276 28.2495 23.1337 28.381 23.8416 28.4838C23.8587 28.4862 23.8755 28.4887 23.8923 28.4911C24.2495 28.5433 24.561 28.5906 24.828 28.7137C24.9373 28.7634 25.0384 28.8283 25.1283 28.9062C24.9955 28.6995 24.8453 28.5778 24.676 28.4936C24.5148 28.4133 24.3371 28.3669 24.1372 28.3147C24.0645 28.2958 23.9888 28.276 23.91 28.2536C23.616 28.17 23.2846 28.0507 22.9137 27.7965C22.5475 27.5456 22.1441 27.1641 21.7001 26.5579L20.7764 27.1737ZM21.0526 27.6121L21.033 27.6444L20.7108 27.1828M21.0526 27.6121C22.2202 28.3077 23.1277 28.4394 23.8326 28.5417C23.8497 28.5442 23.8666 28.5466 23.8835 28.5491" fill="#7B3F00"/>
<path fill-rule="evenodd" clip-rule="evenodd" d="M23.8203 28.6391C23.1087 28.5358 22.1723 28.3998 20.9754 27.6797L21.0429 27.5693C22.2175 28.276 23.1329 28.4089 23.8403 28.5117C23.8566 28.514 23.8727 28.5164 23.8888 28.5187C24.2446 28.5705 24.5559 28.6187 24.8169 28.7389C25.0822 28.8611 25.2933 29.0563 25.4551 29.3947L25.338 29.4504C25.1884 29.1376 24.9986 28.9648 24.762 28.8559C24.521 28.7449 24.2293 28.6986 23.8694 28.6462C23.8532 28.6439 23.8368 28.6415 23.8203 28.6391Z" fill="#7B3F00"/>
<path d="M18.8149 26.722V28.0054L25.9405 26.722L18.8149 25.4387V26.722H25.9405Z" fill="#FCD116"/>
<path fill-rule="evenodd" clip-rule="evenodd" d="M18.75 28.0823V25.3618L26.3025 26.7221L18.75 28.0823ZM18.8796 27.9285L25.2219 26.7862H18.8796V27.9285ZM18.8796 26.6579H25.2219L18.8796 25.5156V26.6579Z" fill="#7B3F00"/>
<path d="M18.8149 26.7222H25.9405L18.8149 25.4388" fill="#7B3F00"/>
<path d="M19.8575 28.378L21.0031 28.6025C20.4814 31.8262 22.442 31.4848 21.5414 33.2434C21.5614 31.6146 20.4788 32.3689 19.4872 29.9977" fill="#FCD116"/>
<path fill-rule="evenodd" clip-rule="evenodd" d="M19.8065 28.3027L21.0769 28.5516L21.067 28.6127C20.9376 29.4125 20.9627 29.9875 21.0571 30.427C21.1514 30.8662 21.3155 31.1738 21.4704 31.4404C21.4877 31.47 21.5049 31.4993 21.5219 31.5283C21.6568 31.7576 21.7818 31.9702 21.8276 32.2182C21.8799 32.5021 21.8283 32.825 21.5991 33.2724L21.4732 33.5184L21.4766 33.2426C21.4815 32.8422 21.4186 32.5967 21.3122 32.4147C21.2051 32.2313 21.0505 32.1058 20.8531 31.949C20.8492 31.9459 20.8453 31.9428 20.8413 31.9397C20.6477 31.7859 20.4198 31.6049 20.1794 31.3171C19.9341 31.0233 19.6774 30.6202 19.4274 30.0222L19.4026 29.963L19.5223 29.9139L19.5471 29.9731C19.7928 30.5609 20.0433 30.9527 20.2792 31.2353C20.5111 31.5129 20.7304 31.6871 20.9238 31.8407L20.9342 31.8489C21.1289 32.0036 21.3032 32.1431 21.4244 32.3504C21.5167 32.5084 21.5762 32.7018 21.5976 32.9657C21.7179 32.6642 21.7364 32.438 21.7001 32.2412C21.6587 32.0168 21.546 31.8247 21.4096 31.5923C21.3928 31.5636 21.3756 31.5344 21.3582 31.5044C21.2007 31.2335 21.0288 30.9122 20.9304 30.4537C20.8345 30.0072 20.809 29.4342 20.9294 28.6535L19.7813 28.4286L19.8065 28.3027Z" fill="#7B3F00"/>
<path d="M19.8576 28.378L19.7652 28.8859L19.7864 28.8807C20.1216 30.2357 20.6887 30.9715 21.1197 31.5477C21.3351 31.836 21.5183 32.0847 21.6176 32.3544C21.6844 32.5331 21.7078 32.7248 21.6857 32.9141C22.1873 31.5153 20.5171 31.6079 21.0034 28.6025L19.8576 28.378Z" fill="#7B3F00"/>
<path fill-rule="evenodd" clip-rule="evenodd" d="M19.8339 28.3435L21.037 28.5792L21.0325 28.607C20.9113 29.3558 20.9247 29.9101 21.0044 30.342C21.084 30.7737 21.23 31.0845 21.3761 31.3465C21.4141 31.4147 21.4523 31.4799 21.4896 31.5434C21.5947 31.7225 21.6915 31.8876 21.7503 32.0636C21.8309 32.3053 21.8409 32.5684 21.7134 32.9237L21.6266 33.166L21.6564 32.9106C21.678 32.7259 21.6552 32.5388 21.59 32.3645L21.5899 32.3643C21.4924 32.0993 21.312 31.854 21.096 31.565M19.8339 28.3435L19.8286 28.3727ZM19.8813 28.4123L19.8023 28.8466L19.808 28.8452L19.815 28.8736C20.141 30.1911 20.6865 30.9199 21.1129 31.4895C21.1231 31.5031 21.1333 31.5167 21.1434 31.5302C21.3582 31.8177 21.5443 32.0698 21.6453 32.3442C21.6871 32.456 21.7123 32.5729 21.7204 32.691C21.7735 32.4518 21.7539 32.2603 21.6943 32.082C21.6376 31.9122 21.5453 31.7547 21.4413 31.5774C21.4035 31.513 21.3642 31.446 21.3245 31.3748C21.1765 31.1094 21.0275 30.7924 20.9464 30.3525C20.8663 29.9182 20.8526 29.3655 20.9698 28.6255L19.8813 28.4123ZM19.7649 28.916L19.7281 28.925L19.8286 28.3727M19.7649 28.916C20.0944 30.227 20.6409 30.957 21.0653 31.524C21.0756 31.5378 21.0859 31.5514 21.096 31.565" fill="#7B3F00"/>
<path fill-rule="evenodd" clip-rule="evenodd" d="M20.986 31.5846C20.5576 31.0123 19.9939 30.2594 19.6608 28.9113L19.7866 28.8808C20.1135 30.2037 20.6646 30.9398 21.0904 31.5086C21.1002 31.5217 21.1099 31.5347 21.1196 31.5477C21.3337 31.8339 21.519 32.0863 21.6178 32.3542C21.7182 32.6266 21.7285 32.9125 21.6026 33.2649L21.4805 33.222C21.5969 32.8962 21.5856 32.6411 21.4961 32.3982C21.4049 32.1509 21.232 31.9135 21.0155 31.6241C21.0057 31.611 20.9959 31.5978 20.986 31.5846Z" fill="#7B3F00"/>
<path d="M18.8145 26.7222L17.8984 27.6296L23.8531 31.7132L19.7306 25.8147L18.8145 26.7222L23.8531 31.7132Z" fill="#FCD116"/>
<path fill-rule="evenodd" clip-rule="evenodd" d="M17.7979 27.6387L19.7398 25.715L24.1092 31.9669L17.7979 27.6387ZM17.9992 27.6207L23.2994 31.2554L18.8146 26.813L17.9992 27.6207ZM18.9062 26.7222L23.391 31.1647L19.7217 25.9145L18.9062 26.7222Z" fill="#7B3F00"/>
<path d="M18.8145 26.7222L23.853 31.7132L19.7305 25.8147" fill="#7B3F00"/>
<path d="M18.3707 28.6235L17.9428 28.9179L17.9615 28.9291C17.2313 30.122 17.1071 31.0395 17.0005 31.7488C16.947 32.1036 16.899 32.4078 16.7766 32.668C16.6964 32.8412 16.576 32.9931 16.4253 33.1114C17.7785 32.4737 16.5314 31.3693 19.0207 29.5848L18.3707 28.6235Z" fill="#7B3F00"/>
<path fill-rule="evenodd" clip-rule="evenodd" d="M18.3784 28.5825L19.0609 29.5918L19.0379 29.6083C18.4177 30.0529 18.0314 30.4543 17.7794 30.8155C17.5276 31.1765 17.4089 31.4985 17.3252 31.7861C17.3034 31.8609 17.2839 31.9339 17.2649 32.0048C17.2114 32.2051 17.162 32.3897 17.0779 32.5553C16.9624 32.7827 16.7816 32.9757 16.4379 33.1377L16.2036 33.2481L16.4069 33.0885C16.554 32.973 16.6715 32.8247 16.7498 32.6557L16.7498 32.6556C16.8701 32.3999 16.9176 32.1001 16.9712 31.7444C16.9737 31.7277 16.9762 31.7109 16.9788 31.694C17.0834 30.9958 17.2181 30.0968 17.9209 28.9389L17.8885 28.9196L18.3784 28.5825ZM17.9969 28.9161L18.0019 28.9191L17.9866 28.9441C17.2766 30.104 17.1421 31.0015 17.037 31.7028C17.0345 31.7197 17.032 31.7364 17.0295 31.753C16.9762 32.1068 16.9278 32.4154 16.8033 32.6802C16.7531 32.7885 16.6875 32.8888 16.6088 32.978C16.8172 32.846 16.94 32.6969 17.0252 32.5291C17.1064 32.3693 17.1535 32.1932 17.2065 31.9951C17.2258 31.9231 17.2458 31.8481 17.2686 31.77C17.3534 31.4787 17.4742 31.1502 17.7309 30.7823C17.9843 30.4191 18.3692 30.0187 18.9803 29.5776L18.3628 28.6643L17.9969 28.9161Z" fill="#7B3F00"/>
<path fill-rule="evenodd" clip-rule="evenodd" d="M16.8793 31.681C16.9848 30.9763 17.1237 30.0491 17.8505 28.8625L17.9612 28.9291C17.248 30.0935 17.1122 31 17.0073 31.7005C17.0049 31.7166 17.0025 31.7326 17.0001 31.7485C16.9471 32.1009 16.898 32.4091 16.7766 32.6678C16.6531 32.9307 16.4564 33.1401 16.1158 33.3011L16.0601 33.1853C16.3749 33.0364 16.549 32.8481 16.6591 32.6137C16.7712 32.3749 16.8184 32.086 16.872 31.7296C16.8744 31.7135 16.8768 31.6973 16.8793 31.681Z" fill="#7B3F00"/>
<path d="M18.8146 26.7222H17.519L18.8146 33.7805L20.1102 26.7222H18.8146V33.7805Z" fill="#FCD116"/>
<path fill-rule="evenodd" clip-rule="evenodd" d="M17.4414 26.658H20.1877L18.8146 34.139L17.4414 26.658ZM17.5966 26.7863L18.7498 33.069V26.7863H17.5966ZM18.8793 26.7863V33.069L20.0325 26.7863H18.8793Z" fill="#7B3F00"/>
<path d="M18.8149 26.7222V33.7805L20.1105 26.7222" fill="#7B3F00"/>
<path d="M18.8149 26.7222L13.7764 31.7132L19.731 27.6296" fill="#7B3F00"/>
<path d="M18.8146 29.0749C20.1264 29.0749 21.1898 28.0215 21.1898 26.7221C21.1898 25.4227 20.1264 24.3694 18.8146 24.3694C17.5028 24.3694 16.4395 25.4227 16.4395 26.7221C16.4395 28.0215 17.5028 29.0749 18.8146 29.0749Z" fill="#FCD116"/>
<path fill-rule="evenodd" clip-rule="evenodd" d="M18.8149 24.4335C17.5389 24.4335 16.5045 25.4581 16.5045 26.7221C16.5045 27.986 17.5389 29.0107 18.8149 29.0107C20.0909 29.0107 21.1253 27.986 21.1253 26.7221C21.1253 25.4581 20.0909 24.4335 18.8149 24.4335ZM16.375 26.7221C16.375 25.3873 17.4674 24.3052 18.8149 24.3052C20.1625 24.3052 21.2548 25.3873 21.2548 26.7221C21.2548 28.0569 20.1625 29.139 18.8149 29.139C17.4674 29.139 16.375 28.0569 16.375 26.7221Z" fill="#7B3F00"/>
<path d="M20.5641 25.781C20.413 25.9522 20.3266 25.6527 19.7868 25.6527C19.247 25.6527 19.1606 25.9735 19.0742 25.9094C18.9879 25.8452 19.5277 25.4602 19.7004 25.4388C19.8732 25.4174 20.3698 25.5885 20.5641 25.781ZM19.9379 25.9735C20.0891 26.1019 19.9595 26.3799 19.8084 26.3799C19.6572 26.3799 19.3765 26.1233 19.5061 25.9522" fill="#7B3F00"/>
<path d="M19.2251 26.1661C19.2467 25.9095 19.4626 25.8667 19.8081 25.8667C20.1536 25.8667 20.3047 26.1234 20.4343 26.1875C20.2831 26.1875 20.1536 25.9736 19.8081 25.9736C19.4626 25.9736 19.4626 25.9736 19.2251 26.1875M19.2899 26.2303C19.3762 26.102 19.4842 26.3586 19.7217 26.3586C19.9592 26.3586 20.0888 26.2945 20.2399 26.1875C20.3911 26.0806 20.024 26.4442 19.7865 26.4442C19.549 26.4442 19.2251 26.3159 19.2899 26.2303Z" fill="#7B3F00"/>
<path d="M17.6055 25.9521C17.4975 25.9949 17.3248 26.2088 17.6055 26.3585C17.3896 26.2088 17.5623 25.9949 17.6055 25.9521Z" fill="#7B3F00"/>
<path d="M20.0239 25.9521C20.0671 25.9949 20.2399 26.2088 20.0239 26.3585C20.3046 26.2088 20.1319 25.9949 20.0239 25.9521Z" fill="#7B3F00"/>
<path d="M18.4693 26.8718C18.275 26.9146 18.3398 27.1927 18.167 27.2141C17.9943 27.2354 17.9079 27.4279 17.9295 27.4065C18.0375 27.321 18.275 27.2568 18.4478 27.2568C18.6205 27.2568 18.6637 27.3638 18.8148 27.3638C18.966 27.3638 19.0092 27.2568 19.1819 27.2568C19.3546 27.2568 19.5922 27.321 19.7001 27.4065C19.7217 27.4279 19.6354 27.2354 19.4627 27.2141C19.2899 27.1927 19.3547 26.9146 19.1603 26.8718C19.1603 26.9574 19.2251 26.936 19.2466 27.0643C19.2466 27.1713 19.0523 27.1713 19.0092 27.0643C19.0523 27.2354 18.9228 27.2354 18.8148 27.2354C18.7069 27.2354 18.5773 27.2354 18.6205 27.0643C18.5773 27.1713 18.383 27.1713 18.383 27.0643C18.4046 26.936 18.4693 26.9574 18.4693 26.8718Z" fill="#7B3F00"/>
<path d="M17.8 27.5991C17.6272 27.7275 17.5841 27.7916 17.5625 27.9414C17.6143 27.8516 17.6397 27.8147 17.6791 27.7619C17.6686 27.7575 17.6597 27.7534 17.6489 27.7489C17.6615 27.7503 17.6728 27.7523 17.6849 27.754C17.711 27.719 17.7342 27.6888 17.8 27.5991Z" fill="#7B3F00"/>
<path d="M17.6849 27.7539C17.6843 27.7548 17.6827 27.7568 17.6821 27.7576C17.7091 27.7639 17.7378 27.7668 17.7678 27.7669C17.7414 27.7623 17.7137 27.7579 17.6849 27.7539Z" fill="#7B3F00"/>
<path d="M17.7676 27.7669C17.9022 27.7904 18.0079 27.8211 18.1049 27.8522C18.2257 27.8433 18.3924 27.813 18.8147 27.813C19.2369 27.813 19.4036 27.8433 19.5245 27.8522C19.6214 27.8211 19.7271 27.7904 19.8618 27.7669C19.6238 27.7677 19.3067 27.5991 19.1602 27.5991C18.9874 27.5991 18.9442 27.6419 18.8147 27.6419C18.6851 27.6419 18.6419 27.5991 18.4692 27.5991C18.3226 27.5991 18.0055 27.7677 17.7676 27.7669Z" fill="#7B3F00"/>
<path d="M19.8618 27.7669C19.8918 27.7668 19.9205 27.7639 19.9475 27.7576C19.9469 27.7568 19.9454 27.7548 19.9447 27.7539C19.9159 27.7579 19.8882 27.7623 19.8618 27.7669Z" fill="#7B3F00"/>
<path d="M19.9447 27.754C19.9568 27.7523 19.9681 27.7504 19.9806 27.7489C19.9699 27.7534 19.9609 27.7575 19.9505 27.7619C19.9898 27.8147 20.0153 27.8516 20.0671 27.9414C20.0455 27.7916 20.0023 27.7275 19.8296 27.5991C19.8954 27.6888 19.9186 27.719 19.9447 27.754Z" fill="#7B3F00"/>
<path d="M19.9509 27.762C19.9506 27.7615 19.95 27.7607 19.9498 27.7605C19.7244 27.8465 19.6451 27.8611 19.5249 27.8523C19.3201 27.9179 19.1514 27.9842 18.815 27.9842C18.4787 27.9842 18.3099 27.9179 18.1052 27.8523C17.985 27.8611 17.9057 27.8465 17.6803 27.7605C17.6801 27.7609 17.6795 27.7618 17.6792 27.762C18.3575 28.0512 18.2834 28.1553 18.815 28.1553C19.3467 28.1553 19.2725 28.0512 19.9509 27.762Z" fill="#7B3F00"/>
<path d="M17.6801 27.7604C17.6806 27.7598 17.6817 27.7583 17.6821 27.7577C17.6709 27.7551 17.6595 27.7527 17.6489 27.7488C17.6613 27.7536 17.6686 27.756 17.6801 27.7604Z" fill="#7B3F00"/>
<path d="M19.9497 27.7604C19.9612 27.756 19.9686 27.7536 19.9809 27.7488C19.9703 27.7526 19.959 27.755 19.9478 27.7576C19.9482 27.7583 19.9493 27.7598 19.9497 27.7604Z" fill="#7B3F00"/>
<path d="M17.0658 25.781C17.2169 25.9522 17.3033 25.6527 17.8431 25.6527C18.3829 25.6527 18.4693 25.9735 18.5557 25.9094C18.642 25.8452 18.1022 25.4602 17.9295 25.4388C17.7567 25.4174 17.2601 25.5885 17.0658 25.781ZM17.6919 25.9735C17.5408 26.1019 17.6704 26.3799 17.8215 26.3799C17.9727 26.3799 18.2534 26.1233 18.1238 25.9522" fill="#7B3F00"/>
<path d="M18.4043 26.1661C18.3827 25.9095 18.1668 25.8667 17.8213 25.8667C17.4758 25.8667 17.3247 26.1234 17.1951 26.1875C17.3463 26.1875 17.4758 25.9736 17.8213 25.9736C18.1668 25.9736 18.1668 25.9736 18.4043 26.1875M18.3395 26.2303C18.2531 26.102 18.1452 26.3586 17.9077 26.3586C17.6701 26.3586 17.5406 26.2945 17.3894 26.1875C17.2383 26.0806 17.6054 26.4442 17.8429 26.4442C18.0804 26.4442 18.4043 26.3159 18.3395 26.2303Z" fill="#7B3F00"/>
<path d="M18.815 28.3477C18.7071 28.3477 18.4264 28.4124 18.815 28.4124C19.2037 28.4124 18.923 28.3477 18.815 28.3477Z" fill="#7B3F00"/>
</g>
<defs>
<clipPath id="clip0_81_39522">
<rect width="53" height="35" fill="white" transform="translate(9 17)"/>
</clipPath>
</defs>
</svg>
