<svg width="16" height="17" viewBox="0 0 16 17" fill="none" xmlns="http://www.w3.org/2000/svg">
<path fill-rule="evenodd" clip-rule="evenodd" d="M2.97631 10.8096C3.60143 10.1844 4.44928 9.83325 5.33333 9.83325H10.6667C11.5507 9.83325 12.3986 10.1844 13.0237 10.8096C13.6488 11.4347 14 12.2825 14 13.1666V14.4999C14 14.8681 13.7015 15.1666 13.3333 15.1666C12.9651 15.1666 12.6667 14.8681 12.6667 14.4999V13.1666C12.6667 12.6362 12.456 12.1274 12.0809 11.7524C11.7058 11.3773 11.1971 11.1666 10.6667 11.1666H5.33333C4.8029 11.1666 4.29419 11.3773 3.91912 11.7524C3.54405 12.1274 3.33333 12.6362 3.33333 13.1666V14.4999C3.33333 14.8681 3.03486 15.1666 2.66667 15.1666C2.29848 15.1666 2 14.8681 2 14.4999V13.1666C2 12.2825 2.35119 11.4347 2.97631 10.8096Z" fill="#181818"/>
<path fill-rule="evenodd" clip-rule="evenodd" d="M8.00008 3.16659C6.89551 3.16659 6.00008 4.06202 6.00008 5.16658C6.00008 6.27115 6.89551 7.16658 8.00008 7.16658C9.10465 7.16658 10.0001 6.27115 10.0001 5.16658C10.0001 4.06202 9.10465 3.16659 8.00008 3.16659ZM4.66675 5.16658C4.66675 3.32564 6.15913 1.83325 8.00008 1.83325C9.84103 1.83325 11.3334 3.32564 11.3334 5.16658C11.3334 7.00753 9.84103 8.49992 8.00008 8.49992C6.15913 8.49992 4.66675 7.00753 4.66675 5.16658Z" fill="#181818"/>
</svg>
