<svg width="70" height="70" viewBox="0 0 70 70" fill="none" xmlns="http://www.w3.org/2000/svg">
<g clip-path="url(#clip0_81_41664)">
<path d="M65.3333 17H7V52H65.3333V17Z" fill="#00B140"/>
<path d="M65.3333 17H7V34.5H65.3333V17Z" fill="white"/>
<path d="M24.9853 25.2991C23.0909 25.5862 18.2901 26.0372 16.417 25.7297L16.783 26.6114C19.8831 26.3243 22.854 27.3291 25.6097 26.2833L24.9853 25.2991Z" fill="#C8102E" stroke="black" stroke-width="0.1"/>
<path d="M17.6443 27.4521C16.4601 27.1036 14.5011 25.0736 14.1782 23.8433C15.1039 24.4788 17.3213 25.2991 18.1179 25.2171C17.8595 25.4017 17.2136 25.8937 16.7185 25.9552C16.9554 26.4065 17.4074 26.9805 17.6443 27.4521Z" fill="#C8102E" stroke="black" stroke-width="0.1"/>
<path d="M21.4551 26.837C21.7997 27.3086 23.608 27.1138 24.5229 26.5398L24.2753 26.1399L24.0923 26.4782L23.8017 26.1605L23.7264 26.6628L23.2205 26.2937L23.1343 26.7346L22.8114 26.345L22.6931 26.8269L22.2194 26.4577L22.0365 26.9602C21.8936 26.7906 21.8137 26.577 21.8103 26.3553C21.6274 26.427 21.4767 26.6628 21.4551 26.837Z" fill="#C8102E" stroke="black" stroke-width="0.1"/>
<path d="M21.606 25.3094C21.606 25.4324 21.7567 25.7913 22.0366 25.8937C22.0474 25.74 21.8535 25.3811 21.972 25.2274L22.2196 25.4529L22.295 25.0223L22.6287 25.2581L22.6609 24.7558L23.0053 24.9813V24.4277C22.4456 24.4788 21.7567 25.1248 21.606 25.3094Z" fill="#C8102E" stroke="black" stroke-width="0.1"/>
<path d="M56.5408 30.8969C56.3954 30.5689 55.9433 30.1691 55.5451 29.923C55.7005 29.5589 55.943 28.9828 56.1852 28.3863C55.5824 28.5094 54.3288 28.6004 53.5967 28.5184C54.9745 27.2061 57.8593 24.4994 58.8066 23.269C58.4621 24.9504 58.7205 28.7234 59.4094 30.0357C58.6773 29.7486 57.8313 29.1542 57.3578 28.498C57.0785 29.44 56.7359 30.4665 56.5462 30.8866" fill="#C8102E"/>
<path d="M56.5408 30.8969C56.3954 30.5689 55.9433 30.1691 55.5451 29.923C55.7005 29.5589 55.943 28.9828 56.1852 28.3863C55.5824 28.5094 54.3288 28.6004 53.5967 28.5184C54.9745 27.2061 57.8593 24.4994 58.8066 23.269C58.4621 24.9504 58.7205 28.7234 59.4094 30.0357C58.6773 29.7486 57.8313 29.1542 57.3578 28.498C57.0785 29.44 56.7359 30.4665 56.5462 30.8866" stroke="black" stroke-width="0.1"/>
<path d="M29.6572 23.6997C29.7433 24.1303 29.7647 24.4584 30.0878 24.5814C30.4106 24.7045 31.1211 24.9504 31.5732 25.6887C31.035 25.5452 30.2815 25.3401 30.2169 25.8322C30.1554 26.3006 30.3711 26.2868 30.7336 26.3653C31.2072 26.4678 31.6593 27.0214 31.6809 27.7597C31.2932 27.5342 30.7551 27.3496 30.4106 27.3496C30.0662 27.3496 29.9693 27.4111 29.8832 27.8211C29.7411 28.4975 30.0017 28.5388 30.3245 28.5798C30.6475 28.6208 31.3364 28.9284 31.3795 30.0562C31.0134 29.7486 30.2793 29.5772 29.8294 29.5026C29.5818 29.4617 29.5388 29.5846 29.5065 30.0152C29.4741 30.4459 29.528 30.5894 29.9585 30.7124C30.3892 30.8355 30.8843 31.143 31.0134 31.7992C30.6043 31.6146 29.9585 31.6762 29.7647 31.7582C29.571 31.8402 29.466 32.2984 29.8751 33.1801C30.7556 32.8961 31.6641 32.7081 32.585 32.6193C34.6198 32.4153 34.1351 31.061 34.1351 28.9284C34.1351 26.7959 38.6129 24.4174 45.416 20.6444C43.7798 24.6223 46.0188 24.2533 47.2673 23.8022C48.516 23.351 51.4439 22.2028 53.7259 21.2596C50.5827 23.269 48.9896 25.4016 51.7453 26.3448C48.2146 27.4111 46.5784 30.3227 48.516 32.1682C47.1947 31.7225 45.3637 32.5635 44.5968 33.7347C45.9746 33.6115 48.6451 33.9317 50.2813 34.3828C51.8393 34.8123 54.4113 34.3093 54.6536 32.9859C54.6665 32.9192 54.673 32.8514 54.6732 32.7834C54.6732 32.322 54.5544 31.9737 54.3725 31.7199C53.9723 31.1613 53.2711 31.0405 52.8863 31.0405C52.3266 31.0405 51.7453 31.266 51.7453 31.6556C51.7453 32.0452 52.0898 32.2092 52.7787 32.2092C53.1553 32.2092 53.7361 32.2716 54.3725 31.7199C54.5544 31.9737 54.6732 32.322 54.6732 32.7834C54.6726 32.8504 54.6658 32.9173 54.6528 32.983C54.0504 33.3082 53.3769 33.4791 52.6924 33.4805C51.3146 33.4805 50.0231 32.9474 50.0231 31.5121C50.0231 30.0768 51.573 29.2565 52.8217 29.2565C54.5439 29.2565 56.9551 29.9127 56.9551 32.5373C56.9551 35.8592 52.3822 37.4128 49.6695 37.4128C50.1243 37.7762 50.6365 38.1147 51.1855 38.3197C53.1068 39.0374 54.8023 39.9191 55.4052 41.2725C54.6732 41.2725 53.4676 40.6983 52.9078 40.1242C54.4579 41.9287 52.5778 45.248 52.7787 46.3578C52.9938 47.5469 54.4579 46.8088 54.4579 47.7316C54.4579 48.5517 53.5967 48.4082 53.2738 48.0391C52.9508 47.6701 51.9156 47.36 51.3793 47.7316C50.9057 48.0597 50.1738 48.2237 49.8508 47.8956C49.5279 47.5675 48.3439 47.6905 47.8487 48.1417C47.3536 48.5927 46.662 48.6279 46.4493 48.2852C46.2217 47.9182 46.2799 47.472 47.2008 47.3176C46.7917 46.9073 45.5451 47.6085 45.3299 46.8294C45.1751 46.2695 45.5021 46.0091 46.5784 46.0911C46.4708 45.8246 45.6744 45.7016 45.7819 45.1479C45.8895 44.5942 46.5118 44.2515 47.2459 45.0659C49.2049 47.2394 50.1091 46.0297 50.7764 45.0865C50.5613 44.5942 50.798 44.2662 51.2071 43.9587C50.9918 43.61 51.1209 43.118 51.2716 42.7899C50.9487 42.6054 50.755 41.7851 51.0995 41.498C50.8195 41.498 50.389 41.1904 50.389 40.6574C50.0049 40.8908 49.5125 40.8406 49.1835 40.5344C48.7744 40.7599 47.698 40.8009 47.2243 40.3087C46.5784 40.5548 45.4374 40.4932 45.1362 40.0216C44.5678 40.1653 43.5214 39.6935 43.3062 39.1809C42.9742 39.1568 42.6517 39.0588 42.3624 38.894C41.5013 39.5092 40.3353 40.6984 41.4978 41.6006C42.6604 42.5028 45.0715 41.7645 45.1146 44.0201C44.5548 43.5691 43.5214 43.692 43.177 43.241C42.0145 44.8813 40.3353 46.3782 37.8595 46.9933C38.2254 47.2189 38.8929 47.2394 39.1511 47.2189C39.6879 47.1763 40.1414 47.6085 39.7325 48.1211C39.3234 48.6339 38.4838 48.2031 37.9887 47.7726C37.2761 47.1528 36.8046 47.506 36.6108 47.6495C36.4171 47.793 36.1587 47.8752 35.8143 47.547C35.4698 47.2189 35.1468 47.4446 34.9747 47.6495C34.6949 47.9827 34.049 47.2189 33.0157 48.1211C32.5188 48.555 31.3365 47.9982 31.81 47.3624C31.3149 47.4856 30.4391 46.8005 31.1642 46.1322C31.8316 45.5171 33.1017 46.9319 34.1351 46.5217C33.9029 46.2403 33.4188 45.7188 32.4128 45.5991C31.8961 45.5375 31.8046 44.9651 32.0468 44.5533C32.3482 44.0407 33.274 44.3893 33.8983 45.189C34.3901 45.819 35.0393 45.8246 35.7066 45.7016C36.1754 45.4039 36.9015 45.3939 37.2245 45.4965C37.2245 45.189 37.7303 44.9223 38.1178 44.9223C38.0963 44.5123 38.2254 44.1432 38.8499 44.0407C38.9018 44.0321 38.9557 44.0238 39.0112 44.0188C38.5763 44.0387 38.1547 43.8658 37.8589 43.5464C36.9965 43.7568 36.0411 43.3513 35.9007 42.5757C34.5376 42.4806 34.4021 41.1052 34.7379 40.6574C34.7653 40.6204 34.796 40.586 34.8297 40.5547C34.424 40.8597 33.9056 41.0009 33.2644 40.7787C32.6618 41.598 31.6128 41.9556 30.6352 41.675C30.3642 42.0847 29.9513 42.3797 29.476 42.5035C29.5162 43.0005 29.409 43.5636 28.753 44.2252C28.9251 43.3229 27.7196 43.0359 27.978 41.5596C27.8918 42.6258 24.641 44.3893 24.1243 46.7268C24.598 46.9319 25.1148 47.0753 25.4376 47.0139C26.2497 46.8593 26.514 47.6701 26.2772 47.9982C26.0404 48.3262 25.373 48.4902 25.0932 48.2031C24.8133 47.9162 24.232 48.3057 23.9521 47.7726C23.6723 47.2394 22.8972 47.424 22.5744 47.7726C22.2515 48.1211 21.175 47.3214 20.4 48.1211C20.11 48.4203 19.1299 48.7363 18.5485 48.5723C17.9672 48.4082 17.6228 47.834 17.8166 47.5265C17.4291 47.1779 17.4237 46.7509 17.7951 46.3782C17.655 45.8553 18.1115 44.822 18.8823 45.23C19.3667 45.4862 21.0835 46.6961 22.5797 45.312C23.8771 44.0969 23.1213 43.1233 23.9521 42.9949C23.8511 42.5016 24.1675 41.8877 24.512 41.7645C24.4118 41.56 24.3936 41.3248 24.4611 41.1073C24.2655 41.0921 24.0729 41.0499 23.8889 40.9819C23.2437 41.1646 22.5774 41.2623 21.9069 41.2725C21.9069 41.7645 21.3042 42.9539 20.7875 43.5281C20.6153 39.017 16.3096 38.5658 15.7283 34.9775C15.7068 35.5106 15.1254 36.0437 15.0609 36.4948C14.9963 36.946 14.7165 37.2945 14.1997 37.0895C13.6832 36.8844 13.5539 36.0232 14.0706 35.9002C14.5874 35.7771 14.4905 34.9569 14.8134 34.8544C15.1362 34.7518 15.1901 34.4238 15.0609 34.0137C14.9317 33.6037 15.1254 33.1115 15.2547 32.804C15.3838 32.4963 15.1901 31.9837 14.738 31.7992C14.286 31.6146 14.1353 31.1636 14.3074 30.7739C13.8339 30.4459 13.9689 29.7368 14.6088 29.6052C15.4054 29.4411 15.3838 30.6918 15.8359 30.8355C15.7715 30.5894 15.8575 30.1178 16.0513 29.8101C15.7929 29.2769 16.1159 28.8465 16.6325 28.8465C17.5367 28.8465 17.2353 30.2818 17.02 30.733C17.3214 30.3227 17.7951 29.8511 18.161 30.1794C18.5271 30.5073 18.4673 31.1925 18.0749 31.4915C17.7519 31.7376 17.0846 32.1272 17.2784 32.5579C17.6658 33.214 17.9026 33.9931 17.9458 34.998C18.484 35.3876 18.8284 35.8386 18.8284 36.2077C19.1835 36.2283 19.8638 36.5089 19.9587 36.905C20.3892 36.8638 21.0322 36.9461 21.218 37.3253C21.3581 37.2535 21.7315 37.2295 21.9577 37.25C21.9584 36.9297 22.0698 36.6195 22.2729 36.3718C21.541 35.5925 21.5624 34.3624 22.316 33.8702C22.1015 33.3593 22.1869 32.4143 22.8972 31.9221C22.8819 31.4094 23.0265 30.733 23.7368 30.3023C23.6291 29.7486 23.9952 28.99 24.4473 28.949C24.3396 28.4159 24.421 27.7578 25.0452 27.4501C24.8982 27.2959 24.8218 27.0876 24.8341 26.8748C23.739 27.1003 23.311 27.7387 22.9618 28.3339C22.9188 28.0878 22.8542 27.7597 22.7034 27.5136C22.7034 28.1492 22.2083 28.3749 22.1869 29.2565C21.8208 28.8875 21.6917 28.2927 21.7131 27.8827C21.7304 27.5544 21.1535 27.2471 21.3257 26.6729C22.1869 27.4316 23.9307 25.7707 25.4376 26.3039C23.9521 23.3306 22.8758 24.7659 22.1222 25.2786C21.3687 25.7913 20.8305 25.0326 20.9167 24.5404C19.9048 24.3148 18.6992 24.3558 17.386 24.6019C18.3547 23.392 20.6368 22.859 22.316 22.982C23.0479 21.6902 23.9307 21.8748 24.7917 21.9977C25.3547 22.0783 26.0123 22.08 26.6647 22.0487C27.0738 20.9619 29.4633 20.8495 29.7003 19.9883C29.9156 20.1523 29.7848 20.7693 29.5695 21.3023C30.1919 21.1249 30.7264 20.9354 30.9058 20.5625C31.0134 20.911 30.8413 21.8542 30.6043 22.1413C30.8499 22.0758 31.104 22.0482 31.3579 22.0593C30.6043 22.4693 29.6572 23.0845 29.5065 23.1871C29.3558 23.2896 29.2696 23.4946 29.6572 23.6997C29.2266 23.7817 28.0211 24.1919 27.5259 23.8638Z" fill="#C8102E"/>
<path d="M29.6572 23.6997C29.7433 24.1303 29.7647 24.4584 30.0878 24.5814C30.4106 24.7045 31.1211 24.9504 31.5732 25.6887C31.035 25.5452 30.2815 25.3401 30.2169 25.8322C30.1554 26.3006 30.3711 26.2868 30.7336 26.3653C31.2072 26.4678 31.6593 27.0214 31.6809 27.7597C31.2932 27.5342 30.7551 27.3496 30.4106 27.3496C30.0662 27.3496 29.9693 27.4111 29.8832 27.8211C29.7411 28.4975 30.0017 28.5388 30.3245 28.5798C30.6475 28.6208 31.3364 28.9284 31.3795 30.0562C31.0134 29.7486 30.2793 29.5772 29.8294 29.5026C29.5818 29.4617 29.5388 29.5846 29.5065 30.0152C29.4741 30.4459 29.528 30.5894 29.9585 30.7124C30.3892 30.8355 30.8843 31.143 31.0134 31.7992C30.6043 31.6146 29.9585 31.6762 29.7647 31.7582C29.571 31.8402 29.466 32.2984 29.8751 33.1801C30.7556 32.8961 31.6641 32.7081 32.585 32.6193C34.6198 32.4153 34.1351 31.061 34.1351 28.9284C34.1351 26.7959 38.6129 24.4174 45.416 20.6444C43.7798 24.6223 46.0188 24.2533 47.2673 23.8022C48.516 23.351 51.4439 22.2028 53.7259 21.2596C50.5827 23.269 48.9896 25.4016 51.7453 26.3448C48.2146 27.4111 46.5784 30.3227 48.516 32.1682C47.1947 31.7225 45.3637 32.5635 44.5968 33.7347C45.9746 33.6115 48.6451 33.9317 50.2813 34.3828C51.8393 34.8123 54.4113 34.3093 54.6536 32.9859C54.6665 32.9192 54.673 32.8514 54.6732 32.7834M29.6572 23.6997C29.2696 23.4946 29.3558 23.2896 29.5065 23.1871C29.6572 23.0845 30.6043 22.4693 31.3579 22.0593C31.104 22.0482 30.8499 22.0758 30.6043 22.1413C30.8413 21.8542 31.0134 20.911 30.9058 20.5625C30.7264 20.9354 30.1919 21.1249 29.5695 21.3023C29.7848 20.7693 29.9156 20.1523 29.7003 19.9883C29.4633 20.8495 27.0738 20.9619 26.6647 22.0487C26.0123 22.08 25.3547 22.0783 24.7917 21.9977C23.9307 21.8748 23.0479 21.6902 22.316 22.982C20.6368 22.859 18.3547 23.392 17.386 24.6019C18.6992 24.3558 19.9048 24.3148 20.9167 24.5404C20.8305 25.0326 21.3687 25.7913 22.1222 25.2786C22.8758 24.7659 23.9521 23.3306 25.4376 26.3039C23.9307 25.7707 22.1869 27.4316 21.3257 26.6729C21.1535 27.2471 21.7304 27.5544 21.7131 27.8827C21.6917 28.2927 21.8208 28.8875 22.1869 29.2565C22.2083 28.3749 22.7034 28.1492 22.7034 27.5136C22.8542 27.7597 22.9188 28.0878 22.9618 28.3339C23.311 27.7387 23.739 27.1003 24.8341 26.8748C24.8218 27.0876 24.8982 27.2959 25.0452 27.4501C24.421 27.7578 24.3396 28.4159 24.4473 28.949C23.9952 28.99 23.6291 29.7486 23.7368 30.3023C23.0265 30.733 22.8819 31.4094 22.8972 31.9221C22.1869 32.4143 22.1015 33.3593 22.316 33.8702C21.5624 34.3624 21.541 35.5925 22.2729 36.3718C22.0698 36.6195 21.9584 36.9297 21.9577 37.25C21.7315 37.2295 21.3581 37.2535 21.218 37.3253C21.0322 36.9461 20.3892 36.8638 19.9587 36.905C19.8638 36.5089 19.1835 36.2283 18.8284 36.2077C18.8284 35.8386 18.484 35.3876 17.9458 34.998C17.9026 33.9931 17.6658 33.214 17.2784 32.5579C17.0846 32.1272 17.7519 31.7376 18.0749 31.4915C18.4673 31.1925 18.5271 30.5073 18.161 30.1794C17.7951 29.8511 17.3214 30.3227 17.02 30.733C17.2353 30.2818 17.5367 28.8465 16.6325 28.8465C16.1159 28.8465 15.7929 29.2769 16.0513 29.8101C15.8575 30.1178 15.7715 30.5894 15.8359 30.8355C15.3838 30.6918 15.4054 29.4411 14.6088 29.6052C13.9689 29.7368 13.8339 30.4459 14.3074 30.7739C14.1353 31.1636 14.286 31.6146 14.738 31.7992C15.1901 31.9837 15.3838 32.4963 15.2547 32.804C15.1254 33.1115 14.9317 33.6037 15.0609 34.0137C15.1901 34.4238 15.1362 34.7518 14.8134 34.8544C14.4905 34.9569 14.5874 35.7771 14.0706 35.9002C13.5539 36.0232 13.6832 36.8844 14.1997 37.0895C14.7165 37.2945 14.9963 36.946 15.0609 36.4948C15.1254 36.0437 15.7068 35.5106 15.7283 34.9775C16.3096 38.5658 20.6153 39.017 20.7875 43.5281C21.3042 42.9539 21.9069 41.7645 21.9069 41.2725C22.5774 41.2623 23.2437 41.1646 23.8889 40.9819C24.0729 41.0499 24.2655 41.0921 24.4611 41.1073C24.3936 41.3248 24.4118 41.56 24.512 41.7645C24.1675 41.8877 23.8511 42.5016 23.9521 42.9949C23.1213 43.1233 23.8771 44.0969 22.5797 45.312C21.0835 46.6961 19.3667 45.4862 18.8823 45.23C18.1115 44.822 17.655 45.8553 17.7951 46.3782C17.4237 46.7509 17.4291 47.1779 17.8166 47.5265C17.6228 47.834 17.9672 48.4082 18.5485 48.5723C19.1299 48.7363 20.11 48.4203 20.4 48.1211C21.175 47.3214 22.2515 48.1211 22.5744 47.7726C22.8972 47.424 23.6723 47.2394 23.9521 47.7726C24.232 48.3057 24.8133 47.9162 25.0932 48.2031C25.373 48.4902 26.0404 48.3262 26.2772 47.9982C26.514 47.6701 26.2497 46.8593 25.4376 47.0139C25.1148 47.0753 24.598 46.9319 24.1243 46.7268C24.641 44.3893 27.8918 42.6258 27.978 41.5596C27.7196 43.0359 28.9251 43.3229 28.753 44.2252C29.409 43.5636 29.5162 43.0005 29.476 42.5035C29.9513 42.3797 30.3642 42.0847 30.6352 41.675C31.6128 41.9556 32.6618 41.598 33.2644 40.7787C33.9056 41.0009 34.424 40.8597 34.8297 40.5547C34.796 40.586 34.7653 40.6204 34.7379 40.6574C34.4021 41.1052 34.5376 42.4806 35.9007 42.5757C36.0411 43.3513 36.9965 43.7568 37.8589 43.5464C38.1547 43.8658 38.5763 44.0387 39.0112 44.0188C38.9557 44.0238 38.9018 44.0321 38.8499 44.0407C38.2254 44.1432 38.0963 44.5123 38.1178 44.9223C37.7303 44.9223 37.2245 45.189 37.2245 45.4965C36.9015 45.3939 36.1754 45.4039 35.7066 45.7016C35.0393 45.8246 34.3901 45.819 33.8983 45.189C33.274 44.3893 32.3482 44.0407 32.0468 44.5533C31.8046 44.9651 31.8961 45.5375 32.4128 45.5991C33.4188 45.7188 33.9029 46.2403 34.1351 46.5217C33.1017 46.9319 31.8316 45.5171 31.1642 46.1322C30.4391 46.8005 31.3149 47.4856 31.81 47.3624C31.3365 47.9982 32.5188 48.555 33.0157 48.1211C34.049 47.2189 34.6949 47.9827 34.9747 47.6495C35.1468 47.4446 35.4698 47.2189 35.8143 47.547C36.1587 47.8752 36.4171 47.793 36.6108 47.6495C36.8046 47.506 37.2761 47.1528 37.9887 47.7726C38.4838 48.2031 39.3234 48.6339 39.7325 48.1211C40.1414 47.6085 39.6879 47.1763 39.1511 47.2189C38.8929 47.2394 38.2254 47.2189 37.8595 46.9933C40.3353 46.3782 42.0145 44.8813 43.177 43.241C43.5214 43.692 44.5548 43.5691 45.1146 44.0201C45.0715 41.7645 42.6604 42.5028 41.4978 41.6006C40.3353 40.6984 41.5013 39.5092 42.3624 38.894C42.6517 39.0588 42.9742 39.1568 43.3062 39.1809C43.5214 39.6935 44.5678 40.1653 45.1362 40.0216C45.4374 40.4932 46.5784 40.5548 47.2243 40.3087C47.698 40.8009 48.7744 40.7599 49.1835 40.5344C49.5125 40.8406 50.0049 40.8908 50.389 40.6574C50.389 41.1904 50.8195 41.498 51.0995 41.498C50.755 41.7851 50.9487 42.6054 51.2716 42.7899C51.1209 43.118 50.9918 43.61 51.2071 43.9587C50.798 44.2662 50.5613 44.5942 50.7764 45.0865C50.1091 46.0297 49.2049 47.2394 47.2459 45.0659C46.5118 44.2515 45.8895 44.5942 45.7819 45.1479C45.6744 45.7016 46.4708 45.8246 46.5784 46.0911C45.5021 46.0091 45.1751 46.2695 45.3299 46.8294C45.5451 47.6085 46.7917 46.9073 47.2008 47.3176C46.2799 47.472 46.2217 47.9182 46.4493 48.2852C46.662 48.6279 47.3536 48.5927 47.8487 48.1417C48.3439 47.6905 49.5279 47.5675 49.8508 47.8956C50.1738 48.2237 50.9057 48.0597 51.3793 47.7316C51.9156 47.36 52.9508 47.6701 53.2738 48.0391C53.5967 48.4082 54.4579 48.5517 54.4579 47.7316C54.4579 46.8088 52.9938 47.5469 52.7787 46.3578C52.5778 45.248 54.4579 41.9287 52.9078 40.1242C53.4676 40.6983 54.6732 41.2725 55.4052 41.2725C54.8023 39.9191 53.1068 39.0374 51.1855 38.3197C50.6365 38.1147 50.1243 37.7762 49.6695 37.4128C52.3822 37.4128 56.9551 35.8592 56.9551 32.5373C56.9551 29.9127 54.5439 29.2565 52.8217 29.2565C51.573 29.2565 50.0231 30.0768 50.0231 31.5121C50.0231 32.9474 51.3146 33.4805 52.6924 33.4805C53.3769 33.4791 54.0504 33.3082 54.6528 32.983C54.6658 32.9173 54.6726 32.8504 54.6732 32.7834M29.6572 23.6997C29.2266 23.7817 28.0211 24.1919 27.5259 23.8638M54.6732 32.7834C54.6732 32.322 54.5544 31.9737 54.3725 31.7199M54.3725 31.7199C53.9723 31.1613 53.2711 31.0405 52.8863 31.0405C52.3266 31.0405 51.7453 31.266 51.7453 31.6556C51.7453 32.0452 52.0898 32.2092 52.7787 32.2092C53.1553 32.2092 53.7361 32.2716 54.3725 31.7199Z" stroke="black" stroke-width="0.1"/>
<path d="M13.2959 29.2461C13.8663 28.8565 14.6463 29.1445 14.8136 29.7177C14.9213 30.0868 14.2673 30.3609 14.2108 30.0151C14.1355 29.5538 13.8233 29.2667 13.2959 29.2461Z" fill="#C8102E" stroke="black" stroke-width="0.1"/>
<path d="M15.5332 28.0541C16.1971 27.8366 16.8577 28.3255 16.8454 28.9204C16.8374 29.3033 16.1284 29.3872 16.1784 29.0406C16.245 28.578 16.0324 28.2178 15.5332 28.0541Z" fill="#C8102E" stroke="black" stroke-width="0.1"/>
<path d="M18.0019 29.1038C18.6351 29.3923 18.7458 30.182 18.2989 30.5978C18.0112 30.8655 17.4441 30.4516 17.735 30.2378C18.1232 29.9528 18.237 29.5538 18.0019 29.1038Z" fill="#C8102E" stroke="black" stroke-width="0.1"/>
<path d="M12.9595 37.3916C13.512 37.804 14.3042 37.5479 14.4969 36.9819C14.621 36.6175 13.9796 36.3172 13.9079 36.6604C13.8121 37.1182 13.4874 37.3924 12.9595 37.3916Z" fill="#C8102E" stroke="black" stroke-width="0.1"/>
<path d="M16.8477 45.6836C17.079 45.0524 17.8911 44.8605 18.3741 45.2377C18.685 45.4808 18.3155 46.0632 18.0605 45.8113C17.7202 45.4751 17.2915 45.4113 16.8477 45.6836Z" fill="#C8102E" stroke="black" stroke-width="0.1"/>
<path d="M16.1216 47.3814C16.1601 46.7138 17.0994 46.2943 17.6734 46.5292C18.043 46.6804 17.8577 47.3377 17.5392 47.163C17.1144 46.9301 16.4687 47.0026 16.1216 47.3814Z" fill="#C8102E" stroke="black" stroke-width="0.1"/>
<path d="M17.1422 48.9567C16.9014 48.3287 17.4018 47.6902 18.0265 47.6907C18.4287 47.691 18.5303 48.3645 18.1654 48.3235C17.6787 48.2688 17.3046 48.4783 17.1422 48.9567Z" fill="#C8102E" stroke="black" stroke-width="0.1"/>
<path d="M27.2677 48.3962C27.3509 47.7323 26.7098 47.2203 26.1019 47.3573C25.7105 47.4455 25.774 48.1232 26.1191 48.0036C26.5798 47.844 26.9945 47.966 27.2677 48.3962Z" fill="#C8102E" stroke="black" stroke-width="0.1"/>
<path d="M31.1518 48.608C31.0077 47.9536 31.5989 47.3899 32.2171 47.4754C32.6151 47.5304 32.6146 48.2108 32.2596 48.1206C31.786 48.0002 31.3844 48.1565 31.1518 48.608Z" fill="#C8102E" stroke="black" stroke-width="0.1"/>
<path d="M40.8372 48.4481C40.8911 47.7813 40.228 47.2954 39.6267 47.4566C39.2395 47.5605 39.3327 48.2351 39.6724 48.1018C40.1257 47.9239 40.5453 48.0292 40.8372 48.4481Z" fill="#C8102E" stroke="black" stroke-width="0.1"/>
<path d="M30.002 47.2195C29.899 46.5582 30.5879 45.9891 31.1997 46.1094C31.5936 46.1871 31.4871 46.9061 31.1383 46.796C30.673 46.6489 30.2622 46.7821 30.002 47.2195Z" fill="#C8102E" stroke="black" stroke-width="0.1"/>
<path d="M30.9033 45.317C30.9418 44.6495 31.7368 44.2238 32.3108 44.4588C32.6802 44.6101 32.4241 45.2942 32.1058 45.1195C31.681 44.8864 31.2505 44.9383 30.9033 45.317Z" fill="#C8102E" stroke="black" stroke-width="0.1"/>
<path d="M45.7265 48.9566C45.5824 48.3022 46.1735 47.7385 46.7917 47.824C47.1899 47.8792 47.1893 48.5596 46.8343 48.4694C46.3607 48.349 45.959 48.5053 45.7265 48.9566Z" fill="#C8102E" stroke="black" stroke-width="0.1"/>
<path d="M55.3465 48.6436C55.4955 47.9902 54.9084 47.4224 54.2896 47.5039C53.8913 47.5563 53.8867 48.2367 54.2423 48.1488C54.7169 48.0316 55.1175 48.1905 55.3465 48.6436Z" fill="#C8102E" stroke="black" stroke-width="0.1"/>
<path d="M44.4874 47.4401C44.386 46.7786 45.0128 46.2507 45.6242 46.3726C46.0179 46.451 45.9731 47.1302 45.6247 47.0191C45.1598 46.871 44.7487 47.0033 44.4874 47.4401Z" fill="#C8102E" stroke="black" stroke-width="0.1"/>
<path d="M44.8457 45.6346C44.8587 44.966 45.5673 44.5425 46.1498 44.7575C46.5247 44.896 46.3646 45.559 46.0397 45.3955C45.6063 45.1772 45.1782 45.2441 44.8457 45.6346Z" fill="#C8102E" stroke="black" stroke-width="0.1"/>
<path d="M47.2672 23.8022C45.631 24.3354 39.3017 26.7139 38.1392 27.083C36.9768 27.4521 36.374 27.5342 35.6851 29.0515" stroke="black" stroke-width="0.1"/>
<path d="M44.2103 22.0386C40.0769 24.5812 36.7185 26.7958 35.7712 28.8873C34.824 30.9788 34.8886 32.2501 32.585 32.6191" stroke="black" stroke-width="0.1"/>
<path d="M25.9546 36.5562C26.988 35.4079 29.1407 34.0136 31.2074 33.9316C30.8045 34.5554 30.4587 35.2142 30.174 35.9001" stroke="black" stroke-width="0.1"/>
<path fill-rule="evenodd" clip-rule="evenodd" d="M37.978 28.5495C39.1745 27.8214 41.3717 26.8229 43.5054 25.9326C45.7658 24.9894 47.9491 24.1701 48.7862 23.9247L48.7625 23.8438C47.9205 24.0906 45.7335 24.9116 43.4729 25.8548C41.2129 26.7978 38.8736 27.8654 37.7289 28.606L37.7608 28.6826C42.419 27.676 46.9676 26.7716 50.6647 26.4616C45.796 27.2275 40.1209 28.7415 36.8317 30.0787L36.8502 30.1599C38.5255 30.0576 40.7612 30.2007 42.9172 30.5541C44.8324 30.8679 46.6807 31.347 48.0161 31.9649C46.9466 31.6693 45.1627 31.3822 43.2405 31.1831C40.9629 30.9472 38.4841 30.8341 36.7581 30.9779L36.7468 31.0594C38.7185 31.796 41.4231 33.2958 43.7934 35.2302C42.9986 34.7284 41.9449 34.2023 40.8089 33.7287C39.2086 33.0615 37.44 32.4964 35.9935 32.2496L35.9621 32.3257C36.5385 32.7323 37.3752 33.5796 38.1489 34.5929C38.8471 35.5072 39.4911 36.5529 39.8459 37.5268C39.364 36.8098 38.6584 35.939 37.8736 35.1326C36.9843 34.2189 35.99 33.3844 35.1008 32.9506L34.9923 32.8977L35.0443 33.0067C35.3644 33.6774 35.6328 34.7898 35.794 35.9624C35.9234 36.9034 35.9834 37.8795 35.9465 38.6922C35.8637 38.0373 35.6565 37.2844 35.3967 36.5222C35.057 35.526 34.6259 34.5096 34.2598 33.6688L34.2286 33.5971L34.1858 33.6626C33.2433 35.1067 32.3409 37.5836 32.0659 39.3099C31.9547 38.4696 32.03 37.4852 32.18 36.5683C32.3464 35.5506 32.6041 34.62 32.7971 34.0686L32.8404 33.9449L32.733 34.0202C31.9099 34.5979 30.6153 35.9959 30.0977 36.6532L30.1639 36.7054C30.6576 36.0785 31.8592 34.7778 32.6744 34.167C32.486 34.7323 32.2519 35.6059 32.0967 36.5547C31.9296 37.5766 31.8534 38.6895 32.027 39.5989L32.1102 39.5962C32.3215 37.9047 33.2427 35.2969 34.2139 33.7747C34.5729 34.6007 34.9881 35.585 35.3169 36.5495C35.6557 37.5432 35.9012 38.5117 35.9012 39.2631L35.9852 39.2681C36.0935 38.3609 36.0393 37.1267 35.8776 35.9509C35.7243 34.8366 35.4739 33.7697 35.1707 33.0802C36.0196 33.5208 36.9621 34.317 37.8131 35.1914C38.6995 36.1022 39.4833 37.0943 39.9551 37.85L40.0312 37.8155C39.7062 36.7423 38.9924 35.5586 38.2159 34.5417C37.5016 33.6062 36.7312 32.808 36.156 32.3642C37.5604 32.624 39.2446 33.1679 40.7765 33.8066C42.3739 34.4726 43.8007 35.2395 44.5705 35.8914L44.6258 35.8277C42.1489 33.6284 39.1407 31.8962 36.9526 31.0475C38.6603 30.927 41.0377 31.0397 43.2319 31.267C45.5088 31.5028 47.5812 31.8613 48.5012 32.2077L48.5362 32.1312C47.1736 31.3896 45.0906 30.8248 42.9308 30.4708C40.8775 30.1343 38.7503 29.9877 37.0995 30.0622C40.6654 28.6515 46.7846 27.0681 51.751 26.3866L51.7431 26.3027C47.9234 26.5048 43.0189 27.4631 37.978 28.5495Z" fill="black"/>
<path d="M26.9878 22.8179C27.2953 21.8501 28.5499 21.5932 29.5695 21.3022" stroke="black" stroke-width="0.1"/>
<path d="M28.6884 23.5355C27.8274 23.474 27.6743 23.1825 28.1502 22.8588C28.4516 22.6537 29.0759 22.3256 29.5066 22.2846C29.3989 22.2642 29.0975 22.1821 28.9468 22.1617C29.3989 21.9771 30.1524 21.7105 30.4107 21.4644" stroke="black" stroke-width="0.1"/>
<path d="M27.6871 21.9773C27.3577 22.0057 27.0119 22.0319 26.6646 22.0487" stroke="black" stroke-width="0.1"/>
<path d="M25.4591 26.7959C25.249 26.8064 25.0401 26.8328 24.834 26.8748" stroke="black" stroke-width="0.1"/>
<path d="M21.9578 37.2498C21.9494 37.8395 22.1616 38.4112 22.5528 38.8527C22.8973 39.2217 25.0072 39.3449 25.0932 38.6476" stroke="black" stroke-width="0.1"/>
<path d="M22.2729 36.3717C23.0049 37.1509 25.373 36.6792 25.373 36.1052" stroke="black" stroke-width="0.1"/>
<path d="M22.3159 33.8701C22.5743 34.4853 25.3299 35.0389 25.3729 34.3212" stroke="black" stroke-width="0.1"/>
<path d="M22.8975 31.9221C22.9191 32.6398 25.4286 33.106 25.5025 32.5783" stroke="black" stroke-width="0.1"/>
<path d="M23.7368 30.3022C23.8445 30.8558 25.5023 31.389 25.7391 31.1429" stroke="black" stroke-width="0.1"/>
<path d="M24.4473 28.949C24.5257 29.3378 25.7174 29.6871 26.1265 29.5436" stroke="black" stroke-width="0.1"/>
<path d="M25.0454 27.45C25.2896 27.7324 25.7635 27.9952 26.5788 28.1286" stroke="black" stroke-width="0.1"/>
<path d="M20.917 24.5404C20.9384 24.1097 21.3689 24.0483 21.3045 23.6177" stroke="black" stroke-width="0.1"/>
<path d="M25.4375 26.3038C25.5882 26.5293 25.9757 27.0009 26.0187 27.3495C26.2341 27.1854 26.4062 26.8368 26.4708 26.6728C26.6764 26.8438 26.8263 27.0723 26.9013 27.3289C26.9876 27.0829 27.1383 26.6522 27.1597 26.3857C27.4681 26.4541 27.7558 26.5946 27.9993 26.7958C28.0424 26.5293 27.9133 26.1806 27.6979 26.0371C27.9359 26.047 28.1726 25.9976 28.3868 25.8935C28.2361 25.6886 27.9993 25.4219 27.7625 25.2989C27.9779 25.2374 28.2792 24.9915 28.4084 24.8889C28.2147 24.8069 27.8702 24.6222 27.6549 24.5198C27.784 24.3967 27.8917 24.1508 27.9563 23.9661" stroke="black" stroke-width="0.1"/>
<path d="M21.8641 22.9717C21.7243 22.9717 21.6596 23.2792 21.918 23.474C22.1038 23.6142 22.1009 24.1917 21.7673 24.3353" stroke="black" stroke-width="0.1"/>
<path d="M26.9016 27.3289C25.9545 29.4203 25.0825 33.3881 25.3839 36.2588" stroke="black" stroke-width="0.1"/>
<path d="M26.4062 40.1857C26.4062 40.6164 27.1168 40.6983 27.0952 39.6731" stroke="black" stroke-width="0.1"/>
<path d="M27.0308 40.1855C27.1168 40.5546 27.8488 40.6366 27.698 39.5498" stroke="black" stroke-width="0.1"/>
<path d="M26.7295 40.4727C26.7725 41.2723 27.3107 41.2314 27.3537 40.4727" stroke="black" stroke-width="0.1"/>
<path d="M27.7197 39.919C27.9349 40.4112 28.5377 40.1651 28.3656 39.0784" stroke="black" stroke-width="0.1"/>
<path d="M28.3872 39.5499C28.6241 39.9601 29.1838 39.632 29.2484 38.9143" stroke="black" stroke-width="0.1"/>
<path d="M25.5884 37.2739C25.219 37.6592 24.7952 38.5242 25.3084 39.3449C25.61 39.8267 26.4388 40.0934 26.5249 39.8063" stroke="black" stroke-width="0.1"/>
<path d="M25.3086 39.345C24.9749 39.3963 24.4842 40.0775 24.7274 40.729C24.8997 41.1903 25.89 41.4673 26.0407 41.1289" stroke="black" stroke-width="0.1"/>
<path d="M35.4268 39.9189C36.5031 40.042 37.9241 39.3449 38.0102 37.9504" stroke="black" stroke-width="0.1"/>
<path d="M37.8809 38.6066C38.4837 38.9757 39.7324 39.0988 40.249 38.1555" stroke="black" stroke-width="0.1"/>
<path d="M38.4408 38.8938C37.881 40.1241 37.3739 41.4313 38.5269 42.3797C39.4741 43.159 40.1777 41.9973 41.3257 43.159C41.6701 43.5075 41.261 44.1636 37.7949 46.0706" stroke="black" stroke-width="0.1"/>
<path d="M21.2182 37.3252C21.4443 37.7865 21.4227 38.6888 20.9922 38.5656" stroke="black" stroke-width="0.1"/>
<path d="M17.8164 47.5264C18.5483 46.4602 19.4126 47.3218 20.0338 47.1368" stroke="black" stroke-width="0.1"/>
<path d="M23.5323 23.156C23.403 23.4534 23.7468 23.8694 24.0705 23.9046C24.4472 23.9456 24.9854 23.7098 24.8671 23.3304" fill="white"/>
<path d="M23.5323 23.156C23.403 23.4534 23.7468 23.8694 24.0705 23.9046C24.4472 23.9456 24.9854 23.7098 24.8671 23.3304" stroke="black" stroke-width="0.1"/>
<path d="M23.1558 23.187C23.3495 22.9306 25.6101 23.7406 26.5142 23.1664" stroke="black" stroke-width="0.1"/>
<path d="M15.836 30.8354C15.7499 31.0198 15.7822 31.5633 16.116 31.8607" stroke="black" stroke-width="0.1"/>
<path d="M31.8101 47.3624C31.9824 47.1575 32.6198 46.9504 33.091 47.0652C33.5539 47.1779 34.3827 47.0242 34.9209 46.8191" stroke="black" stroke-width="0.1"/>
<path d="M26.9015 27.3289C26.6863 29.3383 27.1707 32.4244 28.4086 33.7983" stroke="black" stroke-width="0.1"/>
<path d="M26.2515 29.113C26.2869 30.9011 26.7466 33.0241 27.6554 34.1927" stroke="black" stroke-width="0.1"/>
<path d="M25.7539 31.0615C25.9328 32.4147 26.3356 33.7754 26.9722 34.6591" stroke="black" stroke-width="0.1"/>
<path d="M25.4419 33.1155C25.6569 33.9185 25.9596 34.6555 26.3527 35.2098" stroke="black" stroke-width="0.1"/>
<path d="M25.3311 35.0588C25.452 35.3173 25.5955 35.5646 25.7599 35.7979" stroke="black" stroke-width="0.1"/>
<path d="M26.8586 28.5796C26.7942 29.2153 26.3851 29.7073 26.019 29.9944" stroke="black" stroke-width="0.1"/>
<path d="M26.9016 29.4614C26.8371 30.097 26.385 30.6712 25.793 30.948" stroke="black" stroke-width="0.1"/>
<path d="M27.0308 30.343C26.9662 30.9786 26.3203 31.7579 25.5884 32.1063" stroke="black" stroke-width="0.1"/>
<path d="M27.2032 31.2249C27.1388 31.8606 26.2991 32.8242 25.4443 33.1335" stroke="black" stroke-width="0.1"/>
<path d="M27.472 32.1064C27.2245 32.9677 26.2342 33.9725 25.3623 34.1981" stroke="black" stroke-width="0.1"/>
<path d="M27.8597 32.9883C27.795 33.6238 26.4711 34.9157 25.3301 35.2848" stroke="black" stroke-width="0.1"/>
<path d="M19.9587 36.9048C20.0986 37.4891 19.6357 38.0223 19.3989 37.8787" stroke="black" stroke-width="0.1"/>
<path d="M22.4235 38.9348C20.1845 38.4836 18.5198 37.732 17.6012 35.982C17.3643 35.531 17.9887 35.4079 17.9457 34.9978" stroke="black" stroke-width="0.1"/>
<path d="M17.2785 32.5578C16.891 31.9017 16.8048 31.184 17.0201 30.7329" stroke="black" stroke-width="0.1"/>
<path d="M18.8285 36.2075C18.8285 36.5767 18.3656 37.0482 18.2041 36.874" stroke="black" stroke-width="0.1"/>
<path d="M22.5526 38.8528C22.2946 39.4498 22.7936 40.5898 23.8887 40.9818" stroke="black" stroke-width="0.1"/>
<path d="M24.7274 40.729C24.5982 40.821 24.5043 40.9545 24.4614 41.1073" stroke="black" stroke-width="0.1"/>
<path d="M25.6102 41.949C25.4163 42.2566 24.6629 42.0311 24.5122 41.7644" stroke="black" stroke-width="0.1"/>
<path d="M22.58 45.3118C21.6672 46.1666 20.7373 46.2148 19.6253 46.337C18.5058 46.4601 18.1937 45.9782 17.7954 46.378" stroke="black" stroke-width="0.1"/>
<path d="M29.8723 38.8938C30.0016 39.468 29.9584 40.0422 29.4418 40.9034C29.1566 41.3786 29.4268 41.8912 29.4759 42.5035" stroke="black" stroke-width="0.1"/>
<path d="M34.8296 40.5546C35.3231 40.1836 35.6488 39.5716 35.8142 39.0989" stroke="black" stroke-width="0.1"/>
<path d="M33.2646 40.7785C33.8261 40.0469 33.9138 39.0564 33.4894 38.2375" stroke="black" stroke-width="0.1"/>
<path d="M30.6353 41.6749C30.9662 41.1881 31.1642 40.4948 31.1642 39.5908" stroke="black" stroke-width="0.1"/>
<path d="M23.9521 42.9949C24.0382 43.4152 24.7057 43.5997 24.8134 43.3948" stroke="black" stroke-width="0.1"/>
<path d="M29.291 38.053C29.291 38.463 28.8605 38.7707 28.5375 38.5246C28.5805 39.1192 28.1286 39.3039 27.8056 39.0168C27.8702 39.8575 27.1383 39.9395 26.6646 39.2833C26.1264 41.8054 24.3181 43.6918 24.1888 44.9221C24.1458 45.2092 22.9939 45.1273 23.2953 44.2866" stroke="black" stroke-width="0.1"/>
<path d="M37.1059 40.3701C36.46 40.2933 35.3241 40.1043 34.8296 40.5545" stroke="black" stroke-width="0.1"/>
<path d="M37.3646 42.2976C36.7676 42.5231 36.2853 42.6024 35.9009 42.5755" stroke="black" stroke-width="0.1"/>
<path d="M39.0112 44.0187C39.6061 43.9965 40.2197 43.6197 40.4645 42.6873" stroke="black" stroke-width="0.1"/>
<path d="M37.8589 43.5462C38.3581 43.4276 38.7819 43.0997 39.022 42.6462" stroke="black" stroke-width="0.1"/>
<path d="M40.7873 44.2252C40.4125 44.1123 39.6213 43.9634 39.0112 44.0188" stroke="black" stroke-width="0.1"/>
<path d="M38.656 45.5989C38.8928 45.4757 38.5053 44.9221 38.1177 44.9221" stroke="black" stroke-width="0.1"/>
<path d="M34.1353 46.5215C34.6835 46.2976 35.2096 46.0231 35.7068 45.7014" stroke="black" stroke-width="0.1"/>
<path d="M37.2246 45.4963C37.5169 45.5892 37.9458 45.9474 37.795 46.0705" stroke="black" stroke-width="0.1"/>
<path d="M39.9907 37.8276C40.3352 38.4018 40.9809 38.7709 41.8421 38.4018C41.9027 38.5748 42.1074 38.7522 42.3622 38.894" stroke="black" stroke-width="0.1"/>
<path d="M44.7484 37.6841C45.1791 38.0122 44.4256 39.2219 43.3062 39.1809" stroke="black" stroke-width="0.1"/>
<path d="M50.7766 45.0864C50.926 45.4276 51.4871 45.3938 51.7025 45.0864C51.9483 44.735 52.3914 43.6509 52.133 41.4774C51.8746 39.304 49.6788 39.0169 47.1384 38.5247C44.598 38.0326 43.9521 37.2534 43.4355 35.8181" stroke="black" stroke-width="0.1"/>
<path d="M51.207 43.9586C51.4222 44.3071 52.025 44.2251 52.1111 43.8765" stroke="black" stroke-width="0.1"/>
<path d="M51.2715 42.7898C51.5945 42.9743 52.2188 42.9127 52.1971 42.5027" stroke="black" stroke-width="0.1"/>
<path d="M51.0996 41.498C51.3794 41.498 52.1329 41.539 52.0899 41.2109" stroke="black" stroke-width="0.1"/>
<path d="M50.3892 40.6572C50.626 40.4931 51.2934 39.7959 50.9273 39.5908" stroke="black" stroke-width="0.1"/>
<path d="M49.1836 40.5343C49.5925 40.3087 50.0446 39.1399 49.5495 39.0374" stroke="black" stroke-width="0.1"/>
<path d="M47.2246 40.3086C47.8705 40.0625 48.4733 38.7912 48.0428 38.7092" stroke="black" stroke-width="0.1"/>
<path d="M45.1362 40.0215C46.191 39.755 46.514 38.4017 46.1049 38.2786" stroke="black" stroke-width="0.1"/>
<path d="M46.5786 46.0911C47.6773 46.1748 48.2794 46.7268 48.7099 46.9523" stroke="black" stroke-width="0.1"/>
<path d="M46.3203 34.9568C47.3213 34.8646 48.3053 36.3227 49.6696 37.4126" stroke="black" stroke-width="0.1"/>
<path d="M57.3579 28.4979C57.5462 27.8627 57.7041 27.2659 57.7734 26.9189" stroke="black" stroke-width="0.1"/>
<path d="M47.2007 47.3175C47.4576 47.2769 47.7175 47.2576 47.9777 47.26" stroke="black" stroke-width="0.1"/>
<path d="M56.955 26.4268C56.8095 26.8193 56.4968 27.6182 56.1851 28.3862" stroke="black" stroke-width="0.1"/>
<path d="M29.875 33.1799C27.9762 33.8034 26.0099 35.0006 24.7485 37.2123C25.4374 37.3763 26.7722 37.2123 27.375 37.0072C27.4181 37.5404 27.4181 38.2375 27.4181 38.6887C28.0209 38.2375 28.7528 37.5814 29.3126 37.4174C29.2694 37.9504 29.2694 38.8937 29.2694 39.2629C30.0876 38.4426 31.6375 38.3607 32.0682 39.5908C32.4126 37.7865 35.2543 37.7045 35.9432 39.2629C36.7184 37.8275 38.699 37.2943 39.9907 37.8275C40.5503 36.3101 43.0045 35.49 44.5976 35.859C44.0696 35.1638 44.1639 34.3951 44.5966 33.7345" stroke="black" stroke-width="0.1"/>
<path d="M23.7871 23.2263L24.6316 23.375C24.6316 23.375 24.0372 24.1336 23.7871 23.2263Z" fill="black" stroke="black" stroke-width="0.1" stroke-linejoin="round"/>
</g>
<defs>
<clipPath id="clip0_81_41664">
<rect width="53" height="35" fill="white" transform="translate(9 17)"/>
</clipPath>
</defs>
</svg>
